<?xml version="1.0" encoding="utf-8"?>
<!-- Generator: Adobe Illustrator 19.0.1, SVG Export Plug-In . SVG Version: 6.00 Build 0)  -->
<svg version="1.1" xmlns="http://www.w3.org/2000/svg" xmlns:xlink="http://www.w3.org/1999/xlink" x="0px" y="0px"
	 viewBox="0 0 314.5 347.1" style="enable-background:new 0 0 314.5 347.1;" xml:space="preserve">
<style type="text/css">
	.st0{fill:#444444;}
	.st1{display:none;}
	.st2{display:inline;fill:none;stroke:#BCBA40;stroke-width:4;stroke-linecap:round;stroke-linejoin:round;stroke-miterlimit:10;}
	.st3{display:inline;}
	.st4{fill:none;stroke:#BCBA40;stroke-width:4;stroke-linecap:round;stroke-linejoin:round;stroke-miterlimit:10;}
	.st5{fill:none;}
	.st6{fill:#FFFFFF;}
	.st7{font-family:'HelveticaNeue-Medium';}
	.st8{font-size:36px;}
	.st9{fill:none;stroke:#BCBA40;stroke-width:4;stroke-linecap:round;stroke-miterlimit:10;stroke-dasharray:12.1049,12.1049;}
	.st10{fill:#444444;stroke:#BCBA40;}
	.st11{fill:#444444;stroke:#BCBA40;stroke-linecap:round;stroke-linejoin:round;stroke-miterlimit:10;}
	.st12{fill:#444444;stroke:#BCBA40;stroke-miterlimit:10;}
	.st13{fill:none;stroke:#BCBA40;stroke-miterlimit:10;}
	.st14{display:inline;fill:none;stroke:#BCBA40;stroke-miterlimit:10;}
	.st15{fill:none;stroke:#BCBA40;stroke-width:0.5;}
	.st16{fill:none;stroke:#BCBA40;stroke-width:0.75;}
	.st17{fill:#BCBA40;}
</style>
<g id="Layer_5">
	<rect class="st0" width="314.5" height="347.1"/>
</g>
<g id="Layer_1">
	<g>
		<g class="st1">
			<path class="st2" d="M130.1,105c0.7-0.8,47.6-14.8,47.6-14.8l48.9,16.2"/>
			<line class="st2" x1="177.4" y1="52.9" x2="129.6" y2="104.6"/>
			<line class="st2" x1="177.8" y1="53.2" x2="175.2" y2="27.3"/>
			<path class="st2" d="M129.1,39.9c3.1-2.1,46.1-12.6,46.1-12.6l51.3,12.6l-48.7,13.6L129.1,39.9z"/>
			<polyline class="st2" points="226.6,39.9 226.6,106.3 177.8,120.6 177.8,53.5 			"/>
			<polyline class="st2" points="129.1,39.9 129.1,104.9 177.8,120.6 			"/>
			<g class="st3">
				<path class="st4" d="M171.9,178.1c0.7-0.8,47.6-14.8,47.6-14.8l48.9,16.2"/>
				<line class="st4" x1="219.1" y1="125.9" x2="171.3" y2="177.6"/>
				<line class="st4" x1="219.6" y1="126.3" x2="217" y2="100.4"/>
				<path class="st4" d="M170.9,112.9c3.1-2.1,46.1-12.6,46.1-12.6l51.3,12.6l-48.7,13.6L170.9,112.9z"/>
				<polyline class="st4" points="268.3,112.9 268.3,179.3 219.6,193.6 219.6,126.6 				"/>
				<polyline class="st4" points="170.9,112.9 170.9,177.9 219.6,193.6 				"/>
			</g>
			<g class="st3">
				<path class="st4" d="M81.4,167.9c0.7-0.8,47.6-14.8,47.6-14.8l48.9,16.2"/>
				<line class="st4" x1="128.6" y1="115.8" x2="80.8" y2="167.5"/>
				<line class="st4" x1="129.1" y1="116.2" x2="126.5" y2="90.2"/>
				<path class="st4" d="M80.4,102.8c3.1-2.1,46.1-12.6,46.1-12.6l51.3,12.6l-48.7,13.6L80.4,102.8z"/>
				<polyline class="st4" points="177.8,102.8 177.8,169.2 129.1,183.5 129.1,116.4 				"/>
				<polyline class="st4" points="80.4,102.8 80.4,167.8 129.1,183.5 				"/>
			</g>
		</g>
		<rect x="27.5" y="235.6" class="st5" width="293.1" height="90"/>
		<text transform="matrix(1 0 0 1 27.4601 261.2939)"><tspan x="0" y="0" class="st6 st7 st8">BSMS Anatomy </tspan><tspan x="0" y="43.2" class="st6 st7 st8">Labs Interface</tspan></text>
		<g>
			<path class="st9" d="M296.3,337.4H16.1c-6.6,0-12-5.4-12-12V25.9c0-6.6,5.4-12,12-12h280.2c6.6,0,12,5.4,12,12v299.5
				C308.3,332,302.9,337.4,296.3,337.4z"/>
		</g>
	</g>
</g>
<g id="Layer_6">
</g>
<g id="Layer_10">
</g>
<g id="Layer_4">
</g>
<g id="Layer_9">
</g>
<g id="Layer_11">
</g>
<g id="Layer_12">
</g>
<g id="Layer_14">
</g>
<g id="Layer_14_copy">
	<g>
		<path class="st10" d="M120.3,87.1c1.3-0.9,3-1.6,5-2.1c9.7-2.3,11.8-7.2,20.5-9c0.3-1.8-0.4-4.2,0.9-5.5c-0.6-0.8-1.4-1.5-1.6-3.2
			c-0.1-1.5,0-3.7-1.9-4.3c-0.8-0.2-1-4.2-2.3-6.2c-1.4-2-1.8-5.9,2-3.7c-1.3-9.4,1.4-19.6,13.3-19.6c12,0,14.5,10.3,13.3,19.6
			c3.7-2.3,3.4,1.7,2,3.7c-1.4,2-1.5,6-2.3,6.2c-1.9,0.6-1.8,2.8-2,4.3c-0.2,1.7-0.9,2.4-1.5,3.2c1.3,1.3,0.6,3.7,0.9,5.5
			c8.7,1.8,10.8,6.7,20.6,9c7,1.6,9.3,6,10.2,12.1c1,6.4,5.8,11.7,5.7,18.3c-7.2,3.5-5.7,8.8-16.4,5c-0.4,2.9,0.4,5.8-1.5,9.8
			c-2.7,5.7-1.8,11.7-4.3,17.5c-2.8,6.3,2.8,8.5,3.6,16.7c1,10,7.8,18.1,6.9,28.8c-0.7,8.3,0.7,15.9-1.4,25.9h-31.7
			c-0.5-3-0.7-5.3-0.9-7.6c0-0.6-2.4-0.6-2.4,0c-0.2,2.3-0.4,4.6-0.9,7.6h-31.7c-2.1-10-0.7-17.6-1.5-25.9
			c-0.9-10.6,5.9-18.8,6.9-28.8c0.8-8.2,6.4-10.4,3.7-16.7c-2.5-5.7-1.5-11.8-4.3-17.5c-1.9-4-1.1-6.9-1.5-9.8"/>
		<g>
			<path class="st11" d="M129.4,96.1c0,0,5.9,16.4,14.6,12.5c8.7-3.9,10.1-4.3,9.8-2.2c-0.3,2.1,0.6,29.6,0.6,29.6s-5.5-1.6-6.7-0.6
				c-1.2,0.9-9.1,11.6-10.5,12c-1.4,0.4-5.5-2-5.1-3c0.4-1,4.4,1.7,4.8,1c0.4-0.7,4.8-4.4,5.4-5.7c0.6-1.3-5.7,7.4-10.7-1.7
				c0,0-1.4-4.1,2.2-1c3.6,3.2,10.5,0.5,12.3-4.2c0,0-5.2,0.9-7.5,2.5c-2.3,1.5-10.1-7.3-9.9-11.9c0.1-2.7,2.8,2.8,4.7,5.8
				c1.7,2.7,1.5,4.5,7.5,1.9c6.1-2.6,5.5-6,5.5-6s-5,1.3-7.1,2.7c-2.1,1.4-12.1-7.4-11.5-12.8s3.3,3.5,3.5,4.6
				c0.2,1.1,5.4,10.9,17,0.4c0,0,3.7-4-0.1-3c-3.8,1-9.9,10.3-20.1-10.3c0,0-1.1-5.1,1.4-1.5c2.5,3.6,3.5,9.2,6.4,10.2
				c2.9,1,9.8,3.6,14.1-2.2c4.3-5.7,2.1-6.6-2.3-3.8c-4.4,2.8-8.9,3.5-12.6,0C131.3,106.2,126.4,98.9,129.4,96.1z"/>
			<path class="st11" d="M179.5,96.1c0,0-5.9,16.4-14.6,12.5c-8.7-3.9-10.1-4.3-9.8-2.2c0.3,2.1-0.6,29.6-0.6,29.6s5.5-1.6,6.7-0.6
				c1.2,0.9,9.1,11.6,10.5,12c1.4,0.4,5.5-2,5.1-3c-0.4-1-4.4,1.7-4.8,1c-0.4-0.7-4.8-4.4-5.4-5.7c-0.6-1.3,5.7,7.4,10.7-1.7
				c0,0,1.4-4.1-2.2-1c-3.6,3.2-10.5,0.5-12.3-4.2c0,0,5.2,0.9,7.5,2.5c2.3,1.5,10.1-7.3,9.9-11.9c-0.1-2.7-2.8,2.8-4.7,5.8
				c-1.7,2.7-1.5,4.5-7.5,1.9c-6.1-2.6-5.5-6-5.5-6s5,1.3,7.1,2.7c2.1,1.4,12.1-7.4,11.5-12.8s-3.3,3.5-3.5,4.6
				c-0.2,1.1-5.4,10.9-17,0.4c0,0-3.7-4,0.1-3c3.8,1,9.9,10.3,20.1-10.3c0,0,1.1-5.1-1.4-1.5c-2.5,3.6-3.5,9.2-6.4,10.2
				c-2.9,1-9.8,3.6-14.1-2.2c-4.3-5.7-2.1-6.6,2.3-3.8c4.4,2.8,8.9,3.5,12.6,0C177.5,106.2,182.5,98.9,179.5,96.1z"/>
			<path class="st11" d="M160.9,126c-0.8-2.4-2.3-0.5-2.6-1c-0.3-0.5,1.1-1.2,0.8-1.5c-0.3-0.3-2.5,0.3-2.6,1.7
				c-0.1,1.4-1.1,1.4-1.1,1.4s-1,0-1.1-1.4c-0.1-1.4-2.4-2.1-2.6-1.7c-0.3,0.3,1.1,1,0.8,1.5c-0.3,0.5-1.8-1.4-2.6,1
				c-0.8,2.4,1.8,1.1,2.4,2c0.6,0.8-0.9,2.1,0.1,2.8c0.9,0.7,2.2,0.5,2.4-0.4c0.2-0.9,0,3.4,0.7,3.4c0.8,0,0.6-4.3,0.7-3.4
				c0.2,0.9,1.5,1.1,2.4,0.4c0.9-0.7-0.5-2,0.1-2.8C159.1,127.2,161.7,128.4,160.9,126z"/>
			<path class="st11" d="M161.8,118.7c-0.9-2.8-2.7-0.6-3-1.2c-0.3-0.6,1.3-1.4,0.9-1.8c-0.3-0.4-2.9,0.4-3.1,2
				c-0.2,1.6-1.3,1.6-1.3,1.6s-1.1,0-1.3-1.6c-0.2-1.6-2.7-2.4-3.1-2c-0.3,0.4,1.3,1.2,0.9,1.8c-0.3,0.6-2.1-1.6-3,1.2
				c-0.9,2.8,2.1,1.3,2.7,2.3c0.7,0.9-1,2.4,0.1,3.2c1.1,0.8,2.6,0.6,2.8-0.4c0.2-1,0,4,0.9,4c0.9,0,0.6-5,0.9-4
				c0.2,1,1.8,1.3,2.8,0.4c1.1-0.8-0.6-2.3,0.1-3.2C159.8,120.1,162.8,121.5,161.8,118.7z"/>
			<path class="st11" d="M161.8,111.1c-0.9-2.8-2.7-0.6-3-1.2c-0.3-0.6,1.3-1.4,0.9-1.8c-0.3-0.4-2.9,0.4-3.1,2
				c-0.2,1.6-1.3,1.6-1.3,1.6s-1.1,0-1.3-1.6c-0.2-1.6-2.7-2.4-3.1-2c-0.3,0.4,1.3,1.2,0.9,1.8c-0.3,0.6-2.1-1.6-3,1.2
				c-0.9,2.8,2.1,1.3,2.7,2.3c0.7,0.9-1,2.4,0.1,3.2c1.1,0.8,2.6,0.6,2.8-0.4c0.2-1,0,4,0.9,4c0.9,0,0.6-5,0.9-4
				c0.2,1,1.8,1.3,2.8,0.4c1.1-0.8-0.6-2.3,0.1-3.2C159.8,112.4,162.8,113.9,161.8,111.1z"/>
			<path class="st11" d="M161.8,103.4c-0.9-2.8-2.7-0.6-3-1.2c-0.3-0.6,1.3-1.4,0.9-1.8c-0.3-0.4-2.9,0.4-3.1,2
				c-0.2,1.6-1.3,1.6-1.3,1.6s-1.1,0-1.3-1.6c-0.2-1.6-2.7-2.4-3.1-2c-0.3,0.4,1.3,1.2,0.9,1.8c-0.3,0.6-2.1-1.6-3,1.2
				c-0.9,2.8,2.1,1.3,2.7,2.3c0.7,0.9-1,2.4,0.1,3.2c1.1,0.8,2.6,0.6,2.8-0.4c0.2-1,0,4,0.9,4c0.9,0,0.6-5,0.9-4
				c0.2,1,1.8,1.3,2.8,0.4c1.1-0.8-0.6-2.3,0.1-3.2C159.8,104.8,162.8,106.2,161.8,103.4z"/>
			<path class="st11" d="M161.8,95.8c-0.9-2.8-2.7-0.6-3-1.2c-0.3-0.6,1.3-1.4,0.9-1.8c-0.3-0.4-2.9,0.4-3.1,2
				c-0.2,1.6-1.3,1.6-1.3,1.6s-1.1,0-1.3-1.6c-0.2-1.6-2.7-2.4-3.1-2c-0.3,0.4,1.3,1.2,0.9,1.8c-0.3,0.6-2.1-1.6-3,1.2
				c-0.9,2.8,2.1,1.3,2.7,2.3c0.7,0.9-1,2.4,0.1,3.2c1.1,0.8,2.6,0.6,2.8-0.4c0.2-1,0,4,0.9,4c0.9,0,0.6-5,0.9-4
				c0.2,1,1.8,1.3,2.8,0.4c1.1-0.8-0.6-2.3,0.1-3.2C159.8,97.1,162.8,98.6,161.8,95.8z"/>
			<path class="st11" d="M161.8,88.1c-0.9-2.8-2.7-0.6-3-1.2c-0.3-0.6,1.3-1.4,0.9-1.8c-0.3-0.4-2.9,0.4-3.1,2
				c-0.2,1.6-1.3,1.6-1.3,1.6s-1.1,0-1.3-1.6c-0.2-1.6-2.7-2.4-3.1-2c-0.3,0.4,1.3,1.2,0.9,1.8c-0.3,0.6-2.1-1.6-3,1.2
				c-0.9,2.8,2.1,1.3,2.7,2.3c0.7,0.9-1,2.4,0.1,3.2c1.1,0.8,2.6,0.6,2.8-0.4c0.2-1,0,4,0.9,4c0.9,0,0.6-5,0.9-4
				c0.2,1,1.8,1.3,2.8,0.4c1.1-0.8-0.6-2.3,0.1-3.2C159.8,89.5,162.8,90.9,161.8,88.1z"/>
			<path class="st11" d="M160.9,78.1c-0.6,1.2-3.6,1.9-4.3,2.6c-0.7,0.7-1.2,3.7-1.2,3.7s-0.5-3.1-1.2-3.7c-0.7-0.7-3.7-1.3-4.4-2.6
				c-0.6-1.2-1.9-0.3-1.7,0.6c0.2,0.9,0,2.1,0.9,2.4c0.9,0.3,2.4,0.9,2.7,2c0.3,1.1-0.7,1.2,0.4,2c1.1,0.8,1.5,1,1.7,1.6
				c0.2,0.5,0,2.1,1.6,2.1c1.5,0,1.4-1.6,1.6-2.1c0.2-0.5,0.6-0.8,1.7-1.6c1.1-0.8,0.1-0.9,0.4-2c0.3-1.1,1.8-1.7,2.7-2
				c0.9-0.3,0.7-1.5,0.9-2.4C162.9,77.8,161.5,76.9,160.9,78.1z"/>
			<path class="st11" d="M160.9,74.3c-0.6,1.2-3.6,1.9-4.3,2.6c-0.7,0.7-1.2,3.7-1.2,3.7s-0.5-3.1-1.2-3.7c-0.7-0.7-3.7-1.3-4.4-2.6
				c-0.6-1.2-1.9-0.3-1.7,0.6c0.2,0.9,0,2.1,0.9,2.4c0.9,0.3,2.4,0.9,2.7,2c0.3,1.1-0.7,1.2,0.4,2c1.1,0.8,1.5,1,1.7,1.6
				c0.2,0.5,0,2.1,1.6,2.1c1.5,0,1.4-1.6,1.6-2.1c0.2-0.5,0.6-0.8,1.7-1.6c1.1-0.8,0.1-0.9,0.4-2c0.3-1.1,1.8-1.7,2.7-2
				c0.9-0.3,0.7-1.5,0.9-2.4C162.9,74,161.5,73,160.9,74.3z"/>
			<path class="st11" d="M163.3,140.4c-0.9,0.1-1.1,1.7-2.3,1c-1.2-0.7-2-0.2-2.3,1.2c-0.3,1.5-3.3,3.2-3.3,3.2s-3-1.7-3.3-3.2
				c-0.3-1.5-1.1-2-2.3-1.2c-1.2,0.7-1.4-0.9-2.3-1c-0.9-0.1-1.9,1-0.8,2.1c1.1,1.2,1.9,2.8,3.2,3c1.3,0.2,1.1,0.9,0.9,1.5
				c-0.2,0.7-0.7,2.9,0.6,2.3c1.3-0.5,2.1-1.8,2.8-1c0.7,0.8-0.7,2.9,1.2,2.9c1.8,0,0.4-2.1,1.2-2.9c0.7-0.8,1.5,0.5,2.8,1
				c1.3,0.5,0.8-1.7,0.6-2.3c-0.2-0.7-0.4-1.3,0.9-1.5c1.3-0.2,2.1-1.8,3.2-3C165.1,141.4,164.2,140.3,163.3,140.4z"/>
			<path class="st11" d="M162.6,134.8c-0.8,0.1-1,1.6-2.2,0.9c-1.2-0.7-1.8-0.2-2.1,1.1c-0.3,1.4-3,2.9-3,2.9s-2.8-1.6-3-2.9
				c-0.3-1.4-1-1.8-2.1-1.1c-1.1,0.7-1.3-0.8-2.2-0.9c-0.8-0.1-1.7,0.9-0.7,2c1,1.1,1.7,2.6,2.9,2.8c1.2,0.2,1,0.8,0.9,1.4
				c-0.2,0.6-0.7,2.6,0.5,2.1c1.2-0.5,1.9-1.6,2.6-0.9c0.7,0.7-0.6,2.6,1.1,2.6c1.7,0,0.4-1.9,1.1-2.6c0.7-0.7,1.4,0.4,2.6,0.9
				c1.2,0.5,0.7-1.5,0.5-2.1c-0.2-0.6-0.3-1.2,0.9-1.4c1.2-0.2,2-1.7,2.9-2.8C164.4,135.6,163.5,134.6,162.6,134.8z"/>
			<path class="st11" d="M159.6,131.1c-0.1-1.2-1.8-0.8-1.8-0.8c-1.5-0.6-2.5-0.5-2.5-0.5s-1-0.1-2.5,0.5c0,0-1.7-0.4-1.8,0.8
				c-0.1,1.2-1.4,1.9-0.8,2.5c0.6,0.6,1.9,0.3,2.1,1.2c0.2,0.9-0.5,5,0.6,4.9c1.2,0,1.6-0.6,2.3-0.6c0.7,0,1.1,0.6,2.3,0.6
				c1.2,0,0.4-4,0.6-4.9c0.2-0.9,1.5-0.6,2.1-1.2C161,133,159.8,132.3,159.6,131.1z"/>
			<path class="st11" d="M151.2,130.6c0,0-0.6-0.6-1.2,0s-7.9,6.7-8.7,8.2c-0.8,1.6-5.8,9.6-4,9.6s4.7-6.2,6.4-8
				c1.7-1.8,5.2-6.5,6.5-6.6C151.6,133.7,151.6,130.9,151.2,130.6z"/>
			<path class="st11" d="M149.4,126.8c0,0-2.1,0.7-3.4,2c-1.3,1.3-5.2,6.8-6.2,7.2c-1,0.4-5.8,7.6-6.4,8.7c-0.6,1.1-2.1,5.2-1.9,2
				c0.2-3.2,2.1-8.2,4.9-11.6c2.8-3.3,8.2-9.1,10.6-9.9c2.4-0.8,4.5-2.1,4.8-1.2c0.2,0.8-1.3,0.3-1.9,1.6
				C149.4,126.8,149.4,126.8,149.4,126.8z"/>
			<path class="st11" d="M148.7,120c0,0-1-0.2-2.6,0.7c-1.6,0.9-5.4,4.2-7.3,7c-1.8,2.8-4,4.3-4.6,5.7c-0.6,1.4-2.9,7.7-3,8.7
				c-0.1,1-1.3-2.6-0.7-4.5c0.6-1.9,1.4-7.9,3.9-10.1c2.5-2.2,7.3-8,11.3-9.3c4.1-1.3,5.7-2.1,5.7-0.9
				C151.4,118.6,150.4,120,148.7,120z"/>
			<path class="st11" d="M149.3,111.7c0,0-0.3-0.4-1.8,0.4c-1.4,0.8-9.5,6.1-12.2,9.9c-2.6,3.8-5.7,6.4-5.1,10.8
				c0.5,4.5-1.7-1.2-1.1-3.2c0.6-2,2.8-10.2,6.7-13.5c3.9-3.2,10.2-6.8,11.9-7.5c1.7-0.6,3.2-0.8,3.6,0.2
				C151.7,109.8,150.9,112.3,149.3,111.7z"/>
			<path class="st11" d="M149.5,103.9c0,0-2.4,0.5-3.5,1.2c-1.1,0.7-8.3,6.9-10,7.9c-1.7,1-5.7,5.7-6.3,7.1c-0.6,1.4-0.5,5.8-1,4.9
				c-0.6-0.9-1.4-4.6,1.3-9c2.8-4.4,4.3-6.9,9.6-9.8c5.4-2.9,10.2-6.1,11.4-5.3C152.2,101.6,151.1,104.1,149.5,103.9z"/>
			<path class="st11" d="M148.8,97.6c0,0-0.6,1.1-2.2,1.6c-1.6,0.5-12.9,8.2-14.4,9.9c-1.5,1.7-3.4,5.8-3.7,6.7
				c-0.3,0.9-1.2,1.3-0.9-1.7c0.3-3,2.5-8,7.5-11.1c5-3.1,11.6-7.8,13.7-7.5C150.9,95.8,149.3,97.1,148.8,97.6z"/>
			<path class="st11" d="M149.2,90.4c0,0-5.2,2.4-6.4,3.4c-1.2,1-10.3,6.9-11.9,9c-1.6,2.1-2.5,5.4-2.8,5.7
				c-0.3,0.2-1.3-3.7-0.6-5.2c0.8-1.5,4.8-5.6,6.6-6.9c1.9-1.3,10.2-5.8,11.6-6.6c1.4-0.9,2.8-3.1,3.8-1.5
				C150.6,89.7,150.6,89.8,149.2,90.4z"/>
			<path class="st11" d="M149.9,86.6c0,0-0.9-1.4-2.1-0.9c-1.2,0.5-5.4,2.6-6,3.3c-0.6,0.8-12,8.6-12.6,9.8
				c-0.6,1.2-1.3,0.6-0.7-1.4c0.6-2.1,2-4.9,6-7.5c4.1-2.6,10.9-6.6,13.6-6.3c2.7,0.3,2.5,0.7,3.4,1.7
				C152.4,86.3,152.3,87.9,149.9,86.6z"/>
			<path class="st11" d="M159.5,130.6c0,0,0.6-0.6,1.2,0c0.7,0.6,7.9,6.7,8.7,8.2c0.8,1.6,5.8,9.6,4,9.6c-1.9,0-4.7-6.2-6.4-8
				c-1.7-1.8-5.2-6.5-6.5-6.6C159.1,133.7,159.1,130.9,159.5,130.6z"/>
			<path class="st11" d="M161.3,126.8c0,0,2.1,0.7,3.4,2c1.3,1.3,5.2,6.8,6.2,7.2c1,0.4,5.8,7.6,6.4,8.7c0.6,1.1,2.1,5.2,1.9,2
				c-0.2-3.2-2.1-8.2-4.9-11.6c-2.8-3.3-8.2-9.1-10.6-9.9c-2.4-0.8-4.5-2.1-4.8-1.2c-0.2,0.8,1.3,0.3,1.9,1.6
				C161.3,126.8,161.3,126.8,161.3,126.8z"/>
			<path class="st11" d="M161.9,120c0,0,1-0.2,2.6,0.7c1.6,0.9,5.4,4.2,7.3,7c1.8,2.8,4,4.3,4.6,5.7c0.6,1.4,2.9,7.7,3,8.7
				c0.1,1,1.3-2.6,0.7-4.5c-0.6-1.9-1.4-7.9-3.9-10.1c-2.5-2.2-7.3-8-11.3-9.3c-4.1-1.3-5.7-2.1-5.7-0.9
				C159.3,118.6,160.3,120,161.9,120z"/>
			<path class="st11" d="M161.4,111.7c0,0,0.3-0.4,1.8,0.4c1.4,0.8,9.5,6.1,12.2,9.9c2.6,3.8,5.7,6.4,5.1,10.8
				c-0.5,4.5,1.7-1.2,1.1-3.2c-0.6-2-2.8-10.2-6.7-13.5c-3.9-3.2-10.2-6.8-11.9-7.5c-1.7-0.6-3.2-0.8-3.6,0.2
				C159,109.8,159.8,112.3,161.4,111.7z"/>
			<path class="st11" d="M161.2,103.9c0,0,2.4,0.5,3.5,1.2c1.1,0.7,8.3,6.9,10,7.9c1.7,1,5.7,5.7,6.3,7.1c0.6,1.4,0.5,5.8,1,4.9
				c0.6-0.9,1.4-4.6-1.3-9c-2.8-4.4-4.3-6.9-9.6-9.8c-5.4-2.9-10.2-6.1-11.4-5.3C158.5,101.6,159.6,104.1,161.2,103.9z"/>
			<path class="st11" d="M161.8,97.6c0,0,0.6,1.1,2.2,1.6c1.6,0.5,12.9,8.2,14.4,9.9c1.5,1.7,3.4,5.8,3.7,6.7
				c0.3,0.9,1.2,1.3,0.9-1.7c-0.3-3-2.5-8-7.5-11.1c-5-3.1-11.6-7.8-13.7-7.5C159.7,95.8,161.4,97.1,161.8,97.6z"/>
			<path class="st11" d="M161.5,90.4c0,0,5.2,2.4,6.4,3.4c1.2,1,10.3,6.9,11.9,9c1.6,2.1,2.5,5.4,2.8,5.7c0.3,0.2,1.3-3.7,0.6-5.2
				c-0.8-1.5-4.8-5.6-6.6-6.9c-1.9-1.3-10.2-5.8-11.6-6.6c-1.4-0.9-2.8-3.1-3.8-1.5C160.1,89.7,160.1,89.8,161.5,90.4z"/>
			<path class="st11" d="M160.8,86.6c0,0,0.9-1.4,2.1-0.9c1.2,0.5,5.4,2.6,6,3.3c0.6,0.8,12,8.6,12.6,9.8c0.6,1.2,1.3,0.6,0.7-1.4
				c-0.6-2.1-2-4.9-6-7.5c-4.1-2.6-10.9-6.6-13.6-6.3c-2.7,0.3-2.5,0.7-3.4,1.7C158.3,86.3,158.4,87.9,160.8,86.6z"/>
		</g>
		<g>
			<path class="st12" d="M144.8,76.8c-5.8,0.5-7.2,5.2-10.9,7.6c-3.8,2.6-6.7,5.9-8,9.6c-0.8,2.4-3.9,5.3-3,6.9
				c-2.2,1.9-2.2,8.1-1.6,9.4c-1.6,4-0.4,8.5-0.7,12.6c-0.1,0.8,0.4,4.6,2.7,2.8l0,0c3.2-2.4,7-4.1,11.2-5.4c3,0.5,6.8,0.1,9.8-0.8
				c8.8-2.9,10-8.3,8.6-12.5c1.2-4,1.8-8.7,0.8-12.7L156,92l2.1,0.6c-0.8,2.1,0.1,4.4,1.2,6.3c1.1,1.9,0.4,4,1.3,6
				c-1.5,1.9-1.5,4.1-1.6,6.1c-0.6,9,6.4,9.9,15.9,10.9c2.9,0.5,8.2,1.2,8.9,1.7c1.9,1.6,6,1.4,6.8-1.1c2.1-6.1,0.3-13.5-2.8-19.4
				c-2.4-7.9-8.3-15.4-14.5-21.9c-4.3-4-11.7-8.9-14.2-0.8c-0.9,2.9,0.9,5.6,0.2,8.5c-0.4-0.2-0.7-1.3-1-2.8l-6.1,0.7
				c0.2,1.5,0.2,2.7-0.1,3c-2-2.8-1.8-6.2-2.2-9.3C149.5,78.4,149.3,76.4,144.8,76.8"/>
			<g class="st1">
				<g class="st3">
					<path class="st13" d="M142.2,88.8c-0.2,0.3-0.6,0.4-1,0.3c-0.3-0.1-0.5-0.5-0.3-0.8c0.2-0.3,0.6-0.4,1-0.3
						C142.3,88.2,142.4,88.5,142.2,88.8z"/>
					<path class="st13" d="M141.7,89.2l2.2,1.5c2,1,4.4,0.8,5.3-0.4c0.9-1.2,0.1-2.9-1.8-3.9l-3.2-2.6"/>
					<path class="st13" d="M141.9,87.7c-0.2,0.3-0.6,0.4-1,0.3c-0.3-0.1-0.5-0.5-0.3-0.8c0.2-0.3,0.6-0.4,1-0.3
						C141.9,87,142.1,87.4,141.9,87.7z"/>
					<path class="st13" d="M141.2,86.8c-0.2,0.3-0.6,0.4-1,0.3c-0.3-0.1-0.5-0.5-0.3-0.8c0.2-0.3,0.6-0.4,1-0.3
						C141.2,86.1,141.4,86.5,141.2,86.8z"/>
					<path class="st13" d="M139.8,86.7c-0.2,0.3-0.6,0.4-1,0.3c-0.3-0.1-0.5-0.5-0.3-0.8c0.2-0.3,0.6-0.4,1-0.3
						C139.8,86,140,86.4,139.8,86.7z"/>
					<path class="st13" d="M138.3,86.3c-0.2,0.3-0.6,0.4-1,0.3c-0.3-0.1-0.5-0.5-0.3-0.8c0.2-0.3,0.6-0.4,1-0.3
						C138.3,85.6,138.4,86,138.3,86.3z"/>
					<path class="st13" d="M140,88.1c-0.2,0.3-0.6,0.4-1,0.3c-0.3-0.1-0.5-0.5-0.3-0.8c0.2-0.3,0.6-0.4,1-0.3
						C140.1,87.5,140.2,87.8,140,88.1z"/>
					<path class="st13" d="M137.6,87.7c-0.2,0.3-0.6,0.4-1,0.3c-0.3-0.1-0.5-0.5-0.3-0.8c0.2-0.3,0.6-0.4,1-0.3
						C137.7,87,137.8,87.4,137.6,87.7z"/>
					<path class="st13" d="M137.9,89.3c-0.2,0.3-0.6,0.4-1,0.3c-0.3-0.1-0.5-0.5-0.3-0.8c0.2-0.3,0.6-0.4,1-0.3
						C137.9,88.7,138.1,89,137.9,89.3z"/>
					<path class="st13" d="M139.3,89.4c-0.2,0.3-0.6,0.4-1,0.3c-0.3-0.1-0.5-0.5-0.3-0.8c0.2-0.3,0.6-0.4,1-0.3
						C139.4,88.8,139.5,89.1,139.3,89.4z"/>
					<path class="st13" d="M138.6,88.4c-0.2,0.3-0.6,0.4-1,0.3c-0.3-0.1-0.5-0.5-0.3-0.8c0.2-0.3,0.6-0.4,1-0.3
						C138.6,87.7,138.8,88.1,138.6,88.4z"/>
					<path class="st13" d="M136.8,88.3c-0.2,0.3-0.6,0.4-1,0.3c-0.3-0.1-0.5-0.5-0.3-0.8c0.2-0.3,0.6-0.4,1-0.3
						C136.8,87.6,136.9,88,136.8,88.3z"/>
					<path class="st13" d="M135.9,89.3c-0.2,0.3-0.6,0.4-1,0.3c-0.3-0.1-0.5-0.5-0.3-0.8c0.2-0.3,0.6-0.4,1-0.3
						C136,88.6,136.1,89,135.9,89.3z"/>
					<path class="st13" d="M135.6,88c-0.2,0.3-0.6,0.4-1,0.3c-0.3-0.1-0.5-0.5-0.3-0.8c0.2-0.3,0.6-0.4,1-0.3
						C135.7,87.3,135.8,87.7,135.6,88z"/>
					<path class="st13" d="M136.8,87c-0.2,0.3-0.6,0.4-1,0.3c-0.3-0.1-0.5-0.5-0.3-0.8c0.2-0.3,0.6-0.4,1-0.3
						C136.9,86.3,137,86.7,136.8,87z"/>
					<path class="st13" d="M136.9,90.1c-0.2,0.3-0.6,0.4-1,0.3c-0.3-0.1-0.5-0.5-0.3-0.8c0.2-0.3,0.6-0.4,1-0.3
						C136.9,89.5,137,89.9,136.9,90.1z"/>
					<path class="st13" d="M140.7,89.1c-0.2,0.3-0.6,0.4-1,0.3c-0.3-0.1-0.5-0.5-0.3-0.8c0.2-0.3,0.6-0.4,1-0.3
						C140.8,88.5,140.9,88.8,140.7,89.1z"/>
					<path class="st13" d="M138.6,89.8l0.6,0.9l2.3,0.8c0.7,0.1,0.5-0.4,0.5-0.4c-1.7-1.3-1.3-1.6-1.8-1.7"/>
					<polyline class="st13" points="136.9,90.1 137.6,90.9 139.4,91.6 135.8,91.7 135.2,91.5 					"/>
					<path class="st13" d="M135.1,91.3c-0.2,0.3-0.6,0.4-1,0.3c-0.3-0.1-0.5-0.5-0.3-0.8c0.2-0.3,0.6-0.4,1-0.3
						C135.2,90.6,135.3,91,135.1,91.3z"/>
					<path class="st13" d="M133.3,91.1c-0.2,0.3-0.6,0.4-1,0.3c-0.3-0.1-0.5-0.5-0.3-0.8c0.2-0.3,0.6-0.4,1-0.3
						C133.4,90.4,133.5,90.8,133.3,91.1z"/>
					<path class="st13" d="M132,92c-0.2,0.3-0.6,0.4-1,0.3c-0.3-0.1-0.5-0.5-0.3-0.8c0.2-0.3,0.6-0.4,1-0.3
						C132,91.3,132.2,91.7,132,92z"/>
					<path class="st13" d="M134.1,92.2c-0.2,0.3-0.6,0.4-1,0.3c-0.3-0.1-0.5-0.5-0.3-0.8c0.2-0.3,0.6-0.4,1-0.3
						C134.2,91.6,134.3,91.9,134.1,92.2z"/>
					<path class="st13" d="M133.9,93.4c-0.2,0.3-0.6,0.4-1,0.3c-0.3-0.1-0.5-0.5-0.3-0.8c0.2-0.3,0.6-0.4,1-0.3
						C134,92.8,134.1,93.1,133.9,93.4z"/>
					<path class="st13" d="M135.4,93.2c-0.2,0.3-0.6,0.4-1,0.3c-0.3-0.1-0.5-0.5-0.3-0.8c0.2-0.3,0.6-0.4,1-0.3
						C135.4,92.5,135.6,92.9,135.4,93.2z"/>
					<path class="st13" d="M136.6,93.8l1.9-0.7c0.5-0.2-0.2-0.4-0.2-0.4s-2.5-0.1-2.6-0.1"/>
					<path class="st13" d="M131.5,93.9c-0.2,0.3-0.6,0.4-1,0.3c-0.3-0.1-0.5-0.5-0.3-0.8c0.2-0.3,0.6-0.4,1-0.3
						C131.6,93.3,131.7,93.6,131.5,93.9z"/>
					<path class="st13" d="M134,94.9c-0.2,0.3-0.6,0.4-1,0.3c-0.3-0.1-0.5-0.5-0.3-0.8c0.2-0.3,0.6-0.4,1-0.3
						C134,94.3,134.2,94.6,134,94.9z"/>
					<path class="st13" d="M132.3,95.3c-0.2,0.3-0.6,0.4-1,0.3c-0.3-0.1-0.5-0.5-0.3-0.8c0.2-0.3,0.6-0.4,1-0.3
						C132.3,94.7,132.5,95,132.3,95.3z"/>
					<path class="st13" d="M132.8,94.4c-0.2,0.3-0.6,0.4-1,0.3c-0.3-0.1-0.5-0.5-0.3-0.8c0.2-0.3,0.6-0.4,1-0.3
						C132.8,93.7,133,94.1,132.8,94.4z"/>
					<path class="st13" d="M132.5,92.9c-0.2,0.3-0.6,0.4-1,0.3c-0.3-0.1-0.5-0.5-0.3-0.8c0.2-0.3,0.6-0.4,1-0.3
						C132.5,92.3,132.7,92.6,132.5,92.9z"/>
					<path class="st13" d="M135.8,94.8c-0.2,0.3-0.6,0.4-1,0.3c-0.3-0.1-0.5-0.5-0.3-0.8c0.2-0.3,0.6-0.4,1-0.3
						C135.8,94.2,136,94.5,135.8,94.8z"/>
					<path class="st13" d="M139.3,97.1c4.2,0.3,7.2-1.1,7.2-1.1c4.6-2.7-0.2-3.3-0.2-3.3l-5.2-0.1c-0.5-0.1-0.9,0.3-0.9,0.3
						c-0.8,1.2-2,1.3-2.3,1.3"/>
					<path class="st13" d="M139.8,102.6c9-0.9,8.3-5,8.3-5c-3.9-1.2-7.9,3.8-7.9,3.8"/>
					<path class="st13" d="M134.7,96.9c-0.2,0.3-0.6,0.4-1,0.3c-0.3-0.1-0.5-0.5-0.3-0.8c0.2-0.3,0.6-0.4,1-0.3
						C134.8,96.3,134.9,96.6,134.7,96.9z"/>
					<path class="st13" d="M135.9,95.8c-0.2,0.3-0.6,0.4-1,0.3c-0.3-0.1-0.5-0.5-0.3-0.8c0.2-0.3,0.6-0.4,1-0.3
						C135.9,95.2,136,95.5,135.9,95.8z"/>
					<path class="st13" d="M133.3,97.3c-0.2,0.3-0.6,0.4-1,0.3c-0.3-0.1-0.5-0.5-0.3-0.8c0.2-0.3,0.6-0.4,1-0.3
						C133.4,96.6,133.5,97,133.3,97.3z"/>
					<path class="st13" d="M133.6,96.3c-0.2,0.3-0.6,0.4-1,0.3c-0.3-0.1-0.5-0.5-0.3-0.8c0.2-0.3,0.6-0.4,1-0.3
						C133.6,95.6,133.7,96,133.6,96.3z"/>
					<path class="st13" d="M131.6,96.6c-0.2,0.3-0.6,0.4-1,0.3c-0.3-0.1-0.5-0.5-0.3-0.8c0.2-0.3,0.6-0.4,1-0.3
						C131.6,96,131.8,96.3,131.6,96.6z"/>
					<path class="st13" d="M130.4,94.9c-0.2,0.3-0.6,0.4-1,0.3c-0.3-0.1-0.5-0.5-0.3-0.8c0.2-0.3,0.6-0.4,1-0.3
						C130.4,94.2,130.6,94.6,130.4,94.9z"/>
					<path class="st13" d="M130.2,96.1c-0.2,0.3-0.6,0.4-1,0.3c-0.3-0.1-0.5-0.5-0.3-0.8c0.2-0.3,0.6-0.4,1-0.3
						C130.3,95.5,130.4,95.8,130.2,96.1z"/>
					<path class="st13" d="M131.8,97.5c-1,0.3-0.2,0.6-0.2,0.6c5.5,0.8,8.9,0.2,8.9,0.2c0.7-0.3-0.1-0.5-0.1-0.5s-0.8,0-1.8-0.4"/>
					<path class="st13" d="M130.7,100c-0.4-0.7,0.6-0.9,0.6-0.9s3.5,0.9,6.7,0.7"/>
					<path class="st13" d="M130.6,100.2c-0.2,0.3-0.6,0.4-1,0.3c-0.3-0.1-0.5-0.5-0.3-0.8c0.2-0.3,0.6-0.4,1-0.3
						C130.6,99.6,130.8,99.9,130.6,100.2z"/>
					<path class="st13" d="M129.2,100c-0.2,0.3-0.6,0.4-1,0.3c-0.3-0.1-0.5-0.5-0.3-0.8c0.2-0.3,0.6-0.4,1-0.3
						C129.2,99.4,129.3,99.7,129.2,100z"/>
					<path class="st13" d="M129.8,99c-0.2,0.3-0.6,0.4-1,0.3c-0.3-0.1-0.5-0.5-0.3-0.8c0.2-0.3,0.6-0.4,1-0.3
						C129.8,98.3,129.9,98.7,129.8,99z"/>
					<path class="st13" d="M128.6,98.5c-0.2,0.3-0.6,0.4-1,0.3c-0.3-0.1-0.5-0.5-0.3-0.8c0.2-0.3,0.6-0.4,1-0.3
						C128.7,97.8,128.8,98.2,128.6,98.5z"/>
					<path class="st13" d="M127.4,98.2c-0.2,0.3-0.6,0.4-1,0.3c-0.3-0.1-0.5-0.5-0.3-0.8c0.2-0.3,0.6-0.4,1-0.3
						C127.4,97.5,127.5,97.9,127.4,98.2z"/>
					<path class="st13" d="M129.9,97.8c-0.2,0.3-0.6,0.4-1,0.3c-0.3-0.1-0.5-0.5-0.3-0.8c0.2-0.3,0.6-0.4,1-0.3
						C130,97.2,130.1,97.5,129.9,97.8z"/>
					<path class="st13" d="M142,106.7c7.2-2.3,6.9-6.3,6.9-6.3c-3-0.6-6.5,5-6.5,5"/>
					<path class="st13" d="M131.2,102.3c-2.4-0.8-2.9,0-2.9,0c-0.4-0.3,0.1-1,0.1-1c0.8-0.4,2.5,0.1,2.5,0.1
						c1.6,0.5,3.1,0.2,3.1,0.2c1.9-0.1,2.1-1.7,2.1-1.7"/>
					<path class="st13" d="M130.5,104.2c1.1-0.9,2.1-1,2.1-1c1.1,0.1,1.9-0.2,1.9-0.2c0.8,0.1,2.1-1.3,2.1-1.3
						c1.7-1.8,3.6-1.8,3.6-1.8c-1,0.5-1.5,1.3-1.5,1.6"/>
					<path class="st13" d="M128.1,101.5c-0.2,0.3-0.6,0.4-1,0.3c-0.3-0.1-0.5-0.5-0.3-0.8c0.2-0.3,0.6-0.4,1-0.3
						C128.1,100.8,128.2,101.2,128.1,101.5z"/>
					<path class="st13" d="M127,100.3c-0.2,0.3-0.6,0.4-1,0.3c-0.3-0.1-0.5-0.5-0.3-0.8c0.2-0.3,0.6-0.4,1-0.3
						C127,99.7,127.1,100,127,100.3z"/>
					<path class="st13" d="M126.2,102.4c-0.2,0.3-0.6,0.4-1,0.3c-0.3-0.1-0.5-0.5-0.3-0.8c0.2-0.3,0.6-0.4,1-0.3
						C126.2,101.8,126.3,102.2,126.2,102.4z"/>
					<path class="st13" d="M125.9,104.7c-0.2,0.3-0.6,0.4-1,0.3c-0.3-0.1-0.5-0.5-0.3-0.8c0.2-0.3,0.6-0.4,1-0.3
						C126,104,126.1,104.4,125.9,104.7z"/>
					<path class="st13" d="M128.3,103c-0.2,0.3-0.6,0.4-1,0.3c-0.3-0.1-0.5-0.5-0.3-0.8c0.2-0.3,0.6-0.4,1-0.3
						C128.3,102.3,128.5,102.7,128.3,103z"/>
					<path class="st13" d="M128.1,104.3c-0.2,0.3-0.6,0.4-1,0.3c-0.3-0.1-0.5-0.5-0.3-0.8c0.2-0.3,0.6-0.4,1-0.3
						C128.1,103.6,128.3,104,128.1,104.3z"/>
					<path class="st13" d="M131,105.4c-0.2,0.3-0.6,0.4-1,0.3c-0.3-0.1-0.5-0.5-0.3-0.8c0.2-0.3,0.6-0.4,1-0.3
						C131,104.8,131.1,105.2,131,105.4z"/>
					<path class="st13" d="M128.6,105.6c-0.2,0.3-0.6,0.4-1,0.3c-0.3-0.1-0.5-0.5-0.3-0.8c0.2-0.3,0.6-0.4,1-0.3
						C128.6,105,128.7,105.3,128.6,105.6z"/>
					<path class="st13" d="M126.8,106.2c-0.2,0.3-0.6,0.4-1,0.3c-0.3-0.1-0.5-0.5-0.3-0.8c0.2-0.3,0.6-0.4,1-0.3
						C126.9,105.5,127,105.9,126.8,106.2z"/>
				</g>
				<g class="st3">
					<path class="st13" d="M139.4,114.5c-1.1,0.3-0.6-0.5-0.6-0.5c4.3-3.8,8-5.2,8-5.2c1-0.1,0.3,0.5,0.3,0.5s-0.8,0.5-1.4,1.3"/>
					<path class="st13" d="M136.4,113c0.2,0.9,1.2,0.5,1.2,0.5s2.4-2.8,5.6-4.4"/>
					<path class="st13" d="M136.1,112.8c-0.4-0.2-0.9,0-1.1,0.3c-0.2,0.3,0,0.7,0.4,0.9c0.4,0.2,0.9,0,1.1-0.3
						C136.7,113.4,136.5,112.9,136.1,112.8z"/>
					<path class="st13" d="M135,113.8c-0.4-0.2-0.9,0-1.1,0.3c-0.2,0.3,0,0.7,0.4,0.9c0.4,0.2,0.9,0,1.1-0.3
						C135.5,114.4,135.4,113.9,135,113.8z"/>
					<path class="st13" d="M136.4,114.4c-0.4-0.2-0.9,0-1.1,0.3c-0.2,0.3,0,0.7,0.4,0.9c0.4,0.2,0.9,0,1.1-0.3
						C137,115,136.8,114.6,136.4,114.4z"/>
					<path class="st13" d="M135.8,115.5c-0.4-0.2-0.9,0-1.1,0.3c-0.2,0.3,0,0.7,0.4,0.9c0.4,0.2,0.9,0,1.1-0.3
						C136.3,116.1,136.2,115.7,135.8,115.5z"/>
					<path class="st13" d="M134.8,116.5c-0.4-0.2-0.9,0-1.1,0.3c-0.2,0.3,0,0.7,0.4,0.9c0.4,0.2,0.9,0,1.1-0.3
						C135.4,117.1,135.2,116.6,134.8,116.5z"/>
					<path class="st13" d="M137.5,115.3c-0.4-0.2-0.9,0-1.1,0.3c-0.2,0.3,0,0.7,0.4,0.9c0.4,0.2,0.9,0,1.1-0.3
						C138.1,115.9,137.9,115.5,137.5,115.3z"/>
					<path class="st13" d="M135,110.5c-1.6,2.1-2.6,1.7-2.6,1.7c-0.1,0.5,0.9,0.9,0.9,0.9c1.1-0.1,2.2-1.5,2.2-1.5
						c1.1-1.4,2.7-2,2.7-2c1.8-1,3.3,0.4,3.3,0.4"/>
					<path class="st13" d="M132.7,109.2c1.7,0.2,2.8-0.3,2.8-0.3c0.9-0.7,1.9-0.9,1.9-0.9c0.7-0.5,3,0,3,0c3,0.7,4.8-0.4,4.8-0.4
						c-1.3,0.1-2.5-0.3-2.7-0.6"/>
					<path class="st13" d="M132.8,113.1c-0.4-0.2-0.9,0-1.1,0.3c-0.2,0.3,0,0.7,0.4,0.9c0.4,0.2,0.9,0,1.1-0.3
						C133.3,113.6,133.2,113.2,132.8,113.1z"/>
					<path class="st13" d="M132.7,114.7c-0.4-0.2-0.9,0-1.1,0.3c-0.2,0.3,0,0.7,0.4,0.9c0.4,0.2,0.9,0,1.1-0.3
						C133.3,115.3,133.1,114.9,132.7,114.7z"/>
					<path class="st13" d="M130.2,113.2c-0.4-0.2-0.9,0-1.1,0.3c-0.2,0.3,0,0.7,0.4,0.9c0.4,0.2,0.9,0,1.1-0.3
						C130.8,113.8,130.6,113.4,130.2,113.2z"/>
					<path class="st13" d="M128.2,111.4c-0.4-0.2-0.9,0-1.1,0.3c-0.2,0.3,0,0.7,0.4,0.9c0.4,0.2,0.9,0,1.1-0.3
						C128.8,111.9,128.6,111.5,128.2,111.4z"/>
					<path class="st13" d="M131.8,111.6c-0.4-0.2-0.9,0-1.1,0.3c-0.2,0.3,0,0.7,0.4,0.9c0.4,0.2,0.9,0,1.1-0.3
						C132.3,112.1,132.2,111.7,131.8,111.6z"/>
					<path class="st13" d="M130.5,110.5c-0.4-0.2-0.9,0-1.1,0.3c-0.2,0.3,0,0.7,0.4,0.9c0.4,0.2,0.9,0,1.1-0.3
						C131.1,111,130.9,110.6,130.5,110.5z"/>
					<path class="st13" d="M132.2,107.8c-0.4-0.2-0.9,0-1.1,0.3c-0.2,0.3,0,0.7,0.4,0.9c0.4,0.2,0.9,0,1.1-0.3
						C132.7,108.4,132.6,108,132.2,107.8z"/>
					<path class="st13" d="M129.8,109c-0.4-0.2-0.9,0-1.1,0.3c-0.2,0.3,0,0.7,0.4,0.9c0.4,0.2,0.9,0,1.1-0.3
						C130.4,109.5,130.2,109.1,129.8,109z"/>
					<path class="st13" d="M127.8,109.4c-0.4-0.2-0.9,0-1.1,0.3c-0.2,0.3,0,0.7,0.4,0.9c0.4,0.2,0.9,0,1.1-0.3
						C128.4,110,128.2,109.6,127.8,109.4z"/>
				</g>
				<path class="st14" d="M132.7,105.8c-0.7,0.5,0.1,0.6,0.1,0.6c4.6-0.9,7.2-2.5,7.2-2.5c0.5-0.5-0.2-0.4-0.2-0.4s-0.7,0.2-1.5,0.2
					"/>
				<path class="st14" d="M133.9,108.1c-0.7-0.5,0.1-1,0.1-1s3.6-0.3,6.4-1.6"/>
				<g class="st3">
					<path class="st13" d="M131,109.7c-0.1-0.3,0.2-0.6,0.6-0.7c0.4-0.1,0.8,0.2,0.8,0.5c0.1,0.3-0.2,0.6-0.6,0.7
						C131.4,110.2,131,110,131,109.7z"/>
					<path class="st13" d="M131.3,110.8c-0.1-0.3,0.2-0.6,0.6-0.7c0.4-0.1,0.8,0.2,0.8,0.5c0.1,0.3-0.2,0.6-0.6,0.7
						C131.8,111.3,131.4,111.1,131.3,110.8z"/>
					<path class="st13" d="M133,110.3c-0.1-0.3,0.2-0.6,0.6-0.7c0.4-0.1,0.8,0.2,0.8,0.5c0.1,0.3-0.2,0.6-0.6,0.7
						C133.4,110.9,133,110.7,133,110.3z"/>
				</g>
				<path class="st14" d="M125.4,108.3c-0.1-0.3,0.2-0.6,0.6-0.7c0.4-0.1,0.8,0.2,0.8,0.5c0.1,0.3-0.2,0.6-0.6,0.7
					C125.8,108.8,125.5,108.6,125.4,108.3z"/>
				<path class="st14" d="M127,108.7c-0.1-0.3,0.2-0.6,0.6-0.7c0.4-0.1,0.8,0.2,0.8,0.5c0.1,0.3-0.2,0.6-0.6,0.7
					C127.4,109.2,127.1,109,127,108.7z"/>
				<path class="st14" d="M128.2,108.1c-0.1-0.3,0.2-0.6,0.6-0.7c0.4-0.1,0.8,0.2,0.8,0.5c0.1,0.3-0.2,0.6-0.6,0.7
					C128.6,108.6,128.2,108.4,128.2,108.1z"/>
				<path class="st14" d="M129.7,107.6c-0.1-0.3,0.2-0.6,0.6-0.7c0.4-0.1,0.8,0.2,0.8,0.5c0.1,0.3-0.2,0.6-0.6,0.7
					C130.2,108.2,129.8,108,129.7,107.6z"/>
				<path class="st14" d="M124.3,107c-0.1-0.3,0.2-0.6,0.6-0.7c0.4-0.1,0.8,0.2,0.8,0.5c0.1,0.3-0.2,0.6-0.6,0.7
					C124.7,107.5,124.4,107.3,124.3,107z"/>
				<path class="st14" d="M128.6,103.9c-0.1-0.3,0.2-0.6,0.6-0.7c0.4-0.1,0.8,0.2,0.8,0.5c0.1,0.3-0.2,0.6-0.6,0.7
					C129.1,104.5,128.7,104.2,128.6,103.9z"/>
				<path class="st14" d="M127.1,106.7c-0.1-0.3,0.2-0.6,0.6-0.7c0.4-0.1,0.8,0.2,0.8,0.5c0.1,0.3-0.2,0.6-0.6,0.7
					C127.5,107.3,127.2,107.1,127.1,106.7z"/>
				<path class="st14" d="M128.6,106.3c-0.1-0.3,0.2-0.6,0.6-0.7c0.4-0.1,0.8,0.2,0.8,0.5c0.1,0.3-0.2,0.6-0.6,0.7
					C129.1,106.9,128.7,106.6,128.6,106.3z"/>
			</g>
		</g>
		<g>
			<polygon class="st10" points="159.8,85.9 159.6,85.8 159.6,85.6 159.5,85.5 159.6,85.3 159.7,85.1 159.6,84.9 159.5,84.8 
				159.4,84.7 159.2,84.7 159,84.8 158.8,85 158.8,85.2 158.8,85.4 158.8,85.5 158.8,85.6 158.7,85.7 158.6,85.7 158.5,85.6 
				158.4,85.4 158.3,85.2 158.2,84.9 157.9,84.9 157.7,85 157.6,85.3 157.7,85.5 157.7,85.6 157.7,85.7 157.6,85.8 157.5,85.8 
				157.4,85.7 157.4,85.6 157.3,85.4 157.2,85.2 157,85.2 156.8,85.4 156.7,85.6 156.7,85.9 156.7,86.2 156.6,86.4 156.5,86.5 
				156.4,86.6 156.3,86.8 156.2,86.9 156.1,87.1 156,87.2 155.9,87.4 155.9,87.7 155.9,87.9 155.8,87.9 155.6,87.9 155.5,87.9 
				155.4,87.9 155.2,87.9 155,87.9 154.8,87.9 154.5,87.8 154.2,87.9 154,88.1 153.8,88.3 153.7,88.6 153.7,88.9 153.8,89.1 
				154,89.2 154.4,89.3 154.7,89.2 155,89.2 155.3,89.3 155.4,89.4 155.6,89.5 155.6,89.5 155.7,89.6 155.7,89.6 155.1,90 
				154.6,90.4 154.2,90.8 154,91.3 153.8,91.6 153.8,92 153.7,92.2 153.7,92.3 153.8,92.5 153.8,92.6 153.8,92.9 153.7,93.2 
				153.4,94.2 153.2,95.2 153.1,96.2 153.1,97.1 153,97.9 153.1,98.6 153.1,99.2 153.2,99.7 153.3,100 153.4,100.4 153.5,100.7 
				153.7,101 153.9,101.2 154.1,101.4 154.3,101.6 154.5,101.7 154.7,101.8 154.9,101.8 155.2,101.8 155.5,101.7 155.7,101.7 
				155.9,101.6 156.1,101.5 156.2,101.4 156.3,101.3 156.3,101.2 156.4,101.2 156.4,101.1 156.5,101 156.6,101 156.7,101 
				156.9,101.1 157.1,101.2 157.4,101.2 157.7,101.2 157.9,101.2 158.2,101.1 158.5,101 158.8,100.9 159.1,100.8 159.3,100.7 
				159.6,100.6 159.8,100.5 160,100.3 160.1,100.2 160.3,100.1 160.4,100 160.4,99.9 160.5,99.8 160.6,99.7 160.7,99.5 160.9,99.4 
				161,99.3 161.2,99.2 161.4,99 161.7,98.9 161.9,98.8 162.1,98.7 162.4,98.6 162.6,98.4 162.8,98.3 163,98.2 163.2,98.1 
				163.3,97.9 163.5,97.8 163.6,97.6 163.7,97.4 163.8,97.2 163.9,97 164,96.7 164.1,96.5 164.3,96.3 164.5,95.7 164.6,95.1 
				164.5,94.5 164.4,94 164.4,93.5 164.4,93 164.4,92.6 164.4,92.2 164.2,91.8 164,91.5 163.7,91.1 163.5,90.6 163.4,90.1 
				163.2,89.8 162.9,89.5 162.7,89.3 162.6,89.2 162.5,89 162.5,88.7 162.5,88.4 162.6,88.1 162.8,88 162.9,87.8 163,87.6 
				163.7,87.5 164.1,87.3 164.4,87 164.5,86.7 164.4,86.4 164.3,86.2 164.1,86 163.8,85.9 163.4,85.9 163.3,85.9 163.1,86 162.9,86 
				162.7,86.1 162.5,86.1 162.4,86.2 162.2,86.2 162.1,86.2 162,86.2 161.9,86.2 161.7,86.2 161.5,86.2 161.3,86.2 161.1,86.3 
				160.8,86.4 160.5,86.5 160.4,86.3 160.3,86.2 160,86.1 159.8,85.9 			"/>
			<polygon class="st15" points="156.3,90.9 156.5,90.9 156.6,91.1 156.7,91.3 156.6,91.4 156.5,91.5 156.5,91.6 156.4,91.7 
				156.3,91.8 156.3,92 156.2,92.1 156.1,92.3 156.1,92.6 156,93 156,93.5 156.1,93.9 156.3,94.2 156.4,94.2 156.5,94.3 156.6,94.4 
				156.7,94.5 156.8,94.5 156.9,94.5 157,94.5 157.1,94.5 157.2,94.4 157.3,94.4 157.4,94.4 157.5,94.5 157.8,94.7 157.9,94.9 
				158,95.2 157.9,95.5 157.8,95.4 157.7,95.2 157.6,95 157.6,94.8 157.5,94.8 157.5,94.8 157.4,94.7 157.4,94.7 157.2,94.7 
				157.1,94.7 157,94.8 156.8,94.7 156.9,94.8 157,94.9 157.1,94.9 157.2,95 157.2,95.2 157.2,95.4 157.2,95.5 157.2,95.7 
				157.1,95.4 156.9,95.2 156.7,95 156.6,94.8 156.5,94.7 156.3,94.6 156.2,94.5 156.1,94.4 156.1,94.6 156.1,94.7 156,94.9 156,95 
				156,95.2 156,95.3 156.1,95.4 156.2,95.5 156.2,95.6 156.3,95.6 156.4,95.6 156.4,95.6 156.5,95.6 156.6,95.6 156.7,95.6 
				156.8,95.6 156.7,95.6 156.5,95.7 156.4,95.8 156.3,95.8 156.2,95.8 156.1,95.8 156,95.8 155.9,95.7 156,96 156.2,96.3 
				156.3,96.4 156.4,96.5 156.6,96.5 156.7,96.4 156.8,96.3 156.9,96.2 157,96.1 157.2,96.1 157.3,96.1 157.4,96.2 157.5,96.2 
				157.6,96.3 157.7,96.4 157.8,96.4 157.9,96.4 158,96.4 158.1,96.4 158.2,96.4 158.3,96.4 158.4,96.4 158.3,96.4 158.2,96.5 
				158.1,96.5 158,96.6 157.9,96.6 157.8,96.6 157.7,96.6 157.6,96.6 157.5,96.6 157.4,96.5 157.3,96.4 157.2,96.4 157.1,96.4 
				157,96.5 157,96.6 156.9,96.6 156.8,96.7 156.7,96.7 156.6,96.7 156.5,96.7 156.3,96.7 156.2,96.6 156.1,96.6 156,96.5 156,96.5 
				156,96.5 156,96.6 156.1,96.7 156.2,96.9 156.3,97 156.4,97.1 156.4,97.1 156.5,97.1 156.7,97.1 156.8,97.1 156.9,97 157,97 
				157.1,97 157.1,96.9 157.2,97 157.3,97 157.4,97 157.5,97.1 157.6,97.1 157.6,97.2 157.7,97.3 157.8,97.4 157.9,97.4 158,97.4 
				158.2,97.4 158,97.4 157.9,97.5 157.8,97.5 157.6,97.5 157.6,97.4 157.5,97.3 157.4,97.3 157.3,97.2 157.1,97.2 157,97.2 
				156.9,97.3 156.7,97.3 156.8,97.4 156.9,97.6 157,97.8 157,97.9 157.1,98 157.2,98.1 157.3,98.2 157.4,98.2 157.5,98.2 
				157.6,98.2 157.7,98.2 157.8,98.1 157.7,98.2 157.5,98.3 157.4,98.3 157.2,98.3 157,98.2 156.9,98 156.8,97.8 156.7,97.6 
				156.6,97.5 156.6,97.5 156.5,97.4 156.4,97.4 156.4,97.3 156.3,97.3 156.3,97.5 156.3,97.6 156.3,97.8 156.3,97.9 156.3,98.2 
				156.3,98.4 156.4,98.6 156.4,98.7 156.5,98.8 156.6,98.8 156.7,98.9 156.7,98.9 156.8,98.9 156.8,98.9 157,98.9 157.1,98.9 
				157.3,98.9 157.4,98.9 157.5,98.9 157.5,98.9 157.6,99 157.6,99 157.7,99.1 157.7,99.2 157.6,99.3 157.6,99.4 157.5,99.3 
				157.5,99.2 157.4,99.2 157.4,99.1 157.3,99.1 157.2,99.1 157,99.1 156.9,99.1 156.8,99.1 156.7,99.1 156.6,99.1 156.5,99 
				156.4,99 156.3,98.9 156.4,99.1 156.5,99.3 156.7,99.5 156.8,99.7 156.9,99.8 157,99.9 157.1,100 157.2,100.2 157.2,100.2 
				157.1,100.3 157,100.3 156.9,100.3 156.8,100.2 156.7,100.1 156.4,99.8 156.2,99.4 156.1,99 156.1,98.6 155.9,98.8 155.9,99 
				155.9,99.2 156,99.4 156,99.6 156.1,99.7 156.1,99.8 156.2,99.8 156.3,99.9 156.3,100 156.2,100 156.2,100 156.1,99.9 156,99.9 
				155.9,99.8 155.9,99.7 155.9,99.6 155.8,99.4 155.7,99.1 155.7,98.7 155.7,98.6 155.8,98.5 155.9,98.4 156,98.2 156,97.9 
				156,97.7 156,97.5 155.9,97.3 155.8,97.4 155.6,97.5 155.6,97.8 155.6,98 155.6,98 155.5,98.1 155.5,98.1 155.4,98.2 155.3,98.2 
				155.3,98.3 155.2,98.3 155.1,98.4 155.1,98.7 155.1,98.9 155.2,99.1 155.4,99.2 155.2,99.2 155,99 154.9,98.8 154.9,98.5 
				154.9,98.4 155,98.3 155,98.2 155.1,98.2 155.3,98 155.3,97.9 155.3,97.6 155.4,97.4 155.4,97.4 155.4,97.4 155.3,97.4 
				155.2,97.4 155.1,97.5 155,97.5 154.9,97.5 154.8,97.6 154.7,97.7 154.7,97.8 154.6,97.9 154.6,98 154.6,98.1 154.6,98.3 
				154.6,98 154.6,97.7 154.8,97.4 155,97.3 154.9,97.2 154.8,97.3 154.7,97.3 154.6,97.3 154.5,97.2 154.4,97 154.4,96.9 
				154.3,96.8 154.3,96.7 154.2,96.7 154.2,96.7 154.1,96.7 154.2,96.6 154.3,96.6 154.3,96.6 154.4,96.7 154.5,96.7 154.6,96.8 
				154.6,97 154.7,97 154.8,97.1 154.9,97.1 155,97.1 155.1,97.1 155.2,97.1 155.3,97.1 155.4,97.1 155.5,97.1 155.3,96.9 155,96.8 
				154.8,96.6 154.7,96.4 154.6,96.3 154.5,96.1 154.5,96 154.4,95.8 154.4,95.7 154.5,95.5 154.5,95.5 154.5,95.5 154.6,95.8 
				154.7,96 154.7,96 154.8,96 154.8,96.2 154.9,96.3 155.1,96.5 155.3,96.7 155.5,96.9 155.7,97 155.8,97 155.8,97 155.7,96.7 
				155.7,96.4 155.6,96 155.7,95.7 155.6,95.6 155.6,95.5 155.7,95 155.7,94.5 155.7,94.1 155.6,93.6 155.6,93.6 155.5,93.6 
				155.4,93.7 155.4,93.7 155.4,93.8 155.3,93.9 155.3,94 155.3,94.1 155.2,94.2 155.1,94.3 155,94.3 155,94.5 155.1,94.9 
				155.2,95.3 155.2,95.2 155.1,95.1 155,94.9 154.9,94.7 154.8,94.4 154.9,94.2 154.9,94 155,93.9 155.1,93.7 155.1,93.6 
				155.1,93.5 155.1,93.5 155.2,93.4 155.2,93.4 155.3,93.4 155.5,93.4 155.6,93.3 155.6,93.2 155.7,93 155.7,92.8 155.7,92.6 
				155.8,92.4 155.8,92.2 155.9,91.9 156,91.6 156.2,91.4 156.2,91.4 156.2,91.3 156.2,91.3 156.3,91.3 156.1,91.3 156,91.4 
				155.8,91.5 155.7,91.6 155.6,91.7 155.4,91.8 155.3,91.9 155.2,92 155.2,92.3 155.1,92.6 155.1,92.8 155.2,93 155.2,93 155.1,93 
				155,92.6 154.9,92.2 154.9,92.2 155,92.2 154.9,92.3 154.8,92.4 154.8,92.5 154.7,92.6 154.6,92.7 154.6,92.7 154.5,92.8 
				154.5,92.8 154.4,92.6 154.4,92.4 154.5,92.3 154.6,92.2 154.8,92.1 154.9,92 154.9,91.9 155,91.8 155,91.8 155.1,91.7 
				155.2,91.6 155.4,91.5 155.5,91.4 155.7,91.3 155.8,91.2 156,91.1 156.1,91 156.3,90.9 			"/>
			<path class="st15" d="M155.7,89.6L156,90l0.1,0.3l0,0.2l0,0.2l-0.1,0.1l0,0.1l0,0.1l0.1,0.2l0.3,0.2l0.4,0.1l0.5,0l0.5-0.1
				l0.5-0.1l0.4-0.2l0.3-0.2l0.1-0.2l0-0.2l-0.1-0.2l-0.1-0.2l-0.2-0.1l-0.1-0.1l-0.1-0.1l-0.1-0.1l0-0.1l0.1-0.5l-0.1-0.6l-0.3-0.5
				l-0.3-0.4l-0.1,0l-0.1,0l-0.1,0l-0.2,0.1l-0.2,0.1l-0.2,0.1l-0.3,0.1l-0.4,0 M155.7,89.6L156,90l0.1,0.3l0,0.2l0,0.2l-0.1,0.1
				l0,0.1l0,0.1l0.1,0.2l0.3,0.2l0.4,0.1l0.5,0l0.5-0.1l0.5-0.1l0.4-0.2l0.3-0.2l0.1-0.2l0-0.2l-0.1-0.2l-0.1-0.2l-0.2-0.1l-0.1-0.1
				l-0.1-0.1l-0.1-0.1l0-0.1l0.1-0.5l-0.1-0.6l-0.3-0.5l-0.3-0.4l-0.1,0l-0.1,0l-0.1,0l-0.2,0.1l-0.2,0.1l-0.2,0.1l-0.3,0.1l-0.4,0
				 M159,90.7l0.1,0l0.2,0l0.2-0.1l0-0.3l0-0.2l0-0.2l0.1-0.2l0.1-0.2l0.2-0.2l0.2-0.1l0.3-0.1l0.3,0l0.2-0.4l0-0.4l0-0.4l0-0.5
				l0-0.3l-0.1-0.2l-0.1-0.2l-0.1-0.2 M159,90.7l0.1,0l0.2,0l0.2-0.1l0-0.3l0-0.2l0-0.2l0.1-0.2l0.1-0.2l0.2-0.2l0.2-0.1l0.3-0.1
				l0.3,0l0.2-0.4l0-0.4l0-0.4l0-0.5l0-0.3l-0.1-0.2l-0.1-0.2l-0.1-0.2"/>
			<polygon class="st15" points="159.1,90.3 159.2,90.3 159.3,90.4 159.5,90.5 159.6,90.7 159.6,90.9 159.8,91 159.9,91.2 
				160.1,91.4 160.3,91.6 160.5,91.8 160.7,91.9 160.9,92 161,92 161.3,92.1 161.5,92.2 161.8,92.3 162.1,92.4 162.3,92.5 
				162.6,92.6 162.8,92.7 162.9,92.9 163.1,93 163.3,93.1 163.5,93.2 163.6,93.4 163.8,93.5 163.8,93.6 163.9,93.8 163.8,93.9 
				163.8,94 163.7,93.9 163.6,93.8 163.5,93.6 163.3,93.5 163.2,93.3 163.1,93.3 163,93.3 162.9,93.4 162.9,93.6 163,93.8 
				163.1,94.2 163.2,94.6 163.3,95.2 163.1,95.7 162.8,96.2 162.8,96.7 162.9,96.9 162.9,97.1 162.9,97.1 162.9,97.2 162.8,97.3 
				162.7,97.2 162.6,96.9 162.6,96.6 162.6,96.4 162.6,96.2 162.5,96.6 162.5,97 162.4,97.4 162.3,97.7 162.1,97.8 162,97.8 
				162.1,97.7 162.2,97.5 162.2,97.3 162.2,97.1 162.2,96.9 162.2,96.7 162.2,96.8 162.1,96.9 162.1,97.1 162,97.2 162,97.4 
				161.9,97.6 161.7,97.8 161.5,97.9 161.5,97.8 161.7,97.6 161.8,97.3 161.9,96.8 161.7,96.9 161.6,97.2 161.5,97.4 161.4,97.6 
				161.4,97.8 161.3,98 161.2,98.1 161.1,98.2 161,98.3 161.2,98 161.3,97.7 161.3,97.4 161.3,97.2 161.3,97.2 161.2,97.3 161,97.5 
				161,97.8 161,97.8 160.9,97.9 160.9,98 160.7,98.2 160.5,98.3 160.4,98.4 160.3,98.6 160.1,98.7 160.1,98.8 160,98.9 159.9,99 
				159.8,99.1 159.8,99.2 159.7,99.2 159.6,99.3 159.6,99.3 159.5,99.3 159.6,99.2 159.8,99.1 159.9,98.9 160,98.7 160.1,98.6 
				160.2,98.4 160.3,98.3 160.4,98.2 160.6,98.1 160.7,97.9 160.7,97.8 160.6,97.7 160.5,97.7 160.3,97.8 160.1,98 160,98.1 
				159.9,98.3 159.8,98.4 159.6,98.4 159.4,98.4 159.2,98.3 159.2,98.3 159.1,98.3 159.2,98.3 159.3,98.3 159.5,98.3 159.6,98.2 
				159.7,98.1 159.9,98 160,97.8 160.1,97.7 160.2,97.6 160.1,97.5 160,97.4 159.9,97.4 159.8,97.3 159.7,97.3 159.6,97.4 
				159.6,97.4 159.5,97.5 159.4,97.6 159.3,97.6 159.2,97.6 159.1,97.6 159,97.6 158.9,97.5 158.8,97.4 158.8,97.4 158.8,97.3 
				158.8,97.2 158.9,97.2 158.9,97.3 159,97.4 159,97.4 159.1,97.4 159.1,97.4 159.2,97.4 159.2,97.4 159.2,97.4 159.3,97.4 
				159.3,97.3 159.3,97.3 159.4,97.3 159.5,97.2 159.6,97.2 159.8,97.2 159.9,97.2 160,97.2 160.1,97.3 160.2,97.3 160.4,97.4 
				160.5,97.5 160.6,97.5 160.7,97.4 160.8,97.4 160.9,97.3 161,97.2 161.1,97.1 161.2,97 161.1,97 161,97 160.9,97 160.8,97 
				160.7,97 160.6,97 160.6,97 160.5,97 160.4,96.9 160.2,96.9 160.1,96.9 160,96.8 159.9,96.8 159.8,96.9 159.7,96.9 159.6,96.9 
				159.7,96.9 159.8,96.8 159.9,96.7 160.1,96.7 160.3,96.8 160.4,96.8 160.6,96.8 160.8,96.8 161,96.8 161.2,96.8 161.3,96.8 
				161.5,96.7 161.6,96.7 161.6,96.6 161.7,96.6 161.7,96.6 161.6,96.6 161.5,96.6 161.3,96.6 161.2,96.6 160.9,96.5 160.7,96.4 
				160.5,96.2 160.4,95.9 160.5,96 160.6,96.1 160.7,96.1 160.8,96.2 160.9,96.2 161,96.3 161.1,96.4 161.2,96.4 161.2,96.5 
				161.3,96.5 161.4,96.5 161.4,96.5 161.5,96.5 161.6,96.5 161.7,96.5 161.8,96.5 161.9,96.4 162,96.4 162.1,96.4 162.2,96.4 
				162.3,96.3 162.4,96.2 162.4,96.1 162.5,96.1 162.5,96 162.6,95.9 162.6,95.8 162.6,95.8 162.5,95.9 162.4,96 162.3,96 
				162.1,96.1 162,96.1 161.9,96.1 161.7,96.1 161.6,96.1 161.5,96.1 161.5,96.1 161.4,96.1 161.4,96 161.5,96 161.6,96 161.7,96 
				161.8,95.9 161.9,95.9 162,95.9 162.1,95.9 162.2,95.8 162.3,95.8 162.4,95.7 162.5,95.7 162.6,95.6 162.6,95.6 162.7,95.5 
				162.8,95.5 162.8,95.5 162.9,95.4 162.9,95.3 163,95.3 163,95.2 163,95 163.1,94.9 163,94.7 163,94.5 162.8,94.3 162.7,94 
				162.6,93.7 162.6,93.4 162.6,93.2 162.6,93.1 162.5,93 162.4,92.9 162.2,92.8 162,92.8 161.8,92.8 161.7,92.7 161.7,92.8 
				161.7,93 161.7,93.2 161.8,93.3 162,93.5 162.2,93.6 162.3,93.8 162.3,94.1 162.3,93.9 162.2,93.9 162.1,93.8 162,93.8 
				161.9,93.7 161.8,93.6 161.7,93.6 161.6,93.5 161.5,93.2 161.5,92.9 161.5,92.7 161.4,92.6 161.2,92.5 161,92.4 160.9,92.3 
				160.7,92.2 160.7,92.4 160.8,92.6 160.9,92.7 161,92.8 161.1,93 161.1,93.2 161.1,93.4 161.1,93.6 161.1,93.8 161.1,94 
				161.2,94.1 161.3,94.2 161.5,94.2 161.6,94.2 161.6,94.2 161.7,94.3 161.7,94.3 161.8,94.3 161.9,94.3 161.9,94.2 161.9,94.3 
				161.8,94.3 161.7,94.3 161.6,94.3 161.6,94.3 161.5,94.3 161.4,94.3 161.3,94.3 161.2,94.3 161.1,94.2 161,94.2 160.9,94.1 
				160.8,94 160.8,93.8 160.8,93.7 160.8,93.5 160.8,93.4 160.8,93.2 160.8,93 160.7,92.8 160.6,92.6 160.4,92.5 160.4,92.3 
				160.4,92.1 160.4,92.1 160.3,92.1 160.3,92.1 160.2,92.2 160.2,92.3 160.1,92.4 160,92.5 159.9,92.6 159.9,92.7 159.8,92.8 
				159.8,92.9 159.8,93 159.8,93.2 159.8,93.4 159.8,93.6 159.8,93.8 159.7,93.9 159.6,94 159.5,94.1 159.3,94.1 159.4,94 
				159.5,93.8 159.6,93.6 159.7,93.5 159.7,93.2 159.6,93 159.5,92.9 159.4,92.8 159.4,92.7 159.3,92.7 159.2,92.6 159,92.6 
				158.9,92.6 158.7,92.6 158.7,92.7 158.6,92.8 158.6,92.9 158.7,93 158.6,92.8 158.5,92.7 158.5,92.5 158.6,92.4 158.7,92.4 
				158.8,92.3 158.9,92.3 159.1,92.4 159.2,92.4 159.3,92.5 159.4,92.5 159.5,92.6 159.6,92.6 159.7,92.5 159.8,92.4 159.9,92.3 
				160,92.2 160,92.1 160,92 160,91.9 160,91.7 159.9,91.6 159.7,91.5 159.6,91.3 159.5,91.1 159.3,91 159.3,90.9 159.2,90.8 
				159.1,90.7 159.1,90.6 159.1,90.6 159,90.5 159,90.4 159.1,90.3 			"/>
		</g>
		<path class="st11" d="M162.4,169.5c-0.8,0.1-0.9,1.5-2,0.9c-1.1-0.6-1.7-0.2-2,1.1c-0.3,1.3-2.8,2.7-2.8,2.7s-2.6-1.4-2.8-2.7
			s-0.9-1.7-2-1.1c-1.1,0.6-1.2-0.8-2-0.9c-0.8-0.1-1.6,0.8-0.7,1.8c0.9,1,1.6,2.4,2.7,2.6c1.1,0.2,1,0.8,0.8,1.3
			c-0.2,0.6-0.6,2.4,0.5,2c1.1-0.5,1.8-1.5,2.4-0.9c0.6,0.7-0.6,2.4,1,2.4c1.6,0,0.4-1.8,1-2.4c0.6-0.7,1.3,0.4,2.4,0.9
			c1.1,0.5,0.7-1.4,0.5-2c-0.2-0.6-0.3-1.1,0.8-1.3c1.1-0.2,1.8-1.6,2.7-2.6C164,170.3,163.1,169.4,162.4,169.5z"/>
		<path class="st11" d="M161.1,167.7c-0.6,0.1-0.8,1.2-1.6,0.7c-0.9-0.5-1.4-0.2-1.6,0.9c-0.2,1-2.3,2.2-2.3,2.2s-2.1-1.2-2.3-2.2
			c-0.2-1-0.7-1.4-1.6-0.9c-0.9,0.5-1-0.6-1.6-0.7c-0.6-0.1-1.3,0.7-0.5,1.5c0.7,0.8,1.3,2,2.2,2.1c0.9,0.2,0.8,0.6,0.7,1.1
			c-0.1,0.5-0.5,2,0.4,1.6c0.9-0.4,1.5-1.2,2-0.7c0.5,0.5-0.5,2,0.8,2c1.3,0,0.3-1.5,0.8-2c0.5-0.5,1.1,0.3,2,0.7
			c0.9,0.4,0.5-1.2,0.4-1.6c-0.1-0.5-0.3-0.9,0.7-1.1c0.9-0.2,1.5-1.3,2.2-2.1C162.4,168.4,161.8,167.6,161.1,167.7z"/>
		<path class="st11" d="M161.1,164c-0.6,0.1-0.8,1.2-1.6,0.7c-0.9-0.5-1.4-0.2-1.6,0.9c-0.2,1-2.3,2.2-2.3,2.2s-2.1-1.2-2.3-2.2
			c-0.2-1-0.7-1.4-1.6-0.9c-0.9,0.5-1-0.6-1.6-0.7c-0.6-0.1-1.3,0.7-0.5,1.5c0.7,0.8,1.3,2,2.2,2.1c0.9,0.2,0.8,0.6,0.7,1.1
			c-0.1,0.5-0.5,2,0.4,1.6c0.9-0.4,1.5-1.2,2-0.7c0.5,0.5-0.5,2,0.8,2c1.3,0,0.3-1.5,0.8-2c0.5-0.5,1.1,0.3,2,0.7
			c0.9,0.4,0.5-1.2,0.4-1.6c-0.1-0.5-0.3-0.9,0.7-1.1c0.9-0.2,1.5-1.3,2.2-2.1C162.4,164.7,161.8,164,161.1,164z"/>
		<path class="st11" d="M161.1,160.4c-0.6,0.1-0.8,1.2-1.6,0.7c-0.9-0.5-1.4-0.2-1.6,0.9c-0.2,1-2.3,2.2-2.3,2.2s-2.1-1.2-2.3-2.2
			c-0.2-1-0.7-1.4-1.6-0.9c-0.9,0.5-1-0.6-1.6-0.7c-0.6-0.1-1.3,0.7-0.5,1.5c0.7,0.8,1.3,2,2.2,2.1c0.9,0.2,0.8,0.6,0.7,1.1
			c-0.1,0.5-0.5,2,0.4,1.6c0.9-0.4,1.5-1.3,2-0.7c0.5,0.5-0.5,2,0.8,2c1.3,0,0.3-1.5,0.8-2c0.5-0.5,1.1,0.3,2,0.7
			c0.9,0.4,0.5-1.2,0.4-1.6c-0.1-0.5-0.3-0.9,0.7-1.1c0.9-0.2,1.5-1.3,2.2-2.1C162.4,161,161.8,160.3,161.1,160.4z"/>
		<path class="st11" d="M161,156.7c-0.6,0.1-0.8,1.2-1.6,0.7c-0.9-0.5-1.4-0.2-1.6,0.9c-0.2,1-2.3,2.2-2.3,2.2s-2.1-1.2-2.3-2.2
			c-0.2-1-0.7-1.3-1.6-0.9c-0.9,0.5-1-0.6-1.6-0.7c-0.6-0.1-1.3,0.7-0.5,1.5c0.7,0.8,1.3,1.9,2.2,2.1c0.9,0.2,0.8,0.6,0.7,1.1
			c-0.1,0.4-0.5,2,0.4,1.6c0.9-0.4,1.5-1.2,1.9-0.7c0.5,0.5-0.5,2,0.8,2c1.3,0,0.3-1.4,0.8-2c0.5-0.5,1,0.3,1.9,0.7
			c0.9,0.4,0.5-1.1,0.4-1.6c-0.1-0.4-0.2-0.9,0.7-1.1c0.9-0.2,1.5-1.3,2.2-2.1C162.3,157.4,161.6,156.7,161,156.7z"/>
		<path class="st11" d="M161,153.6c-0.6,0.1-0.8,1.2-1.6,0.7c-0.9-0.5-1.4-0.2-1.6,0.9c-0.2,1-2.3,2.2-2.3,2.2s-2.1-1.2-2.3-2.2
			c-0.2-1-0.7-1.3-1.6-0.9c-0.9,0.5-1-0.6-1.6-0.7c-0.6-0.1-1.3,0.7-0.5,1.5c0.7,0.8,1.3,1.9,2.2,2.1c0.9,0.2,0.8,0.6,0.7,1.1
			c-0.1,0.4-0.5,2,0.4,1.6c0.9-0.4,1.5-1.2,1.9-0.7c0.5,0.5-0.5,2,0.8,2c1.3,0,0.3-1.4,0.8-2c0.5-0.5,1,0.3,1.9,0.7
			c0.9,0.4,0.5-1.1,0.4-1.6c-0.1-0.4-0.2-0.9,0.7-1.1c0.9-0.2,1.5-1.3,2.2-2.1C162.3,154.2,161.6,153.5,161,153.6z"/>
		<path class="st11" d="M160.6,149.7c-0.6,0.1-0.7,1.1-1.5,0.6c-0.8-0.5-1.3-0.2-1.5,0.8c-0.2,0.9-2.1,2-2.1,2s-1.9-1.1-2.1-2
			c-0.2-0.9-0.7-1.2-1.5-0.8c-0.8,0.5-0.9-0.6-1.5-0.6c-0.6-0.1-1.2,0.6-0.5,1.4c0.7,0.8,1.2,1.8,2,1.9c0.8,0.2,0.7,0.6,0.6,1
			c-0.1,0.4-0.5,1.8,0.4,1.5c0.8-0.3,1.3-1.1,1.8-0.6c0.5,0.5-0.4,1.8,0.7,1.8c1.2,0,0.3-1.3,0.7-1.8c0.5-0.5,1,0.3,1.8,0.6
			c0.8,0.3,0.5-1.1,0.4-1.5c-0.1-0.4-0.2-0.8,0.6-1c0.8-0.2,1.4-1.2,2-1.9C161.8,150.3,161.2,149.6,160.6,149.7z"/>
		<g>
			<path class="st11" d="M162.7,181.4c1.2-1.3,3.9-6.7,3.1-6.5c-0.8,0.2-1.4,0.4-4.2,4.4c0,0-1.5,1.2-3.3,0.3
				c-1.2-0.6-1.9-0.3-2.3,0.1c-0.4-0.4-1.1-0.7-2.3-0.1c-1.8,0.9-3.3-0.3-3.3-0.3c-2.8-4-3.4-4.2-4.2-4.4c-0.8-0.2,1.9,5.2,3.1,6.5
				c1.2,1.3,0.9,3.8-0.5,5.1c-1.4,1.3-0.8,2.5,0,3c0.8,0.5,2.6,2.5,3.2,4.4c0.6,1.9,1.8,2.5,2.3,2.4c0.4-0.1,1.1-0.7,1.6-1.1
				c0.4,0.4,1.2,1,1.6,1.1c0.5,0.1,1.7-0.5,2.3-2.4c0.6-1.9,2.4-3.9,3.2-4.4c0.8-0.5,1.4-1.7,0-3
				C161.8,185.2,161.5,182.7,162.7,181.4z"/>
			<path class="st11" d="M153.7,208.1c0,0-1.2,0.6-0.8,0.8c0.4,0.3,1.3,0.9,1.4,1.4c0,0.5,0.6,2.2,1.3,2.3c0.7,0.1,0.9-1.1,1.9-2.3
				c1-1.2,1.5-1.7,0.7-2.1C157.4,207.8,156.5,206.1,153.7,208.1z"/>
			<path class="st11" d="M154.4,199.3c0,0-9.6-2.1-9.6-8.5c0,0-0.5-2.1,4.4-2c0,0,1.2,0,1.7-2.3c0.6-2.3-4.4-12.5-6.2-13.8
				c0,0-3.9-2.2-8.3-1.1c-4.4,1.2-6.3,7-4.6,9.6c1.7,2.5,5.6,9.6,5.3,11.6c-0.4,1.9,2,2.3,3,4.3c1,2,0.4,4.1,2.1,4.3
				c1.7,0.2-0.4,2,0.2,2.7c0.6,0.7,5.3,6.4,12.9,0L154.4,199.3z M150.4,204.6c-1.5,1.6-4.1-4.1-4.1-4.1c-0.1-0.8,0.5-1.2,2.2-1.2
				C150,199.3,151.9,203,150.4,204.6z"/>
			<path class="st11" d="M175.5,171.7c-4.4-1.2-8.3,1.1-8.3,1.1c-1.8,1.2-6.7,11.5-6.2,13.8c0.6,2.3,1.7,2.3,1.7,2.3
				c4.8-0.1,4.4,2,4.4,2c0.1,6.4-9.6,8.5-9.6,8.5l-0.8,4.8c7.6,6.4,12.3,0.7,12.9,0c0.6-0.7-1.5-2.5,0.2-2.7
				c1.7-0.2,1.1-2.3,2.1-4.3c1-2,3.3-2.4,3-4.3c-0.4-1.9,3.6-9,5.3-11.6C181.9,178.7,179.9,172.9,175.5,171.7z M161.6,204.6
				c-1.5-1.6,0.3-5.3,2-5.3c1.6,0,2.3,0.4,2.2,1.2C165.8,200.5,163.2,206.2,161.6,204.6z"/>
		</g>
		<g>
			<path class="st12" d="M168.2,40.8c-2.7-9-12.4-8.7-12.4-8.7s-9.7-0.2-12.4,8.7c-2.7,9,1.9,13.1,2.6,18.3c0.7,5.2,0.7,8.3,1.1,9
				c0.5,0.6,3.2,2.9,3.6,3.7c0.4,0.8,2.2,2,3.2,2.2c0.9,0.2,1.8,0,1.8,0s0.9,0.2,1.8,0c0.9-0.2,2.8-1.4,3.2-2.2
				c0.4-0.8,3.2-3,3.6-3.7c0.5-0.6,0.5-3.8,1.1-9C166.2,53.9,170.8,49.7,168.2,40.8z M163.7,61.8c-0.3,1.5-0.6,2.9-1.8,3.9
				c-1.2,1-4,1.5-5.8,1.5c-1.7,0-4.6-0.5-5.8-1.5c-1.2-1-2.3-2.3-2.4-3.9c-0.1-1.5-1-2.2-1-2.2c6.9-4.3,18-0.3,18-0.3
				S164.1,60.1,163.7,61.8z"/>
			<path class="st12" d="M167.4,53.4c1.3-3.3,2.5-7,0.8-12.6c-2.7-9-12.4-8.7-12.4-8.7s-9.7-0.2-12.4,8.7c-1.7,5.6-0.5,9.3,0.8,12.6
				c-0.4,0.1-1.2,0.9-1,1.9c0.3,1,1.4,2.2,1.4,2.8c0,0.7,0.6,2.8,2.4,2.5c0.8-0.1,1.4-0.4,1.9-0.3c0.4,0.1,0.6,0.5,0.9,1.1
				c0.7,1.6,0.1,3.4,0.8,3.5c0.7,0,4.2,0,5.2,0c0.9,0,4.5,0,5.2,0c0.7,0,0.1-1.8,0.8-3.5c0.2-0.5,0.5-1,0.9-1.1
				c0.5-0.1,1.1,0.2,1.9,0.3c1.8,0.3,2.4-1.9,2.4-2.5c0-0.7,1.1-1.8,1.4-2.8C168.6,54.2,167.8,53.5,167.4,53.4z"/>
		</g>
		<g>
			<polyline class="st16" points="149.1,49.2 149,48.7 148.7,49.1 148.5,48.5 148.2,48.4 147.2,48.5 146.6,48.1 146.4,47.7 
				145.5,47.8 			"/>
			<polyline class="st16" points="148.5,48.5 149.1,47.4 149.8,47.2 150.3,46 151.4,46 151.3,44.6 151.7,44.6 151.9,45.1 
				152.3,45.3 152.7,45.1 153.1,43.7 154.2,44 154.8,43.3 155.5,42.7 154.7,41.2 155.1,39.7 154.4,39.4 155.1,39.3 155,38.5 
				154.3,37.9 154.3,36.9 155.1,36.4 154.6,35.5 155,34.6 154.7,34.3 154.2,34.2 154.9,33.5 154.4,32.9 154.7,31.8 			"/>
			<polyline class="st16" points="154.8,43.3 155.5,43.7 156.1,43.5 156.5,44.6 157.4,44.8 157.9,45.4 159.1,45.2 160.1,45.9 
				159.9,46.7 160.3,47.5 161.6,47.3 161.9,48.2 162.7,49 162.6,49.8 163.1,49.4 163.4,50 			"/>
			<polyline class="st16" points="165.1,47.9 164.6,48.2 164.2,47.8 163.8,48.2 163.8,48.9 163.5,49.2 163.4,50 162.6,50.3 
				162.5,50.5 			"/>
		</g>
		<g>
			<path class="st12" d="M145.7,50.2c0,0,0,2.1,2.4,2.1c2.5,0,3.5-0.6,4.6-2.5c1.1-1.9,1.4-3.7,0-4.4c-1.4-0.6-3.9-0.5-5.3,0.5
				c-1.4,0.9-1.2,1.7-1.3,2C145.9,48.4,145.7,50.2,145.7,50.2z"/>
			<path class="st12" d="M165.8,50.2c0,0,0,2.1-2.4,2.1c-2.5,0-3.5-0.6-4.6-2.5c-1.1-1.9-1.4-3.7,0-4.4c1.4-0.6,3.9-0.5,5.3,0.5
				c1.4,0.9,1.2,1.7,1.3,2C165.5,48.4,165.8,50.2,165.8,50.2z"/>
			<g>
				<path class="st0" d="M156.7,58c-0.1,0-0.2,0-0.3,0c-0.1,0-0.2-0.1-0.3-0.2c-0.1,0.1-0.2,0.1-0.3,0.2c-0.1,0-0.2,0-0.3,0
					c-0.6,0-1.1-0.3-1.5-0.8c-0.4-0.6-0.4-1.3-0.2-2c0.1-0.4,0.3-0.9,0.5-1.4c0.7-2.3,1.1-3.3,1.8-3.3c0,0,0.1,0,0.1,0
					c0.7,0,1.1,0.9,1.8,3.3c0.2,0.5,0.3,1.1,0.5,1.4c0.3,0.7,0.2,1.5-0.2,2C157.8,57.7,157.2,58,156.7,58L156.7,58z"/>
				<path class="st17" d="M156.1,50.9c0.6,0,1.3,3.1,1.8,4.4c0.5,1.4-0.5,2.2-1.2,2.2c-0.1,0-0.1,0-0.2,0c-0.2-0.1-0.4-0.3-0.5-0.7
					c-0.1,0.4-0.2,0.6-0.5,0.7c-0.1,0-0.1,0-0.2,0c-0.7,0-1.7-0.8-1.2-2.2C154.7,54,155.4,50.9,156.1,50.9
					C156,50.9,156,50.9,156.1,50.9C156,50.9,156.1,50.9,156.1,50.9 M156.1,49.9C156.1,49.9,156,49.9,156.1,49.9
					C156,49.9,156,49.9,156.1,49.9L156.1,49.9c-1.2,0-1.7,1.4-2.4,3.6c-0.2,0.5-0.3,1.1-0.5,1.4c-0.3,0.9-0.3,1.8,0.2,2.5
					c0.4,0.6,1.2,1.1,1.9,1.1c0.1,0,0.3,0,0.4-0.1c0.1,0,0.1,0,0.2-0.1c0.1,0,0.2,0.1,0.2,0.1c0.1,0,0.3,0.1,0.4,0.1
					c0.7,0,1.5-0.4,1.9-1.1c0.5-0.7,0.6-1.6,0.2-2.5c-0.1-0.3-0.3-0.9-0.5-1.4C157.6,51.3,157.2,49.9,156.1,49.9L156.1,49.9
					L156.1,49.9L156.1,49.9z"/>
			</g>
		</g>
		<path class="st10" d="M135.5,120.5c-0.1-1-0.4-2-0.8-2.9c1.2-2.9,1.3-5.9,0.8-8.9l1.2,0.3l0.8-2.1c1-0.4,1.5-0.2,1.5-1.9
			c0.3,0.1,0.6,0.1,0.9,0.2"/>
		<path class="st10" d="M140,79v-0.3c-0.3,0.1-0.5,0.1-0.8,0.1c-0.5,0.2-1,0.3-1.5,0.4c-0.4,0.1-0.9,0.1-1.3,0.2
			c0.6-0.1,0.7-0.1,0.3,0c-0.3,0.1-0.7,0.1-1,0.2c-1.4,0.3-2.5,0.9-3.9,1.1c-0.4,0.2-0.8,0.3-1.2,0.3c-0.1,0.1-0.2,0.2-0.3,0.3
			c-1.2,0-3.4-0.4-3,1.7c-0.7,0.2-1.4,0.2-2,0.2c-4.3-0.1-6.4,4.3-5.9,12.8c0.1,1.9-1.2,6,1.7,8.5c0,3.1,1.2,6.4,1.1,9.4
			c-0.1,3.7,1.5,5.4,3,7.2"/>
		<path class="st12" d="M131.6,121.1c-0.6-2-1.1-4-2.1-5.8"/>
		<path class="st12" d="M129.3,121.6c-0.4-3.3,1-7.2-0.1-10.4c-1.2-3.3,0.8-10.3-3-11.3"/>
		<path class="st12" d="M130.4,101.3c1.2,4.2,0.3,5.7-1.4,9.1"/>
		<path class="st12" d="M129.5,109.3c1.6,5.2,3.9,7.2,5.2,10"/>
		<path class="st12" d="M139,106.9c-5.6-1.3-10.4-10.8-16.2-5.3c-1.5,1.5-2,3.1-2,4.9"/>
		<path class="st12" d="M122.8,101.6c0.1-1.6,0.9-3.1,0.8-4.7"/>
		<path class="st12" d="M127,99.9c2.1-1.2,4.2-2.5,5.6-4.5"/>
		<path class="st12" d="M133,99c-1.7,0.8-3.6-0.1-5.3,0.5"/>
		<path class="st12" d="M123.6,101c5.9-6.3,1.8-13.8,9.2-16.7c1.7-0.7,4-1.1,7.2-1.2"/>
		<path class="st12" d="M124.7,89.4c0.2-1.6,1.1-2.8,2.3-3.8c1.9-0.4,3.9-1.1,5.6-1.3"/>
		<path class="st10" d="M124.2,161.1c0-0.5-0.1-1-0.6-1.3c1.1,0.2,1-2.1,0.7-2.7c2.8-8.3,11.3-19.3,10.1-28c1-3.7,1.9-7.9,0.2-11.6
			c1.2-2.9,1.3-5.9,0.8-8.9l1.2,0.3l0.8-2.1c1-0.4,1.5-0.2,1.5-1.9c0.3,0.1,0.6,0.1,0.9,0.2"/>
		<path class="st10" d="M140,79v-0.3c-0.3,0.1-0.5,0.1-0.8,0.1c-0.5,0.2-1,0.3-1.5,0.4c-0.4,0.1-0.9,0.1-1.3,0.2
			c0.6-0.1,0.7-0.1,0.3,0c-0.3,0.1-0.7,0.1-1,0.2c-1.4,0.3-2.5,0.9-3.9,1.1c-0.4,0.2-0.8,0.3-1.2,0.3c-0.1,0.1-0.2,0.2-0.3,0.3
			c-1.2,0-3.4-0.4-3,1.7c-0.7,0.2-1.4,0.2-2,0.2c-4.3-0.1-6.4,4.3-5.9,12.8c0.1,1.9-1.2,6,1.7,8.5c0,3.1,1.2,6.4,1.1,9.4
			c-0.1,3.7,1.5,5.4,3,7.2c-1.7,6.5-5.4,14.2-5.8,19.2c-0.3,4.5,0.1,9.4-0.2,14c-0.3,1.2-1.5,5-0.7,5"/>
		<path class="st12" d="M124.4,157.7c-0.3,0.8-0.5,1.6-0.6,2.3c-0.1,0.8-0.6,0.9-0.7,0.7c-0.2-0.4,0.8-2.3,1.1-7.8"/>
		<path class="st12" d="M123,160.8c-0.3,0.2-0.8,0.2-1,0.2"/>
		<path class="st12" d="M120.8,161c-0.3,0-0.7,0.1-1,0"/>
		<path class="st12" d="M119.2,160.8c-0.2-0.2-0.5-0.4-0.7-0.7"/>
		<path class="st12" d="M118.8,155c-0.1,1.7-0.3,3.3-0.7,4.9c0,0.2,0.2,0.2,0.3,0.1c0.8-0.7,0.8-7.5,3.9-14.5"/>
		<path class="st12" d="M122,161.6c0.9-11.9,11.2-21.8,11.6-34c-5.2,6.4-4.7,9.1-7.2,15.7c-3,7.6-5.2,10.8-6.6,17.7
			c-0.1,0.7-0.6,0.6-0.6-0.2c-0.1-3.3,3-10.2,3.2-15.3c0.2-4.8,2.5-10.1,3.8-13.8c0.9-2.2,1-3.5,3.1-4.8"/>
		<path class="st12" d="M123.5,150.1c-0.6,3.9-1.7,7.7-2.9,11.5"/>
		<path class="st12" d="M128.7,126.2c0.2,0.5-0.1,0.9-0.4,1.3"/>
		<path class="st12" d="M126.2,131.7c1.8-5,0.3-7-1.3-9"/>
		<path class="st12" d="M127,122.9c0.4,1.2,1.9,4.2,3.2,4.7c0.5-1.3,1.5-0.6,1.9-1.5c0.5,0.1,0.9-0.8,0.7-1.5"/>
		<path class="st12" d="M134.5,130.5c-0.2-1-0.4-2-0.8-2.9c-3.4,2-6.1,4.9-8.7,7.8"/>
		<path class="st12" d="M135.1,127.9c-3.3-3.4-3.3-8.5-5.5-12.6"/>
		<path class="st12" d="M132.1,126c-5.5-3.4-1.2-9.9-3-14.8c-1.2-3.3,0.8-10.3-3-11.3"/>
		<path class="st12" d="M130.4,101.3c1.2,4.2,0.3,5.7-1.4,9.1"/>
		<path class="st12" d="M129.5,109.3c1.6,5.2,3.9,7.2,5.2,10"/>
		<path class="st12" d="M139,106.9c-5.6-1.3-10.4-10.8-16.2-5.3c-1.5,1.5-2,3.1-2,4.9"/>
		<path class="st12" d="M122.8,101.6c0.1-1.6,0.9-3.1,0.8-4.7"/>
		<path class="st12" d="M127,99.9c2.1-1.2,4.2-2.5,5.6-4.5"/>
		<path class="st12" d="M133,99c-1.7,0.8-3.6-0.1-5.3,0.5"/>
		<path class="st12" d="M123.6,101c5.9-6.3,1.8-13.8,9.2-16.7c1.7-0.7,4-1.1,7.2-1.2"/>
		<path class="st12" d="M124.7,89.4c0.2-1.6,1.1-2.8,2.3-3.8c1.9-0.4,3.9-1.1,5.6-1.3"/>
	</g>
</g>
</svg>
