<?xml version="1.0" encoding="utf-8"?>
<!-- Generator: Adobe Illustrator 19.0.1, SVG Export Plug-In . SVG Version: 6.00 Build 0)  -->
<svg version="1.1" id="Layer_1" xmlns="http://www.w3.org/2000/svg" xmlns:xlink="http://www.w3.org/1999/xlink" x="0px" y="0px"
	 viewBox="140 120.4 1010.3 274.5" style="enable-background:new 140 120.4 1010.3 274.5;" xml:space="preserve">
<style type="text/css">
	.st0{fill:#DDDDDD;}
	.st1{fill:#DDDDDD;stroke:#575756;stroke-miterlimit:10;}
	.st2{fill:#1E1E1C;}
	.st3{fill:none;}
	.st4{opacity:0.56;fill:#FFFFFF;enable-background:new    ;}
	.st5{font-family:'HelveticaNeue-Medium';}
	.st6{font-size:72px;}
</style>
<g id="Logo">
	<g>
		<g>
			<path class="st0" d="M250.3,273.2h1.9v9.1h0.1c0.8-2.3,3.1-3.5,5.5-3.5c4.8,0,7.1,3.9,7.1,8.4s-2.3,8.4-7.1,8.4
				c-2.5,0-4.7-1.3-5.6-3.5h-0.1v3h-1.8L250.3,273.2L250.3,273.2z M257.7,280.4c-4.1,0-5.5,3.5-5.5,6.7c0,3.3,1.4,6.7,5.5,6.7
				c3.7,0,5.2-3.5,5.2-6.7S261.4,280.4,257.7,280.4z"/>
			<path class="st0" d="M267.8,279.2h1.8v3.7h0.1c1-2.5,3.1-4,6-3.9v1.9c-3.5-0.2-5.9,2.4-5.9,5.7v8.4h-1.9L267.8,279.2L267.8,279.2
				z"/>
			<path class="st0" d="M277.5,273.2h1.9v3.1h-1.9V273.2z M277.5,279.2h1.9V295h-1.9V279.2z"/>
			<path class="st0" d="M296.5,293.8c0,4.7-1.8,7.6-7,7.6c-3.2,0-6.3-1.4-6.6-4.8h1.9c0.4,2.3,2.5,3.2,4.6,3.2c3.6,0,5.1-2.1,5.1-6
				v-2.1h-0.1c-0.9,1.9-2.8,3.2-5,3.2c-5.1,0-7.1-3.6-7.1-8.1c0-4.3,2.6-8,7.1-8c2.3,0,4.3,1.4,5,3.2h0.1v-2.7h1.9L296.5,293.8
				L296.5,293.8L296.5,293.8z M294.6,287c0-3.1-1.4-6.6-5.1-6.6s-5.2,3.3-5.2,6.6c0,3.2,1.7,6.3,5.2,6.3
				C292.8,293.2,294.6,290.2,294.6,287z"/>
			<path class="st0" d="M300.1,273.2h1.9v8.8h0.1c0.7-1.9,2.8-3.2,5.1-3.2c4.4,0,5.8,2.3,5.8,6.1v10.2h-1.9v-9.9
				c0-2.7-0.9-4.8-4-4.8s-4.9,2.3-5,5.4v9.2h-1.9L300.1,273.2L300.1,273.2z"/>
			<path class="st0" d="M319.7,279.2h3.2v1.6h-3.2v10.7c0,1.3,0.2,2,1.6,2.1c0.6,0,1.1,0,1.7-0.1v1.7c-0.6,0-1.1,0.1-1.7,0.1
				c-2.6,0-3.5-0.9-3.4-3.6v-10.8h-2.8v-1.6h2.8v-4.7h1.9L319.7,279.2L319.7,279.2z"/>
			<path class="st0" d="M339.8,287.1c0,4.5-2.6,8.4-7.5,8.4c-4.8,0-7.5-3.8-7.5-8.4s2.6-8.4,7.5-8.4
				C337.2,278.8,339.8,282.6,339.8,287.1z M326.8,287.1c0,3.4,1.8,6.7,5.5,6.7s5.5-3.4,5.5-6.7c0-3.4-1.8-6.7-5.5-6.7
				S326.8,283.8,326.8,287.1z"/>
			<path class="st0" d="M342.6,279.2h1.9v2.7h0.1c0.7-1.9,2.8-3.2,5.1-3.2c4.4,0,5.8,2.3,5.8,6.1V295h-1.9v-9.9c0-2.7-0.9-4.8-4-4.8
				s-4.9,2.3-5,5.4v9.2h-1.9L342.6,279.2L342.6,279.2z"/>
			<path class="st0" d="M367.4,284.1c0.2-3.7,2.8-5.3,6.4-5.3c2.8,0,5.8,0.9,5.8,5.1v8.4c0,0.7,0.4,1.2,1.1,1.2
				c0.2,0,0.5-0.1,0.6-0.1v1.6c-0.4,0.1-0.7,0.1-1.3,0.1c-2,0-2.3-1.1-2.3-2.8h-0.1c-1.3,2.1-2.7,3.2-5.8,3.2
				c-2.9,0-5.3-1.4-5.3-4.6c0-4.4,4.3-4.6,8.5-5.1c1.6-0.2,2.5-0.4,2.5-2.1c0-2.6-1.9-3.2-4.1-3.2c-2.4,0-4.2,1.1-4.2,3.7
				L367.4,284.1L367.4,284.1z M377.7,286.4L377.7,286.4c-0.3,0.5-1.2,0.6-1.7,0.7c-3.3,0.6-7.3,0.6-7.3,3.6c0,1.9,1.7,3.1,3.5,3.1
				c2.9,0,5.5-1.9,5.5-5V286.4z"/>
			<path class="st0" d="M383.5,279.2h1.9v2.7h0.1c0.7-1.9,2.8-3.2,5.1-3.2c4.4,0,5.8,2.3,5.8,6.1V295h-1.9v-9.9c0-2.7-0.9-4.8-4-4.8
				s-4.9,2.3-5,5.4v9.2h-1.9L383.5,279.2L383.5,279.2z"/>
			<path class="st0" d="M413.9,295h-1.8v-3H412c-0.8,2.1-3.3,3.5-5.6,3.5c-4.8,0-7.1-3.9-7.1-8.4s2.3-8.4,7.1-8.4
				c2.4,0,4.7,1.2,5.5,3.5h0.1v-9.1h1.9V295L413.9,295z M406.4,293.9c4.1,0,5.5-3.5,5.5-6.7c0-3.3-1.4-6.7-5.5-6.7
				c-3.7,0-5.2,3.5-5.2,6.7S402.7,293.9,406.4,293.9z"/>
			<path class="st0" d="M435.5,283.9c-0.1-2.4-1.9-3.5-4.1-3.5c-1.7,0-3.7,0.7-3.7,2.7c0,1.7,2,2.3,3.3,2.7l2.6,0.6
				c2.2,0.3,4.5,1.6,4.5,4.4c0,3.4-3.4,4.7-6.3,4.7c-3.7,0-6.2-1.7-6.5-5.6h1.9c0.2,2.6,2.1,3.9,4.7,3.9c1.8,0,4.3-0.8,4.3-3
				c0-1.8-1.7-2.4-3.5-2.9l-2.5-0.6c-2.5-0.7-4.4-1.5-4.4-4.2c0-3.2,3.2-4.4,5.9-4.4c3.2,0,5.7,1.7,5.8,5.1L435.5,283.9L435.5,283.9
				L435.5,283.9z"/>
			<path class="st0" d="M453.6,295h-1.8v-2.8h-0.1c-1,2.1-3.1,3.3-5.5,3.3c-4,0-5.5-2.3-5.5-6v-10.3h1.9v10.3
				c0.1,2.8,1.2,4.3,4.2,4.3c3.3,0,4.7-3.1,4.7-6.3v-8.3h1.9V295H453.6z"/>
			<path class="st0" d="M466.7,283.9c-0.1-2.4-1.9-3.5-4.1-3.5c-1.7,0-3.7,0.7-3.7,2.7c0,1.7,2,2.3,3.3,2.7l2.6,0.6
				c2.2,0.3,4.5,1.6,4.5,4.4c0,3.4-3.4,4.7-6.3,4.7c-3.7,0-6.2-1.7-6.5-5.6h1.9c0.2,2.6,2.1,3.9,4.7,3.9c1.8,0,4.3-0.8,4.3-3
				c0-1.8-1.7-2.4-3.5-2.9l-2.5-0.6c-2.5-0.7-4.4-1.5-4.4-4.2c0-3.2,3.2-4.4,5.9-4.4c3.2,0,5.7,1.7,5.8,5.1L466.7,283.9L466.7,283.9
				L466.7,283.9z"/>
			<path class="st0" d="M481.4,283.9c-0.1-2.4-1.9-3.5-4.1-3.5c-1.7,0-3.7,0.7-3.7,2.7c0,1.7,2,2.3,3.3,2.7l2.6,0.6
				c2.2,0.3,4.5,1.6,4.5,4.4c0,3.4-3.4,4.7-6.3,4.7c-3.7,0-6.2-1.7-6.5-5.6h1.9c0.2,2.6,2.1,3.9,4.7,3.9c1.8,0,4.3-0.8,4.3-3
				c0-1.8-1.7-2.4-3.5-2.9l-2.5-0.6c-2.5-0.7-4.4-1.5-4.4-4.2c0-3.2,3.2-4.4,5.9-4.4c3.2,0,5.7,1.7,5.8,5.1L481.4,283.9L481.4,283.9
				L481.4,283.9z"/>
			<path class="st0" d="M487.8,287.7c0,2.8,1.5,6.2,5.2,6.2c2.8,0,4.3-1.7,5-4h1.9c-0.8,3.6-2.9,5.7-6.9,5.7c-5,0-7.1-3.9-7.1-8.4
				c0-4.2,2.1-8.4,7.1-8.4c5.1,0,7.1,4.4,7,8.9L487.8,287.7L487.8,287.7z M498,286c-0.1-2.9-1.9-5.6-5-5.6c-3.2,0-4.9,2.8-5.2,5.6
				H498z"/>
			<path class="st0" d="M506.9,286.8l-5.7-7.6h2.4l4.5,6l4.4-6h2.4l-5.7,7.6l6.2,8.2H513l-5-6.6l-4.9,6.6h-2.4L506.9,286.8z"/>
		</g>
		<g>
			<path class="st0" d="M251.3,313.3h1.8v2.7h0.1c1-1.9,2.7-3.1,5.2-3.1c2.1,0,3.9,1,4.5,3.1c0.9-2.1,2.9-3.1,5-3.1
				c3.5,0,5.2,1.8,5.2,5.5v10.7h-1.9v-10.6c0-2.6-1-4-3.7-4c-3.3,0-4.3,2.8-4.3,5.7v8.9h-1.9v-10.7c0-2.1-0.9-3.9-3.3-3.9
				c-3.3,0-4.7,2.5-4.7,5.8v8.8h-1.9L251.3,313.3L251.3,313.3z"/>
			<path class="st0" d="M277.9,321.7c0,2.8,1.5,6.2,5.2,6.2c2.8,0,4.3-1.7,5-4h1.9c-0.8,3.6-2.9,5.7-6.9,5.7c-5,0-7.1-3.9-7.1-8.4
				c0-4.2,2.1-8.4,7.1-8.4c5.1,0,7.1,4.4,7,8.9L277.9,321.7L277.9,321.7z M288.1,320.1c-0.1-2.9-1.9-5.6-5-5.6
				c-3.2,0-4.9,2.8-5.2,5.6H288.1z"/>
			<path class="st0" d="M306.5,329.1h-1.8v-3h-0.1c-0.8,2.1-3.3,3.5-5.6,3.5c-4.8,0-7.1-3.9-7.1-8.4s2.3-8.4,7.1-8.4
				c2.4,0,4.7,1.2,5.5,3.5h0.1v-9.1h1.9V329.1z M299.1,327.9c4.1,0,5.5-3.5,5.5-6.7c0-3.3-1.4-6.7-5.5-6.7c-3.7,0-5.2,3.5-5.2,6.7
				C293.9,324.5,295.4,327.9,299.1,327.9z"/>
			<path class="st0" d="M310.2,307.3h1.9v3.1h-1.9V307.3z M310.2,313.3h1.9v15.8h-1.9V313.3z"/>
			<path class="st0" d="M327,318.3c-0.5-2.4-2-3.8-4.5-3.8c-3.7,0-5.5,3.4-5.5,6.7c0,3.4,1.8,6.7,5.5,6.7c2.4,0,4.3-1.9,4.6-4.5h1.9
				c-0.5,3.8-3,6.1-6.5,6.1c-4.8,0-7.5-3.8-7.5-8.4c0-4.5,2.6-8.4,7.5-8.4c3.4,0,6,1.8,6.4,5.4H327V318.3z"/>
			<path class="st0" d="M331.6,318.2c0.2-3.7,2.8-5.3,6.4-5.3c2.8,0,5.8,0.9,5.8,5.1v8.4c0,0.7,0.4,1.2,1.1,1.2
				c0.2,0,0.5-0.1,0.6-0.1v1.6c-0.4,0.1-0.7,0.1-1.3,0.1c-2,0-2.3-1.1-2.3-2.8h-0.1c-1.3,2.1-2.7,3.2-5.8,3.2
				c-2.9,0-5.3-1.4-5.3-4.6c0-4.4,4.3-4.6,8.5-5.1c1.6-0.2,2.5-0.4,2.5-2.1c0-2.6-1.9-3.2-4.1-3.2c-2.4,0-4.2,1.1-4.2,3.7
				L331.6,318.2L331.6,318.2z M341.9,320.5L341.9,320.5c-0.3,0.5-1.2,0.6-1.7,0.7c-3.3,0.6-7.3,0.6-7.3,3.6c0,1.9,1.7,3.1,3.5,3.1
				c2.9,0,5.5-1.9,5.5-5V320.5z"/>
			<path class="st0" d="M347.7,307.3h1.9v21.9h-1.9V307.3z"/>
			<path class="st0" d="M371.3,317.9c-0.1-2.4-1.9-3.5-4.1-3.5c-1.7,0-3.7,0.7-3.7,2.7c0,1.7,2,2.3,3.3,2.7l2.6,0.6
				c2.2,0.3,4.5,1.6,4.5,4.4c0,3.4-3.4,4.7-6.3,4.7c-3.7,0-6.2-1.7-6.5-5.6h1.9c0.2,2.6,2.1,3.9,4.7,3.9c1.8,0,4.3-0.8,4.3-3
				c0-1.8-1.7-2.4-3.5-2.9l-2.5-0.6c-2.5-0.7-4.4-1.5-4.4-4.2c0-3.2,3.2-4.4,5.9-4.4c3.2,0,5.7,1.7,5.8,5.1L371.3,317.9L371.3,317.9
				L371.3,317.9z"/>
			<path class="st0" d="M387.7,318.3c-0.5-2.4-2-3.8-4.5-3.8c-3.7,0-5.5,3.4-5.5,6.7c0,3.4,1.8,6.7,5.5,6.7c2.4,0,4.3-1.9,4.6-4.5
				h1.9c-0.5,3.8-3,6.1-6.5,6.1c-4.8,0-7.5-3.8-7.5-8.4c0-4.5,2.6-8.4,7.5-8.4c3.4,0,6,1.8,6.4,5.4h-1.9V318.3z"/>
			<path class="st0" d="M392.4,307.3h1.9v8.8h0.1c0.7-1.9,2.8-3.2,5.1-3.2c4.4,0,5.8,2.3,5.8,6.1v10.2h-1.9v-9.9
				c0-2.7-0.9-4.8-4-4.8s-4.9,2.3-5,5.4v9.2h-1.9L392.4,307.3L392.4,307.3z"/>
			<path class="st0" d="M423,321.2c0,4.5-2.6,8.4-7.5,8.4s-7.5-3.8-7.5-8.4c0-4.5,2.6-8.4,7.5-8.4S423,316.7,423,321.2z M410,321.2
				c0,3.4,1.8,6.7,5.5,6.7s5.5-3.4,5.5-6.7c0-3.4-1.8-6.7-5.5-6.7C411.8,314.5,410,317.8,410,321.2z"/>
			<path class="st0" d="M440.1,321.2c0,4.5-2.6,8.4-7.5,8.4c-4.8,0-7.5-3.8-7.5-8.4c0-4.5,2.6-8.4,7.5-8.4
				C437.4,312.9,440.1,316.7,440.1,321.2z M427,321.2c0,3.4,1.8,6.7,5.5,6.7s5.5-3.4,5.5-6.7c0-3.4-1.8-6.7-5.5-6.7
				C428.9,314.5,427,317.8,427,321.2z"/>
			<path class="st0" d="M443,307.3h1.9v21.9H443V307.3z"/>
		</g>
		<path class="st1" d="M235.1,296.6c-0.5-0.7-1.1-1.5-1.8-2.2c-3.7-3.3-10.2-4.4-16.6-5.2v6.9c7.8,1,15.5,2.1,18,6
			c0.5-0.8,0.7-1.7,0.7-2.8C235.4,298.1,235.3,297.1,235.1,296.6L235.1,296.6z"/>
		<path class="st1" d="M234.1,315.8c0.2,0.4,0.3,1.5,0.3,2.9c0,6.4-9.4,7.7-18.8,8.9v6.9c6.4-0.8,12.9-1.9,16.6-5.2
			C237.7,324.4,235,317.4,234.1,315.8L234.1,315.8z"/>
		<path class="st1" d="M198.6,283c-0.5,0.8-0.7,1.7-0.7,2.8c0,1.3,0.1,2.4,0.3,2.8c0.5,0.8,1.1,1.6,1.9,2.3
			c3.7,3.3,10.2,4.4,16.6,5.2v-6.9C208.8,288.2,200.9,287.1,198.6,283L198.6,283z"/>
		<path class="st2" d="M198.2,288.5L198.2,288.5L198.2,288.5C198.1,288.5,198.2,288.5,198.2,288.5L198.2,288.5z"/>
		<path class="st2" d="M198.2,288.6L198.2,288.6L198.2,288.6L198.2,288.6L198.2,288.6z"/>
		<path class="st1" d="M236.1,277.4c0.2,0.4,0.3,1.5,0.3,2.9c0,6.4-9.4,7.7-18.8,8.9l0,0c-6.4,0.8-12.9,1.9-16.6,5.2
			c-5.4,4.8-2.8,11.8-1.9,13.5c-0.2-0.4-0.3-1.6-0.3-2.9c0-6.4,9.4-7.7,18.8-8.9l0,0c6.4-0.8,12.9-1.9,16.6-5.2
			C239.7,286.1,237,279.1,236.1,277.4z"/>
		<g>
			<path class="st1" d="M200.5,310.2c0.7,0.6,1.6,1.2,2.5,1.7c3.5-1.8,8.3-2.6,13.1-3.3c-7.3-1-14.6-2-16.9-5.7
				c-0.4,0.8-0.7,1.6-0.7,2.6c0,1.2,0.1,2.2,0.3,2.6C199.3,308.9,199.8,309.6,200.5,310.2z"/>
			<path class="st1" d="M216.2,315.2L216.2,315.2L216.2,315.2L216.2,315.2z"/>
		</g>
		<path class="st1" d="M232.5,313.4c-0.7-0.6-1.6-1.2-2.5-1.7c-3.5,1.8-8.3,2.6-13.1,3.2l0,0l0,0l0,0c7.5,1,14.9,2,17,5.9
			c0.4-0.8,0.7-1.6,0.7-2.6c0-1.2-0.1-2.3-0.3-2.7C233.8,314.8,233.2,314.1,232.5,313.4z"/>
		<path class="st1" d="M235.1,296.5c0.2,0.4,0.3,1.5,0.3,2.9c0,6.4-9.4,7.7-18.8,8.9l0,0c-6.4,0.8-12.9,1.9-16.6,5.2
			c-5.4,4.8-2.8,11.8-1.9,13.5c-0.2-0.4-0.3-1.6-0.3-2.9c0-6.4,9.4-7.7,18.8-8.9l0,0c6.4-0.8,12.9-1.9,16.6-5.2
			C238.6,305.1,235.9,298.1,235.1,296.5z"/>
		<path class="st1" d="M198.2,288.6c-0.2-0.4-0.3-1.5-0.3-2.9c0-6.4,9.4-7.7,18.8-8.9v-6.9c-6.4,0.8-12.9,1.9-16.6,5.2
			C194.7,280,197.3,287,198.2,288.6L198.2,288.6z"/>
	</g>
</g>
<g id="txt">
	<rect x="198.7" y="180.7" class="st3" width="951.6" height="89.4"/>
	<text transform="matrix(1 0 0 1 198.6315 232.0085)" class="st4 st5 st6">Anatomy Lab iPad Interface</text>
</g>
</svg>
