<?xml version="1.0" encoding="utf-8"?>
<!-- Generator: Adobe Illustrator 19.0.1, SVG Export Plug-In . SVG Version: 6.00 Build 0)  -->
<svg version="1.1" id="Layer_1" xmlns="http://www.w3.org/2000/svg" xmlns:xlink="http://www.w3.org/1999/xlink" x="0px" y="0px"
	 viewBox="-966 574.9 625.5 293.1" style="enable-background:new -966 574.9 625.5 293.1;" xml:space="preserve">
<style type="text/css">
	.st0{fill:none;}
	.st1{fill:#FFFFFF;}
	.st2{font-family:'HelveticaNeue-Medium';}
	.st3{font-size:36px;}
	.st4{fill:none;stroke:#BCBA40;stroke-width:4;stroke-linecap:round;stroke-miterlimit:10;stroke-dasharray:12.0321,12.0321;}
	.st5{fill:none;stroke:#BCBA40;stroke-width:4;stroke-miterlimit:10;}
</style>
<rect x="-863.5" y="787" class="st0" width="400.9" height="30.5"/>
<text transform="matrix(1 0 0 1 -863.5325 812.6943)" class="st1 st2 st3">DR Note Module 104</text>
<g>
	<path class="st4" d="M-387.9,842.9h-550.4c-6.6,0-12-5.4-12-12v-230c0-6.6,5.4-12,12-12h550.5c6.6,0,12,5.4,12,12v230
		C-375.9,837.5-381.3,842.9-387.9,842.9z"/>
</g>
<g>
	<polygon class="st5" points="-719.5,613 -600.4,615.1 -609.5,771.8 -740.7,759.4 	"/>
	<path class="st5" d="M-604.1,678.8l2.1-0.1l0.8-7.8l11.9-0.5c3.4-0.1,3-1.4,3-1.4l0.8-39.3c-0.8-2.3-3-1.9-3-1.9l-10.5,1l0.5-9.2
		l-1.7,0.1L-604.1,678.8z"/>
	<path class="st5" d="M-607.3,729.6l2.1-0.1l0.8-7.8l11.9-0.5c3.4-0.1,3-1.4,3-1.4l0.8-39.3c-0.8-2.3-3-1.9-3-1.9l-10.5,0.9l0.5-9.2
		l-1.7,0.1L-607.3,729.6z"/>
	<path class="st5" d="M-609.2,771.8l2.1-0.1l0.7-6.5l12.2-0.8c3.5-0.2,3-1.3,3-1.3l0.2-32.7c-0.8-1.9-3.1-1.5-3.1-1.5l-10.7,1.1
		l0.3-7.6l-1.7,0.1L-609.2,771.8z"/>
</g>
</svg>
