<?xml version="1.0" encoding="utf-8"?>
<!-- Generator: Adobe Illustrator 19.0.1, SVG Export Plug-In . SVG Version: 6.00 Build 0)  -->
<svg version="1.1" xmlns="http://www.w3.org/2000/svg" xmlns:xlink="http://www.w3.org/1999/xlink" x="0px" y="0px"
	 viewBox="0 0 625.5 293.1" style="enable-background:new 0 0 625.5 293.1;" xml:space="preserve">
<style type="text/css">
	.st0{display:none;}
	.st1{display:inline;fill:none;stroke:#BCBA40;stroke-width:4;stroke-linecap:round;stroke-linejoin:round;stroke-miterlimit:10;}
	.st2{display:inline;}
	.st3{fill:none;stroke:#BCBA40;stroke-width:4;stroke-linecap:round;stroke-linejoin:round;stroke-miterlimit:10;}
	.st4{fill:none;}
	.st5{fill:#FFFFFF;}
	.st6{font-family:'HelveticaNeue-Medium';}
	.st7{font-size:36px;}
	.st8{fill:none;stroke:#BCBA40;stroke-width:4;stroke-linecap:round;stroke-miterlimit:10;stroke-dasharray:12.0321,12.0321;}
	.st9{fill:none;stroke:#BCBA40;}
</style>
<g id="Layer_3">
</g>
<g id="Layer_1">
	<g>
		<g class="st0">
			<path class="st1" d="M242.5,105c0.7-0.8,47.6-14.8,47.6-14.8l48.9,16.2"/>
			<line class="st1" x1="289.8" y1="52.9" x2="242" y2="104.6"/>
			<line class="st1" x1="290.2" y1="53.2" x2="287.6" y2="27.3"/>
			<path class="st1" d="M241.5,39.9c3.1-2.1,46.1-12.6,46.1-12.6L339,39.9l-48.7,13.6L241.5,39.9z"/>
			<polyline class="st1" points="339,39.9 339,106.3 290.2,120.6 290.2,53.5 			"/>
			<polyline class="st1" points="241.5,39.9 241.5,104.9 290.2,120.6 			"/>
			<g class="st2">
				<path class="st3" d="M284.3,178.1c0.7-0.8,47.6-14.8,47.6-14.8l48.9,16.2"/>
				<line class="st3" x1="331.5" y1="125.9" x2="283.7" y2="177.6"/>
				<line class="st3" x1="332" y1="126.3" x2="329.4" y2="100.4"/>
				<path class="st3" d="M283.3,112.9c3.1-2.1,46.1-12.6,46.1-12.6l51.3,12.6L332,126.6L283.3,112.9z"/>
				<polyline class="st3" points="380.7,112.9 380.7,179.3 332,193.6 332,126.6 				"/>
				<polyline class="st3" points="283.3,112.9 283.3,177.9 332,193.6 				"/>
			</g>
			<g class="st2">
				<path class="st3" d="M193.8,167.9c0.7-0.8,47.6-14.8,47.6-14.8l48.9,16.2"/>
				<line class="st3" x1="241" y1="115.8" x2="193.2" y2="167.5"/>
				<line class="st3" x1="241.5" y1="116.2" x2="238.9" y2="90.2"/>
				<path class="st3" d="M192.8,102.8c3.1-2.1,46.1-12.6,46.1-12.6l51.3,12.6l-48.7,13.6L192.8,102.8z"/>
				<polyline class="st3" points="290.2,102.8 290.2,169.2 241.5,183.5 241.5,116.4 				"/>
				<polyline class="st3" points="192.8,102.8 192.8,167.8 241.5,183.5 				"/>
			</g>
		</g>
		<rect x="198.6" y="215.1" class="st4" width="210.6" height="39"/>
		<text transform="matrix(1 0 0 1 198.6238 240.7939)" class="st5 st6 st7">Module 202</text>
		<g>
			<path class="st8" d="M584,268H33.5c-6.6,0-12-5.4-12-12v-230c0-6.6,5.4-12,12-12H584c6.6,0,12,5.4,12,12v230
				C596,262.6,590.6,268,584,268z"/>
		</g>
	</g>
</g>
<g id="Layer_2">
	<g>
		<path class="st9" d="M250.8,190.9c2-4,4-4,7.7-3.2c-3.2-5-3.2-11.2-2.4-16.2c-1,2.2-6.3,13.6-6.3,18c0,2.5-5.6,5.9-6.1,0
			c-0.7,0.7-1.8,0.2-1.9-0.7c-0.6,2.2-6.6,2.4-3.7-3.1c3.7-6.9-0.2-16.6,2.2-23.9c-6.6-8.8-8.6-19.4-7.9-32.2l-1.7-1.9
			c-11.8,0.2-19.8-2.5-22-6.4c-4.7-8.1,2.4-11.3,10.7-39c2.1-7.1,6.2-9.7,10.2-11.4c4.1-6.2-2.2-7.1,6.9-12.2
			c16.4-9.3,4.6-14.5,38-21.3c10.8-2.2,23.6-2.6,34.1,2c21.5,9.4,28.7,26.1,25.2,49.6c-3.2,21-20.7,10.7-24.7,34.8
			c-4.2,25.2,31.5,15.5,50.6,48.9c3.5-2.8,8.2,2.3,9.6,5.8c5,12.7-11.1,14.9-12.4,8.8c-1.7,1-4.5,1.3-8.3-0.2
			c-15.2-6.1-30.8-2.8-45.9,2.2c-29,9.5-35.3,3.5-42.7,7.5C254.1,200,247.8,197.2,250.8,190.9L250.8,190.9z"/>
		<path class="st9" d="M241.7,188.9c1.6-5.7,0.3-13.8,2-21.6 M240.2,161.9c3.6,4.7,6.4,10.9,8.3,16.6 M243.6,189.5
			c-0.4-4.7,5.9,0.7,13.2-50.9c3.1-21.6,7.2-23.7,13.2-42.3c3-9.4,5.6-23.8,9.6-26.7c3.1-2.3,14-1.2,16.5,5.7c1.1,3,4,11.5,1.6,14.1
			c-8.9,9.2-10.9,24.1-17,37.1c-13.4,28.7-17.1,28.2-24.6,45 M252.9,162.1c-2.5-6-7.4-9-7.8-17.5 M254.8,151.5
			c-8.4-2-16.9-15-17.2-23.3 M232.4,129.7c7.2-2.9,10.2-0.7,16.1-3.8c3.4-1.8,8.9-2.2,11.2-1.5 M252.8,124.5c3.7,4.2-1.3,8.7,4,14.1
			 M255.5,147.9c-7.8-3.4-7.1-14.2-11.5-20.4 M250.3,118.5c3.4,2.8,5.6,3.6,9.7,4.8c-8.5-2.5-14.9,1.9-18.6,1.1
			c-3.9-0.8-7.9,1-10.7,3.3 M233.5,125.9c0.3-0.7,0.7-1.6,1.2-2.6 M208.7,121.4c12.6-5,18.2,4.8,32.1,0.9 M240.1,124.3
			c0.9-2.6,2.3-5.5,3.8-7.8c-1.6,1.3-2.7,2.4-4,4 M241.9,119.9c-11.5,3.1-12.2-7.8-32.1-5 M236,120.4c4.3-9.2,6.2-15,4.6-18.1
			 M208.7,121.4c-3.3-5.6,5.5-13.8,31.9-19.2c4.2-0.8,8.8-1.7,13.9-2.3c13.5-1.8,10.9-24.1,13.5-28c-0.2,3.7-0.2,3.5,2.8,4.9
			c3.2,1.6,3.3-3.3,8.8-7.2c4.5-3.2,10.1-7.7,9-13.9c-0.8-4.3-7.2-7.5-11.6-1.5c-2.5,3.4-2.7,4.4-6.5,5.7 M242.6,57.2
			c-1.8,1.4-3.9,2.3-6.2,1.6 M229.5,71c3.3-1.4,6.4-2.1,8.2-4.1 M273.5,83.6c-2.3,1.3-3.9,3.6-7.8,7.3 M270.8,76.8
			c-2.7,3.4-4.2,20.6-15.5,29.6c-8.1,6.4-10.6,11-12.7,18 M244.6,119c4.6-2.1,8.3-6.3,10.7-12.5 M254.5,99.9
			c-1.3,1.4-7.9,12.2-8.6,13c-0.8,1-5.4,6.3-7.3,7.6 M241,106.9c2.6,1.2,3.4,3.8,5,6 M247.1,114.7c0.4,0.7,0.8,1.3,1.3,1.9
			 M243.6,121.4c10.1-3.8,17-8.1,26.4-25.1 M278.5,131c0.4,3.9,0.2,7.4-0.9,11.2c-6.6,22.6,5.7,35.1,6.5,42.5
			c0.1,1-1.5,1.8-16.4,4.1c-3.9,0.6-6.9,2.2-9.2-1.2 M284,184.8c13.6-1.2,21.2-5,34.9-6.9 M356.6,187.4c2.1-1.3,2.5-3.8,1.1-5.8
			 M359.4,172.8c5.9,10.4-4.2,9.6-10.9,8.4c-9.8-1.7-19.3-3-29.1-1.4c-10.5-36.2-36.8-39.4-18.9-85.1c11.3,6.8,10.1,18.1,8.2,29.2
			 M300.6,94.7c-0.5-2-1-4.4-3-5.3 M288.4,105.7c3.9,4.4,2.2,11.3,6.2,15.9 M283.3,120c3.2,10,11.3,19,16.9,27.2 M293.9,141.8
			c4.5,3.4,10.5,8.6,16.7,17.5 M316.4,171c-17.7,0-33.1-12-40.7-13.3 M289.7,163.6c3,5.5,2.5,16.9,9.2,18.6 M301.3,181.6
			c-4.9-6.4-3.2-9.4-5.9-15.4 M306.7,169.9c1.8,2.6,5.2,7,8,8.6 M313.6,164.8c-15.8-4.4-24.2-5.3-37.9-11 M286.9,157.9
			c-2.8-5.3-6.4-10.5-9.4-15.6 M278.3,138.9c4.3,5.4,10.8,11,14,20.5 M302.5,161.9c-2.1-6.8-5.4-13.7-8.6-20.1
			c-1.8-3.6-9-12.6-13.2-15.4"/>
		<path class="st9" d="M259.8,196.9c-5.7,3-12,0.3-8.9-6c2-4,4-4,7.7-3.2c2.3,3.4,5.2,1.8,9.2,1.2c14.9-2.3,16.5-3.1,16.4-4.1
			c5.7-0.5,10.3-1.5,14.8-2.5c-6.7-1.7-6.1-13.1-9.2-18.6c1.8,0.8,3.7,1.7,5.8,2.6c2.7,6,0.9,9,5.9,15.4c5.3-1.4,10.7-2.8,17.6-3.7
			c0.2,0.6,0.4,1.2,0.6,1.9c9.7-1.5,19.3-0.3,29.1,1.4c6.7,1.2,16.8,2,10.9-8.4c3.5-2.8,8.2,2.3,9.6,5.8c5,12.7-11.1,14.9-12.4,8.8
			c-1.7,1-4.5,1.3-8.3-0.2c-15.2-6.1-30.8-2.8-45.9,2.2C273.4,199,267.1,192.9,259.8,196.9L259.8,196.9z"/>
		<path class="st9" d="M286.9,157.9c-2.8-5.3-6.4-10.5-9.4-15.6c0.3-1.2,0.6-2.3,0.8-3.4c4.3,5.4,10.8,11,14,20.5
			C290.6,158.9,288.8,158.4,286.9,157.9L286.9,157.9z"/>
		<path class="st9" d="M300.2,147.2c-2.3-2.2-4.5-4-6.4-5.4c-1.8-3.6-9-12.6-13.2-15.4c1-2.1,1.8-4.3,2.7-6.5
			C286.5,130,294.6,139,300.2,147.2L300.2,147.2z"/>
		<path class="st9" d="M256.8,138.6c-5.4-5.4-0.3-9.9-4-14.1c-1.6,0.3-3.1,0.7-4.3,1.4c-5.9,3.1-8.9,0.8-16.1,3.8l-1.7-1.9
			c2.8-2.3,6.8-4.2,10.7-3.3c3.7,0.8,10-3.7,18.6-1.1c-4.1-1.2-6.3-2-9.7-4.8c6.8-3.6,12.5-9.2,19.7-22.2
			C264,114.9,259.9,117.1,256.8,138.6L256.8,138.6z"/>
		<path class="st9" d="M248.4,116.6c-0.5-0.7-0.9-1.3-1.3-1.9c1.8-2.7,4.4-5.2,8.2-8.2C253.6,110.9,251.2,114.3,248.4,116.6
			L248.4,116.6z"/>
		<path class="st9" d="M245.9,112.9c-1.5-2.2-2.4-4.8-5-6c0.3-2,0.2-3.5-0.4-4.7c-26.4,5.4-35.2,13.5-31.9,19.2
			c-4.7-8.1,2.4-11.3,10.7-39c2.1-7.1,6.2-9.7,10.2-11.4c4.1-6.2-2.2-7.1,6.9-12.2c16.4-9.3,4.6-14.5,38-21.3
			c10.8-2.2,23.6-2.6,34.1,2c21.5,9.4,28.7,26.1,25.2,49.6c-3.2,21-20.7,10.7-24.7,34.8c1.8-11.1,3.1-22.4-8.2-29.2
			c-0.5-2-1-4.4-3-5.3c2.5-2.6-0.5-11.1-1.6-14.1c-2.4-6.9-13.4-7.9-16.5-5.7c-2.4,1.7-4.3,7.6-6,14c-2.3,1.3-3.9,3.6-7.8,7.3
			c2.4-6.4,3.5-12.3,5-14.1c-2.9-1.5-3-1.2-2.8-4.9c-2.6,3.9,0,26.2-13.5,28C253.2,101.4,246.7,112.1,245.9,112.9L245.9,112.9z"/>
		<path class="st9" d="M240.6,102.2c4.2-0.8,8.8-1.7,13.9-2.3 M229.5,71c3.3-1.4,6.4-2.1,8.2-4.1 M236.4,58.8
			c2.3,0.7,4.4-0.2,6.2-1.6 M270.5,59.9c3.8-1.3,4.1-2.3,6.5-5.7c4.5-6.1,10.9-2.9,11.6,1.5c1.1,6.2-4.6,10.7-9,13.9
			c-5.5,4-5.6,8.9-8.8,7.2 M259.6,124.4c-1.4-0.4-4.2-0.4-6.9,0.1 M298.9,182.2c0.8-0.2,1.7-0.4,2.5-0.7 M357.7,181.6
			c1.5,2,1,4.5-1.1,5.8"/>
	</g>
</g>
</svg>
