<?xml version="1.0" encoding="utf-8"?>
<!-- Generator: Adobe Illustrator 19.0.1, SVG Export Plug-In . SVG Version: 6.00 Build 0)  -->
<svg version="1.1" id="Layer_1" xmlns="http://www.w3.org/2000/svg" xmlns:xlink="http://www.w3.org/1999/xlink" x="0px" y="0px"
	 viewBox="-966 574.9 625.5 293.1" style="enable-background:new -966 574.9 625.5 293.1;" xml:space="preserve">
<style type="text/css">
	.st0{display:none;}
	.st1{display:inline;fill:none;stroke:#BCBA40;stroke-width:4;stroke-linecap:round;stroke-linejoin:round;stroke-miterlimit:10;}
	.st2{display:inline;}
	.st3{fill:none;stroke:#BCBA40;stroke-width:4;stroke-linecap:round;stroke-linejoin:round;stroke-miterlimit:10;}
	.st4{fill:none;}
	.st5{fill:#FFFFFF;}
	.st6{font-family:'HelveticaNeue-Medium';}
	.st7{font-size:36px;}
	.st8{fill:none;stroke:#BCBA40;stroke-width:4;stroke-linecap:round;stroke-miterlimit:10;stroke-dasharray:12.0321,12.0321;}
	.st9{fill:none;stroke:#BCBA40;}
	.st10{fill:none;stroke:#BCBA40;stroke-miterlimit:10;}
	.st11{fill:none;stroke:#BCBA40;stroke-width:0.75;stroke-miterlimit:10;}
	.st12{fill:#009FE3;stroke:#BCBA40;stroke-width:0.75;stroke-miterlimit:10;}
	.st13{fill:#444444;stroke:#BCBA40;stroke-width:0.5;}
	.st14{fill:#444444;stroke:#BCBA40;stroke-width:2;}
	.st15{fill:#444444;stroke:#BCBA40;stroke-width:0.75;}
	.st16{fill:none;stroke:#BCBA40;stroke-width:0.75;}
</style>
<g id="Layer_1_1_">
	<g>
		<g class="st0">
			<path class="st1" d="M-723.5,679.9c0.7-0.8,47.6-14.8,47.6-14.8l48.9,16.2"/>
			<line class="st1" x1="-676.2" y1="627.8" x2="-724" y2="679.5"/>
			<line class="st1" x1="-675.8" y1="628.1" x2="-678.4" y2="602.2"/>
			<path class="st1" d="M-724.5,614.8c3.1-2.1,46.1-12.6,46.1-12.6l51.4,12.6l-48.7,13.6L-724.5,614.8z"/>
			<polyline class="st1" points="-627,614.8 -627,681.2 -675.8,695.5 -675.8,628.4 			"/>
			<polyline class="st1" points="-724.5,614.8 -724.5,679.8 -675.8,695.5 			"/>
			<g class="st2">
				<path class="st3" d="M-681.7,753c0.7-0.8,47.6-14.8,47.6-14.8l48.9,16.2"/>
				<line class="st3" x1="-634.5" y1="700.8" x2="-682.3" y2="752.5"/>
				<line class="st3" x1="-634" y1="701.2" x2="-636.6" y2="675.3"/>
				<path class="st3" d="M-682.7,687.8c3.1-2.1,46.1-12.6,46.1-12.6l51.3,12.6l-48.7,13.7L-682.7,687.8z"/>
				<polyline class="st3" points="-585.3,687.8 -585.3,754.2 -634,768.5 -634,701.5 				"/>
				<polyline class="st3" points="-682.7,687.8 -682.7,752.8 -634,768.5 				"/>
			</g>
			<g class="st2">
				<path class="st3" d="M-772.2,742.8c0.7-0.8,47.6-14.8,47.6-14.8l48.9,16.2"/>
				<line class="st3" x1="-725" y1="690.7" x2="-772.8" y2="742.4"/>
				<line class="st3" x1="-724.5" y1="691.1" x2="-727.1" y2="665.1"/>
				<path class="st3" d="M-773.2,677.7c3.1-2.1,46.1-12.6,46.1-12.6l51.3,12.6l-48.7,13.6L-773.2,677.7z"/>
				<polyline class="st3" points="-675.8,677.7 -675.8,744.1 -724.5,758.4 -724.5,691.3 				"/>
				<polyline class="st3" points="-773.2,677.7 -773.2,742.7 -724.5,758.4 				"/>
			</g>
		</g>
		<rect x="-782.4" y="790" class="st4" width="210.6" height="39"/>
		<text transform="matrix(1 0 0 1 -782.3762 815.694)" class="st5 st6 st7">Module 104</text>
		<g>
			<path class="st8" d="M-382,842.9h-550.5c-6.6,0-12-5.4-12-12v-230c0-6.6,5.4-12,12-12H-382c6.6,0,12,5.4,12,12v230
				C-370,837.5-375.4,842.9-382,842.9z"/>
		</g>
	</g>
</g>
<g id="Layer_2">
</g>
<g id="Layer_6">
</g>
<g id="Layer_4">
</g>
<g id="Layer_3">
	<g>
		<path class="st9" d="M-650.4,675.1c11.4,25.1-12.6,53.8,1.7,77.6"/>
		<path class="st9" d="M-661.3,674.8c-3.4,6-2,13.7-1,20.3c1.2,9.7-1.5,19.2-1.6,28.9c-0.1,19.7,1.5,45.4-16.4,58
			c-17.8-12.7-16.2-38.4-16.4-58c0-9.7-2.7-19.2-1.5-28.9c0.9-6.6,2.4-14.3-1-20.3"/>
		<path class="st9" d="M-712,752.7c14.3-23.8-9.7-52.5,1.6-77.6"/>
		<path class="st9" d="M-696.7,723.2c0.1,19.7-1.5,45.4,16.4,58c-19,0-20.2-26.1-36-31.6c-4.2-1.5-9.3-5.8-7.1-10.9
			c2.6-6.3-0.8-16.2-3.3-26.4"/>
		<path class="st9" d="M-633.9,713.4c-2.5,10.2-5.9,20.1-3.3,26.4c2.1,5.1-2.9,9.3-7.2,10.9c-15.7,5.5-16.9,31.6-35.8,31.6
			c17.8-12.7,16.2-38.4,16.4-58c0-3.6,0.4-7.2,0.8-10.8"/>
		<path class="st9" d="M-648.6,752.8c-7.5-12.4-4.5-26.1-1.6-40"/>
		<path class="st9" d="M-710.2,713.4c2.9,13.7,5.6,27.2-1.8,39.5"/>
	</g>
</g>
<g id="Layer_7">
	<g>
		<path class="st10" d="M-532.3,739.5c-1.1-1-2.2-2.1-3.2-3.3l0,0c-1.9-6.1-6.6-12.1-6.6-12.1c-4.4-3.9-9.8-23-9.8-23
			c-5.4-32.9-21-43.6-21-43.6c2.4-12.9-6.1-33.8-6.1-33.8c1.6-6.1,2.1-12.7,2.1-18.7"/>
		<path class="st10" d="M-609.2,783.1c-1.3-23.1-6.5-40.6-6.5-40.6c-2.6-5.9-4-11.5-4-11.5c0-15.1-4.4-36.8-4.4-36.8
			c-2.9-9.5-0.7-20.1-0.7-20.1c5.1-24,12.2-53,12.2-53c1.5,27.6,15.5,54.8,15.5,54.8c0,9.2,4.4,17.1,4.4,17.1
			c16.8,31.4,33.6,49.7,33.6,49.7"/>
		<path class="st10" d="M-806.7,742.7c0,0,16.7-18.3,33.6-49.7c0,0,4.4-7.9,4.4-17.1c0,0,14-27.2,15.5-54.8c0,0,7.1,29,12.2,53
			c0,0,2.2,10.5-0.7,20.1c0,0-4.4,21.7-4.4,36.8c0,0-1.5,5.6-4,11.5c0,0-5.2,17.3-6.5,40.3"/>
		<path class="st10" d="M-789.1,605c0,6,0.5,12.6,2.1,18.7c0,0-8.5,20.8-6.1,33.8c0,0-15.6,10.7-21,43.6c0,0-5.4,19.1-9.7,23
			c0,0-4.6,5.9-6.6,12.1l0,0c-1,1.2-2,2.3-3.2,3.3"/>
	</g>
</g>
<g id="Layer_11">
	<g>
		<path class="st11" d="M-684.7,763.6c0,0,0.4-4.5-3.8-6.7c0,0-13.9-4-16.8-8.5c0,0-16.1-11.9-1.5-27.4c0,0,11.5-10.3,38-7.2
			c0,0,15.9,1.7,17.9,15.7c0,0,2.3,18.8-21.2,26.2c0,0-2.8,1.1-3.9,3.6c0,0-0.8,1.7-0.4,4l0.3,8.6c1.8,3.5,1.4,4.1,1.4,4.1
			c-0.7,3.5-4.2,1.6-4.5,1.3s-0.9-0.7-1.1-3l0,0c-0.2,2.4-0.8,2.7-1.1,3c-0.3,0.3-3.8,2.3-4.5-1.3c0,0-0.4-0.6,1.4-4.1L-684.7,763.6
			z"/>
		<path class="st11" d="M-656.3,718.9c5.3-3.2,0.7-23.6,0.7-23.6l-2.4,0.1c4.2,14.5-0.6,22.1-0.6,22.1L-656.3,718.9z"/>
		<path class="st11" d="M-707.8,721.5c-5.7-2.6-3.2-23.4-3.2-23.4l2.4-0.1c-2.7,14.9,2.9,21.8,2.9,21.8L-707.8,721.5z"/>
		<path class="st11" d="M-683.3,762.5c0,0,0.3-4.4-2.6-6.4c0,0-9.4-3.8-11.3-8.2c0,0-10.9-11.4-1-26.2c0,0,7.8-9.9,25.6-6.9
			c0,0,10.7,1.6,12,15c0,0,1.5,18-14.3,25c0,0-1.9,1.1-2.6,3.5c0,0-0.5,1.6-0.3,3.8l0.2,8.3c1.2,3.3,1,3.9,1,3.9
			c-0.5,3.4-2.8,1.5-3,1.2c-0.2-0.3-0.6-0.6-0.7-2.9l0,0c-0.1,2.3-0.5,2.6-0.7,2.9c-0.2,0.3-2.5,2.2-3-1.2c0,0-0.3-0.6,1-3.9
			L-683.3,762.5z"/>
		<path class="st11" d="M-690.9,714.4c-47.4,18.8,5.9,42.2,5.9,42.2"/>
		<line class="st11" x1="-695.4" y1="719.1" x2="-697.1" y2="717.2"/>
		<line class="st11" x1="-697.6" y1="721.2" x2="-700.4" y2="719"/>
		<line class="st11" x1="-699.1" y1="723.6" x2="-703.1" y2="720.8"/>
		<line class="st11" x1="-700.4" y1="726.1" x2="-705.4" y2="722.7"/>
		<line class="st11" x1="-701.3" y1="728.4" x2="-707.1" y2="724.5"/>
		<line class="st11" x1="-701.9" y1="729.9" x2="-708.5" y2="726.2"/>
		<line class="st11" x1="-702.1" y1="733" x2="-709.9" y2="728.6"/>
		<line class="st11" x1="-702.3" y1="735.6" x2="-710.5" y2="731.7"/>
		<path class="st12" d="M-702.1,738.7"/>
		<line class="st11" x1="-710.1" y1="735.2" x2="-701.6" y2="739"/>
		<path class="st12" d="M-707.6,740.1"/>
		<line class="st11" x1="-699.2" y1="745.1" x2="-704.7" y2="743.7"/>
		<line class="st11" x1="-707.8" y1="740.1" x2="-700.8" y2="742"/>
		<path class="st12" d="M-697.4,747.7c-0.5-0.1-3.2-0.4-3.2-0.4"/>
		<line class="st11" x1="-693.3" y1="715.5" x2="-692.7" y2="717.4"/>
		<line class="st11" x1="-690.8" y1="714.3" x2="-690.1" y2="716"/>
		<line class="st11" x1="-686.9" y1="713.6" x2="-686.5" y2="715.1"/>
		<line class="st11" x1="-683" y1="713.4" x2="-683" y2="714.4"/>
		<line class="st11" x1="-678.3" y1="713.1" x2="-678.4" y2="714"/>
		<line class="st11" x1="-673" y1="713.4" x2="-673.1" y2="714.7"/>
		<line class="st11" x1="-666.7" y1="714.1" x2="-669.4" y2="715.8"/>
		<line class="st11" x1="-661.6" y1="715.8" x2="-666.1" y2="718"/>
		<line class="st11" x1="-657.8" y1="718.2" x2="-663.6" y2="720.8"/>
		<line class="st11" x1="-654.1" y1="721.8" x2="-661.6" y2="724.8"/>
		<line class="st11" x1="-652" y1="725.4" x2="-660.7" y2="728.1"/>
		<line class="st11" x1="-651" y1="729.4" x2="-660.5" y2="732.2"/>
		<line class="st11" x1="-651.6" y1="736.1" x2="-661" y2="737.4"/>
		<line class="st11" x1="-653.2" y1="740.7" x2="-662.3" y2="741.5"/>
		<line class="st11" x1="-656.9" y1="746.2" x2="-664.5" y2="746.2"/>
		<line class="st11" x1="-660.3" y1="749.5" x2="-667.3" y2="749.5"/>
		<line class="st11" x1="-666" y1="753.2" x2="-670.8" y2="752.7"/>
		<line class="st11" x1="-670.1" y1="755" x2="-673.8" y2="754.3"/>
	</g>
</g>
<g id="Layer_10">
	<g>
		<g>
			<polyline class="st13" points="-704.4,685.6 -703.6,685.5 -702.3,685.4 -700.9,685.3 -700.1,685.2 -699.4,685.2 -698.9,684.5 
				-698.7,684 -698.5,683.3 -698.5,682.8 -698.6,682.2 -698.3,681.7 -698.2,681.1 -698.1,680.3 -698,679.6 -697.9,678.9 
				-697.9,678.2 -697.9,677.3 -698,676.7 -698.1,675.9 -698.2,675.6 -698.2,675.3 -698.1,674.9 -697.9,674.4 -697.8,673.5 
				-697.7,672.3 -697.7,671.4 -697.8,673.1 -697.7,673.7 -697.7,674.1 -697.4,674.9 -697.1,675.5 -696.6,676 -696.4,676.2 
				-695.6,676.8 -694.9,677.1 -695.1,677.8 -695.1,678.3 -695.2,678.6 -695.2,678.8 -695.2,679.1 -695.2,679.3 -695.1,679.5 
				-695.1,679.6 -695.1,679.8 -695,680.1 -695,680.3 -694.9,680.6 -694.8,680.8 -694.7,681 -694.6,681.2 -694.5,681.2 -694.4,681.2 
				-694.3,681.3 -694.2,681.2 -694,681.2 -693.9,681.2 -693.7,681.1 -693.5,681.1 -693.4,681 -693.4,680.9 -693.2,680.8 
				-693.2,680.7 -693.6,679 -693.6,678.6 -693.6,678.4 -693.5,678.1 -693.5,677.9 -693.3,677.5 -693.1,675.8 -692.9,674.9 
				-692.7,674 -692.7,673.7 -692.6,673.4 -692.4,673 -692.3,672.6 -691.9,672.1 -691.6,671.7 -691.3,671.3 -690.8,670.9 
				-690.5,670.7 -690,670.3 -689.9,670.2 -689.9,670.2 -689.9,670.1 -689.9,670 -689.9,670 -689.9,669.9 -689.9,669.9 -690,669.9 
				-690,669.8 -690.1,669.7 -690.2,669.7 -690.2,669.7 -690.3,669.7 -690.3,669.7 -690.4,669.7 -690.5,669.7 -690.6,669.8 
				-690.7,669.9 -691.2,670.1 -691.6,670.3 -691.8,670.4 -691.9,670.4 -692,670.4 -692.1,670.5 -692.3,670.5 -692.4,670.4 
				-692.4,670.3 -692.5,670.1 -692.6,670 -692.7,669.8 -692.9,669.7 -692.9,669.6 -693.2,669.4 -693.4,669.3 -693.5,669.2 
				-693.7,669.2 -693.8,669.2 -694,669.2 -694.2,669.3 -694.2,669.3 -694.3,669.5 -694.4,669.6 -694.4,669.6 -694.4,669.7 
				-694.1,669.9 -693.6,670.3 -693.5,670.4 -693.5,670.5 -693.4,670.7 -693.4,670.8 -693.4,671 -693.5,671.5 -693.6,671.7 
				-693.9,672.1 -694,672.4 -694.3,673 -694.4,673.3 -694.6,673.9 -694.8,674.5 -694.7,674.9 -694.7,675.3 -694.6,675.5 -695,675.3 
				-695.5,674.9 -696,674.3 -696.1,673.6 -696.3,672.7 -696.3,672.2 -696.3,671.7 -696.2,671.5 -696.2,671.1 -696.1,670.8 
				-696.2,670.6 -696.3,670.6 -696.4,670.5 -696.7,670.2 -697.1,670.1 -697.2,670 -697.7,670 -698.1,670 -698.4,670.1 -698.6,670.3 
				-698.7,670.3 -698.9,670.5 -699,670.7 -699.1,670.8 -699.2,671 -699.3,671.3 -699.3,671.5 -699.4,671.8 -699.3,672.4 
				-699.4,672.8 -699.6,673.5 -699.8,674.1 -699.9,674.5 -700.1,674.9 -700.4,675.3 -701,675.8 -701.4,676.1 -701.6,676.3 
				-701.9,676.7 -702.2,677.1 -702.3,677.2 -703.3,678.1 -705,679.9 -705.5,680.4 -705.7,680.7 -706.2,681.2 -706.6,681.8 
				-706.9,682.5 -707.1,682.8 -707.3,683.3 -707.7,683.9 -708.1,684.5 -708.7,685.4 -708.9,685.6 -709.1,685.7 -709.3,685.9 
				-709.7,686 -710,686.2 -708.6,686 -707.1,685.8 -706.1,685.7 -705.2,685.6 -704.4,685.6 			"/>
			<path class="st13" d="M-704.4,685.6l0.8-0.1l1.2-0.1l1.4-0.1l0.8-0.1h0.8l0.4-0.7l0.2-0.6l0.2-0.7v-0.6l-0.1-0.5l0.2-0.6l0.2-0.6
				l0.1-0.8l0.1-0.7l0.1-0.7V678v-0.8l-0.1-0.7l-0.1-0.7l-0.1-0.3l-0.1-0.3l0.1-0.3l0.2-0.5l0.1-0.9v-1.1v-1l-0.1,1.7v0.6l0.1,0.4
				l0.3,0.7l0.3,0.6l0.5,0.6l0.2,0.2l0.8,0.6l0.7,0.3l-0.2,0.7v0.6l-0.1,0.3v0.2l0.1,0.3v0.2v0.1v0.1v0.2l0.1,0.3v0.2l0.1,0.3
				l0.1,0.2l0.1,0.3l0.1,0.2h0.1h0.1l0.1,0.1l0.1-0.1h0.2h0.1l0.2-0.1h0.2v-0.1l0.1-0.1l0.1-0.1v-0.1l-0.4-1.7v-0.4v-0.2v-0.3
				l0.1-0.2l0.2-0.4l0.3-1.7l0.2-0.9l0.2-1v-0.3l0.1-0.3l0.2-0.5l0.1-0.4l0.3-0.5l0.3-0.4l0.4-0.4l0.5-0.4l0.3-0.2l0.5-0.4h0.1v-0.1
				V670v-0.1l0,0v-0.1l0,0h-0.1v-0.1h-0.1h-0.1v-0.1h-0.1l0,0h-0.1v0.1h-0.1l-0.1,0.1l-0.5,0.2l-0.4,0.2l-0.2,0.1h-0.1h-0.1h-0.1
				h-0.2l-0.1-0.1h-0.1l-0.1-0.2l-0.1-0.1l-0.1-0.2l-0.2-0.2l-0.1-0.1l-0.2-0.2l-0.2-0.1h-0.1l-0.2-0.1l-0.2,0.1h-0.1l-0.2,0.1
				l-0.1,0.1l-0.1,0.2l-0.1,0.1l0,0v0.1l0.4,0.2l0.4,0.4l0.1,0.1v0.1l0.1,0.1v0.1v0.1l-0.1,0.5l-0.1,0.3l-0.3,0.4l-0.1,0.3l-0.4,0.6
				v0.3l-0.2,0.6l-0.1,0.6l0.1,0.4v0.4l0.1,0.3l-0.4-0.3l-0.5-0.4l-0.4-0.6l-0.2-0.7l-0.2-0.9v-0.5l0.1-0.5v-0.3l0.1-0.3v-0.3
				l-0.1-0.3h-0.1l-0.1-0.1l-0.4-0.3l-0.4-0.1h-0.1h-0.5h-0.4l-0.3,0.1l-0.2,0.1l-0.1,0.1l-0.2,0.2l-0.1,0.2l-0.1,0.1l-0.1,0.2
				l-0.1,0.3v0.1l-0.1,0.3l0.1,0.6l-0.1,0.4l-0.2,0.7l-0.2,0.5l-0.1,0.4l-0.2,0.4l-0.4,0.4l-0.5,0.5l-0.5,0.3l-0.1,0.2l-0.4,0.4
				l-0.3,0.4l-0.1,0.2l-0.9,0.8l-1.3,2.1l-0.5,0.5l-0.2,0.3l-0.4,0.6l-0.4,0.6l-0.3,0.6l-0.2,0.3l-0.2,0.5l-0.4,0.6l-0.4,0.6
				l-0.6,0.8l-0.2,0.2l-0.2,0.1l-0.2,0.2l-0.4,0.1l-0.3,0.1l1.4-0.2l1.6-0.2l1-0.1l0.9-0.1L-704.4,685.6 M-684.5,682.4L-684.5,682.4
				L-684.5,682.4l0.2-0.2l0.1-0.1h0.1h0.1h0.2h0.1h0.1h0.2h0.1v0.1v0.1l-0.1,0.1h-0.1v0.1l-0.1,0.1l0,0l0,0v0.1h-0.1v0.1l-0.1,0.1
				l-0.1,0.1l0,0h-0.1l0,0h-0.1h-0.1l0,0v-0.1v-0.1v-0.1v-0.1L-684.5,682.4 M-684.5,682.4L-684.5,682.4L-684.5,682.4l0.2-0.2
				l0.1-0.1h0.1h0.1h0.2h0.1h0.1h0.2h0.1v0.1v0.1l-0.1,0.1h-0.1v0.1l-0.1,0.1l0,0l0,0v0.1h-0.1v0.1l-0.1,0.1l-0.1,0.1l0,0h-0.1l0,0
				h-0.1h-0.1l0,0v-0.1v-0.1v-0.1v-0.1L-684.5,682.4 M-694.6,681.1L-694.6,681.1l0.2,0.1h0.1l0,0h0.1h0.1h0.1l0.2-0.1h0.1h0.1
				l0.2-0.1l0.1-0.1l0.1-0.1h-0.1l0,0v-0.1l0,0h-0.1h-0.2l0,0l0,0h-0.1h-0.1h-0.1l-0.1,0.1h-0.1l0,0l-0.1,0.1l0,0l-0.1,0.1v0.1
				l-0.1,0.1L-694.6,681.1L-694.6,681.1 M-694.6,681.1L-694.6,681.1l0.2,0.1h0.1l0,0h0.1h0.1h0.1l0.2-0.1h0.1h0.1l0.2-0.1l0.1-0.1
				l0.1-0.1h-0.1l0,0v-0.1l0,0h-0.1h-0.2l0,0l0,0h-0.1h-0.1h-0.1l-0.1,0.1h-0.1l0,0l-0.1,0.1l0,0l-0.1,0.1v0.1l-0.1,0.1
				L-694.6,681.1L-694.6,681.1 M-694.3,669.6L-694.3,669.6v-0.1V669.6v-0.1l0,0l0,0l0,0h0.1l0,0h0.1l0,0h0.1h0.1l0,0h0.1h0.1l0,0
				l0,0l0,0v0.1l-0.1,0.1l0,0l-0.1,0.1h-0.1h-0.1h-0.1h-0.1V669.6L-694.3,669.6 M-694.3,669.6L-694.3,669.6v-0.1V669.6v-0.1l0,0l0,0
				l0,0h0.1l0,0h0.1l0,0h0.1h0.1l0,0h0.1h0.1l0,0l0,0l0,0v0.1l-0.1,0.1l0,0l-0.1,0.1h-0.1h-0.1h-0.1h-0.1V669.6L-694.3,669.6
				 M-690.2,670.1L-690.2,670.1l-0.2-0.1l0,0v-0.1h-0.1l0,0v-0.1l0,0h0.1l0,0h0.1l0,0h0.1h0.1l0.1,0.1l0,0v0.1l0.1,0.1l0,0v0.1l0,0
				v0.1h-0.1l0,0L-690.2,670.1 M-690.2,670.1L-690.2,670.1l-0.2-0.1l0,0v-0.1h-0.1l0,0v-0.1l0,0h0.1l0,0h0.1l0,0h0.1h0.1l0.1,0.1
				l0,0v0.1l0.1,0.1l0,0v0.1l0,0v0.1h-0.1l0,0L-690.2,670.1 M-712.7,691.3l-1.5,0.1l-1.3,0.4l-1.2,0.5l-0.6,0.3l-1.7,0.7l-1.5,0.4
				l-1.6,0.2l-1.6,0.4l-1.5,0.6l-1.4,0.8l-1,0.7l-0.2,0.1h-0.3h-0.2l-0.2-0.1l-0.2-0.2l-0.1-0.2l0.2-1.4v-1.4v-0.6l-0.4-3l-0.4-2.2
				l-0.4-2.7l-0.7-2.7l-0.9-2.5l-0.4-2.5l-0.3-2.6v-2.6l0.2-1.7l0.4-1.8l0.6-1.8l0.4-1l1.2-2.2l1.4-2l1.3-1.7l1.3-1.2l2-1.5l1.5-1
				l1.7-0.8l2.4-1l2.9-1l0.5-0.2l1.9-0.4l2-0.2l2.1,0.1l3.2,0.2l4,0.4l4.7,0.8l1.1,0.3l1.2,0.2l1.8,0.3l2.2,0.2l1.1,0.2l0.7,0.1
				l0.7,0.2l0.5,0.4l0.3,0.5v0.5l-0.2,0.5l-0.3,0.8l-0.2,0.4l-0.2,0.5l-0.2,0.4l-0.1,0.5l-0.2,0.8l-0.2,0.9l-0.2,1.9v0.7v0.9v0.9
				l0.2,1l0.3,1l0.4,1.5l0.4,1.9l0.7,2.8l0.2,0.9l0.1,0.9v0.9l-0.1,0.8l-0.2,0.6l-0.3,0.5l-0.4,0.5l-0.4,0.5l-0.6,0.6l-0.7,0.6
				l-0.8,0.5l-1.7,1.1l-1.2,0.7l-1.1,0.7l-1.3,0.8l-0.5,0.2l-0.4,0.2l-0.6,0.1l-0.6,0.1"/>
			<path class="st13" d="M-712.7,691.3l-1.5,0.1l-1.3,0.4l-1.2,0.5l-0.6,0.3l-1.7,0.7l-1.5,0.4l-1.6,0.2l-1.6,0.4l-1.5,0.6l-1.4,0.8
				l-1,0.7l-0.2,0.1h-0.3h-0.2l-0.2-0.1l-0.2-0.2l-0.1-0.2l0.2-1.4v-1.4v-0.6l-0.4-3l-0.4-2.2l-0.4-2.7l-0.7-2.7l-0.9-2.5l-0.4-2.5
				l-0.3-2.6v-2.6l0.2-1.7l0.4-1.8l0.6-1.8l0.4-1l1.2-2.2l1.4-2l1.3-1.7l1.3-1.2l2-1.5l1.5-1l1.7-0.8l2.4-1l2.9-1l0.5-0.2l1.9-0.4
				l2-0.2l2.1,0.1l3.2,0.2l4,0.4l4.7,0.8l1.1,0.3l1.2,0.2l1.8,0.3l2.2,0.2l1.1,0.2l0.7,0.1l0.7,0.2l0.5,0.4l0.3,0.5v0.5l-0.2,0.5
				l-0.3,0.8l-0.2,0.4l-0.2,0.5l-0.2,0.4l-0.1,0.5l-0.2,0.8l-0.2,0.9l-0.2,1.9v0.7v0.9v0.9l0.2,1l0.3,1l0.4,1.5l0.4,1.9l0.7,2.8
				l0.2,0.9l0.1,0.9v0.9l-0.1,0.8l-0.2,0.6l-0.3,0.5l-0.4,0.5l-0.4,0.5l-0.6,0.6l-0.7,0.6l-0.8,0.5l-1.7,1.1l-1.2,0.7l-1.1,0.7
				l-1.3,0.8l-0.5,0.2l-0.4,0.2l-0.6,0.1l-0.6,0.1 M-680.8,679.9l-0.4-0.1l-0.3-0.2l-0.3-0.2l-0.2-0.1l-0.3-0.2l-0.2-0.2l-0.2-0.2
				l-0.2-0.2l-0.2-0.3l-0.3-0.3l-0.3-0.4l-0.2-0.4l-0.2-0.4l-0.2-0.4l-0.1-0.4l-0.1-0.4l-0.1-0.5l-0.1-0.4l-0.1-0.4l-0.1-0.4
				l-0.2-0.6l-0.1-0.5l-0.3-0.6l-0.2-0.6l-0.3-0.6l-0.1-0.6l-0.2-0.6l-0.2-0.6l-0.2-0.6l-0.1-0.6l-0.1-0.7l-0.1-0.6l-0.1-0.6
				l-0.1-0.4V665v-0.6v-0.6l-0.1-0.6v-0.6l0.1-0.6l0.1-0.6l0.1-0.6l0.1-0.6l0.1-0.4v-0.4l0.1-0.4l0.1-0.4l0.2-0.4l0.2-0.4l0.2-0.4
				l0.2-0.4l0.2-0.3l0.3-0.4l0.2-0.2l0.2-0.2l0.2-0.2l0.3-0.2l0.3-0.1l0.3-0.1l0.3-0.2l0.3-0.1l0.5-0.1l0.4-0.1l0.4-0.1h0.5l0.4-0.1
				h6.7l8.8,0.2l1.7,0.1l1.8,0.1l1.8,0.2h0.9l0.5,0.1h0.2l0.2,0.1l0.2,0.1l0.1,0.1l0.3,0.1l0.1,0.1l0.2,0.1l0.1,0.1l0.2,0.1l0.1,0.2
				l0.1,0.2v0.2l0.1,0.2l0.1,0.2v0.2l0.1,0.3v0.2v0.2v0.3v0.2l-0.1,0.2l-0.1,0.4l-0.2,0.6l-0.2,0.5l-0.3,0.6l-0.2,0.4l-0.3,0.5
				l-0.4,0.6l-0.3,0.5l-0.4,0.5l-0.3,0.5l-0.4,0.5l-0.8,1.1l-0.7,1l-0.8,0.9l-0.6,0.9l-0.9,1l-0.4,0.3l-0.4,0.4l-0.4,0.4l-0.4,0.4
				l-0.4,0.4l-0.4,0.3l-0.5,0.3l-0.5,0.3l-0.8,0.5l-0.5,0.3l-1,0.5l-2.7,1.2l-2.8,1l-1.5,0.5l-1.6,0.5l-0.7,0.3l-1,0.2l-0.5,0.2
				l-0.6,0.2l-0.6,0.1l-1,0.1l-0.6,0.1l-0.4-0.1 M-680.8,679.9l-0.4-0.1l-0.3-0.2l-0.3-0.2l-0.2-0.1l-0.3-0.2l-0.2-0.2l-0.2-0.2
				l-0.2-0.2l-0.2-0.3l-0.3-0.3l-0.3-0.4l-0.2-0.4l-0.2-0.4l-0.2-0.4l-0.1-0.4l-0.1-0.4l-0.1-0.5l-0.1-0.4l-0.1-0.4l-0.1-0.4
				l-0.2-0.6l-0.1-0.5l-0.3-0.6l-0.2-0.6l-0.3-0.6l-0.1-0.6l-0.2-0.6l-0.2-0.6l-0.2-0.6l-0.1-0.6l-0.1-0.7l-0.1-0.6l-0.1-0.6
				l-0.1-0.4V665v-0.6v-0.6l-0.1-0.6v-0.6l0.1-0.6l0.1-0.6l0.1-0.6l0.1-0.6l0.1-0.4v-0.4l0.1-0.4l0.1-0.4l0.2-0.4l0.2-0.4l0.2-0.4
				l0.2-0.4l0.2-0.3l0.3-0.4l0.2-0.2l0.2-0.2l0.2-0.2l0.3-0.2l0.3-0.1l0.3-0.1l0.3-0.2l0.3-0.1l0.5-0.1l0.4-0.1l0.4-0.1h0.5l0.4-0.1
				h6.7l8.8,0.2l1.7,0.1l1.8,0.1l1.8,0.2h0.9l0.5,0.1h0.2l0.2,0.1l0.2,0.1l0.1,0.1l0.3,0.1l0.1,0.1l0.2,0.1l0.1,0.1l0.2,0.1l0.1,0.2
				l0.1,0.2v0.2l0.1,0.2l0.1,0.2v0.2l0.1,0.3v0.2v0.2v0.3v0.2l-0.1,0.2l-0.1,0.4l-0.2,0.6l-0.2,0.5l-0.3,0.6l-0.2,0.4l-0.3,0.5
				l-0.4,0.6l-0.3,0.5l-0.4,0.5l-0.3,0.5l-0.4,0.5l-0.8,1.1l-0.7,1l-0.8,0.9l-0.6,0.9l-0.9,1l-0.4,0.3l-0.4,0.4l-0.4,0.4l-0.4,0.4
				l-0.4,0.4l-0.4,0.3l-0.5,0.3l-0.5,0.3l-0.8,0.5l-0.5,0.3l-1,0.5l-2.7,1.2l-2.8,1l-1.5,0.5l-1.6,0.5l-0.7,0.3l-1,0.2l-0.5,0.2
				l-0.6,0.2l-0.6,0.1l-1,0.1l-0.6,0.1l-0.4-0.1 M-687.4,679.1v0.2v0.4l0.1,0.3l0.1,0.2l0.1,0.2l0.1,0.2l0.1,0.2l0.2,0.2l0.1,0.2
				l0.2,0.2l0.5,0.5l0.6,0.4l0.2,0.1l0.4,0.2 M-687.4,679.1v0.2v0.4l0.1,0.3l0.1,0.2l0.1,0.2l0.1,0.2l0.1,0.2l0.2,0.2l0.1,0.2
				l0.2,0.2l0.5,0.5l0.6,0.4l0.2,0.1l0.4,0.2 M-683,682.1L-683,682.1l-0.1,0.2v0.1v0.1h-0.1l-0.1,0.1l-0.1,0.1l-0.1,0.1l-0.1,0.1
				l-0.2,0.1h-0.1l-0.2,0.1l-0.1,0.1h-0.1h-0.1h-0.1h-0.1l0,0h-0.1h-0.1l0,0v-0.1l0,0l-0.1-0.1v-0.1v-0.1v-0.1l0.1-0.1l0.1-0.1
				l0.1-0.1l0,0l0.1-0.1l0.2-0.1l0,0h0.1l0.1-0.1l0.2-0.1h0.2h0.2h0.1h0.1h0.1h0.1L-683,682.1 M-683,682.1L-683,682.1l-0.1,0.2v0.1
				v0.1h-0.1l-0.1,0.1l-0.1,0.1l-0.1,0.1l-0.1,0.1l-0.2,0.1h-0.1l-0.2,0.1l-0.1,0.1h-0.1h-0.1h-0.1h-0.1l0,0h-0.1h-0.1l0,0v-0.1l0,0
				l-0.1-0.1v-0.1v-0.1v-0.1l0.1-0.1l0.1-0.1l0.1-0.1l0,0l0.1-0.1l0.2-0.1l0,0h0.1l0.1-0.1l0.2-0.1h0.2h0.2h0.1h0.1h0.1h0.1
				L-683,682.1 M-685.6,677.1L-685.6,677.1 M-685.6,677.1L-685.6,677.1 M-685.8,677.5L-685.8,677.5 M-685.8,677.5L-685.8,677.5
				 M-685.9,677.8L-685.9,677.8 M-685.9,677.8L-685.9,677.8 M-685.9,678.1L-685.9,678.1 M-685.9,678.1L-685.9,678.1 M-685.8,678.4
				v0.2 M-685.8,678.4v0.2 M-685.6,678.8l0.1,0.2 M-685.6,678.8l0.1,0.2 M-685.5,679.2L-685.5,679.2 M-685.5,679.2L-685.5,679.2
				 M-685.2,679.5v0.1 M-685.2,679.5v0.1 M-685.1,679.9L-685.1,679.9 M-685.1,679.9L-685.1,679.9 M-684.9,680.2l0.1,0.1
				 M-684.9,680.2l0.1,0.1 M-684.7,680.5l0.1,0.1 M-684.7,680.5l0.1,0.1 M-684.5,680.9L-684.5,680.9 M-684.5,680.9L-684.5,680.9
				 M-684.2,681.2l0.1,0.1 M-684.2,681.2l0.1,0.1 M-683.9,681.5l0.1,0.1 M-683.9,681.5l0.1,0.1 M-681.2,680.7h-0.1h-0.2l-0.1,0.1
				h-0.1l-0.2,0.1l-0.1,0.1l-0.1,0.1l-0.2,0.1l-0.1,0.1h-0.1l-0.1,0.1l-0.1,0.1l-0.1,0.1v0.1v0.1v0.1v0.1 M-681.2,680.7h-0.1h-0.2
				l-0.1,0.1h-0.1l-0.2,0.1l-0.1,0.1l-0.1,0.1l-0.2,0.1l-0.1,0.1h-0.1l-0.1,0.1l-0.1,0.1l-0.1,0.1v0.1v0.1v0.1v0.1 M-700.4,687.2
				l0.3-0.1l0.3-0.1l0.4-0.2l0.4-0.2l0.5-0.3l0.2-0.1l0.1-0.1l0.1-0.1l0.1-0.1l0.3-0.3l0.2-0.1l0.2-0.2l0.3-0.3l0.2-0.2
				 M-700.4,687.2l0.3-0.1l0.3-0.1l0.4-0.2l0.4-0.2l0.5-0.3l0.2-0.1l0.1-0.1l0.1-0.1l0.1-0.1l0.3-0.3l0.2-0.1l0.2-0.2l0.3-0.3
				l0.2-0.2 M-657.9,655.8l-0.3-0.1l-0.7-0.1l-0.8-0.2l-0.8-0.1l-1-0.1l-0.9-0.1l-0.9-0.1h-1.1l-1.7-0.1h-1.7h-0.7l-2.1-0.1
				l-2.1-0.1l-1.2-0.1h-1.9h-2l-1.7,0.1l-1,0.1l-0.9,0.1l-0.7,0.1l-0.6,0.1l-0.3,0.1l-0.3,0.1l-0.3,0.1l-0.2,0.1l-0.4,0.3l-0.1,0.1
				l-0.2,0.3l-0.2,0.2l-0.2,0.4l-0.3,0.6l-0.2,0.6l-0.1,0.3 M-706.9,652.5h-1.9h-1.3l-1.6,0.1"/>
			<path class="st13" d="M-706.9,652.5h-1.9h-1.3l-1.6,0.1 M-706.3,652.6l1.5,0.1 M-706.3,652.6l1.5,0.1 M-704.3,652.7l1.3,0.1
				 M-704.3,652.7l1.3,0.1 M-711.2,653.3h-1.2l-1.5,0.1l-1.6,0.2 M-711.2,653.3h-1.2l-1.5,0.1l-1.6,0.2 M-710.5,653.3h1.5l1.4,0.1
				 M-710.5,653.3h1.5l1.4,0.1 M-707.1,653.4l1.4,0.1 M-707.1,653.4l1.4,0.1 M-713.1,654.3h-1.6l-1.6,0.1l-2.3,0.3 M-713.1,654.3
				h-1.6l-1.6,0.1l-2.3,0.3 M-712.5,654.3h1.4h1.3 M-712.5,654.3h1.4h1.3 M-709.3,654.3h0.9l1.2,0.1 M-709.3,654.3h0.9l1.2,0.1
				 M-716,655.5h-1.1l-1.3,0.1l-1.1,0.1l-1.4,0.2 M-716,655.5h-1.1l-1.3,0.1l-1.1,0.1l-1.4,0.2 M-715.1,655.5l1.7-0.1l1.4,0.1
				 M-715.1,655.5l1.7-0.1l1.4,0.1 M-711.1,655.5h1.1h1.1 M-711.1,655.5h1.1h1.1 M-716.4,656.5l-1.1,0.1l-1.2,0.1l-1.2,0.1l-1.3,0.1
				l-1.7,0.3 M-716.4,656.5l-1.1,0.1l-1.2,0.1l-1.2,0.1l-1.3,0.1l-1.7,0.3 M-715.4,656.5l1.4-0.1l1.5,0.1 M-715.4,656.5l1.4-0.1
				l1.5,0.1 M-711.6,656.6h0.8h0.7 M-711.6,656.6h0.8h0.7 M-717.7,657.7h-1.4l-1.4,0.1l-1.3,0.2l-1.3,0.2l-1.3,0.2 M-717.7,657.7
				h-1.4l-1.4,0.1l-1.3,0.2l-1.3,0.2l-1.3,0.2 M-716.6,657.6h1.6h1.4 M-716.6,657.6h1.6h1.4 M-712.6,657.6h0.8l0.7,0.1
				 M-712.6,657.6h0.8l0.7,0.1 M-719.6,658.8l-1.6,0.1l-1.5,0.2l-1.9,0.5l-1.5,0.4 M-719.6,658.8l-1.6,0.1l-1.5,0.2l-1.9,0.5
				l-1.5,0.4 M-718.4,658.7h1.6l1.4-0.1 M-718.4,658.7h1.6l1.4-0.1 M-714.6,658.7h1l1,0.1 M-714.6,658.7h1l1,0.1 M-719.7,659.7
				l-1.4,0.1l-1,0.1l-1,0.1l-1.1,0.3l-1.1,0.3l-0.9,0.3l-0.7,0.3 M-719.7,659.7l-1.4,0.1l-1,0.1l-1,0.1l-1.1,0.3l-1.1,0.3l-0.9,0.3
				l-0.7,0.3 M-718.9,659.7h0.9h1.1 M-718.9,659.7h0.9h1.1 M-716.1,659.8l1.9,0.1 M-716.1,659.8l1.9,0.1 M-721.4,661.1l-1.6,0.2
				l-1.5,0.2l-1.3,0.4l-1.3,0.3l-1.1,0.4 M-721.4,661.1l-1.6,0.2l-1.5,0.2l-1.3,0.4l-1.3,0.3l-1.1,0.4 M-720.4,660.9h1.2l1.3,0.1
				 M-720.4,660.9h1.2l1.3,0.1 M-716.8,661h0.8h0.7 M-716.8,661h0.8h0.7 M-722,662.1l-1.5,0.1l-1.5,0.4l-1.2,0.2l-1.2,0.4l-1.5,0.5
				 M-722,662.1l-1.5,0.1l-1.5,0.4l-1.2,0.2l-1.2,0.4l-1.5,0.5 M-721.2,662l1.3-0.1l1.3,0.1 M-721.2,662l1.3-0.1l1.3,0.1
				 M-717.8,662h1.1 M-717.8,662h1.1 M-723.9,663.4l-1,0.2l-1.1,0.2l-0.8,0.1l-0.9,0.3l-0.7,0.2l-0.7,0.3 M-723.9,663.4l-1,0.2
				l-1.1,0.2l-0.8,0.1l-0.9,0.3l-0.7,0.2l-0.7,0.3 M-722.9,663.3l1.7-0.3l1.7-0.1 M-722.9,663.3l1.7-0.3l1.7-0.1 M-718.6,663
				l1.3,0.1 M-718.6,663l1.3,0.1 M-724,664.4l-1.1,0.2l-0.9,0.2l-1,0.2l-0.9,0.3l-0.9,0.3l-0.9,0.3l-0.1,0.1 M-724,664.4l-1.1,0.2
				l-0.9,0.2l-1,0.2l-0.9,0.3l-0.9,0.3l-0.9,0.3l-0.1,0.1 M-722.9,664.2l1.6-0.2h1.3 M-722.9,664.2l1.6-0.2h1.3 M-719.4,664l1.3,0.1
				 M-719.4,664l1.3,0.1 M-722.3,665.4l-1.2,0.1l-1.1,0.2l-1.1,0.2l-1,0.2l-1,0.3l-1,0.3l-1,0.4l-0.8,0.3 M-722.3,665.4l-1.2,0.1
				l-1.1,0.2l-1.1,0.2l-1,0.2l-1,0.3l-1,0.3l-1,0.4l-0.8,0.3 M-721.6,665.3l1.4-0.1l1.3-0.1 M-721.6,665.3l1.4-0.1l1.3-0.1
				 M-723.9,666.7l-1.1,0.2l-1,0.2l-0.9,0.2l-1.7,0.6l-1.1,0.4l-0.9,0.5 M-723.9,666.7l-1.1,0.2l-1,0.2l-0.9,0.2l-1.7,0.6l-1.1,0.4
				l-0.9,0.5 M-722.8,666.5l1.5-0.2h1.7 M-722.8,666.5l1.5-0.2h1.7 M-724.2,667.6l-0.4,0.1l-0.5,0.1l-1.1,0.3l-1.2,0.4l-1.1,0.4
				l-1,0.4l-0.7,0.3l-0.6,0.3 M-724.2,667.6l-0.4,0.1l-0.5,0.1l-1.1,0.3l-1.2,0.4l-1.1,0.4l-1,0.4l-0.7,0.3l-0.6,0.3 M-723.5,667.4
				l1-0.1l0.9-0.1 M-723.5,667.4l1-0.1l0.9-0.1 M-721,667.2h0.5h0.5 M-721,667.2h0.5h0.5 M-723.1,668.3l-1.1,0.3l-1,0.2l-1,0.3
				l-0.9,0.3l-0.9,0.4l-1.6,0.6l-1.4,0.6 M-723.1,668.3l-1.1,0.3l-1,0.2l-1,0.3l-0.9,0.3l-0.9,0.4l-1.6,0.6l-1.4,0.6 M-722.4,668.3
				l0.9-0.1h0.9 M-722.4,668.3l0.9-0.1h0.9 M-725.1,670l-1.3,0.4l-1.4,0.5l-1.2,0.4l-0.9,0.3l-1.1,0.5 M-725.1,670l-1.3,0.4
				l-1.4,0.5l-1.2,0.4l-0.9,0.3l-1.1,0.5 M-724.3,669.8l1-0.3l0.9-0.2 M-724.3,669.8l1-0.3l0.9-0.2 M-721.8,669.2l0.9-0.1
				 M-721.8,669.2l0.9-0.1 M-724.6,671.1l-1.2,0.3l-1.4,0.5l-1.2,0.4l-1.2,0.5l-1.1,0.5l-0.5,0.2 M-724.6,671.1l-1.2,0.3l-1.4,0.5
				l-1.2,0.4l-1.2,0.5l-1.1,0.5l-0.5,0.2 M-724.1,670.8l1.2-0.3l1.2-0.2 M-724.1,670.8l1.2-0.3l1.2-0.2 M-724.9,672.3l-1,0.3
				l-1.3,0.5l-0.9,0.3l-1,0.4l-1.1,0.4l-0.9,0.4 M-724.9,672.3l-1,0.3l-1.3,0.5l-0.9,0.3l-1,0.4l-1.1,0.4l-0.9,0.4 M-724.3,672.2
				l0.7-0.3l0.7-0.2l1.1-0.1 M-724.3,672.2l0.7-0.3l0.7-0.2l1.1-0.1 M-727.8,674.4l-0.8,0.3l-0.6,0.2l-0.6,0.3l-0.5,0.2l-0.8,0.4
				 M-727.8,674.4l-0.8,0.3l-0.6,0.2l-0.6,0.3l-0.5,0.2l-0.8,0.4 M-727.2,674.2l0.9-0.3l0.8-0.3 M-727.2,674.2l0.9-0.3l0.8-0.3
				 M-725,673.3l1.1-0.3l1.5-0.4 M-725,673.3l1.1-0.3l1.5-0.4 M-727.6,675.5l-0.8,0.4l-1.2,0.5l-1,0.5 M-727.6,675.5l-0.8,0.4
				l-1.2,0.5l-1,0.5 M-727.1,675.3l0.9-0.4l1-0.4l0.9-0.3l0.9-0.3 M-727.1,675.3l0.9-0.4l1-0.4l0.9-0.3l0.9-0.3 M-725.9,676
				l-1.1,0.4l-1.3,0.6l-2.3,1.2 M-725.9,676l-1.1,0.4l-1.3,0.6l-2.3,1.2 M-725.3,675.8l1.2-0.4l1-0.3l0.6-0.2 M-725.3,675.8l1.2-0.4
				l1-0.3l0.6-0.2 M-726.1,677.3l-1.3,0.6l-1.7,0.8l-1.4,0.8 M-726.1,677.3l-1.3,0.6l-1.7,0.8l-1.4,0.8 M-725.6,677.1l1.2-0.4
				l1.5-0.5 M-725.6,677.1l1.2-0.4l1.5-0.5 M-725.7,678.4l-1,0.4l-1.3,0.6l-1.1,0.6l-1,0.6 M-725.7,678.4l-1,0.4l-1.3,0.6l-1.1,0.6
				l-1,0.6 M-722.6,677.2l-1.2,0.5l-1.2,0.4 M-722.6,677.2l-1.2,0.5l-1.2,0.4 M-725.3,679.3l-1.7,0.8l-1.2,0.7l-1,0.6l-0.4,0.3
				 M-725.3,679.3l-1.7,0.8l-1.2,0.7l-1,0.6l-0.4,0.3 M-724.7,679.1l1-0.4l1.1-0.4 M-724.7,679.1l1-0.4l1.1-0.4 M-725.3,680.5
				l-1.7,0.8l-1.2,0.7l-1.2,0.8 M-725.3,680.5l-1.7,0.8l-1.2,0.7l-1.2,0.8 M-724.8,680.2l1-0.4l1-0.4 M-724.8,680.2l1-0.4l1-0.4
				 M-725,681.3l-0.7,0.4l-1.1,0.7l-0.9,0.6l-1.4,0.9 M-725,681.3l-0.7,0.4l-1.1,0.7l-0.9,0.6l-1.4,0.9 M-724.5,681.1l0.7-0.4
				l0.9-0.3 M-724.5,681.1l0.7-0.4l0.9-0.3 M-724.6,682.3l-1.1,0.7l-1.4,0.8l-1.7,1.1 M-724.6,682.3l-1.1,0.7l-1.4,0.8l-1.7,1.1
				 M-724.1,682l0.6-0.3l0.7-0.3 M-724.1,682l0.6-0.3l0.7-0.3 M-724.3,683.3l-1.6,0.9l-1.5,0.9l-1.4,0.9 M-724.3,683.3l-1.6,0.9
				l-1.5,0.9l-1.4,0.9 M-724,683l0.8-0.4l0.7-0.3 M-724,683l0.8-0.4l0.7-0.3 M-724.7,684.7l-1.1,0.7l-0.8,0.5l-0.8,0.5l-1.2,0.8
				 M-724.7,684.7l-1.1,0.7l-0.8,0.5l-0.8,0.5l-1.2,0.8 M-724.4,685.6l-1.1,0.7l-1.5,1.1l-1.4,1 M-724.4,685.6l-1.1,0.7l-1.5,1.1
				l-1.4,1 M-725,687.3l-1,0.7l-1,0.7l-1.2,0.8 M-725,687.3l-1,0.7l-1,0.7l-1.2,0.8 M-724.8,688.3l-0.9,0.6l-1.1,0.8l-1.2,0.8
				 M-724.8,688.3l-0.9,0.6l-1.1,0.8l-1.2,0.8 M-724.7,689.5l-0.9,0.7l-1.1,0.7l-1,0.7 M-724.7,689.5l-0.9,0.7l-1.1,0.7l-1,0.7
				 M-724.3,684.4l0.8-0.5l0.8-0.5 M-724.3,684.4l0.8-0.5l0.8-0.5 M-724.2,687.9l0.8-0.6l0.7-0.6 M-724.2,687.9l0.8-0.6l0.7-0.6
				 M-724.4,689.1l1.1-0.7 M-724.4,689.1l1.1-0.7 M-723.2,673.9l0.7-0.2 M-723.2,673.9l0.7-0.2 M-724.1,685.4l0.7-0.6l0.7-0.4
				 M-724.1,685.4l0.7-0.6l0.7-0.4 M-724.4,686.8l0.9-0.7l0.8-0.6 M-724.4,686.8l0.9-0.7l0.8-0.6 M-722.9,688.1l0.5-0.5
				 M-722.9,688.1l0.5-0.5 M-666.6,672l-0.3-0.1 M-666.6,672l-0.3-0.1 M-667.1,672.3l-0.3-0.1 M-667.1,672.3l-0.3-0.1 M-683.1,677.3
				L-683.1,677.3l0.1,0.2l0.1,0.1v0.1l0.1,0.1h0.1l0.1,0.1h0.2 M-683.1,677.3L-683.1,677.3l0.1,0.2l0.1,0.1v0.1l0.1,0.1h0.1l0.1,0.1
				h0.2 M-682.3,677.4L-682.3,677.4l0.2,0.2l0.1,0.1h0.1l0.2,0.1l0.2,0.1l0.1,0.1h0.1 M-682.3,677.4L-682.3,677.4l0.2,0.2l0.1,0.1
				h0.1l0.2,0.1l0.2,0.1l0.1,0.1h0.1 M-681.5,677.2L-681.5,677.2l0.1,0.1h0.1l0.1,0.1l0.2,0.1h0.1l0.2,0.1l0,0 M-681.5,677.2
				L-681.5,677.2l0.1,0.1h0.1l0.1,0.1l0.2,0.1h0.1l0.2,0.1l0,0 M-680.5,677.1l0.2,0.2l0.2,0.2 M-680.5,677.1l0.2,0.2l0.2,0.2
				 M-679.9,677.1l0.4,0.2 M-679.9,677.1l0.4,0.2 M-678.9,677.1l-0.5-0.4 M-678.9,677.1l-0.5-0.4 M-678.4,676.6l0.5,0.2
				 M-678.4,676.6l0.5,0.2 M-677.5,676.5l0.4,0.2 M-677.5,676.5l0.4,0.2 M-676.8,676.2l0.4,0.2 M-676.8,676.2l0.4,0.2 M-675.9,675.9
				l0.4,0.2 M-675.9,675.9l0.4,0.2 M-675.3,675.8h0.5 M-675.3,675.8h0.5 M-674.7,675.5l0.5,0.2 M-674.7,675.5l0.5,0.2 M-674,675.3
				l0.2,0.3 M-674,675.3l0.2,0.3 M-673.5,675.1l0.4,0.1"/>
			<path class="st13" d="M-673.5,675.1l0.4,0.1 M-671.9,674.7h-0.7 M-671.9,674.7h-0.7 M-668.3,673h-0.3 M-668.3,673h-0.3
				 M-668.8,673.3h-0.3 M-668.8,673.3h-0.3 M-669.4,673.6h-0.3 M-669.4,673.6h-0.3 M-669.8,673.8h-0.3 M-669.8,673.8h-0.3
				 M-670.3,674h-0.3 M-670.3,674h-0.3 M-670.8,674.2h-0.3 M-670.8,674.2h-0.3 M-671.2,674.3h-0.3 M-671.2,674.3h-0.3 M-668,672.8
				h-0.3 M-668,672.8h-0.3 M-694.6,681.2L-694.6,681.2V681v-0.1l0.1-0.1v-0.1l0.1-0.1l0,0l0,0l0,0l0,0l0.1-0.1h0.1l0.1-0.1l0,0l0,0
				h0.1h0.1h0.2h0.1l0,0l0,0l0.1,0.1l0,0l0.1,0.1l0,0 M-694.6,681.2L-694.6,681.2V681v-0.1l0.1-0.1v-0.1l0.1-0.1l0,0l0,0l0,0l0,0
				l0.1-0.1h0.1l0.1-0.1l0,0l0,0h0.1h0.1h0.2h0.1l0,0l0,0l0.1,0.1l0,0l0.1,0.1l0,0 M-693.4,669.2L-693.4,669.2v0.1l0,0v0.1v0.1l0,0
				l-0.1,0.1h-0.1l0,0l-0.2,0.1h-0.1h-0.2h-0.1 M-693.4,669.2L-693.4,669.2v0.1l0,0v0.1v0.1l0,0l-0.1,0.1h-0.1l0,0l-0.2,0.1h-0.1
				h-0.2h-0.1 M-690.5,669.7L-690.5,669.7v0.1l0,0l0,0v0.1h0.1l0.1,0.1l0,0h0.1h0.1l0,0h0.1 M-690.5,669.7L-690.5,669.7v0.1l0,0l0,0
				v0.1h0.1l0.1,0.1l0,0h0.1h0.1l0,0h0.1 M-693.7,683l-0.3-0.1 M-693.7,683l-0.3-0.1 M-694,683.2l-0.4-0.1 M-694,683.2l-0.4-0.1
				 M-694.4,683.5l-0.3-0.1 M-694.4,683.5l-0.3-0.1 M-694.8,683.8l-0.4-0.2 M-694.8,683.8l-0.4-0.2 M-698.6,685l0.8,0.4 M-698.6,685
				l0.8,0.4 M-698.2,684.8l0.7,0.4 M-698.2,684.8l0.7,0.4 M-698,684.5l0.8,0.5 M-698,684.5l0.8,0.5 M-697.3,684.2l0.7,0.4
				 M-697.3,684.2l0.7,0.4 M-696.8,684.1l0.8,0.4 M-696.8,684.1l0.8,0.4 M-696.2,684l0.6,0.3 M-696.2,684l0.6,0.3 M-695.6,683.8
				l0.5,0.3 M-695.6,683.8l0.5,0.3 M-716.5,691.5h-0.6 M-716.5,691.5h-0.6 M-716.8,691.8h-0.5 M-716.8,691.8h-0.5 M-718.6,692.6
				h-0.6 M-718.6,692.6h-0.6 M-718.1,692.5h-0.5 M-718.1,692.5h-0.5 M-717.8,692.2h-0.5 M-717.8,692.2h-0.5 M-719.9,692.9h-0.6
				 M-719.9,692.9h-0.6 M-720.5,693.1h-0.5 M-720.5,693.1h-0.5 M-721.3,693.2h-0.5 M-721.3,693.2h-0.5 M-723.4,693.8h-0.5
				 M-723.4,693.8h-0.5 M-723.9,694.1h-0.5 M-723.9,694.1h-0.5 M-724.4,694.5h-0.5 M-724.4,694.5h-0.5 M-727.3,693.8l-0.2-0.4
				 M-727.3,693.8l-0.2-0.4 M-727.7,694.3l-0.1-0.3 M-727.7,694.3l-0.1-0.3 M-717,692h-0.5 M-717,692h-0.5 M-722.6,693.6h-0.5
				 M-722.6,693.6h-0.5 M-726.7,693l-0.1-0.3 M-726.7,693l-0.1-0.3 M-725.7,692.6l-0.2-0.3 M-725.7,692.6l-0.2-0.3 M-724.1,691.9
				l-0.1-0.3 M-724.1,691.9l-0.1-0.3 M-723.4,691.6l-0.1-0.3 M-723.4,691.6l-0.1-0.3 M-722.8,691.2l-0.1-0.4 M-722.8,691.2l-0.1-0.4
				 M-722.4,690.8l-0.1-0.3 M-722.4,690.8l-0.1-0.3 M-721.9,690.6l-0.2-0.4 M-721.9,690.6l-0.2-0.4 M-721.3,690.2l-0.1-0.4
				 M-721.3,690.2l-0.1-0.4 M-720.8,689.8l-0.2-0.4 M-720.8,689.8l-0.2-0.4 M-719.4,689.3l-0.2-0.4 M-719.4,689.3l-0.2-0.4
				 M-718.7,689.2l-0.2-0.4 M-718.7,689.2l-0.2-0.4 M-718.1,689l-0.2-0.2l-0.1-0.3 M-718.1,689l-0.2-0.2l-0.1-0.3 M-717.5,688.9
				l-0.2-0.3l-0.1-0.3 M-717.5,688.9l-0.2-0.3l-0.1-0.3 M-717.1,688.7l-0.1-0.2l-0.1-0.3 M-717.1,688.7l-0.1-0.2l-0.1-0.3
				 M-716.5,688.5l-0.2-0.2l-0.1-0.2 M-716.5,688.5l-0.2-0.2l-0.1-0.2 M-715.9,688.2l-0.2-0.4 M-715.9,688.2l-0.2-0.4 M-715.2,688.1
				l-0.1-0.1l-0.1-0.3 M-715.2,688.1l-0.1-0.1l-0.1-0.3 M-714.7,687.8L-714.7,687.8l-0.1-0.1l-0.1-0.3 M-714.7,687.8L-714.7,687.8
				l-0.1-0.1l-0.1-0.3 M-714.1,687.7l-0.1-0.2l-0.1-0.2 M-714.1,687.7l-0.1-0.2l-0.1-0.2 M-713.4,687.5l-0.1-0.2l-0.2-0.2
				 M-713.4,687.5l-0.1-0.2l-0.2-0.2 M-713,687.2l-0.2-0.5 M-713,687.2l-0.2-0.5 M-712.5,687.1l-0.3-0.5 M-712.5,687.1l-0.3-0.5
				 M-712.2,686.7l-0.2-0.3 M-712.2,686.7l-0.2-0.3 M-711.8,686.6l-0.1-0.2 M-711.8,686.6l-0.1-0.2 M-711.5,686.5l-0.1-0.2
				 M-711.5,686.5l-0.1-0.2 M-711.1,686.4l-0.1-0.2 M-711.1,686.4l-0.1-0.2 M-710.7,686.3l-0.1-0.2 M-710.7,686.3l-0.1-0.2
				 M-710.3,686.3l-0.1-0.2 M-710.3,686.3l-0.1-0.2 M-699.7,685.4l0.2,0.2l0.2,0.2l0.8,0.4 M-699.7,685.4l0.2,0.2l0.2,0.2l0.8,0.4
				 M-700.3,685.4l0.4,0.4l0.2,0.2l0.3,0.2l0.5,0.2 M-700.3,685.4l0.4,0.4l0.2,0.2l0.3,0.2l0.5,0.2 M-712.1,686.9l0.2,0.3l0.1,0.4
				 M-712.1,686.9l0.2,0.3l0.1,0.4 M-718.6,689.4l0.1,0.2l0.2,0.2l0.1,0.2l0.2,0.2l0.2,0.2l0.2,0.2l0.3,0.2l0.2,0.2l0.3,0.2l0.3,0.1
				l0.1,0.1 M-718.6,689.4l0.1,0.2l0.2,0.2l0.1,0.2l0.2,0.2l0.2,0.2l0.2,0.2l0.3,0.2l0.2,0.2l0.3,0.2l0.3,0.1l0.1,0.1 M-718,689.1
				l0.3,0.5l0.3,0.3l0.3,0.3l0.2,0.2l0.2,0.2l0.3,0.2l0.2,0.2l0.4,0.2l0.5,0.2 M-718,689.1l0.3,0.5l0.3,0.3l0.3,0.3l0.2,0.2l0.2,0.2
				l0.3,0.2l0.2,0.2l0.4,0.2l0.5,0.2 M-715.7,688.4l0.1,0.1l0.2,0.2l0.2,0.1l0.2,0.2l0.4,0.2l0.4,0.1 M-715.7,688.4l0.1,0.1l0.2,0.2
				l0.2,0.1l0.2,0.2l0.4,0.2l0.4,0.1 M-715.1,688.3l0.2,0.2l0.2,0.2l0.3,0.1l0.4,0.2 M-715.1,688.3l0.2,0.2l0.2,0.2l0.3,0.1l0.4,0.2
				 M-714.6,688l0.2,0.1l0.2,0.2l0.6,0.2 M-714.6,688l0.2,0.1l0.2,0.2l0.6,0.2 M-714,687.8l0.3,0.3l0.4,0.2 M-714,687.8l0.3,0.3
				l0.4,0.2 M-713.4,687.6l0.2,0.2l0.4,0.2 M-713.4,687.6l0.2,0.2l0.4,0.2 M-712.5,687.7l-0.3-0.1l-0.2-0.3 M-712.5,687.7l-0.3-0.1
				l-0.2-0.3 M-712.4,687.2l0.1,0.3l0.1,0.2 M-712.4,687.2l0.1,0.3l0.1,0.2 M-687.1,656.6l-0.3-0.2l-0.2-0.2l-0.2-0.1l-0.2-0.1
				l-0.3-0.1h-0.2l-0.2-0.1 M-687.1,656.6l-0.3-0.2l-0.2-0.2l-0.2-0.1l-0.2-0.1l-0.3-0.1h-0.2l-0.2-0.1 M-687.3,657.2l-0.4-0.3
				l-0.3-0.1l-0.3-0.1l-0.4-0.2l-0.5-0.1 M-687.3,657.2l-0.4-0.3l-0.3-0.1l-0.3-0.1l-0.4-0.2l-0.5-0.1 M-687.6,657.7l-0.2-0.2
				l-0.1-0.2l-0.2-0.2l-0.2-0.1h-0.3l-0.2-0.1l-0.3-0.1l-0.3-0.1 M-687.6,657.7l-0.2-0.2l-0.1-0.2l-0.2-0.2l-0.2-0.1h-0.3l-0.2-0.1
				l-0.3-0.1l-0.3-0.1 M-687.7,658.4l-0.2-0.2l-0.2-0.2l-0.3-0.2l-0.2-0.2l-0.4-0.2l-0.2-0.1l-0.2-0.1 M-687.7,658.4l-0.2-0.2
				l-0.2-0.2l-0.3-0.2l-0.2-0.2l-0.4-0.2l-0.2-0.1l-0.2-0.1 M-688,659l-0.3-0.2l-0.2-0.2l-0.3-0.2l-0.3-0.2 M-688,659l-0.3-0.2
				l-0.2-0.2l-0.3-0.2l-0.3-0.2 M-688.2,659.6l-0.2-0.2l-0.1-0.1l-0.3-0.2l-0.3-0.2 M-688.2,659.6l-0.2-0.2l-0.1-0.1l-0.3-0.2
				l-0.3-0.2 M-688.2,660.3l-0.2-0.2l-0.2-0.1l-0.3-0.2l-0.3-0.1l-0.2-0.2 M-688.2,660.3l-0.2-0.2l-0.2-0.1l-0.3-0.2l-0.3-0.1
				l-0.2-0.2 M-688.5,660.7L-688.5,660.7l-0.2-0.3l-0.2-0.1l-0.1-0.1l-0.1-0.1l-0.3-0.1 M-688.5,660.7L-688.5,660.7l-0.2-0.3
				l-0.2-0.1l-0.1-0.1l-0.1-0.1l-0.3-0.1 M-688.5,661.3l-0.3-0.2l-0.1-0.2h-0.2l-0.3-0.3 M-688.5,661.3l-0.3-0.2l-0.1-0.2h-0.2
				l-0.3-0.3 M-688.5,661.8l-0.3-0.3l-0.3-0.2l-0.2-0.2 M-688.5,661.8l-0.3-0.3l-0.3-0.2l-0.2-0.2 M-688.6,662.2l-0.2-0.2l-0.2-0.1
				l-0.3-0.3 M-688.6,662.2l-0.2-0.2l-0.2-0.1l-0.3-0.3 M-687,656l-0.2-0.2l-0.2-0.1l-0.3-0.1l-0.2-0.1l-0.4-0.1h-0.3 M-687,656
				l-0.2-0.2l-0.2-0.1l-0.3-0.1l-0.2-0.1l-0.4-0.1h-0.3"/>
			<path class="st13" d="M-683.3,661.2h-0.5l-0.5,0.2l-0.6,0.2l-0.6,0.2l-1.1,0.6 M-683.8,662.5l-0.5,0.1l-0.6,0.2l-0.4,0.1
				l-0.7,0.4l-0.6,0.3 M-683.8,662.5l-0.5,0.1l-0.6,0.2l-0.4,0.1l-0.7,0.4l-0.6,0.3 M-684.2,663.6l-0.5,0.1l-0.6,0.2l-0.5,0.2
				l-0.4,0.2l-0.6,0.4l0.1-0.1 M-684.2,663.6l-0.5,0.1l-0.6,0.2l-0.5,0.2l-0.4,0.2l-0.6,0.4l0.1-0.1 M-684,664.5l-0.4,0.1l-0.5,0.2
				l-0.5,0.2l-0.7,0.4l-0.5,0.3 M-684,664.5l-0.4,0.1l-0.5,0.2l-0.5,0.2l-0.7,0.4l-0.5,0.3 M-684.4,665.4l-0.6,0.2l-0.5,0.3
				l-0.2,0.1l-0.4,0.3l-0.3,0.3 M-684.4,665.4l-0.6,0.2l-0.5,0.3l-0.2,0.1l-0.4,0.3l-0.3,0.3 M-684.3,666.1l-0.6,0.3l-0.4,0.3
				l-0.4,0.2l-0.3,0.3l-0.3,0.2h0.1 M-684.3,666.1l-0.6,0.3l-0.4,0.3l-0.4,0.2l-0.3,0.3l-0.3,0.2h0.1 M-684.2,666.9l-0.4,0.3
				l-0.3,0.2l-0.3,0.2l-0.6,0.5 M-684.2,666.9l-0.4,0.3l-0.3,0.2l-0.3,0.2l-0.6,0.5 M-684.3,668.1l-0.4,0.3l-0.2,0.1l-0.4,0.4
				 M-684.3,668.1l-0.4,0.3l-0.2,0.1l-0.4,0.4 M-684.3,668.9l-0.4,0.4l-0.2,0.3l-0.2,0.2 M-684.3,668.9l-0.4,0.4l-0.2,0.3l-0.2,0.2
				 M-684.1,669.7l-0.3,0.3l-0.2,0.2l-0.2,0.2 M-684.1,669.7l-0.3,0.3l-0.2,0.2l-0.2,0.2 M-684,670.5l-0.3,0.3l-0.2,0.2 M-684,670.5
				l-0.3,0.3l-0.2,0.2 M-683.7,671.4l-0.3,0.4l-0.2,0.1 M-683.7,671.4l-0.3,0.4l-0.2,0.1 M-683.6,672.4l-0.3,0.4l-0.2,0.3
				 M-683.6,672.4l-0.3,0.4l-0.2,0.3 M-683.6,673.5l-0.3,0.4l-0.2,0.3 M-683.6,673.5l-0.3,0.4l-0.2,0.3 M-699.2,685.4l0.7,0.4
				 M-699.2,685.4l0.7,0.4 M-698.9,685.3l0.7,0.4 M-698.9,685.3l0.7,0.4 M-720,689.6l-0.1-0.4 M-720,689.6l-0.1-0.4 M-722,693.4
				h-0.5 M-722,693.4h-0.5 M-719.3,692.7h-0.6 M-719.3,692.7h-0.6 M-724.8,692.1l-0.2-0.4 M-724.8,692.1l-0.2-0.4"/>
			<polygon class="st13" points="-703.8,688 -703.9,688 -704,688 -704.1,688 -704.1,688 -704.1,688.1 -704,688.1 -703.9,688.1 			
				"/>
			<polygon class="st13" points="-703.1,688.1 -703.2,688 -703.3,688 -703.2,688.1 			"/>
			<polygon class="st13" points="-702.3,688.1 -702.4,688.1 -702.5,688 -702.5,688.1 -702.6,688.1 -702.5,688.1 -702.5,688.2 
				-702.4,688.1 			"/>
			<polygon class="st13" points="-705.7,687.9 -705.8,687.9 -705.9,687.9 -705.8,688 			"/>
			<polygon class="st13" points="-705.2,688 -705.3,687.9 -705.4,688 -705.3,688 			"/>
			<polygon class="st13" points="-704.6,687.7 -704.7,687.7 -704.8,687.7 -704.7,687.7 			"/>
			<polygon class="st13" points="-706.2,687.9 -706.2,687.9 -706.3,687.9 -706.4,687.9 -706.5,687.9 -706.4,688 -706.3,688 
				-706.2,688 			"/>
			<polygon class="st13" points="-706.4,687.3 -706.5,687.3 -706.7,687.3 -706.5,687.3 			"/>
			<polygon class="st13" points="-707.4,687.9 -707.5,687.8 -707.7,687.9 -707.5,687.9 			"/>
			<polygon class="st13" points="-706.8,688.3 -706.9,688.2 -707,688.3 -706.9,688.4 			"/>
			<polygon class="st13" points="-708.2,687.3 -708.3,687.3 -708.4,687.3 -708.3,687.4 			"/>
			<polygon class="st13" points="-708.2,688.1 -708.3,688.1 -708.5,688.1 -708.3,688.1 			"/>
			<polygon class="st13" points="-707.2,687.1 -707.2,687.1 -707.3,687.1 -707.4,687.1 -707.5,687.1 -707.4,687.2 -707.3,687.2 
				-707.2,687.2 			"/>
			<polygon class="st13" points="-705.6,687.2 -705.8,687.1 -705.9,687.2 -705.8,687.2 			"/>
			<polygon class="st13" points="-703.8,687.2 -703.9,687.2 -703.9,687.1 -704,687.2 -704.1,687.2 -704,687.2 -703.9,687.3 
				-703.9,687.3 			"/>
			<polygon class="st13" points="-704.5,687 -704.6,686.9 -704.7,687 -704.6,687 			"/>
			<polygon class="st13" points="-705.1,687.2 -705.2,687.2 -705.3,687.2 -705.2,687.2 			"/>
			<polygon class="st13" points="-709,687.5 -709,687.5 -709.2,687.5 -709.1,687.6 			"/>
			<polygon class="st13" points="-710.2,687.8 -710.3,687.7 -710.5,687.7 -710.4,687.8 			"/>
			<polygon class="st13" points="-711.2,688 -711.3,687.9 -711.5,688 -711.3,688 			"/>
			<polygon class="st13" points="-709.4,687.5 -709.5,687.5 -709.6,687.5 -709.6,687.5 -709.7,687.5 -709.6,687.6 -709.6,687.6 
				-709.5,687.6 			"/>
			<polygon class="st13" points="-703.4,687.3 -703.5,687.2 -703.6,687.3 -703.5,687.3 			"/>
			<polygon class="st13" points="-702.8,687.3 -702.9,687.3 -703.1,687.3 -702.9,687.3 			"/>
			<polygon class="st13" points="-701.9,687.6 -702,687.5 -702.1,687.6 -702,687.7 			"/>
			<polygon class="st13" points="-701.3,687.8 -701.4,687.8 -701.5,687.8 -701.4,687.9 			"/>
			<polygon class="st13" points="-701.7,688.4 -701.9,688.4 -702,688.4 -701.9,688.4 			"/>
			<polyline class="st13" points="-712.6,691.3 -713,691.2 -713.3,691.1 -713.5,691 -713.7,690.8 -713.9,690.6 -714,690.5 
				-714.1,690.2 -714.2,689.9 -714.2,689.7 -714.1,689.4 -713.9,689 -713.7,688.7 -713.3,688.4 -712.6,688 -712,687.7 -711.2,687.5 
				-710.5,687.2 -709.7,687 -709,686.8 -708.1,686.6 -707.4,686.6 -706.7,686.5 -706,686.5 -705.6,686.5 -704.9,686.5 -704.6,686.5 
				-704,686.6 -703.6,686.7 -703.2,686.8 -702.4,687 -702,687.1 -701.6,687.2 -701.2,687.3 -701,687.4 -700.6,687.6 -700.7,687.9 
				-701.1,688.4 -701.5,688.8 -701.6,688.9 -702,689.2 -702.9,689.7 -703.2,689.9 -703.8,690.2 -704.4,690.5 -705.4,690.8 
				-706.2,691.1 -706.7,691.2 -707,691.3 -707.7,691.3 -708.2,691.4 -709,691.5 -709.5,691.5 -710,691.5 -711.1,691.5 -711.8,691.4 
				-712.1,691.4 -712.6,691.3 			"/>
			<polyline class="st13" points="-712.6,691.3 -713,691.2 -713.3,691.1 -713.5,691 -713.7,690.8 -713.9,690.6 -714,690.5 
				-714.1,690.2 -714.2,689.9 -714.2,689.7 -714.1,689.4 -713.9,689 -713.7,688.7 -713.3,688.4 -712.6,688 -712,687.7 -711.2,687.5 
				-710.5,687.2 -709.7,687 -709,686.8 -708.1,686.6 -707.4,686.6 -706.7,686.5 -706,686.5 -705.6,686.5 -704.9,686.5 -704.6,686.5 
				-704,686.6 -703.6,686.7 -703.2,686.8 -702.4,687 -702,687.1 -701.6,687.2 -701.2,687.3 -701,687.4 -700.6,687.6 -700.7,687.9 
				-701.1,688.4 -701.5,688.8 -701.6,688.9 -702,689.2 -702.9,689.7 -703.2,689.9 -703.8,690.2 -704.4,690.5 -705.4,690.8 
				-706.2,691.1 -706.7,691.2 -707,691.3 -707.7,691.3 -708.2,691.4 -709,691.5 -709.5,691.5 -710,691.5 -711.1,691.5 -711.8,691.4 
				-712.1,691.4 -712.6,691.3 			"/>
		</g>
		<polyline class="st13" points="-680.8,682.6 -681,682.5 -681.6,682.3 -682.1,682 -682.4,681.7 -682.9,681.3 -683.2,681 
			-683.7,680.4 -683.9,680.2 -684,679.9 -684.1,679.7 -684.4,679.2 -684.5,678.7 -684.7,678.2 -684.8,677.8 -685,677.3 -685,677 
			-685,676.7 -685,676.5 -685.1,676 -685.3,675.6 -685.5,675.1 -685.6,674.7 -685.8,674.2 -686.1,673.3 -686.2,672.8 -686.4,672.3 
			-686.5,671.7 -686.6,671.2 -686.8,670.7 -686.8,670.2 -687,669.8 -687.1,669.3 -687.2,668.7 -687.2,668.3 -687.3,667.5 
			-687.4,666.9 -687.4,666.4 -687.4,665.9 -687.4,665.6 -687.4,665.2 -687.4,664.7 -687.4,664.3 -687.3,663.8 -687.2,663.4 
			-687.2,663.1 -687.1,662.7 -687.1,662.4 -687,661.8 -686.9,661.6 -686.8,661 -686.6,660.6 -686.6,660.3 -686.4,660.1 
			-686.3,659.9 -686.2,659.7 -686.1,659.4 -686,659.2 -685.9,658.8 -685.7,658.5 -685.5,658.1 -685.2,657.6 -685.1,657.3 
			-685,657.1 -684.8,656.7 -684.7,656.4 -684.7,656.1 -684.7,656 -684.8,655.8 -685,655.5 -685.3,655.3 -685.6,655.1 -685.9,655 
			-686.5,654.8 -686.7,654.8 -687.2,654.7 -687.6,654.7 -689,654.6 -690,654.6 -691.5,654.5 -693.4,654.3 -695.1,654 -696.3,653.9 
			-697.4,653.7 -698.6,653.5 -699.8,653.2 -700.4,653.1 -701.3,652.8 -701.9,652.8 -702.4,652.7 -702.9,652.6 -703.4,652.5 
			-703.9,652.4 -704.4,652.4 -705,652.4 -705.7,652.3 -706.6,652.3 -707.3,652.3 -707.9,652.3 -708.5,652.3 -709.1,652.3 
			-709.8,652.3 -710.9,652.4 -711.6,652.4 -712.1,652.5 -712.7,652.5 -713.3,652.5 -714.5,652.7 -715,652.8 -715.6,652.9 
			-716.3,653 -716.9,653.2 -717.6,653.4 -718.3,653.5 -719,653.8 -719.6,654 -720.2,654.2 -721,654.5 -722,654.9 -722.7,655.4 
			-723.4,655.8 -723.7,656 -724.2,656.3 -724.5,656.6 -724.9,656.9 -725.1,657 -725.6,657.6 -726.1,658.1 -726.6,658.6 -727,659 
			-727.6,660.1 -727.8,660.5 -728.1,661 -728.4,661.4 -728.7,661.8 -729.3,662.9 -729.7,663.8 -730.1,664.5 -730.2,664.8 
			-730.4,665.2 -730.5,665.6 -730.7,666.1 -730.8,666.4 -730.9,666.8 -731.1,667.1 -731.2,667.4 -731.3,667.8 -731.4,668.1 
			-731.5,668.5 -731.5,668.8 -731.6,669.2 -731.6,669.5 -731.7,669.9 -731.6,669.9 		"/>
	</g>
</g>
<g id="Layer_8">
	<path class="st14" d="M-633.9,685.1c-1.7,2.3,0.3,6.6-0.6,9.2c-0.4,1.2-1.2,1.2-1.8,2.6c0.2,1.5,1.5,2,1.8,3.7
		c0.4,2.4-1.6,4-1.5,5.8c0.1,1.1,1.3,1.8,1.3,2.8c0.1,1.3-1.4,2.2-1.5,3.7c0,1.1,1.2,2.3,1.2,3.3c0,1.1-0.8,1.6-1.2,2.4
		c-0.7,1.8-0.7,4.4-1.2,6.8c-0.5,2.3-0.9,4.5-1.6,6.5c-1.3,3.8-4.7,12.3-8,8.4c-1.5,1.8-5.5,2.6-8,1.2c-3.8,2.2-10.6,0.9-9.2-4.9
		c-0.3-0.4-1.9-0.2-1.5-0.9c0.1-1.1,1.6,0.2,2.4,0c-1.6,5.2,3.1,6.8,6.8,5.4c0.1-0.9-1.6-0.6-0.7-1.4c0.4-0.7,1.1,0.6,1.9,0.7
		c0.8,0.1,1.1-0.6,1.8-0.4c0.3,0.6,0,0.5-0.1,1c3.1,0.9,5.5-1.1,7-2.1c0.6,0.4,0.3,1.5,1.3,1.6c1.3,0.1,2.5-2.5,3.3-3.8
		c1-1.8,1.6-3.2,2.2-5.1c2.1-5.9,2-11.4,4.1-15.4c-1.5-2.4-1.2-4.9,0.3-7c-0.1-0.9-1.2-1.6-1.3-2.6c-0.2-1.4,1.5-3.3,1.5-5.1
		c0-1.7-1.7-3.4-1.8-4.5c0-1.8,1.6-2.3,1.9-3.5c0.3-2-0.5-3.5-0.4-5.4c0.1-1.6,1-2.8,0.9-4c-0.1-1.2-0.9-1.8-1.5-2.8
		c0-0.9,0.8-0.8,0.7-1.7c-0.2-1.6-1.6-2.2-1.6-4c0-1.1,1-2.1,1.2-3.1c0.6-2.9-0.4-5.2-1.9-7c0.8-2,1.6-2.4,1.3-5.2
		c-0.3-3.8-3.1-8-7.4-8c-1.9,0-3.6,1.6-5.2,1.7c-0.7,0.1-1.5-0.4-2.1-0.3c-1.6,0.2-2.6,2.8-4,3.1c-1.1,0.3-2-0.3-2.8,0
		c-2,0.8-2.3,3.2-3.3,4.7c-0.6,0.2-0.9,0-1.5-0.2c-1.6,0.3-2.4,3.1-4,3.7c-1.6,0.5-3.9-0.3-5.8,0.5c-0.7,0.3-1.3,1.2-1.9,1.4
		c-0.8,0.2-2.3-0.1-3.6,0c-1.5,0.1-3,0.7-4,0.5c-0.4-0.1-0.9-0.5-1.3-0.5c-1.9-0.2-3.1,0.8-4.4,2.1c-0.5-1,0.5-1.7,0.3-3
		c-0.4-2.8-5.6-3.4-7.1-2.1c-1.5-2-2.8-5.8-5.8-5.6c-1.1,0.1-1.7,1.2-2.5,0.7c-0.2-1,1.4-1.3,2.4-1.6c-2.7-3.6-10.1-1.2-11.4,2.3
		c0.7-0.2,1.4-0.2,2.1-0.2c2.5,0.1,5.7,1.7,6.1,3.7c-1-0.2-1.8-1.2-2.8-1.7c-3.7-2-9.2-0.7-10.7,3.3c-0.7,1.9,0.2,5.6-0.6,8.4
		c-0.2,0.7-1.1,1.8-1,2.4c0.1,1.3,2.1,1.8,2.2,3.1c0.1,1.3-1.3,2.8-1,4.7c0.1,0.8,0.9,1.8,0.9,2.4c0,1-1.4,2.3-1.5,3.8
		c-0.1,1.8,1.1,4,1,5.6c-0.1,1.1-1,2.2-1,3.1c-0.1,1.4,1.1,2.4,1.2,3.7c-1.5,1.4-2.4,3.7-2.4,6.6c0,2.7,1.1,4,1.5,5.8
		c0.3,1.3,0,2.7,0.1,4c0.1,0.3,0.1,0.7,0.2,1l0.2,0.4c0.9,3.5,3,4.8,4.9,4.5l0,0c0.3,0,0.6-0.1,0.9-0.2c1.9,0.2,2,3.1,2,4.7
		c-0.1,2.1,1.1,1.8,1.4,0.1c0.4-2.3-0.6-4.1-1.6-5.9c0.5-0.4,0.9-1,1.2-1.7c0.3,0.1,0.7,0,1.1-0.1l0.2-0.5c0.1-1.4,0.2-2.7,0-4
		c-0.6-4.5-3.8-7.8-4.9-11.9c-1.1-4.2,1.5-8.4,1.2-12.7c-0.1-1.3-0.6-2.4-0.7-3.7c-0.7-6.5,2.8-11.7,1.6-19c-0.6-0.9-2-0.9-2.4-2.1
		c0.5-0.7,1.6,0.6,2.2,0.9c0.2-0.1-0.4-2.1,0.4-1.9c0.7,0.3,0.5,1.7,0.7,2.6c1.7,2,3.9,2.4,5.9,4.2c1.5,1.3,3.7,4.5,5.2,5.2
		c1.9,0.9,4-0.2,5.8,0.9c0.5,0.3,0.8,1.3,1.3,1.6c3.2,1.9,6.4-0.3,10.1-0.3c0.4,0.5,0.5,1.1,0.3,1.9c2.8,0.4,4.5-0.8,6.7-1.9
		c2.1-1,3.5-1.9,5.6-1.9c1.7,0,3.6-0.6,5-1.4c1.8-1,3.1-3,5-3.8c1.4-0.5,2.7-0.3,3.9-1c0.5-0.3,0.8-1,1.3-1.6c1.7-1.6,3.5-1.5,3.7-4
		c0.8-0.3,1.8,0.3,2.7-0.2c0.7-0.2,0.4-1.6,0.7-2.1c0.8,0.3,3.1,1.5,2.8-1.6c1.2,0.4,1.4-0.8,2.2-0.3c0,0.9-0.5,1.3-1.3,1.2
		c-0.2,1.7-1.5,2.6-3.1,2.1c-0.3,0.5-0.4,1.3-0.9,1.6c-0.6,0.3-1.6,0.1-2.4,0.2c-0.5,1.6-0.2,3.2-0.6,5.2c-0.3,1.6-1.3,3.2-0.9,5.1
		c0.2,0.8,1.3,1.5,1.5,2.4c0.3,1.2-0.4,2-0.6,3.3c-0.2,1.5,0.3,3.7,0.3,6.1c0,2.7,0,4.8,0.3,6.6c0.5,3.2-0.9,5.5-0.7,7.5
		c0.2,2,1.8,3.5,1.6,5.2c-0.3,2-2.2,3.3-2.1,5.1c0.1,1.2,1.5,1.8,1.5,2.8c0,1.2-1.1,1.7-1.6,2.4c-0.9,1.3-1.7,3.1-2.2,4
		c0.8,0.6,2.4,1,2.2,2.3c-1.2,0.2-1.4-1.2-2.7-1.4c-1.7-0.2-3.3,1.3-4.7,1.9c-0.6-0.2-0.5-1.2-1-1.4c-1.5-1.1-2.6,0.2-3.7,0
		c-1-0.2-1.6-2.1-2.4-3c-1.7-2-4.4-2.7-7.3-2.4c-6,0.5-13.9,6.1-14.7,12.7c-0.5,4,1.1,6.5,1.6,9.6c0.1,0.8,0,1.4,0.1,2.1
		c0.5,1.6,2.4,2,2.7,4.5c0.1,0.9-0.2,1.9-0.1,2.8c0.4,4.6,5.3,3.2,4.6-1.2c-0.3-1.7-1.9-2.2-2.5-3.1v-0.7c-0.7-0.8-1.8-1.3-2.4-1.9
		c-3.1-3.8-2.7-11.5-0.6-15.5c0.8-1.4,1.9-3.3,3.1-3.7c-0.2,1.5-1.5,2.3-2.2,3.7c-0.8,1.4-1.7,3.8-1.9,5.6
		c-0.7,6.9,3.1,11.6,7.7,12.9c0.1,0.2,0.8,0.6,0.3,0.9c1.7-2.1,4.7-4.7,5.8-8.2c0.2-0.7-0.2-1.6,0.6-1.9c0.6,0.3,0.1,2.2,0,2.6
		c-0.5,1.5-2,3.6-3.3,5.2c-0.9,1.2-3.3,3.1-3.6,4.9c-0.3,2.1,1.3,4.2,2.7,4c1.7-0.2,2.9-5.9,3.7-8.2c1-3,3-5.6,3-9.1
		c0-3.9-2.4-7.2-5-7.3c-1.6-0.1-2.6,1-3.9,0.7c-0.3-0.8,0.9-1,1.5-1.2c4.8-1.5,8.1,2.7,8.1,7.9c0,3.6-2,6-3.1,9.4
		c-1.2,3.5-1.8,7.5-3.8,8.7"/>
</g>
<g id="Layer_9">
	<g>
		<path class="st15" d="M-661.6,709.2c-0.5-7.2-1.5-15.6,1.7-21.9c1.4-2.7,4.6-4.8,6.7-5.7c0-0.7-2.1,0.5-2.3,0.6
			c-2.3,0.9-4.5,4-7.1,2.7c-0.4-0.1-0.2-0.7-0.4-1.1c-0.3-0.6-0.1-2.4,0.6-2.4c0.6,0,1.3,0.1,1.9,0.3c-0.7-0.2-1.2-0.5-1.5-0.7
			c-0.4-0.2,0-1.9,0.5-1.7c2.5,1,5.6,2.1,8,0.4c2.5-1.8,2.5-3.7,2.7-5.1c-0.9,3.7-4.3,6.5-6.8,3.5c-3.7-4.4-1.1-11.3,2.6-14.8
			c0.4-0.4,0.7-0.7,1.1-1c8.4-6.2,19.1,1.5,20.4,13.7c3.5,6.3,1.1,10.6,0.5,17c-0.6,6.9-3.9,18.6-14.4,18.6
			c-8.6,0-13.2-8.4-10.5-18.8c0.7-3,3.2-5.4,5.1-4.1c0.4-0.6,0.8-1.3,0.9-2.2c-2-1.1-5.3,1.6-6.4,3.9c-2.9,5.5-2,12.7-2.1,19
			C-660.7,711.4-661.5,711-661.6,709.2L-661.6,709.2z"/>
		<path class="st16" d="M-653,688.6c0.8,0.6,1.4,1.9,1.2,3.9c-0.9,1.6-2.7,1.8-3.9,2.9c-1,0.9-0.1,1.5-0.1,2.6
			c0,0.8,0.6,1.1,0.6,1.8c0.1,1.4,1.3,1.6,2.1,2.3c2.8,2.7,2.9-5.2,3-7.3c0-1,0.1-3.2,1.2-2.9c0.9,0.3,0.9,1.9,0.6,2.7
			c-0.5,1.4-2.3,8.4-0.6,8.8c0.7,0.2,1.4,0.9,2,0.2c0.7-0.7,1.5,0.2,2.2-0.6c0.6-0.6,1.9,0.2,1.7-1.5c-0.3-2.9-1.4-4.8-3-6.8
			c-0.8-1-2-5.5-0.6-6.2c1.5-0.7,2,2.9,2.1,4.1c0.2,3,1.2,6.3,3.4,7.5c1.4,0.8,1.5-1.4,2.2-2.3c0.5-0.6,0.2-0.9,0.9-1.9
			c0.5-0.7,0.7-1.7,0-2.2c-1.5-1.1-3.2-1.6-4.5-3.1c-0.8-0.9-3.1-2.5-1.9-3.7c0.5-0.6,1.3-0.2,1.8,0.4c1.5,1.6,3.6,4.1,6,4.2
			c0.7,0,0.2-1.1,0.6-1.6c0.4-0.6-0.1-1.3,0.2-2c0.3-0.7-0.4-1.4,0-2.1c0.2-0.4-0.1-0.7-0.4-0.8c-1.9-0.4-3.8-0.4-5.6-0.1
			c-1,0.2-2.8,0.4-3-1.6c-0.1-1.5,2.6-1.3,3.2-0.9c1.3,1,2.8,2,4.3,1.9c0.6,0,2.5,0.1,1.8-1.3c-0.4-0.9,0.6-1.3-0.3-2.6
			c-0.5-0.7,0.5-2.7-0.7-2.7c-1.7,0-3.6,0.3-5,1.6c-1.2,1-4.6,1.6-4.4-0.7c0.2-2.3,3-2,3.8-1.6c1.5,0.8,3.3,0.9,4.9,0.3
			c1.5-0.6,0.2-1.6,0.3-2.9c0.1-1.3-0.8-1.1-0.7-2.3c0.1-0.8-0.7-1.8-1.3-1.2c-1.3,0.7-2.5,1.9-3.6,3.1c-2.4,2.6-3.3-0.9-1.2-1.6
			c0.9-0.3,4.7-1.7,3.7-3.7c-0.5-0.9-1.6-0.6-1.8-1.6c-0.2-1.2-1.4-0.7-1.8-1.6c-0.4-0.8-0.7-0.9-1.1-0.2c-0.8,1.6-0.9,3.9-0.8,5.2
			c0.3,3.7-1.8,4.1-1.9,0.2c-0.1-6.2-0.1-6.2-1-6.9c-1.2-0.9-0.9,0.2-2,0c-0.5-0.1-0.9,0.7-0.5,1.3c0.7,1.4,1.1,3,1.4,4.5
			c-0.4-1.7-1.2-3.2-2.1-4.4c-0.7-1-1,0.8-1.5,1.1c-0.9,0.5-0.8,2.4-1.2,2.9c-0.5,0.6-0.5,1.9,0.2,2.3c1.4,0.8,3,0.8,4.5,1.1
			c-1.5-0.3-3.2,7.7-7,2.4c-2.6-3.6-1-9.2,1.6-12.1c0.4-0.4,0.7-0.7,1.1-1c8.4-6.2,19.1,1.5,20.4,13.8c3.5,6.3,1.1,10.6,0.5,17
			c-0.4,4.7-2.7,9.1-5.1,11.8c-6.2,7.2-18,5.8-19.9-5.9c-0.3-1.9-0.4-4.2,0.1-6.2C-657.3,689.6-654.9,687.3-653,688.6L-653,688.6z"
			/>
		<g>
			<line class="st16" x1="-644.6" y1="666.7" x2="-645.1" y2="671"/>
			<line class="st16" x1="-644.3" y1="666.8" x2="-645" y2="671"/>
			<line class="st16" x1="-644" y1="666.6" x2="-644.9" y2="670.8"/>
			<line class="st16" x1="-643.7" y1="666.7" x2="-644.8" y2="670.7"/>
			<line class="st16" x1="-643.3" y1="666.5" x2="-644.6" y2="670.8"/>
			<line class="st16" x1="-643" y1="666.8" x2="-644.6" y2="670.9"/>
			<line class="st16" x1="-642.7" y1="667" x2="-644.5" y2="671"/>
			<line class="st16" x1="-642.4" y1="667.1" x2="-644.4" y2="671.1"/>
			<line class="st16" x1="-644.3" y1="671.2" x2="-642.2" y2="667.4"/>
			<line class="st16" x1="-642.2" y1="667.8" x2="-644.1" y2="671.1"/>
			<line class="st16" x1="-641.8" y1="667.9" x2="-644.1" y2="671.2"/>
			<line class="st16" x1="-641.8" y1="668.2" x2="-644.1" y2="671.3"/>
			<line class="st16" x1="-641.5" y1="668.4" x2="-643.9" y2="671.3"/>
			<line class="st16" x1="-641.5" y1="668.8" x2="-643.9" y2="671.4"/>
			<line class="st16" x1="-641.3" y1="669" x2="-643.9" y2="671.4"/>
			<line class="st16" x1="-643.9" y1="671.5" x2="-641.3" y2="669.3"/>
			<line class="st16" x1="-643.9" y1="671.7" x2="-641.3" y2="669.8"/>
			<line class="st16" x1="-643.9" y1="671.9" x2="-641.4" y2="670.1"/>
			<line class="st16" x1="-643.9" y1="672" x2="-641.5" y2="670.6"/>
		</g>
		<g>
			<line class="st16" x1="-649.6" y1="670.3" x2="-651.5" y2="666.5"/>
			<line class="st16" x1="-649.7" y1="670.4" x2="-651.9" y2="666.4"/>
			<line class="st16" x1="-650" y1="670.2" x2="-652.1" y2="666.8"/>
			<line class="st16" x1="-650.1" y1="670.5" x2="-652.5" y2="666.7"/>
			<line class="st16" x1="-650.3" y1="670.4" x2="-652.7" y2="667"/>
			<line class="st16" x1="-650.2" y1="670.7" x2="-653" y2="667.2"/>
			<line class="st16" x1="-650.4" y1="670.6" x2="-653.1" y2="667.8"/>
			<line class="st16" x1="-650.5" y1="670.8" x2="-653.3" y2="668.3"/>
			<line class="st16" x1="-650.5" y1="671" x2="-653.7" y2="668.6"/>
			<line class="st16" x1="-650.6" y1="671.1" x2="-653.8" y2="669"/>
			<line class="st16" x1="-650.7" y1="671.2" x2="-653.9" y2="669.5"/>
			<line class="st16" x1="-650.6" y1="671.3" x2="-654.2" y2="669.8"/>
			<line class="st16" x1="-650.7" y1="671.4" x2="-654" y2="670.3"/>
			<line class="st16" x1="-650.6" y1="671.7" x2="-654.4" y2="670.7"/>
		</g>
		<g>
			<line class="st16" x1="-641.7" y1="676.4" x2="-638" y2="677.3"/>
			<line class="st16" x1="-641.6" y1="676.2" x2="-637.6" y2="677"/>
			<line class="st16" x1="-641.3" y1="676" x2="-637.7" y2="676.5"/>
			<line class="st16" x1="-641.4" y1="675.7" x2="-637.4" y2="676.1"/>
			<line class="st16" x1="-641.2" y1="675.6" x2="-637.3" y2="675.6"/>
			<line class="st16" x1="-641.4" y1="675.4" x2="-637.3" y2="675.2"/>
			<line class="st16" x1="-641.2" y1="675.3" x2="-637.5" y2="674.6"/>
			<line class="st16" x1="-641.3" y1="675.1" x2="-637.6" y2="674.1"/>
			<line class="st16" x1="-641.3" y1="674.9" x2="-637.6" y2="673.4"/>
			<line class="st16" x1="-641.4" y1="674.8" x2="-637.7" y2="673"/>
			<line class="st16" x1="-641.4" y1="674.6" x2="-637.9" y2="672.5"/>
			<line class="st16" x1="-641.5" y1="674.5" x2="-637.9" y2="672"/>
			<line class="st16" x1="-641.5" y1="674.4" x2="-638.3" y2="671.7"/>
			<line class="st16" x1="-641.7" y1="674.3" x2="-638.3" y2="671.1"/>
		</g>
		<g>
			<line class="st16" x1="-641.4" y1="681.6" x2="-636.8" y2="683.1"/>
			<line class="st16" x1="-641.3" y1="681.5" x2="-636.4" y2="683"/>
			<line class="st16" x1="-640.9" y1="681.3" x2="-636.4" y2="682.6"/>
			<line class="st16" x1="-641" y1="681.1" x2="-636" y2="682.3"/>
			<line class="st16" x1="-640.8" y1="681.1" x2="-635.9" y2="682"/>
			<line class="st16" x1="-641" y1="680.9" x2="-635.8" y2="681.6"/>
			<line class="st16" x1="-640.8" y1="680.8" x2="-636" y2="681.2"/>
			<line class="st16" x1="-640.9" y1="680.6" x2="-636.2" y2="680.7"/>
			<line class="st16" x1="-640.9" y1="680.5" x2="-636" y2="680.2"/>
			<line class="st16" x1="-641" y1="680.4" x2="-636.2" y2="679.8"/>
			<line class="st16" x1="-640.9" y1="680.3" x2="-636.4" y2="679.4"/>
			<line class="st16" x1="-641.1" y1="680.2" x2="-636.4" y2="679"/>
			<line class="st16" x1="-641.1" y1="680.1" x2="-636.9" y2="678.7"/>
			<line class="st16" x1="-641.3" y1="679.9" x2="-636.8" y2="678.2"/>
		</g>
		<g>
			<line class="st16" x1="-641.7" y1="687.1" x2="-637.8" y2="690.6"/>
			<line class="st16" x1="-641.5" y1="687" x2="-637.3" y2="690.6"/>
			<line class="st16" x1="-641.1" y1="687" x2="-637.2" y2="690.1"/>
			<line class="st16" x1="-641.2" y1="686.8" x2="-636.7" y2="690.1"/>
			<line class="st16" x1="-640.9" y1="686.8" x2="-636.5" y2="689.7"/>
			<line class="st16" x1="-641.1" y1="686.5" x2="-636.3" y2="689.4"/>
			<line class="st16" x1="-640.8" y1="686.5" x2="-636.4" y2="688.8"/>
			<line class="st16" x1="-640.9" y1="686.3" x2="-636.4" y2="688.2"/>
			<line class="st16" x1="-640.9" y1="686.1" x2="-636.1" y2="687.7"/>
			<line class="st16" x1="-640.9" y1="686" x2="-636.2" y2="687.2"/>
			<line class="st16" x1="-640.8" y1="685.9" x2="-636.2" y2="686.7"/>
			<line class="st16" x1="-640.9" y1="685.7" x2="-636.1" y2="686.3"/>
			<line class="st16" x1="-640.9" y1="685.6" x2="-636.5" y2="685.8"/>
			<line class="st16" x1="-641.1" y1="685.3" x2="-636.3" y2="685.3"/>
		</g>
		<g>
			<line class="st16" x1="-644" y1="692.5" x2="-641.1" y2="698.4"/>
			<line class="st16" x1="-643.8" y1="692.5" x2="-640.7" y2="698.7"/>
			<line class="st16" x1="-643.5" y1="692.8" x2="-640.5" y2="698.4"/>
			<line class="st16" x1="-643.4" y1="692.5" x2="-640" y2="698.6"/>
			<line class="st16" x1="-643.2" y1="692.7" x2="-639.7" y2="698.4"/>
			<line class="st16" x1="-643.3" y1="692.3" x2="-639.5" y2="698.3"/>
			<line class="st16" x1="-643" y1="692.5" x2="-639.4" y2="697.7"/>
			<line class="st16" x1="-643" y1="692.3" x2="-639.2" y2="697.2"/>
			<line class="st16" x1="-643" y1="692.2" x2="-638.9" y2="696.9"/>
			<line class="st16" x1="-643" y1="692" x2="-638.8" y2="696.5"/>
			<line class="st16" x1="-642.9" y1="692" x2="-638.7" y2="696"/>
			<line class="st16" x1="-642.9" y1="691.8" x2="-638.5" y2="695.7"/>
			<line class="st16" x1="-642.9" y1="691.6" x2="-638.7" y2="694.9"/>
			<line class="st16" x1="-643" y1="691.3" x2="-638.4" y2="694.6"/>
		</g>
		<g>
			<line class="st16" x1="-647.6" y1="695.4" x2="-649.1" y2="701.3"/>
			<line class="st16" x1="-647.5" y1="695.5" x2="-648.8" y2="701.9"/>
			<line class="st16" x1="-647.3" y1="696" x2="-648.3" y2="701.9"/>
			<line class="st16" x1="-647.1" y1="695.9" x2="-648.1" y2="702.5"/>
			<line class="st16" x1="-647" y1="696.3" x2="-647.6" y2="702.6"/>
			<line class="st16" x1="-646.8" y1="695.9" x2="-647.2" y2="702.8"/>
			<line class="st16" x1="-646.6" y1="696.3" x2="-646.7" y2="702.5"/>
			<line class="st16" x1="-646.5" y1="696.1" x2="-646.1" y2="702.4"/>
			<line class="st16" x1="-646.3" y1="696.1" x2="-645.5" y2="702.6"/>
			<line class="st16" x1="-646.2" y1="696.1" x2="-645.1" y2="702.4"/>
			<line class="st16" x1="-646" y1="696.1" x2="-644.7" y2="702.2"/>
			<line class="st16" x1="-645.9" y1="695.9" x2="-644.2" y2="702.2"/>
			<line class="st16" x1="-645.8" y1="695.9" x2="-643.9" y2="701.6"/>
			<line class="st16" x1="-645.7" y1="695.7" x2="-643.3" y2="701.7"/>
		</g>
		<g>
			<line class="st16" x1="-651.7" y1="693.8" x2="-655.6" y2="696.2"/>
			<line class="st16" x1="-651.6" y1="694" x2="-655.7" y2="696.7"/>
			<line class="st16" x1="-651.8" y1="694.4" x2="-655.4" y2="697.1"/>
			<line class="st16" x1="-651.6" y1="694.5" x2="-655.6" y2="697.7"/>
			<line class="st16" x1="-651.7" y1="694.8" x2="-655.3" y2="698.2"/>
			<line class="st16" x1="-651.4" y1="694.8" x2="-655.2" y2="698.6"/>
			<line class="st16" x1="-651.5" y1="695.1" x2="-654.7" y2="698.9"/>
			<line class="st16" x1="-651.4" y1="695.2" x2="-654.3" y2="699.3"/>
			<line class="st16" x1="-651.3" y1="695.3" x2="-654.1" y2="699.9"/>
			<line class="st16" x1="-651.1" y1="695.4" x2="-653.7" y2="700.1"/>
			<line class="st16" x1="-651.1" y1="695.5" x2="-653.3" y2="700.4"/>
			<line class="st16" x1="-650.9" y1="695.5" x2="-653.1" y2="700.9"/>
			<line class="st16" x1="-650.8" y1="695.6" x2="-652.6" y2="700.7"/>
			<line class="st16" x1="-650.6" y1="695.6" x2="-652.3" y2="701.3"/>
		</g>
		<line class="st16" x1="-647.9" y1="669.5" x2="-648.2" y2="664.9"/>
		<line class="st16" x1="-648.1" y1="669.4" x2="-648.5" y2="664.6"/>
		<line class="st16" x1="-648.2" y1="669.1" x2="-648.8" y2="664.7"/>
		<line class="st16" x1="-648.4" y1="669.3" x2="-649.1" y2="664.4"/>
		<line class="st16" x1="-648.5" y1="669.1" x2="-649.4" y2="664.5"/>
		<line class="st16" x1="-648.6" y1="669.4" x2="-649.6" y2="664.5"/>
		<line class="st16" x1="-648.7" y1="669.2" x2="-649.9" y2="664.9"/>
		<line class="st16" x1="-648.8" y1="669.3" x2="-650.3" y2="665.1"/>
	</g>
</g>
</svg>
