<?xml version="1.0" encoding="utf-8"?>
<!-- Generator: Adobe Illustrator 19.0.1, SVG Export Plug-In . SVG Version: 6.00 Build 0)  -->
<svg version="1.1" xmlns="http://www.w3.org/2000/svg" xmlns:xlink="http://www.w3.org/1999/xlink" x="0px" y="0px"
	 viewBox="0 0 625.5 293.1" style="enable-background:new 0 0 625.5 293.1;" xml:space="preserve">
<style type="text/css">
	.st0{display:none;}
	.st1{display:inline;fill:none;stroke:#BCBA40;stroke-width:4;stroke-linecap:round;stroke-linejoin:round;stroke-miterlimit:10;}
	.st2{display:inline;}
	.st3{fill:none;stroke:#BCBA40;stroke-width:4;stroke-linecap:round;stroke-linejoin:round;stroke-miterlimit:10;}
	.st4{fill:none;}
	.st5{fill:#FFFFFF;}
	.st6{font-family:'HelveticaNeue-Medium';}
	.st7{font-size:36px;}
	.st8{fill:none;stroke:#BCBA40;stroke-width:4;stroke-linecap:round;stroke-miterlimit:10;stroke-dasharray:12.0321,12.0321;}
	.st9{fill:none;stroke:#BCBA40;stroke-width:0.75;}
	.st10{fill:#444444;stroke:#BCBA40;stroke-width:0.75;}
	.st11{fill:none;stroke:#BCBA40;}
	.st12{fill:#444444;stroke:#BCBA40;}
	.st13{fill:#444444;stroke:#BCBA40;stroke-width:0.5854;}
	.st14{fill:none;stroke:#BCBA40;stroke-miterlimit:10;}
</style>
<g id="Layer_1">
	<g>
		<g class="st0">
			<path class="st1" d="M242.5,105c0.7-0.8,47.6-14.8,47.6-14.8l48.9,16.2"/>
			<line class="st1" x1="289.8" y1="52.9" x2="242" y2="104.6"/>
			<line class="st1" x1="290.2" y1="53.2" x2="287.6" y2="27.3"/>
			<path class="st1" d="M241.5,39.9c3.1-2.1,46.1-12.6,46.1-12.6L339,39.9l-48.7,13.6L241.5,39.9z"/>
			<polyline class="st1" points="339,39.9 339,106.3 290.2,120.6 290.2,53.5 			"/>
			<polyline class="st1" points="241.5,39.9 241.5,104.9 290.2,120.6 			"/>
			<g class="st2">
				<path class="st3" d="M284.3,178.1c0.7-0.8,47.6-14.8,47.6-14.8l48.9,16.2"/>
				<line class="st3" x1="331.5" y1="125.9" x2="283.7" y2="177.6"/>
				<line class="st3" x1="332" y1="126.3" x2="329.4" y2="100.4"/>
				<path class="st3" d="M283.3,112.9c3.1-2.1,46.1-12.6,46.1-12.6l51.3,12.6L332,126.6L283.3,112.9z"/>
				<polyline class="st3" points="380.7,112.9 380.7,179.3 332,193.6 332,126.6 				"/>
				<polyline class="st3" points="283.3,112.9 283.3,177.9 332,193.6 				"/>
			</g>
			<g class="st2">
				<path class="st3" d="M193.8,167.9c0.7-0.8,47.6-14.8,47.6-14.8l48.9,16.2"/>
				<line class="st3" x1="241" y1="115.8" x2="193.2" y2="167.5"/>
				<line class="st3" x1="241.5" y1="116.2" x2="238.9" y2="90.2"/>
				<path class="st3" d="M192.8,102.8c3.1-2.1,46.1-12.6,46.1-12.6l51.3,12.6l-48.7,13.6L192.8,102.8z"/>
				<polyline class="st3" points="290.2,102.8 290.2,169.2 241.5,183.5 241.5,116.4 				"/>
				<polyline class="st3" points="192.8,102.8 192.8,167.8 241.5,183.5 				"/>
			</g>
		</g>
		<rect x="183.6" y="215.1" class="st4" width="210.6" height="39"/>
		<text transform="matrix(1 0 0 1 183.6238 240.7939)" class="st5 st6 st7">Module 203</text>
		<g>
			<path class="st8" d="M584,268H33.5c-6.6,0-12-5.4-12-12v-230c0-6.6,5.4-12,12-12H584c6.6,0,12,5.4,12,12v230
				C596,262.6,590.6,268,584,268z"/>
		</g>
	</g>
</g>
<g id="Layer_2" class="st0">
	<g class="st2">
		<path class="st9" d="M283.9,187.3l-0.1,0.6l-0.1,0.6l-0.1,0.6l0,0.6v0.6l0,0.6l0,0.6l0.1,0.6l0,0.2l0,0l0.1,0.5l0.1,0.6l0.1,0.6
			l0,0.6l0,0.6l0,0.6l0,0.6l-0.1,0.6l-0.1,0.6l0,0v0.3l0,0.3l0.1,0.3l0.1,0.3l0.1,0.3l0.2,0.3l0.2,0.3l0.2,0.3l0.2,0.3l0.2,0.2
			l0.3,0.2l0.3,0.2l0.3,0.2l0.3,0.2l0.3,0.1"/>
		<polygon class="st9" points="283.9,183.6 284.2,184 284.4,184.4 284.7,184.8 285,185.2 285.4,185.5 285.7,185.9 286.1,186.2 
			286.5,186.5 286.9,186.8 287.3,187 287.3,187 287.4,186.4 287.4,185.9 287.5,185.3 287.4,184.7 287.4,184.2 287.3,183.6 
			287.2,183.1 287.1,182.5 286.9,182 286.7,181.5 286.5,180.9 286.2,180.4 286,180 286,180 285.7,180 285.4,180.1 285.2,180.2 
			284.9,180.3 284.7,180.5 284.5,180.7 284.3,180.9 284.1,181.1 284,181.3 283.9,181.6 283.8,181.8 283.7,182.1 283.7,182.4 
			283.7,182.7 283.7,182.9 283.8,183.2 283.9,183.5 283.9,183.6 		"/>
		<polyline class="st9" points="290.7,187.3 290.8,187.9 290.9,188.6 291,189.2 291,189.8 291,190.5 291,191.1 291,191.7 
			290.9,192.4 290.9,192.6 290.9,192.6 290.8,193.1 290.7,193.7 290.6,194.3 290.5,194.9 290.5,195.5 290.5,196.1 290.5,196.7 
			290.6,197.3 290.7,197.9 290.7,197.9 290.7,198.2 290.7,198.6 290.6,198.9 290.5,199.2 290.4,199.6 290.3,199.9 290.1,200.2 
			289.9,200.4 289.7,200.7 289.4,200.9 289.2,201.2 288.9,201.4 288.6,201.5 288.3,201.7 287.9,201.8 		"/>
		<polygon class="st9" points="290.7,183.6 290.5,184 290.2,184.4 289.9,184.8 289.6,185.2 289.2,185.5 288.9,185.9 288.5,186.2 
			288.1,186.5 287.7,186.8 287.3,187 287.3,187 287.2,186.4 287.2,185.9 287.1,185.3 287.2,184.7 287.2,184.2 287.3,183.6 
			287.4,183.1 287.5,182.5 287.7,182 287.9,181.5 288.1,180.9 288.4,180.4 288.6,180 288.6,180 288.9,180 289.2,180.1 289.4,180.2 
			289.7,180.3 289.9,180.5 290.1,180.7 290.3,180.9 290.5,181.1 290.6,181.3 290.7,181.6 290.8,181.8 290.9,182.1 290.9,182.4 
			290.9,182.7 290.9,182.9 290.8,183.2 290.7,183.5 290.7,183.6 		"/>
		<polygon class="st9" points="287.9,201.8 287.8,199.7 287.7,197.5 287.7,195.4 287.6,193.2 287.6,191.1 287.6,188.9 287.7,186.8 
			287.8,184.7 287.8,184.2 287.8,184.2 287.8,183.8 287.8,183.4 287.8,183 287.9,182.6 288,182.2 288.1,181.8 288.3,181.4 
			288.4,181 288.7,180.7 288.9,180.3 289.1,180 289.4,179.7 289.7,179.4 290.1,179.2 290.4,178.9 290.7,178.7 291.1,178.5 
			291.5,178.4 291.7,178.3 291.7,178.3 292,178.1 292.3,178.1 292.6,178 292.9,178 293.2,178 293.5,178 293.7,178 294.1,178.1 
			294.3,178.2 294.6,178.4 294.8,178.6 295.1,178.7 295.2,179 295.4,179.2 295.6,179.4 295.7,179.7 295.9,180 295.9,180 296,180.3 
			296.1,180.7 296.2,181.1 296.3,181.4 296.3,181.8 296.4,182.2 296.3,182.6 296.3,182.9 296.2,183.3 296.1,183.7 296,184 
			295.8,184.4 295.6,184.7 295.5,184.9 295.5,184.9 295.5,184.9 295.1,185.5 294.7,186.2 294.3,186.8 294,187.5 293.7,188.1 
			293.4,188.8 293.2,189.5 292.9,190.2 292.7,190.9 292.6,191.6 292.4,192.4 292.3,193.1 292.3,193.8 292.2,194.6 292.2,195.3 
			292.2,196 292.2,196.8 292.3,197.5 292.4,198.2 293.3,198.4 293.2,197.7 293.1,196.9 293.1,196.2 293.1,195.4 293.1,194.7 
			293.1,194 293.2,193.2 293.3,192.5 293.5,191.7 293.6,191 293.8,190.3 294.1,189.6 294.3,188.9 294.6,188.2 294.9,187.5 
			295.2,186.8 295.6,186.2 296,185.6 296.4,184.9 296.5,184.8 296.5,184.8 296.7,184.5 296.8,184 296.9,183.6 297,183.1 
			297.1,182.7 297.1,182.2 297.1,181.8 297.1,181.4 297.1,180.9 297,180.5 296.9,180 296.7,179.6 296.6,179.2 296.4,178.8 
			296.2,178.8 296.1,178.7 295.9,178.4 295.6,178.2 295.3,178 295,177.8 294.7,177.6 294.4,177.5 294,177.4 293.7,177.3 
			293.3,177.2 293,177.2 292.6,177.2 292.3,177.3 291.9,177.3 291.5,177.4 291.5,177.4 291,177.8 290.4,178.1 289.8,178.4 
			289.2,178.6 288.8,178.8 288.8,178.8 288.8,178.7 288.9,178.4 289,178.1 289,177.8 289,177.5 289,177.2 288.9,176.8 288.8,176.6 
			288.8,176.6 288.8,176.5 289,176.5 289.2,176.4 289.3,176.2 289.5,176.1 289.6,175.9 289.7,175.7 289.7,175.5 289.8,175.3 
			289.8,175.1 289.7,174.9 289.7,174.7 289.7,174.7 289.9,174.5 290.1,174.3 290.1,173.5 290.1,173.5 289.9,173.2 289.6,172.8 
			289.4,172.8 289,172.8 288.7,173.2 288.5,173.5 288.4,174 288.3,174.3 288,174.7 287.9,175.4 287.9,175.7 288,176.4 287.8,177.4 
			287.9,177.8 287.9,178.1 287.9,178.1 288,178.5 288,179 288,179.5 287.9,179.9 287.9,180.3 287.8,180.8 287.6,181.3 287.5,181.8 
			287.2,181.7 287,181.3 286.8,180.8 286.7,180.3 286.7,179.9 286.6,179.5 286.6,179 286.6,178.5 286.7,178.1 286.7,178.1 
			286.7,177.8 286.8,177.4 286.9,177.1 286.9,176.8 286.8,176.4 286.8,176.2 286.8,176.2 286.9,176 287,175.9 287,175.7 287,175.5 
			287,175.3 287,175.1 286.9,174.9 286.8,174.7 286.7,174.6 286.5,174.5 286.3,174.4 286.3,174.3 286.3,174.3 286.4,174.1 
			286.4,173.9 286.4,173.7 286.4,173.5 286.3,173.3 286.2,173.1 286.1,172.9 285.9,172.7 285.8,172.6 285.6,172.5 285.6,172.5 
			285.4,172.5 285.2,172.5 285.1,172.6 284.9,172.7 284.8,172.8 284.6,172.9 284.5,173.1 284.5,173.3 284.4,173.4 284.4,173.6 
			284.4,173.8 284.4,174 284.5,174.2 284.6,174.3 284.7,174.5 284.8,174.6 284.9,174.7 284.9,174.7 284.9,174.9 284.8,175.1 
			284.8,175.3 284.9,175.5 284.9,175.7 285,175.9 285.1,176.1 285.3,176.2 285.4,176.4 285.6,176.5 285.8,176.5 285.8,176.6 
			285.8,176.6 285.7,176.8 285.6,177.2 285.6,177.5 285.6,177.8 285.6,178.1 285.7,178.4 285.8,178.7 285.8,178.8 285.8,178.8 
			285.4,178.6 284.8,178.4 284.2,178.1 283.6,177.8 283.1,177.4 283.1,177.4 282.7,177.3 282.3,177.3 282,177.2 281.6,177.2 
			281.3,177.2 280.9,177.3 280.6,177.4 280.3,177.5 279.9,177.6 279.6,177.8 279.3,178 279,178.2 278.8,178.4 278.5,178.7 
			278.4,178.8 278.2,178.8 278.1,179.2 277.9,179.6 277.8,180 277.6,180.5 277.6,180.9 277.5,181.4 277.5,181.8 277.5,182.2 
			277.5,182.7 277.6,183.1 277.7,183.6 277.8,184 277.9,184.5 278.1,184.8 278.1,184.8 278.2,184.9 278.6,185.6 279,186.2 
			279.4,186.8 279.7,187.5 280,188.2 280.3,188.9 280.6,189.6 280.8,190.3 281,191 281.2,191.7 281.3,192.5 281.4,193.2 281.5,194 
			281.5,194.7 281.5,195.4 281.5,196.2 281.5,196.9 281.4,197.7 281.3,198.4 282.2,198.2 282.3,197.5 282.4,196.8 282.4,196 
			282.4,195.3 282.4,194.6 282.3,193.8 282.3,193.1 282.2,192.4 282,191.6 281.9,190.9 281.7,190.2 281.4,189.5 281.2,188.8 
			280.9,188.1 280.6,187.5 280.3,186.8 279.9,186.2 279.5,185.5 279.1,184.9 279.1,184.9 279.1,184.9 279,184.7 278.8,184.4 
			278.6,184 278.5,183.7 278.4,183.3 278.3,182.9 278.3,182.6 278.2,182.2 278.3,181.8 278.3,181.4 278.4,181.1 278.5,180.7 
			278.6,180.3 278.8,180 278.8,180 278.9,179.7 279,179.4 279.2,179.2 279.4,179 279.6,178.7 279.8,178.6 280,178.4 280.3,178.2 
			280.6,178.1 280.9,178 281.2,178 281.4,178 281.7,178 282,178 282.3,178.1 282.6,178.1 282.9,178.3 282.9,178.3 283.1,178.4 
			283.5,178.5 283.9,178.7 284.2,178.9 284.5,179.2 284.9,179.4 285.2,179.7 285.5,180 285.7,180.3 285.9,180.7 286.2,181 
			286.3,181.4 286.5,181.8 286.6,182.2 286.7,182.6 286.8,183 286.8,183.4 286.8,183.8 286.8,184.2 286.8,184.2 286.8,184.7 
			286.9,186.8 287,188.9 287,191.1 287,193.2 286.9,195.4 286.9,197.5 286.8,199.7 286.7,201.8 287.9,201.8 		"/>
		<polygon class="st9" points="283.2,199.6 283.2,199.3 283.2,199.1 283.1,198.8 283,198.6 282.9,198.4 282.9,198.4 282.7,198.2 
			282.6,198.1 282.4,198 282.3,198 282.1,197.9 281.9,197.9 281.7,197.9 281.5,197.9 281.3,198 281.1,198.1 281,198.2 280.8,198.4 
			280.8,198.4 280.8,198.4 280.5,198.7 280.3,199.1 280.1,199.4 280.1,199.8 280,200.4 280.2,200.8 280.2,201.2 280.2,201.5 
			280.3,201.9 280.4,202.2 280.5,202.3 283.2,199.6 		"/>
		<polygon class="st9" points="281.2,203.3 281.3,203.6 281.5,203.8 281.7,204 281.9,204.2 282.1,204.4 282.4,204.5 282.6,204.6 
			282.9,204.7 283.2,204.8 283.5,204.8 283.8,204.8 284.1,204.8 284.4,204.7 284.6,204.6 284.9,204.5 285.1,204.4 285.1,204.4 
			285.3,204.2 285.4,204 285.5,203.9 285.6,203.7 285.6,203.5 285.6,203.3 285.6,203.1 285.6,202.9 285.5,202.6 285.4,202.5 
			285.3,202.3 285.1,202.1 285,202 284.9,202 284.9,202 284.7,201.9 284.5,201.7 284.3,201.5 284.1,201.3 284,201 283.8,200.8 
			283.7,200.5 283.6,200.3 283.6,200 283.6,199.7 283.6,199.4 283.6,199.4 283.5,199.3 283.5,199.1 283.3,199 283.2,198.9 
			283.1,198.9 283,198.8 282.8,198.8 282.7,198.8 282.5,198.8 282.4,198.7 282.2,198.9 282.2,198.9 281.7,199.1 281.5,199.4 
			281.2,199.6 281,199.8 280.9,200 280.7,200.2 280.6,200.4 280.5,200.7 280.4,200.9 280.4,201.2 280.3,201.5 280.4,201.7 
			280.4,202 280.5,202.3 280.5,202.3 281.2,203.3 		"/>
		<polygon class="st9" points="291.4,199.6 291.4,199.3 291.5,199.1 291.5,198.8 291.6,198.6 291.7,198.4 291.7,198.4 291.9,198.2 
			292,198.1 292.2,198 292.4,198 292.5,197.9 292.7,197.9 292.9,197.9 293.1,197.9 293.3,198 293.5,198.1 293.6,198.2 293.8,198.4 
			293.8,198.4 293.8,198.4 294.1,198.7 294.3,199.1 294.5,199.4 294.5,199.8 294.6,200.4 294.4,200.8 294.4,201.2 294.4,201.5 
			294.3,201.9 294.2,202.2 294.1,202.3 291.4,199.6 		"/>
		<polygon class="st9" points="293.4,203.3 293.3,203.6 293.1,203.8 292.9,204 292.7,204.2 292.5,204.4 292.2,204.5 292,204.6 
			291.7,204.7 291.4,204.8 291.1,204.8 290.8,204.8 290.5,204.8 290.3,204.7 290,204.6 289.7,204.5 289.5,204.4 289.5,204.4 
			289.3,204.2 289.2,204 289.1,203.9 289,203.7 289,203.5 289,203.3 289,203.1 289,202.9 289.1,202.6 289.2,202.5 289.3,202.3 
			289.5,202.1 289.6,202 289.7,202 289.7,202 289.9,201.9 290.1,201.7 290.3,201.5 290.5,201.3 290.7,201 290.8,200.8 290.9,200.5 
			291,200.3 291,200 291,199.7 291,199.4 291,199.4 291.1,199.3 291.1,199.1 291.2,199 291.4,198.9 291.5,198.9 291.6,198.8 
			291.8,198.8 291.9,198.8 292.1,198.8 292.2,198.7 292.4,198.9 292.4,198.9 292.9,199.1 293.2,199.4 293.4,199.6 293.6,199.8 
			293.7,200 293.9,200.2 294.1,200.4 294.1,200.7 294.2,200.9 294.3,201.2 294.3,201.5 294.3,201.7 294.2,202 294.1,202.3 
			294.1,202.3 293.4,203.3 		"/>
		<polyline class="st9" points="297.1,186.8 296.8,187.1 296.4,187.4 296.1,187.8 295.9,188.2 295.6,188.5 295.4,189 295.2,189.4 
			295.1,189.8 294.9,190.3 294.8,190.7 294.7,191.2 294.7,191.7 294.6,192.1 294.6,192.6 294.6,192.6 294.6,193.4 294.7,194.5 
			294.8,195.6 294.9,196.6 295,197.7 295.1,198.7 295.3,199.8 295.3,199.8 295.4,200.2 295.4,200.6 295.4,201.1 295.4,201.5 
			295.4,201.9 295.3,202.4 295.2,202.8 295,203.2 294.9,203.6 294.7,204 294.5,204.4 294.2,204.7 294,205.1 294,205.1 293.7,205.3 
			293.4,205.5 293.1,205.7 292.8,205.8 292.5,205.9 292.2,206 291.9,206 291.5,206.1 291.2,206.1 290.8,206 290.5,206 290.2,205.9 
			289.9,205.8 289.6,205.7 289.3,205.5 289.2,205.4 289.2,205.4 289,205.3 288.5,205.1 288,204.9 287.4,204.7 287.2,204.7 
			286.6,204.9 286.1,205.1 285.6,205.3 285.4,205.4 285.4,205.4 285.3,205.5 285,205.7 284.7,205.8 284.4,205.9 284.1,206 
			283.8,206 283.4,206.1 283.1,206.1 282.7,206 282.4,206 282.1,205.9 281.8,205.8 281.5,205.7 281.2,205.5 280.9,205.3 
			280.6,205.1 280.6,205.1 280.4,204.7 280.1,204.4 279.9,204 279.8,203.6 279.6,203.2 279.4,202.8 279.3,202.4 279.3,201.9 
			279.2,201.5 279.2,201.1 279.2,200.6 279.2,200.2 279.3,199.8 279.3,199.8 279.5,198.7 279.6,197.7 279.8,196.6 279.8,195.6 
			279.9,194.5 280,193.4 280,192.6 280,192.6 280,192.1 279.9,191.7 279.9,191.2 279.8,190.7 279.7,190.3 279.6,189.8 279.4,189.4 
			279.2,189 279,188.5 278.7,188.2 278.5,187.8 278.2,187.4 277.8,187.1 277.6,186.8 		"/>
	</g>
</g>
<g id="Layer_6">
	<path class="st9" d="M283.6,139.6v-1.4 M284.8,185.1l-0.3-15.1l-0.3-15V155 M297.2,124.2l-1.1,1.5l-1.1,1.6l-1,1.6l-1,1.6l-1,1.6
		l-0.9,1.7l-0.9,1.7l-0.8,1.7l-0.8,1.7l-0.3,0.8 M279.3,139.4l-0.9-1.8l-0.9-1.7l-0.9-1.7l-1-1.7l-1-1.7l-1.1-1.7l-1.1-1.6l-1.1-1.6
		l-1.2-1.6v0"/>
	<polygon class="st10" points="279.3,139.3 279.7,140.3 280.3,141.8 280.9,143.3 281.5,144.8 282,146.3 282.5,147.8 282.9,149.3 
		283.3,150.8 283.6,152.4 283.9,153.9 284.1,155.5 284.1,155.5 284.1,154.8 284.3,153.1 284.7,151.6 285,150 285.3,148.5 
		285.7,146.9 286.1,145.4 286.6,143.8 287.1,142.4 287.7,140.8 288.4,139.4 288.4,139.4 288.3,139.5 288,139.7 287.6,139.9 
		287.2,140 286.8,140.1 286.4,140.2 286,140.2 285.5,140.2 285.1,140.1 284.7,140 284.3,139.8 284,139.6 283.6,139.4 283.6,139.4 
		283.5,139.5 283.2,139.7 282.9,139.9 282.5,140 282.1,140.1 281.8,140.2 281.4,140.2 281,140.2 280.6,140.1 280.3,140 279.9,139.8 
		279.6,139.6 279.4,139.4 279.3,139.3 	"/>
	<polygon class="st10" points="287.1,114.7 287.5,115 287.8,115.4 288.1,115.7 288.4,116.1 288.6,116.5 288.7,117 288.9,117.4 
		288.9,117.8 289,118.3 289,118.8 289,118.9 289,118.9 288.9,121.1 288.7,123.4 288.5,125.6 288.3,127.9 288,130.1 287.7,132.3 
		287.3,134.6 286.9,136.8 286.9,136.9 280.1,136.9 280.1,136.8 279.7,134.6 279.3,132.3 279,130.1 278.7,127.9 278.5,125.6 
		278.3,123.4 278.1,121.1 278,118.9 278,118.9 278,118.8 278,118.3 278,117.8 278.1,117.4 278.3,117 278.4,116.5 278.7,116.1 
		278.9,115.7 279.2,115.4 279.5,115 279.8,114.7 287.1,114.7 	"/>
	<path class="st9" d="M279.8,114.7l-0.4,0.3l-0.3,0.3l-0.3,0.3l-0.2,0.4l-0.2,0.4l-0.2,0.4l-0.1,0.4l-0.1,0.4l0,0.5v0.5l0,0.1l0,0
		l0.1,2.2l0.1,2.3l0.2,2.2l0.2,2.2l0.3,2.2l0.3,2.2l0.4,2.2l0.4,2.2v0.1 M287.1,114.7l0.3,0.3l0.3,0.3l0.3,0.3l0.3,0.4l0.2,0.4
		l0.2,0.4l0.1,0.4l0.1,0.4l0,0.5v0.5l0,0.1l0,0l-0.1,2.2l-0.1,2.3l-0.2,2.2l-0.2,2.2l-0.3,2.2l-0.3,2.2l-0.4,2.2l-0.4,2.2v0.1"/>
	<polygon class="st10" points="283.6,117.8 284,117.8 284.5,117.6 285.1,117.5 285.6,117.2 286,117 286.5,116.7 286.9,116.3 
		287.3,115.9 287.7,115.6 288,115.1 288.3,114.7 288.6,114.2 288.8,113.7 288.9,113.2 289.1,112.6 289.1,112.6 290.7,111.3 
		292.5,109 292.5,109 293.2,108.9 294,108.9 294.7,108.9 295.5,109 296.2,109.1 297,109.2 297.7,109.4 298.4,109.6 299.1,109.9 
		299.8,110.3 300.3,110.5 300.3,110.5 300.3,110.5 300.9,110.8 301.4,110.9 302,111 302.6,111.1 303.1,111.1 303.7,111.1 304.3,111 
		304.9,110.9 305.4,110.8 305.9,110.6 306.5,110.3 307,110.1 307.5,109.7 307.9,109.4 308.4,109 308.8,108.6 309.1,108.1 
		309.4,107.7 309.7,107.1 309.7,107.1 310.8,106.4 310.8,106.4 310.9,106 311.1,105.6 311.2,105 311.3,104.5 311.3,104 311.3,103.5 
		311.2,103 311.1,102.5 311,102 310.8,101.5 310.6,101 310.3,100.5 310,100.1 309.7,99.7 309.3,99.3 308.9,99 308.5,98.8 308,98.5 
		307.6,98.3 307.1,98.1 306.5,98 306,97.9 305.5,97.9 305,97.9 304.5,97.9 304,98 304,98 303.8,98.1 302.6,98.3 301.4,98.6 
		300.2,99 299,99.4 297.9,99.9 296.7,100.4 295.6,100.9 295.6,100.9 295.3,101.2 294.9,101.4 294.6,101.6 294.2,101.8 293.8,101.9 
		293.3,101.9 292.9,102 292.5,101.9 292.1,101.9 291.7,101.8 291.3,101.6 290.9,101.4 290.9,101.4 289.9,101.1 288.7,100.7 
		287.4,100.3 286.2,100 284.9,99.8 283.6,99.6 283.5,99.6 282.2,99.8 280.9,100 279.7,100.3 278.4,100.7 277.2,101.1 276.2,101.4 
		276.2,101.4 275.8,101.6 275.4,101.8 275,101.9 274.6,101.9 274.2,102 273.7,101.9 273.3,101.9 272.9,101.8 272.5,101.6 
		272.1,101.4 271.8,101.2 271.5,100.9 271.5,100.9 270.4,100.4 269.2,99.9 268,99.4 266.9,99 265.7,98.6 264.5,98.3 263.3,98.1 
		263.1,98 263.1,98 262.6,97.9 262.1,97.9 261.6,97.9 261.1,97.9 260.6,98 260,98.1 259.5,98.3 259.1,98.5 258.6,98.8 258.2,99 
		257.8,99.3 257.4,99.7 257.1,100.1 256.8,100.5 256.5,101 256.3,101.5 256.1,102 255.9,102.5 255.8,103 255.8,103.5 255.8,104 
		255.8,104.5 255.9,105 256,105.6 256.2,106 256.3,106.4 256.3,106.4 257.4,107.1 257.4,107.1 257.6,107.7 258,108.1 258.4,108.6 
		258.7,109 259.2,109.4 259.6,109.7 260.1,110.1 260.6,110.3 261.1,110.6 261.7,110.8 262.2,110.9 262.8,111 263.4,111.1 264,111.1 
		264.5,111.1 265.1,111 265.7,110.9 266.2,110.8 266.7,110.5 266.8,110.5 266.8,110.5 267.3,110.3 268,109.9 268.7,109.6 
		269.4,109.4 270.1,109.2 270.9,109.1 271.6,109 272.3,108.9 273.1,108.9 273.9,108.9 274.6,109 274.6,109 276.4,111.3 278,112.6 
		278,112.6 278.1,113.2 278.3,113.7 278.5,114.2 278.8,114.7 279.1,115.1 279.4,115.6 279.8,115.9 280.2,116.3 280.6,116.7 
		281.1,117 281.5,117.2 282,117.5 282.6,117.6 283.1,117.8 283.5,117.8 283.6,117.8 	"/>
	<polygon class="st10" points="262.4,102.2 262.4,101.9 262.6,101.6 262.7,101.3 262.9,101 263.2,100.8 263.5,100.6 263.8,100.4 
		264.1,100.3 264.4,100.2 264.7,100.2 265.1,100.2 265.4,100.3 265.7,100.4 265.7,100.4 265.9,100.4 266.6,100.5 267.3,100.6 
		267.9,100.8 268.6,101 269.2,101.3 269.8,101.6 270.4,102 271,102.3 271.5,102.8 272,103.2 272,103.2 272.1,103.2 272.4,103.4 
		272.7,103.5 273,103.7 273.2,103.9 273.4,104.2 273.6,104.4 273.7,104.7 273.8,105.1 273.8,105.1 273.7,105.4 273.7,106.2 
		273.7,107.1 273.8,107.4 273.8,107.4 273,107.5 272,107.6 270.9,107.7 269.9,107.7 268.8,107.6 267.8,107.5 266.8,107.4 
		266.8,107.4 266.5,106.8 266.3,106.3 266,105.8 265.6,105.3 265.2,104.8 264.8,104.4 264.3,103.9 263.8,103.6 263.3,103.2 
		262.8,102.9 262.4,102.7 262.4,102.2 	"/>
	<path class="st9" d="M262.4,102.8l0.1,0.9l0.2,1.3l0.6,1.2l1,1.2 M263,107.4l-1.1-0.8l-0.6-0.6l-0.5-1l-0.3-0.1 M259.6,104.9
		l0.5,1.4l0.6,0.9l0.5,0.5l0.8,0.5 M258.8,106.3l0.7,0.9l0.8,0.6l0.5,0.5 M257.1,104.3l0.1,1.3l0.3,0.9l0.8,0.9l0.6,0.3
		 M257.3,107.2l0.5,0.3"/>
	<polygon class="st10" points="304.8,102.2 304.7,101.9 304.5,101.6 304.3,101.3 304.1,101 303.9,100.8 303.6,100.6 303.3,100.4 
		303,100.3 302.7,100.2 302.4,100.2 302,100.2 301.7,100.3 301.4,100.4 301.4,100.4 301.2,100.4 300.5,100.5 299.8,100.6 
		299.2,100.8 298.5,101 297.9,101.3 297.3,101.6 296.7,102 296.1,102.3 295.6,102.8 295.1,103.2 295.1,103.2 295,103.2 294.7,103.4 
		294.4,103.5 294.1,103.7 293.9,103.9 293.7,104.2 293.5,104.4 293.4,104.7 293.3,105.1 293.3,105.1 293.4,105.4 293.3,106.2 
		293.4,107.1 293.3,107.4 293.3,107.4 294.1,107.5 295.1,107.6 296.2,107.7 297.2,107.7 298.2,107.6 299.3,107.5 300.3,107.4 
		300.3,107.4 300.5,106.8 300.8,106.3 301.1,105.8 301.5,105.3 301.9,104.8 302.3,104.4 302.8,103.9 303.3,103.6 303.7,103.2 
		304.3,102.9 304.8,102.7 304.8,102.2 	"/>
	<path class="st9" d="M304.8,102.8l-0.1,0.9l-0.2,1.3l-0.6,1.2l-1,1.2 M304,107.4l1.1-0.8l0.6-0.6l0.5-1l0.3-0.1 M307.5,104.9
		l-0.5,1.4l-0.6,0.9l-0.5,0.5l-0.8,0.5 M308.3,106.3l-0.7,0.9l-0.8,0.6l-0.5,0.5 M310,104.3l-0.1,1.3l-0.3,0.9l-0.8,0.9l-0.6,0.3
		 M309.7,107.2l-0.5,0.3 M276.7,109.4l0.4,0.9l0.5,0.7l0.6,0.6l0.5,0.8 M279,110.3l0.1,0.5l0.4,0.7l0.6,0.6l0.2,0.3 M280.4,110.6
		l0.2,0.5l0.5,0.3l0.3,0.3l0.3,0.3l0.1,0.2v0.1 M281.8,110.6l0.6,0.8l0.1,0.4l0.2,0.6 M283.7,110.6l0.2,0.5v0.5l0.1,0.6
		 M286.1,109.8l-0.5,1.1l-0.2,0.9l-0.2,0.6 M287.5,110.5l-0.6,0.7l-0.5,0.5l-0.1,0.5l-0.1,0.1 M289.1,110.4l-0.7,0.9l-0.1,0.3
		l-0.1,0.4l-0.2,0.2"/>
</g>
<g id="Layer_4">
	<g>
		<polyline class="st11" points="327,52.2 327.3,51.2 325.6,54.2 324.6,58.5 323.7,62.2 324.2,64.6 326.6,68.4 328.9,72.2 
			330.1,73.5 333.7,81 334.7,87.4 336,96.2 337.3,107.8 337.4,114.2 337.4,124.3 334.9,133.2 332.7,142.1 330.4,151.1 326.8,161.4 
			324.6,167.6 322.3,175.2 320,181.6 318.8,187.9 		"/>
	</g>
	<polyline class="st11" points="250.6,51.8 250.3,50.8 251.9,53.8 253,58.1 253.9,61.8 253.4,64.2 251,68 248.6,71.8 247.5,73.1 
		243.9,80.6 242.8,87 241.5,95.8 240.2,107.4 240.2,113.8 240.2,123.9 242.7,132.8 244.9,141.7 247.2,150.7 250.8,161 253,167.2 
		255.3,174.8 257.5,181.2 258.8,187.5 	"/>
</g>
<g id="Layer_8">
</g>
<g id="Layer_3" class="st0">
	<g class="st2">
		<path class="st11" d="M312,100.2c11.7,24.8-12.8,53.3,1.8,76.9"/>
		<path class="st11" d="M300.9,99.9c-3.4,6-2,13.6-1,20.1c1.3,9.6-1.5,19-1.6,28.6c-0.1,19.5,1.5,45-16.7,57.5
			c-18.1-12.5-16.5-38-16.7-57.5c0-9.6-2.8-19-1.5-28.6c0.9-6.6,2.4-14.2-1-20.1"/>
		<path class="st11" d="M249.3,177.1c14.6-23.6-9.9-52.1,1.6-76.9"/>
		<path class="st11" d="M264.9,147.8c0.1,19.5-1.5,45,16.7,57.5c-19.4,0-20.5-25.8-36.6-31.3c-4.3-1.5-9.5-5.7-7.2-10.8
			c2.6-6.2-0.8-16.1-3.4-26.2"/>
		<path class="st11" d="M328.8,138.1c-2.5,10.1-6,19.9-3.3,26.2c2.2,5.1-2.9,9.2-7.3,10.8c-16,5.4-17.2,31.3-36.5,31.3
			c18.1-12.5,16.5-38,16.7-57.5c0-3.6,0.4-7.2,0.8-10.7"/>
		<path class="st11" d="M313.8,177.2c-7.6-12.3-4.6-25.9-1.6-39.6"/>
		<path class="st11" d="M251.1,138.1c2.9,13.6,5.7,27-1.8,39.1"/>
		<g>
			<g>
				<path class="st12" d="M284.9,70.4c1.6,0.6,3.7,3.1,4.8,7.7c0.9,3.8,2.4,2.7,4.7,3.4c10,3.1,16.4,12.2,16.4,20.9
					c0,5.2-3,15.7-9.9,12.1c-8.9-4.7-10.1-17.9-19-22.7"/>
				<path class="st12" d="M294,84.4c-3.9,6.8-7.3,4.9-12.1,7.4c-3.1,1.6-4.2,2.3-6.9,3c-5.2,1.3-3.8-6.8-6.3-10.3"/>
				<path class="st12" d="M267.3,83.1c-4.2-2.7-11.6-1.1-12.8-7.6c-0.7-4.1,4.5-7.8,9.5-9.8"/>
				<path class="st12" d="M257.7,73c4.1,8.9,11.6,12.1,18.6,1.6"/>
				<path class="st12" d="M267,83.1c0.8,0.2,1.3,0.7,1.8,1.3c1.9,2.7-0.2,5.2-2.2,5.8C260.6,92.4,260.7,81,267,83.1"/>
				<path class="st12" d="M266.6,90.2c-4.1,1.5-4.9-1.4-8.3,6.9c-1.3,3.2-3.8,1.9-5.4,5.7c-1.8,4.5-9.2,4.9-13,7.8
					c-0.7,0.5-6.5,1.6-7.1-5.2c-0.9-10.5,9-32.4,21.8-29.9"/>
				<path class="st12" d="M268.9,88.5c-6.6,9.4,2,10.8,1.8,20.8"/>
				<path class="st12" d="M267.9,121.4c-2.6-10.3,3.7-12.9,8.8-16.4c4-2.7,7.2-5.8,5.2-13.2c-4.5,2.3-7,6.8-5.2,13.2"/>
				<path class="st12" d="M286.3,95.3c1,17.6-7.8,15.6-13.6,23.7c-2.3,3.2-3.1,10.3-2.3,20.4c1.2,14.9,1.6,30.1,3.7,44.9
					c-2.7,0.8-5.5,0.4-8-1.2c2-12.3,1.5-25.4-1.4-37.5c-3.3-13.8-1.6-33.7-8.5-44.8"/>
				<path class="st12" d="M278.6,108.2c1.8,1.3,2.6,4.2,0.1,6.6c-3.5,3.4-8.1-2.3-4.9-5.7C275.3,107.4,277.2,107.4,278.6,108.2
					c5.3,3.5-1.8,20.5-2.2,38.1l2.7,0.2c1.5-3.5,0.8-31.7,8.7-30.6c1,0.2,2.3,0.8,3.6,2.1"/>
			</g>
			<path class="st13" d="M274.2,185.9c0.9-1.6,0.4-3.8,0.3-5.6c-0.8-9.1-1.6-18.3-2.2-27.4c-0.4-6.7,2.7-7.5,2.7-8.9
				c0.1-7.9,2.5-16.8,7.9-22.8l-0.2-3c-0.1-1.4-0.2-1.1,1.5-1.4c1.6,0.1,1.2,0.1,1.6,1.9l0.2,1.5c-0.5,1.1-0.7,2.2-1.2,3.3
				c-5,5.6-7.7,12.5-7.8,20.4c-0.1,7.9-0.5,15.8,0.9,23.6c1.6,9,2.1,18.4,0.3,30.2l-0.7-2.6c0.8-9.1,0.3-18.4-1.3-27.4
				c-1.2-6.8-1.2-13.9-1.1-20.9c0,0.8-1.7,0.8-1.4,5.7c0.5,9.1,1,18.3,1.8,27.4c0.1,1.8,0.5,4.4-0.8,6.8L274.2,185.9L274.2,185.9z"
				/>
			<g>
				<path class="st10" d="M297.4,141.7c-0.6-6.9-1.8-14.9,2.1-20.9c1.7-2.6,5.7-4.6,8.3-5.4c0-0.6-2.6,0.5-2.9,0.6
					c-2.9,0.8-5.6,3.8-8.9,2.6c-0.6-0.1-0.2-0.7-0.5-1.1c-0.4-0.6-0.2-2.3,0.7-2.3c0.8,0,1.6,0.1,2.4,0.2c-0.8-0.2-1.5-0.4-1.8-0.6
					c-0.4-0.2,0-1.8,0.6-1.6c3.2,1,7,2,10,0.4c3.1-1.7,3.1-3.5,3.4-4.9c-1.2,3.5-5.3,6.2-8.5,3.3c-4.6-4.2-1.4-10.8,3.2-14.2
					c0.4-0.4,0.9-0.7,1.4-1c10.4-5.9,23.9,1.4,25.5,13.1c4.4,6,1.3,10.1,0.6,16.2c-0.7,6.6-4.9,17.8-18,17.8
					c-10.7,0-16.5-8.1-13.1-18c0.9-2.9,3.9-5.1,6.3-3.9c0.5-0.6,1-1.3,1.1-2.1c-2.4-1.1-6.6,1.6-8,3.7c-3.6,5.3-2.5,12.1-2.6,18.1
					C298.6,143.8,297.6,143.4,297.4,141.7L297.4,141.7z"/>
				<path class="st9" d="M308.2,122c1.1,0.6,1.7,1.8,1.5,3.7c-1.1,1.5-3.3,1.7-4.8,2.7c-1.3,0.9-0.1,1.4-0.1,2.4
					c0,0.8,0.7,1.1,0.8,1.7c0.2,1.4,1.6,1.5,2.6,2.2c3.5,2.5,3.6-4.9,3.7-7c0.1-1,0.1-3,1.5-2.7c1.2,0.3,1.1,1.8,0.8,2.6
					c-0.6,1.3-2.9,8-0.7,8.4c0.9,0.2,1.7,0.9,2.5,0.2c0.9-0.7,1.9,0.2,2.8-0.6c0.7-0.6,2.4,0.2,2.2-1.4c-0.4-2.7-1.8-4.6-3.7-6.5
					c-1-0.9-2.4-5.3-0.7-5.9c1.8-0.7,2.5,2.8,2.6,3.9c0.3,2.8,1.5,6,4.3,7.1c1.8,0.7,1.9-1.3,2.8-2.1c0.6-0.6,0.3-0.9,1.2-1.9
					c0.6-0.7,0.9-1.6,0-2.1c-1.8-1.1-4-1.5-5.6-2.9c-1-0.8-3.8-2.4-2.3-3.6c0.7-0.6,1.6-0.2,2.3,0.3c1.9,1.5,4.5,3.9,7.4,4
					c0.9,0,0.2-1.1,0.7-1.6c0.5-0.6-0.1-1.3,0.3-2c0.4-0.6-0.4-1.3,0-2c0.2-0.4-0.2-0.7-0.5-0.7c-2.4-0.4-4.7-0.4-7-0.1
					c-1.3,0.2-3.6,0.4-3.7-1.5c-0.1-1.5,3.3-1.3,4-0.9c1.7,0.9,3.4,1.9,5.4,1.8c0.8,0,3.1,0.1,2.2-1.3c-0.6-0.9,0.7-1.3-0.4-2.5
					c-0.7-0.7,0.7-2.6-0.9-2.6c-2.2,0-4.5,0.3-6.3,1.5c-1.5,1-5.8,1.5-5.5-0.7c0.3-2.2,3.7-1.9,4.7-1.5c1.9,0.8,4.1,0.9,6.1,0.3
					c1.9-0.6,0.2-1.6,0.4-2.7c0.2-1.2-1.1-1.1-0.9-2.2c0.1-0.7-0.9-1.7-1.6-1.1c-1.7,0.7-3.1,1.8-4.4,3c-3,2.5-4.1-0.9-1.5-1.5
					c1.2-0.3,5.8-1.6,4.6-3.5c-0.6-0.8-2-0.6-2.2-1.6c-0.3-1.1-1.7-0.7-2.3-1.5c-0.4-0.7-0.9-0.9-1.3-0.2c-0.9,1.5-1.2,3.7-1,5
					c0.4,3.5-2.2,3.9-2.3,0.2c-0.1-6-0.1-5.9-1.3-6.6c-1.5-0.8-1.1,0.2-2.5,0c-0.6-0.1-1.1,0.7-0.7,1.2c0.9,1.3,1.4,2.8,1.8,4.3
					c-0.5-1.6-1.5-3-2.7-4.2c-0.9-1-1.2,0.7-1.9,1c-1.1,0.5-1,2.3-1.5,2.8c-0.6,0.6-0.6,1.8,0.3,2.2c1.8,0.8,3.7,0.8,5.6,1.1
					c-1.9-0.3-4,7.4-8.8,2.3c-3.3-3.5-1.2-8.8,2-11.5c0.4-0.4,0.9-0.7,1.4-1c10.4-5.9,23.9,1.4,25.5,13.1c4.4,6,1.3,10.1,0.6,16.2
					c-0.5,4.5-3.4,8.7-6.4,11.3c-7.8,6.9-22.4,5.6-24.8-5.6c-0.4-1.8-0.5-4,0.1-5.9C302.8,123,305.8,120.7,308.2,122L308.2,122z"/>
				<g>
					<line class="st9" x1="318.6" y1="101.1" x2="318.1" y2="105.2"/>
					<line class="st9" x1="319" y1="101.2" x2="318.2" y2="105.2"/>
					<line class="st9" x1="319.4" y1="101" x2="318.3" y2="105"/>
					<line class="st9" x1="319.8" y1="101.1" x2="318.5" y2="104.9"/>
					<line class="st9" x1="320.3" y1="100.9" x2="318.6" y2="105"/>
					<line class="st9" x1="320.7" y1="101.1" x2="318.7" y2="105.1"/>
					<line class="st9" x1="321" y1="101.4" x2="318.8" y2="105.2"/>
					<line class="st9" x1="321.4" y1="101.5" x2="318.9" y2="105.3"/>
					<line class="st9" x1="319" y1="105.4" x2="321.6" y2="101.7"/>
					<line class="st9" x1="321.7" y1="102.2" x2="319.2" y2="105.3"/>
					<line class="st9" x1="322.1" y1="102.2" x2="319.2" y2="105.4"/>
					<line class="st9" x1="322.2" y1="102.6" x2="319.3" y2="105.5"/>
					<line class="st9" x1="322.5" y1="102.7" x2="319.5" y2="105.4"/>
					<line class="st9" x1="322.5" y1="103.1" x2="319.5" y2="105.6"/>
					<line class="st9" x1="322.8" y1="103.2" x2="319.6" y2="105.6"/>
					<line class="st9" x1="319.6" y1="105.7" x2="322.8" y2="103.6"/>
					<line class="st9" x1="319.6" y1="105.8" x2="322.7" y2="104"/>
					<line class="st9" x1="319.5" y1="106" x2="322.7" y2="104.3"/>
					<line class="st9" x1="319.6" y1="106.2" x2="322.5" y2="104.8"/>
				</g>
				<g>
					<line class="st9" x1="312.4" y1="104.5" x2="310.1" y2="100.9"/>
					<line class="st9" x1="312.3" y1="104.6" x2="309.6" y2="100.8"/>
					<line class="st9" x1="311.9" y1="104.5" x2="309.3" y2="101.2"/>
					<line class="st9" x1="311.8" y1="104.7" x2="308.8" y2="101.1"/>
					<line class="st9" x1="311.6" y1="104.6" x2="308.5" y2="101.4"/>
					<line class="st9" x1="311.6" y1="104.9" x2="308.2" y2="101.6"/>
					<line class="st9" x1="311.4" y1="104.8" x2="308" y2="102.1"/>
					<line class="st9" x1="311.4" y1="105" x2="307.8" y2="102.6"/>
					<line class="st9" x1="311.3" y1="105.1" x2="307.3" y2="102.9"/>
					<line class="st9" x1="311.2" y1="105.3" x2="307.2" y2="103.3"/>
					<line class="st9" x1="311.1" y1="105.3" x2="307" y2="103.7"/>
					<line class="st9" x1="311.2" y1="105.5" x2="306.7" y2="104"/>
					<line class="st9" x1="311.1" y1="105.6" x2="306.9" y2="104.5"/>
					<line class="st9" x1="311.2" y1="105.8" x2="306.5" y2="104.9"/>
				</g>
				<g>
					<line class="st9" x1="322.3" y1="110.3" x2="326.9" y2="111.2"/>
					<line class="st9" x1="322.4" y1="110.2" x2="327.3" y2="110.9"/>
					<line class="st9" x1="322.8" y1="110" x2="327.3" y2="110.5"/>
					<line class="st9" x1="322.7" y1="109.7" x2="327.7" y2="110.1"/>
					<line class="st9" x1="322.9" y1="109.6" x2="327.7" y2="109.6"/>
					<line class="st9" x1="322.7" y1="109.4" x2="327.8" y2="109.2"/>
					<line class="st9" x1="322.9" y1="109.3" x2="327.6" y2="108.7"/>
					<line class="st9" x1="322.8" y1="109.1" x2="327.4" y2="108.1"/>
					<line class="st9" x1="322.7" y1="108.9" x2="327.5" y2="107.5"/>
					<line class="st9" x1="322.7" y1="108.8" x2="327.2" y2="107.1"/>
					<line class="st9" x1="322.7" y1="108.7" x2="327.1" y2="106.7"/>
					<line class="st9" x1="322.6" y1="108.6" x2="327" y2="106.1"/>
					<line class="st9" x1="322.5" y1="108.4" x2="326.5" y2="105.9"/>
					<line class="st9" x1="322.3" y1="108.3" x2="326.5" y2="105.3"/>
				</g>
				<g>
					<line class="st9" x1="322.7" y1="115.3" x2="328.4" y2="116.8"/>
					<line class="st9" x1="322.8" y1="115.2" x2="328.9" y2="116.6"/>
					<line class="st9" x1="323.2" y1="115.1" x2="328.9" y2="116.2"/>
					<line class="st9" x1="323.1" y1="114.9" x2="329.4" y2="116"/>
					<line class="st9" x1="323.5" y1="114.8" x2="329.5" y2="115.7"/>
					<line class="st9" x1="323.1" y1="114.6" x2="329.6" y2="115.4"/>
					<line class="st9" x1="323.4" y1="114.5" x2="329.4" y2="114.9"/>
					<line class="st9" x1="323.3" y1="114.4" x2="329.2" y2="114.4"/>
					<line class="st9" x1="323.3" y1="114.3" x2="329.3" y2="114"/>
					<line class="st9" x1="323.2" y1="114.2" x2="329.1" y2="113.6"/>
					<line class="st9" x1="323.3" y1="114.1" x2="328.9" y2="113.2"/>
					<line class="st9" x1="323.1" y1="114" x2="328.9" y2="112.8"/>
					<line class="st9" x1="323" y1="113.9" x2="328.3" y2="112.6"/>
					<line class="st9" x1="322.8" y1="113.7" x2="328.4" y2="112.1"/>
				</g>
				<g>
					<line class="st9" x1="322.3" y1="120.5" x2="327.2" y2="123.9"/>
					<line class="st9" x1="322.5" y1="120.5" x2="327.8" y2="123.9"/>
					<line class="st9" x1="323" y1="120.5" x2="327.9" y2="123.5"/>
					<line class="st9" x1="323" y1="120.2" x2="328.5" y2="123.4"/>
					<line class="st9" x1="323.3" y1="120.3" x2="328.7" y2="123"/>
					<line class="st9" x1="323" y1="120" x2="329" y2="122.7"/>
					<line class="st9" x1="323.4" y1="120" x2="328.9" y2="122.2"/>
					<line class="st9" x1="323.3" y1="119.8" x2="328.9" y2="121.6"/>
					<line class="st9" x1="323.3" y1="119.6" x2="329.3" y2="121.2"/>
					<line class="st9" x1="323.3" y1="119.5" x2="329.2" y2="120.7"/>
					<line class="st9" x1="323.4" y1="119.4" x2="329.1" y2="120.2"/>
					<line class="st9" x1="323.3" y1="119.2" x2="329.3" y2="119.8"/>
					<line class="st9" x1="323.3" y1="119.1" x2="328.8" y2="119.3"/>
					<line class="st9" x1="323.1" y1="118.9" x2="329.1" y2="118.8"/>
				</g>
				<g>
					<line class="st9" x1="319.5" y1="125.7" x2="323" y2="131.4"/>
					<line class="st9" x1="319.6" y1="125.7" x2="323.6" y2="131.7"/>
					<line class="st9" x1="320.1" y1="126" x2="323.8" y2="131.3"/>
					<line class="st9" x1="320.1" y1="125.8" x2="324.4" y2="131.6"/>
					<line class="st9" x1="320.5" y1="126" x2="324.7" y2="131.4"/>
					<line class="st9" x1="320.3" y1="125.6" x2="325.1" y2="131.3"/>
					<line class="st9" x1="320.6" y1="125.8" x2="325.2" y2="130.7"/>
					<line class="st9" x1="320.6" y1="125.5" x2="325.4" y2="130.2"/>
					<line class="st9" x1="320.7" y1="125.4" x2="325.8" y2="130"/>
					<line class="st9" x1="320.7" y1="125.3" x2="325.9" y2="129.5"/>
					<line class="st9" x1="320.8" y1="125.2" x2="326" y2="129.1"/>
					<line class="st9" x1="320.8" y1="125" x2="326.3" y2="128.8"/>
					<line class="st9" x1="320.8" y1="124.9" x2="326" y2="128.1"/>
					<line class="st9" x1="320.7" y1="124.6" x2="326.4" y2="127.7"/>
				</g>
				<g>
					<line class="st9" x1="314.9" y1="128.5" x2="313.1" y2="134.2"/>
					<line class="st9" x1="315.1" y1="128.6" x2="313.4" y2="134.7"/>
					<line class="st9" x1="315.3" y1="129.1" x2="314" y2="134.7"/>
					<line class="st9" x1="315.6" y1="129" x2="314.4" y2="135.3"/>
					<line class="st9" x1="315.7" y1="129.3" x2="314.9" y2="135.4"/>
					<line class="st9" x1="316" y1="129" x2="315.4" y2="135.6"/>
					<line class="st9" x1="316.1" y1="129.3" x2="316.1" y2="135.3"/>
					<line class="st9" x1="316.3" y1="129.2" x2="316.8" y2="135.2"/>
					<line class="st9" x1="316.5" y1="129.2" x2="317.5" y2="135.4"/>
					<line class="st9" x1="316.7" y1="129.1" x2="318" y2="135.2"/>
					<line class="st9" x1="316.9" y1="129.2" x2="318.6" y2="135"/>
					<line class="st9" x1="317" y1="129" x2="319.2" y2="135"/>
					<line class="st9" x1="317.2" y1="129" x2="319.6" y2="134.4"/>
					<line class="st9" x1="317.3" y1="128.7" x2="320.3" y2="134.5"/>
				</g>
				<g>
					<line class="st9" x1="309.9" y1="126.9" x2="305" y2="129.2"/>
					<line class="st9" x1="309.9" y1="127.1" x2="304.8" y2="129.8"/>
					<line class="st9" x1="309.7" y1="127.5" x2="305.2" y2="130.1"/>
					<line class="st9" x1="309.9" y1="127.7" x2="305" y2="130.7"/>
					<line class="st9" x1="309.8" y1="128" x2="305.3" y2="131.2"/>
					<line class="st9" x1="310.1" y1="127.9" x2="305.5" y2="131.6"/>
					<line class="st9" x1="310" y1="128.2" x2="306" y2="131.9"/>
					<line class="st9" x1="310.3" y1="128.3" x2="306.5" y2="132.2"/>
					<line class="st9" x1="310.4" y1="128.4" x2="306.9" y2="132.8"/>
					<line class="st9" x1="310.5" y1="128.5" x2="307.3" y2="133"/>
					<line class="st9" x1="310.6" y1="128.6" x2="307.8" y2="133.3"/>
					<line class="st9" x1="310.8" y1="128.6" x2="308.1" y2="133.7"/>
					<line class="st9" x1="310.9" y1="128.7" x2="308.8" y2="133.6"/>
					<line class="st9" x1="311.2" y1="128.7" x2="309.1" y2="134.1"/>
				</g>
				<line class="st9" x1="314.5" y1="103.8" x2="314.2" y2="99.4"/>
				<line class="st9" x1="314.4" y1="103.7" x2="313.9" y2="99"/>
				<line class="st9" x1="314.1" y1="103.4" x2="313.5" y2="99.2"/>
				<line class="st9" x1="314" y1="103.6" x2="313.1" y2="98.9"/>
				<line class="st9" x1="313.8" y1="103.4" x2="312.7" y2="99"/>
				<line class="st9" x1="313.7" y1="103.6" x2="312.4" y2="99"/>
				<line class="st9" x1="313.5" y1="103.5" x2="312" y2="99.3"/>
				<line class="st9" x1="313.4" y1="103.6" x2="311.6" y2="99.6"/>
			</g>
		</g>
		<ellipse class="st12" cx="285.6" cy="117.1" rx="4.2" ry="4.3"/>
	</g>
</g>
<g id="Layer_7" class="st0">
	<g class="st2">
		<path class="st14" d="M433.7,164.6c-1.1-1-2.2-2.1-3.2-3.3l0,0c-1.9-6.1-6.6-12.1-6.6-12.1c-4.4-3.9-9.8-23-9.8-23
			c-5.4-32.9-21-43.6-21-43.6c2.4-12.9-6.1-33.8-6.1-33.8c1.6-6.1,2.1-12.7,2.1-18.7"/>
		<path class="st14" d="M356.8,208.2c-1.3-23.1-6.5-40.6-6.5-40.6c-2.6-5.9-4-11.5-4-11.5c0-15.1-4.4-36.8-4.4-36.8
			c-2.9-9.5-0.7-20.1-0.7-20.1c5.1-24,12.2-53,12.2-53c1.5,27.6,15.5,54.8,15.5,54.8c0,9.2,4.4,17.1,4.4,17.1
			c16.8,31.4,33.6,49.7,33.6,49.7"/>
		<path class="st14" d="M159.3,167.8c0,0,16.7-18.3,33.6-49.7c0,0,4.4-7.9,4.4-17.1c0,0,14-27.2,15.5-54.8c0,0,7.1,29,12.2,53
			c0,0,2.2,10.5-0.7,20.1c0,0-4.4,21.7-4.4,36.8c0,0-1.5,5.6-4,11.5c0,0-5.2,17.3-6.5,40.3"/>
		<path class="st14" d="M176.9,30.1c0,6,0.5,12.6,2.1,18.7c0,0-8.5,20.8-6.1,33.8c0,0-15.6,10.7-21,43.6c0,0-5.4,19.1-9.7,23
			c0,0-4.6,5.9-6.6,12.1l0,0c-1,1.2-2,2.3-3.2,3.3"/>
	</g>
</g>
</svg>
