<?xml version="1.0" encoding="utf-8"?>
<!-- Generator: Adobe Illustrator 19.0.1, SVG Export Plug-In . SVG Version: 6.00 Build 0)  -->
<svg version="1.1" id="Layer_1" xmlns="http://www.w3.org/2000/svg" xmlns:xlink="http://www.w3.org/1999/xlink" x="0px" y="0px"
	 viewBox="283 -126.1 625.5 293.1" style="enable-background:new 283 -126.1 625.5 293.1;" xml:space="preserve">
<style type="text/css">
	.st0{display:none;}
	.st1{display:inline;fill:none;stroke:#BCBA40;stroke-width:4;stroke-linecap:round;stroke-linejoin:round;stroke-miterlimit:10;}
	.st2{display:inline;}
	.st3{fill:none;stroke:#BCBA40;stroke-width:4;stroke-linecap:round;stroke-linejoin:round;stroke-miterlimit:10;}
	.st4{fill:none;}
	.st5{fill:#FFFFFF;}
	.st6{font-family:'HelveticaNeue-Medium';}
	.st7{font-size:36px;}
	.st8{fill:none;stroke:#BCBA40;stroke-width:4;stroke-linecap:round;stroke-miterlimit:10;stroke-dasharray:12.0321,12.0321;}
	.st9{fill:#444444;stroke:#BCBA40;}
	.st10{fill:#444444;stroke:#BCBA40;stroke-linecap:round;stroke-linejoin:round;stroke-miterlimit:10;}
	.st11{fill:#444444;stroke:#BCBA40;stroke-miterlimit:10;}
	.st12{fill:none;stroke:#BCBA40;stroke-miterlimit:10;}
	.st13{display:inline;fill:none;stroke:#BCBA40;stroke-miterlimit:10;}
	.st14{fill:none;stroke:#BCBA40;stroke-width:0.5;}
	.st15{fill:none;stroke:#BCBA40;stroke-width:0.75;}
	.st16{fill:#444444;}
	.st17{fill:#BCBA40;}
</style>
<g id="Layer_1_1_">
	<g>
		<g class="st0">
			<path class="st1" d="M525.5-21.1c0.7-0.8,47.6-14.8,47.6-14.8L622-19.7"/>
			<line class="st1" x1="572.8" y1="-73.2" x2="525" y2="-21.5"/>
			<line class="st1" x1="573.2" y1="-72.9" x2="570.6" y2="-98.8"/>
			<path class="st1" d="M524.5-86.2c3.1-2.1,46.1-12.6,46.1-12.6L622-86.2l-48.7,13.6L524.5-86.2z"/>
			<polyline class="st1" points="622,-86.2 622,-19.8 573.2,-5.5 573.2,-72.6 			"/>
			<polyline class="st1" points="524.5,-86.2 524.5,-21.2 573.2,-5.5 			"/>
			<g class="st2">
				<path class="st3" d="M567.3,52c0.7-0.8,47.6-14.8,47.6-14.8l48.9,16.2"/>
				<line class="st3" x1="614.5" y1="-0.2" x2="566.7" y2="51.5"/>
				<line class="st3" x1="615" y1="0.2" x2="612.4" y2="-25.7"/>
				<path class="st3" d="M566.3-13.2c3.1-2.1,46.1-12.6,46.1-12.6l51.3,12.6L615,0.5L566.3-13.2z"/>
				<polyline class="st3" points="663.7,-13.2 663.7,53.2 615,67.5 615,0.5 				"/>
				<polyline class="st3" points="566.3,-13.2 566.3,51.8 615,67.5 				"/>
			</g>
			<g class="st2">
				<path class="st3" d="M476.8,41.8C477.5,41,524.4,27,524.4,27l48.9,16.2"/>
				<line class="st3" x1="524" y1="-10.3" x2="476.2" y2="41.4"/>
				<line class="st3" x1="524.5" y1="-9.9" x2="521.9" y2="-35.9"/>
				<path class="st3" d="M475.8-23.3c3.1-2.1,46.1-12.6,46.1-12.6l51.3,12.6L524.5-9.7L475.8-23.3z"/>
				<polyline class="st3" points="573.2,-23.3 573.2,43.1 524.5,57.4 524.5,-9.7 				"/>
				<polyline class="st3" points="475.8,-23.3 475.8,41.7 524.5,57.4 				"/>
			</g>
		</g>
		<rect x="466.6" y="89" class="st4" width="210.6" height="39"/>
		<text transform="matrix(1 0 0 1 466.6238 114.6939)" class="st5 st6 st7">Module 102</text>
		<g>
			<path class="st8" d="M867,141.9H316.5c-6.6,0-12-5.4-12-12v-230c0-6.6,5.4-12,12-12H867c6.6,0,12,5.4,12,12v230
				C879,136.5,873.6,141.9,867,141.9z"/>
		</g>
	</g>
</g>
<g id="Layer_14">
	<path class="st9" d="M531.7-45.3c1.3-0.9,3-1.6,5-2.1c9.7-2.2,11.8-7,20.5-8.8c0.3-1.8-0.4-4.1,0.9-5.4c-0.6-0.8-1.4-1.5-1.6-3.1
		c-0.1-1.5,0-3.6-1.9-4.2c-0.8-0.2-1-4.1-2.3-6.1c-1.4-2-1.8-5.8,2-3.6c-1.3-9.2,1.4-19.1,13.3-19.1c12,0,14.5,10.1,13.3,19.1
		c3.7-2.2,3.4,1.7,2,3.6c-1.4,2-1.5,5.9-2.3,6.1c-1.9,0.6-1.8,2.7-2,4.2c-0.2,1.7-0.9,2.3-1.5,3.1c1.3,1.3,0.6,3.6,0.9,5.4
		c8.7,1.8,10.8,6.5,20.6,8.8c7,1.6,9.3,5.9,10.2,11.8c1,6.3,5.8,11.4,5.7,17.9c-7.2,3.4-5.7,8.6-16.4,4.9c-0.4,2.8,0.4,5.7-1.5,9.6
		c-2.7,5.6-1.8,11.4-4.3,17.1c-2.8,6.2,2.8,8.3,3.6,16.3c1,9.8,7.8,17.7,6.9,28.1c-0.7,8.1,0.7,15.5-1.4,25.3h-31.7
		c-0.5-2.9-0.7-5.2-0.9-7.4c0-0.6-2.4-0.6-2.4,0c-0.2,2.2-0.4,4.5-0.9,7.4h-31.7c-2.1-9.8-0.7-17.2-1.5-25.3
		c-0.9-10.4,5.9-18.4,6.9-28.1c0.8-8,6.4-10.2,3.7-16.3c-2.5-5.6-1.5-11.5-4.3-17.1c-1.9-3.9-1.1-6.7-1.5-9.6"/>
	<g>
		<path class="st10" d="M540.8-35c0,0,5.9,16.4,14.6,12.5c8.7-3.9,10.1-4.3,9.8-2.2c-0.3,2.1,0.6,29.6,0.6,29.6s-5.5-1.6-6.7-0.6
			c-1.2,0.9-9.1,11.6-10.5,12s-5.5-2-5.1-3c0.4-1,4.4,1.7,4.8,1c0.4-0.7,4.8-4.4,5.4-5.7S548,16,543,6.9c0,0-1.4-4.1,2.2-1
			c3.6,3.2,10.5,0.5,12.3-4.2c0,0-5.2,0.9-7.5,2.5c-2.3,1.5-10.1-7.3-9.9-11.9c0.1-2.7,2.8,2.8,4.7,5.8c1.7,2.7,1.5,4.5,7.5,1.9
			c6.1-2.6,5.5-6,5.5-6s-5,1.3-7.1,2.7c-2.1,1.4-12.1-7.4-11.5-12.8s3.3,3.5,3.5,4.6s5.4,10.9,17,0.4c0,0,3.7-4-0.1-3
			c-3.8,1-9.9,10.3-20.1-10.3c0,0-1.1-5.1,1.4-1.5s3.5,9.2,6.4,10.2s9.8,3.6,14.1-2.2c4.3-5.7,2.1-6.6-2.3-3.8
			c-4.4,2.8-8.9,3.5-12.6,0C542.7-24.9,537.8-32.2,540.8-35z"/>
		<path class="st10" d="M590.9-35c0,0-5.9,16.4-14.6,12.5s-10.1-4.3-9.8-2.2c0.3,2.1-0.6,29.6-0.6,29.6s5.5-1.6,6.7-0.6
			c1.2,0.9,9.1,11.6,10.5,12c1.4,0.4,5.5-2,5.1-3s-4.4,1.7-4.8,1s-4.8-4.4-5.4-5.7c-0.6-1.3,5.7,7.4,10.7-1.7c0,0,1.4-4.1-2.2-1
			c-3.6,3.2-10.5,0.5-12.3-4.2c0,0,5.2,0.9,7.5,2.5c2.3,1.5,10.1-7.3,9.9-11.9c-0.1-2.7-2.8,2.8-4.7,5.8c-1.7,2.7-1.5,4.5-7.5,1.9
			c-6.1-2.6-5.5-6-5.5-6s5,1.3,7.1,2.7c2.1,1.4,12.1-7.4,11.5-12.8c-0.6-5.4-3.3,3.5-3.5,4.6c-0.2,1.1-5.4,10.9-17,0.4
			c0,0-3.7-4,0.1-3s9.9,10.3,20.1-10.3c0,0,1.1-5.1-1.4-1.5s-3.5,9.2-6.4,10.2c-2.9,1-9.8,3.6-14.1-2.2c-4.3-5.7-2.1-6.6,2.3-3.8
			c4.4,2.8,8.9,3.5,12.6,0C589-24.9,593.9-32.2,590.9-35z"/>
		<path class="st10" d="M572.3-5.1c-0.8-2.4-2.3-0.5-2.6-1c-0.3-0.5,1.1-1.2,0.8-1.5c-0.3-0.3-2.5,0.3-2.6,1.7
			c-0.1,1.4-1.1,1.4-1.1,1.4s-1,0-1.1-1.4s-2.4-2.1-2.6-1.7c-0.3,0.3,1.1,1,0.8,1.5c-0.3,0.5-1.8-1.4-2.6,1c-0.8,2.4,1.8,1.1,2.4,2
			c0.6,0.8-0.9,2.1,0.1,2.8c0.9,0.7,2.2,0.5,2.4-0.4c0.2-0.9,0,3.4,0.7,3.4c0.8,0,0.6-4.3,0.7-3.4c0.2,0.9,1.5,1.1,2.4,0.4
			s-0.5-2,0.1-2.8C570.5-3.9,573.1-2.7,572.3-5.1z"/>
		<path class="st10" d="M573.2-12.4c-0.9-2.8-2.7-0.6-3-1.2s1.3-1.4,0.9-1.8c-0.3-0.4-2.9,0.4-3.1,2s-1.3,1.6-1.3,1.6
			s-1.1,0-1.3-1.6c-0.2-1.6-2.7-2.4-3.1-2c-0.3,0.4,1.3,1.2,0.9,1.8c-0.3,0.6-2.1-1.6-3,1.2c-0.9,2.8,2.1,1.3,2.7,2.3
			c0.7,0.9-1,2.4,0.1,3.2c1.1,0.8,2.6,0.6,2.8-0.4c0.2-1,0,4,0.9,4s0.6-5,0.9-4c0.2,1,1.8,1.3,2.8,0.4c1.1-0.8-0.6-2.3,0.1-3.2
			C571.2-11,574.2-9.6,573.2-12.4z"/>
		<path class="st10" d="M573.2-20c-0.9-2.8-2.7-0.6-3-1.2s1.3-1.4,0.9-1.8c-0.3-0.4-2.9,0.4-3.1,2s-1.3,1.6-1.3,1.6s-1.1,0-1.3-1.6
			c-0.2-1.6-2.7-2.4-3.1-2c-0.3,0.4,1.3,1.2,0.9,1.8c-0.3,0.6-2.1-1.6-3,1.2c-0.9,2.8,2.1,1.3,2.7,2.3c0.7,0.9-1,2.4,0.1,3.2
			c1.1,0.8,2.6,0.6,2.8-0.4c0.2-1,0,4,0.9,4s0.6-5,0.9-4c0.2,1,1.8,1.3,2.8,0.4c1.1-0.8-0.6-2.3,0.1-3.2
			C571.2-18.7,574.2-17.2,573.2-20z"/>
		<path class="st10" d="M573.2-27.7c-0.9-2.8-2.7-0.6-3-1.2s1.3-1.4,0.9-1.8c-0.3-0.4-2.9,0.4-3.1,2s-1.3,1.6-1.3,1.6
			s-1.1,0-1.3-1.6c-0.2-1.6-2.7-2.4-3.1-2c-0.3,0.4,1.3,1.2,0.9,1.8c-0.3,0.6-2.1-1.6-3,1.2c-0.9,2.8,2.1,1.3,2.7,2.3
			c0.7,0.9-1,2.4,0.1,3.2c1.1,0.8,2.6,0.6,2.8-0.4c0.2-1,0,4,0.9,4s0.6-5,0.9-4c0.2,1,1.8,1.3,2.8,0.4c1.1-0.8-0.6-2.3,0.1-3.2
			C571.2-26.3,574.2-24.9,573.2-27.7z"/>
		<path class="st10" d="M573.2-35.3c-0.9-2.8-2.7-0.6-3-1.2s1.3-1.4,0.9-1.8c-0.3-0.4-2.9,0.4-3.1,2s-1.3,1.6-1.3,1.6
			s-1.1,0-1.3-1.6c-0.2-1.6-2.7-2.4-3.1-2c-0.3,0.4,1.3,1.2,0.9,1.8c-0.3,0.6-2.1-1.6-3,1.2c-0.9,2.8,2.1,1.3,2.7,2.3
			c0.7,0.9-1,2.4,0.1,3.2c1.1,0.8,2.6,0.6,2.8-0.4c0.2-1,0,4,0.9,4s0.6-5,0.9-4c0.2,1,1.8,1.3,2.8,0.4c1.1-0.8-0.6-2.3,0.1-3.2
			C571.2-34,574.2-32.5,573.2-35.3z"/>
		<path class="st10" d="M573.2-43c-0.9-2.8-2.7-0.6-3-1.2s1.3-1.4,0.9-1.8c-0.3-0.4-2.9,0.4-3.1,2s-1.3,1.6-1.3,1.6s-1.1,0-1.3-1.6
			c-0.2-1.6-2.7-2.4-3.1-2c-0.3,0.4,1.3,1.2,0.9,1.8c-0.3,0.6-2.1-1.6-3,1.2c-0.9,2.8,2.1,1.3,2.7,2.3c0.7,0.9-1,2.4,0.1,3.2
			c1.1,0.8,2.6,0.6,2.8-0.4c0.2-1,0,4,0.9,4s0.6-5,0.9-4c0.2,1,1.8,1.3,2.8,0.4c1.1-0.8-0.6-2.3,0.1-3.2
			C571.2-41.6,574.2-40.2,573.2-43z"/>
		<path class="st10" d="M572.3-53c-0.6,1.2-3.6,1.9-4.3,2.6c-0.7,0.7-1.2,3.7-1.2,3.7s-0.5-3.1-1.2-3.7c-0.7-0.7-3.7-1.3-4.4-2.6
			c-0.6-1.2-1.9-0.3-1.7,0.6c0.2,0.9,0,2.1,0.9,2.4s2.4,0.9,2.7,2c0.3,1.1-0.7,1.2,0.4,2c1.1,0.8,1.5,1,1.7,1.6
			c0.2,0.5,0,2.1,1.6,2.1c1.5,0,1.4-1.6,1.6-2.1c0.2-0.5,0.6-0.8,1.7-1.6c1.1-0.8,0.1-0.9,0.4-2s1.8-1.7,2.7-2
			c0.9-0.3,0.7-1.5,0.9-2.4C574.3-53.3,573-54.2,572.3-53z"/>
		<path class="st10" d="M572.3-56.8c-0.6,1.2-3.6,1.9-4.3,2.6c-0.7,0.7-1.2,3.7-1.2,3.7s-0.5-3.1-1.2-3.7c-0.7-0.7-3.7-1.3-4.4-2.6
			c-0.6-1.2-1.9-0.3-1.7,0.6c0.2,0.9,0,2.1,0.9,2.4s2.4,0.9,2.7,2c0.3,1.1-0.7,1.2,0.4,2c1.1,0.8,1.5,1,1.7,1.6
			c0.2,0.5,0,2.1,1.6,2.1c1.5,0,1.4-1.6,1.6-2.1c0.2-0.5,0.6-0.8,1.7-1.6c1.1-0.8,0.1-0.9,0.4-2s1.8-1.7,2.7-2
			c0.9-0.3,0.7-1.5,0.9-2.4C574.3-57.1,573-58.1,572.3-56.8z"/>
		<path class="st10" d="M574.7,9.3c-0.9,0.1-1.1,1.7-2.3,1c-1.2-0.7-2-0.2-2.3,1.2c-0.3,1.5-3.3,3.2-3.3,3.2s-3-1.7-3.3-3.2
			s-1.1-2-2.3-1.2c-1.2,0.7-1.4-0.9-2.3-1s-1.9,1-0.8,2.1c1.1,1.2,1.9,2.8,3.2,3s1.1,0.9,0.9,1.5c-0.2,0.7-0.7,2.9,0.6,2.3
			c1.3-0.5,2.1-1.8,2.8-1c0.7,0.8-0.7,2.9,1.2,2.9c1.8,0,0.4-2.1,1.2-2.9c0.7-0.8,1.5,0.5,2.8,1s0.8-1.7,0.6-2.3
			c-0.2-0.7-0.4-1.3,0.9-1.5s2.1-1.8,3.2-3C576.5,10.3,575.6,9.2,574.7,9.3z"/>
		<path class="st10" d="M574.1,3.7c-0.8,0.1-1,1.6-2.2,0.9c-1.2-0.7-1.8-0.2-2.1,1.1c-0.3,1.4-3,2.9-3,2.9s-2.8-1.6-3-2.9
			c-0.3-1.4-1-1.8-2.1-1.1c-1.1,0.7-1.3-0.8-2.2-0.9c-0.8-0.1-1.7,0.9-0.7,2s1.7,2.6,2.9,2.8c1.2,0.2,1,0.8,0.9,1.4
			c-0.2,0.6-0.7,2.6,0.5,2.1c1.2-0.5,1.9-1.6,2.6-0.9c0.7,0.7-0.6,2.6,1.1,2.6c1.7,0,0.4-1.9,1.1-2.6c0.7-0.7,1.4,0.4,2.6,0.9
			c1.2,0.5,0.7-1.5,0.5-2.1c-0.2-0.6-0.3-1.2,0.9-1.4c1.2-0.2,2-1.7,2.9-2.8C575.8,4.5,574.9,3.5,574.1,3.7z"/>
		<path class="st10" d="M571,0c-0.1-1.2-1.8-0.8-1.8-0.8c-1.5-0.6-2.5-0.5-2.5-0.5s-1-0.1-2.5,0.5c0,0-1.7-0.4-1.8,0.8
			c-0.1,1.2-1.4,1.9-0.8,2.5s1.9,0.3,2.1,1.2c0.2,0.9-0.5,5,0.6,4.9c1.2,0,1.6-0.6,2.3-0.6s1.1,0.6,2.3,0.6c1.2,0,0.4-4,0.6-4.9
			c0.2-0.9,1.5-0.6,2.1-1.2C572.4,1.9,571.2,1.2,571,0z"/>
		<path class="st10" d="M562.6-0.5c0,0-0.6-0.6-1.2,0c-0.7,0.6-7.9,6.7-8.7,8.2c-0.8,1.6-5.8,9.6-4,9.6c1.8,0,4.7-6.2,6.4-8
			c1.7-1.8,5.2-6.5,6.5-6.6C563,2.6,563-0.2,562.6-0.5z"/>
		<path class="st10" d="M560.8-4.3c0,0-2.1,0.7-3.4,2c-1.3,1.3-5.2,6.8-6.2,7.2c-1,0.4-5.8,7.6-6.4,8.7s-2.1,5.2-1.9,2
			c0.2-3.2,2.1-8.2,4.9-11.6c2.8-3.3,8.2-9.1,10.6-9.9c2.4-0.8,4.5-2.1,4.8-1.2c0.2,0.8-1.3,0.3-1.9,1.6
			C560.8-4.3,560.8-4.3,560.8-4.3z"/>
		<path class="st10" d="M560.1-11.1c0,0-1-0.2-2.6,0.7c-1.6,0.9-5.4,4.2-7.3,7c-1.8,2.8-4,4.3-4.6,5.7c-0.6,1.4-2.9,7.7-3,8.7
			c-0.1,1-1.3-2.6-0.7-4.5s1.4-7.9,3.9-10.1s7.3-8,11.3-9.3c4.1-1.3,5.7-2.1,5.7-0.9C562.8-12.5,561.8-11.1,560.1-11.1z"/>
		<path class="st10" d="M560.7-19.4c0,0-0.3-0.4-1.8,0.4c-1.4,0.8-9.5,6.1-12.2,9.9c-2.6,3.8-5.7,6.4-5.1,10.8
			c0.5,4.5-1.7-1.2-1.1-3.2s2.8-10.2,6.7-13.5c3.9-3.2,10.2-6.8,11.9-7.5c1.7-0.6,3.2-0.8,3.6,0.2S562.3-18.8,560.7-19.4z"/>
		<path class="st10" d="M560.9-27.2c0,0-2.4,0.5-3.5,1.2c-1.1,0.7-8.3,6.9-10,7.9c-1.7,1-5.7,5.7-6.3,7.1s-0.5,5.8-1,4.9
			c-0.6-0.9-1.4-4.6,1.3-9c2.8-4.4,4.3-6.9,9.6-9.8c5.4-2.9,10.2-6.1,11.4-5.3C563.6-29.5,562.5-27,560.9-27.2z"/>
		<path class="st10" d="M560.2-33.5c0,0-0.6,1.1-2.2,1.6s-12.9,8.2-14.4,9.9c-1.5,1.7-3.4,5.8-3.7,6.7c-0.3,0.9-1.2,1.3-0.9-1.7
			s2.5-8,7.5-11.1s11.6-7.8,13.7-7.5C562.4-35.3,560.7-34,560.2-33.5z"/>
		<path class="st10" d="M560.6-40.7c0,0-5.2,2.4-6.4,3.4s-10.3,6.9-11.9,9c-1.6,2.1-2.5,5.4-2.8,5.7c-0.3,0.2-1.3-3.7-0.6-5.2
			c0.8-1.5,4.8-5.6,6.6-6.9c1.9-1.3,10.2-5.8,11.6-6.6c1.4-0.9,2.8-3.1,3.8-1.5C562-41.4,562-41.3,560.6-40.7z"/>
		<path class="st10" d="M561.3-44.5c0,0-0.9-1.4-2.1-0.9c-1.2,0.5-5.4,2.6-6,3.3c-0.6,0.8-12,8.6-12.6,9.8c-0.6,1.2-1.3,0.6-0.7-1.4
			c0.6-2.1,2-4.9,6-7.5c4.1-2.6,10.9-6.6,13.6-6.3c2.7,0.3,2.5,0.7,3.4,1.7C563.8-44.8,563.7-43.2,561.3-44.5z"/>
		<path class="st10" d="M570.9-0.5c0,0,0.6-0.6,1.2,0c0.7,0.6,7.9,6.7,8.7,8.2c0.8,1.6,5.8,9.6,4,9.6c-1.9,0-4.7-6.2-6.4-8
			c-1.7-1.8-5.2-6.5-6.5-6.6C570.5,2.6,570.5-0.2,570.9-0.5z"/>
		<path class="st10" d="M572.7-4.3c0,0,2.1,0.7,3.4,2c1.3,1.3,5.2,6.8,6.2,7.2c1,0.4,5.8,7.6,6.4,8.7c0.6,1.1,2.1,5.2,1.9,2
			c-0.2-3.2-2.1-8.2-4.9-11.6c-2.8-3.3-8.2-9.1-10.6-9.9c-2.4-0.8-4.5-2.1-4.8-1.2c-0.2,0.8,1.3,0.3,1.9,1.6
			C572.7-4.3,572.7-4.3,572.7-4.3z"/>
		<path class="st10" d="M573.3-11.1c0,0,1-0.2,2.6,0.7c1.6,0.9,5.4,4.2,7.3,7c1.8,2.8,4,4.3,4.6,5.7c0.6,1.4,2.9,7.7,3,8.7
			s1.3-2.6,0.7-4.5s-1.4-7.9-3.9-10.1s-7.3-8-11.3-9.3c-4.1-1.3-5.7-2.1-5.7-0.9C570.7-12.5,571.7-11.1,573.3-11.1z"/>
		<path class="st10" d="M572.8-19.4c0,0,0.3-0.4,1.8,0.4c1.4,0.8,9.5,6.1,12.2,9.9c2.6,3.8,5.7,6.4,5.1,10.8
			c-0.5,4.5,1.7-1.2,1.1-3.2s-2.8-10.2-6.7-13.5c-3.9-3.2-10.2-6.8-11.9-7.5c-1.7-0.6-3.2-0.8-3.6,0.2S571.2-18.8,572.8-19.4z"/>
		<path class="st10" d="M572.6-27.2c0,0,2.4,0.5,3.5,1.2c1.1,0.7,8.3,6.9,10,7.9c1.7,1,5.7,5.7,6.3,7.1s0.5,5.8,1,4.9
			c0.6-0.9,1.4-4.6-1.3-9c-2.8-4.4-4.3-6.9-9.6-9.8c-5.4-2.9-10.2-6.1-11.4-5.3C569.9-29.5,571-27,572.6-27.2z"/>
		<path class="st10" d="M573.3-33.5c0,0,0.6,1.1,2.2,1.6s12.9,8.2,14.4,9.9c1.5,1.7,3.4,5.8,3.7,6.7c0.3,0.9,1.2,1.3,0.9-1.7
			c-0.3-3-2.5-8-7.5-11.1s-11.6-7.8-13.7-7.5C571.1-35.3,572.8-34,573.3-33.5z"/>
		<path class="st10" d="M572.9-40.7c0,0,5.2,2.4,6.4,3.4s10.3,6.9,11.9,9c1.6,2.1,2.5,5.4,2.8,5.7c0.3,0.2,1.3-3.7,0.6-5.2
			c-0.8-1.5-4.8-5.6-6.6-6.9c-1.9-1.3-10.2-5.8-11.6-6.6c-1.4-0.9-2.8-3.1-3.8-1.5C571.5-41.4,571.5-41.3,572.9-40.7z"/>
		<path class="st10" d="M572.2-44.5c0,0,0.9-1.4,2.1-0.9c1.2,0.5,5.4,2.6,6,3.3c0.6,0.8,12,8.6,12.6,9.8c0.6,1.2,1.3,0.6,0.7-1.4
			c-0.6-2.1-2-4.9-6-7.5c-4.1-2.6-10.9-6.6-13.6-6.3c-2.7,0.3-2.5,0.7-3.4,1.7C569.7-44.8,569.8-43.2,572.2-44.5z"/>
	</g>
	<g>
		<path class="st11" d="M556.2-54.3c-5.8,0.5-7.2,5.2-10.9,7.6c-3.8,2.6-6.7,5.9-8,9.6c-0.8,2.4-3.9,5.3-3,6.9
			c-2.2,1.9-2.2,8.1-1.6,9.4c-1.6,4-0.4,8.5-0.7,12.6c-0.1,0.8,0.4,4.6,2.7,2.8l0,0c3.2-2.4,7-4.1,11.2-5.4c3,0.5,6.8,0.1,9.8-0.8
			c8.8-2.9,10-8.3,8.6-12.5c1.2-4,1.8-8.7,0.8-12.7l2.1-2.4l2.1,0.6c-0.8,2.1,0.1,4.4,1.2,6.3c1.1,1.9,0.4,4,1.3,6
			c-1.5,1.9-1.5,4.1-1.6,6.1c-0.6,9,6.4,9.9,15.9,10.9c2.9,0.5,8.2,1.2,8.9,1.7c1.9,1.6,6,1.4,6.8-1.1c2.1-6.1,0.3-13.5-2.8-19.4
			c-2.4-7.9-8.3-15.4-14.5-21.9c-4.3-4-11.7-8.9-14.2-0.8c-0.9,2.9,0.9,5.6,0.2,8.5c-0.4-0.2-0.7-1.3-1-2.8l-6.1,0.7
			c0.2,1.5,0.2,2.7-0.1,3c-2-2.8-1.8-6.2-2.2-9.3C560.9-52.7,560.7-54.7,556.2-54.3"/>
		<g class="st0">
			<g class="st2">
				<path class="st12" d="M553.6-42.3c-0.2,0.3-0.6,0.4-1,0.3c-0.3-0.1-0.5-0.5-0.3-0.8c0.2-0.3,0.6-0.4,1-0.3
					C553.7-42.9,553.8-42.6,553.6-42.3z"/>
				<path class="st12" d="M553.1-41.9l2.2,1.5c2,1,4.4,0.8,5.3-0.4c0.9-1.2,0.1-2.9-1.8-3.9l-3.2-2.6"/>
				<path class="st12" d="M553.3-43.4c-0.2,0.3-0.6,0.4-1,0.3c-0.3-0.1-0.5-0.5-0.3-0.8s0.6-0.4,1-0.3
					C553.3-44.1,553.5-43.7,553.3-43.4z"/>
				<path class="st12" d="M552.6-44.3c-0.2,0.3-0.6,0.4-1,0.3c-0.3-0.1-0.5-0.5-0.3-0.8c0.2-0.3,0.6-0.4,1-0.3
					C552.6-45,552.8-44.6,552.6-44.3z"/>
				<path class="st12" d="M551.2-44.4c-0.2,0.3-0.6,0.4-1,0.3c-0.3-0.1-0.5-0.5-0.3-0.8s0.6-0.4,1-0.3
					C551.3-45.1,551.4-44.7,551.2-44.4z"/>
				<path class="st12" d="M549.7-44.8c-0.2,0.3-0.6,0.4-1,0.3c-0.3-0.1-0.5-0.5-0.3-0.8s0.6-0.4,1-0.3
					C549.7-45.5,549.8-45.1,549.7-44.8z"/>
				<path class="st12" d="M551.4-43c-0.2,0.3-0.6,0.4-1,0.3c-0.3-0.1-0.5-0.5-0.3-0.8c0.2-0.3,0.6-0.4,1-0.3
					C551.5-43.6,551.6-43.3,551.4-43z"/>
				<path class="st12" d="M549-43.4c-0.2,0.3-0.6,0.4-1,0.3c-0.3-0.1-0.5-0.5-0.3-0.8s0.6-0.4,1-0.3C549.1-44.1,549.2-43.7,549-43.4
					z"/>
				<path class="st12" d="M549.3-41.8c-0.2,0.3-0.6,0.4-1,0.3c-0.3-0.1-0.5-0.5-0.3-0.8s0.6-0.4,1-0.3
					C549.3-42.4,549.5-42.1,549.3-41.8z"/>
				<path class="st12" d="M550.7-41.7c-0.2,0.3-0.6,0.4-1,0.3c-0.3-0.1-0.5-0.5-0.3-0.8s0.6-0.4,1-0.3
					C550.8-42.3,550.9-42,550.7-41.7z"/>
				<path class="st12" d="M550-42.7c-0.2,0.3-0.6,0.4-1,0.3c-0.3-0.1-0.5-0.5-0.3-0.8s0.6-0.4,1-0.3C550-43.4,550.2-43,550-42.7z"/>
				<path class="st12" d="M548.2-42.8c-0.2,0.3-0.6,0.4-1,0.3c-0.3-0.1-0.5-0.5-0.3-0.8s0.6-0.4,1-0.3
					C548.2-43.5,548.4-43.1,548.2-42.8z"/>
				<path class="st12" d="M547.3-41.8c-0.2,0.3-0.6,0.4-1,0.3c-0.3-0.1-0.5-0.5-0.3-0.8s0.6-0.4,1-0.3S547.5-42.1,547.3-41.8z"/>
				<path class="st12" d="M547-43.1c-0.2,0.3-0.6,0.4-1,0.3c-0.3-0.1-0.5-0.5-0.3-0.8s0.6-0.4,1-0.3C547.1-43.8,547.2-43.4,547-43.1
					z"/>
				<path class="st12" d="M548.2-44.1c-0.2,0.3-0.6,0.4-1,0.3c-0.3-0.1-0.5-0.5-0.3-0.8s0.6-0.4,1-0.3
					C548.3-44.8,548.4-44.4,548.2-44.1z"/>
				<path class="st12" d="M548.3-41c-0.2,0.3-0.6,0.4-1,0.3c-0.3-0.1-0.5-0.5-0.3-0.8s0.6-0.4,1-0.3C548.3-41.6,548.4-41.2,548.3-41
					z"/>
				<path class="st12" d="M552.1-42c-0.2,0.3-0.6,0.4-1,0.3c-0.3-0.1-0.5-0.5-0.3-0.8c0.2-0.3,0.6-0.4,1-0.3
					C552.2-42.6,552.3-42.3,552.1-42z"/>
				<path class="st12" d="M550-41.3l0.6,0.9l2.3,0.8c0.7,0.1,0.5-0.4,0.5-0.4c-1.7-1.3-1.3-1.6-1.8-1.7"/>
				<polyline class="st12" points="548.3,-41 549,-40.2 550.8,-39.5 547.2,-39.4 546.6,-39.6 				"/>
				<path class="st12" d="M546.5-39.8c-0.2,0.3-0.6,0.4-1,0.3c-0.3-0.1-0.5-0.5-0.3-0.8s0.6-0.4,1-0.3S546.7-40.1,546.5-39.8z"/>
				<path class="st12" d="M544.7-40c-0.2,0.3-0.6,0.4-1,0.3c-0.3-0.1-0.5-0.5-0.3-0.8s0.6-0.4,1-0.3C544.8-40.7,544.9-40.3,544.7-40
					z"/>
				<path class="st12" d="M543.4-39.1c-0.2,0.3-0.6,0.4-1,0.3c-0.3-0.1-0.5-0.5-0.3-0.8c0.2-0.3,0.6-0.4,1-0.3
					C543.4-39.8,543.6-39.4,543.4-39.1z"/>
				<path class="st12" d="M545.5-38.9c-0.2,0.3-0.6,0.4-1,0.3c-0.3-0.1-0.5-0.5-0.3-0.8s0.6-0.4,1-0.3
					C545.6-39.5,545.7-39.2,545.5-38.9z"/>
				<path class="st12" d="M545.3-37.7c-0.2,0.3-0.6,0.4-1,0.3c-0.3-0.1-0.5-0.5-0.3-0.8s0.6-0.4,1-0.3
					C545.4-38.3,545.5-38,545.3-37.7z"/>
				<path class="st12" d="M546.8-37.9c-0.2,0.3-0.6,0.4-1,0.3c-0.3-0.1-0.5-0.5-0.3-0.8s0.6-0.4,1-0.3
					C546.8-38.6,547-38.2,546.8-37.9z"/>
				<path class="st12" d="M548-37.3l1.9-0.7c0.5-0.2-0.2-0.4-0.2-0.4s-2.5-0.1-2.6-0.1"/>
				<path class="st12" d="M542.9-37.2c-0.2,0.3-0.6,0.4-1,0.3c-0.3-0.1-0.5-0.5-0.3-0.8c0.2-0.3,0.6-0.4,1-0.3
					C543-37.8,543.1-37.5,542.9-37.2z"/>
				<path class="st12" d="M545.4-36.2c-0.2,0.3-0.6,0.4-1,0.3c-0.3-0.1-0.5-0.5-0.3-0.8c0.2-0.3,0.6-0.4,1-0.3
					C545.4-36.8,545.6-36.5,545.4-36.2z"/>
				<path class="st12" d="M543.7-35.8c-0.2,0.3-0.6,0.4-1,0.3c-0.3-0.1-0.5-0.5-0.3-0.8s0.6-0.4,1-0.3
					C543.7-36.4,543.9-36.1,543.7-35.8z"/>
				<path class="st12" d="M544.2-36.7c-0.2,0.3-0.6,0.4-1,0.3c-0.3-0.1-0.5-0.5-0.3-0.8s0.6-0.4,1-0.3
					C544.2-37.4,544.4-37,544.2-36.7z"/>
				<path class="st12" d="M543.9-38.2c-0.2,0.3-0.6,0.4-1,0.3c-0.3-0.1-0.5-0.5-0.3-0.8c0.2-0.3,0.6-0.4,1-0.3
					C544-38.8,544.1-38.5,543.9-38.2z"/>
				<path class="st12" d="M547.2-36.3c-0.2,0.3-0.6,0.4-1,0.3c-0.3-0.1-0.5-0.5-0.3-0.8s0.6-0.4,1-0.3
					C547.2-36.9,547.4-36.6,547.2-36.3z"/>
				<path class="st12" d="M550.7-34c4.2,0.3,7.2-1.1,7.2-1.1c4.6-2.7-0.2-3.3-0.2-3.3l-5.2-0.1c-0.5-0.1-0.9,0.3-0.9,0.3
					c-0.8,1.2-2,1.3-2.3,1.3"/>
				<path class="st12" d="M551.2-28.5c9-0.9,8.3-5,8.3-5c-3.9-1.2-7.9,3.8-7.9,3.8"/>
				<path class="st12" d="M546.2-34.2c-0.2,0.3-0.6,0.4-1,0.3c-0.3-0.1-0.5-0.5-0.3-0.8s0.6-0.4,1-0.3
					C546.2-34.8,546.3-34.5,546.2-34.2z"/>
				<path class="st12" d="M547.3-35.3c-0.2,0.3-0.6,0.4-1,0.3c-0.3-0.1-0.5-0.5-0.3-0.8s0.6-0.4,1-0.3
					C547.3-35.9,547.4-35.6,547.3-35.3z"/>
				<path class="st12" d="M544.7-33.8c-0.2,0.3-0.6,0.4-1,0.3c-0.3-0.1-0.5-0.5-0.3-0.8s0.6-0.4,1-0.3
					C544.8-34.5,544.9-34.1,544.7-33.8z"/>
				<path class="st12" d="M545-34.8c-0.2,0.3-0.6,0.4-1,0.3c-0.3-0.1-0.5-0.5-0.3-0.8s0.6-0.4,1-0.3C545-35.5,545.1-35.1,545-34.8z"
					/>
				<path class="st12" d="M543-34.5c-0.2,0.3-0.6,0.4-1,0.3c-0.3-0.1-0.5-0.5-0.3-0.8s0.6-0.4,1-0.3C543-35.1,543.2-34.8,543-34.5z"
					/>
				<path class="st12" d="M541.8-36.2c-0.2,0.3-0.6,0.4-1,0.3c-0.3-0.1-0.5-0.5-0.3-0.8s0.6-0.4,1-0.3
					C541.8-36.9,542-36.5,541.8-36.2z"/>
				<path class="st12" d="M541.6-35c-0.2,0.3-0.6,0.4-1,0.3c-0.3-0.1-0.5-0.5-0.3-0.8c0.2-0.3,0.6-0.4,1-0.3
					C541.7-35.6,541.8-35.3,541.6-35z"/>
				<path class="st12" d="M543.2-33.6c-1,0.3-0.2,0.6-0.2,0.6c5.5,0.8,8.9,0.2,8.9,0.2c0.7-0.3-0.1-0.5-0.1-0.5s-0.8,0-1.8-0.4"/>
				<path class="st12" d="M542.1-31.1c-0.4-0.7,0.6-0.9,0.6-0.9s3.5,0.9,6.7,0.7"/>
				<path class="st12" d="M542-30.9c-0.2,0.3-0.6,0.4-1,0.3c-0.3-0.1-0.5-0.5-0.3-0.8s0.6-0.4,1-0.3C542-31.5,542.2-31.2,542-30.9z"
					/>
				<path class="st12" d="M540.6-31.1c-0.2,0.3-0.6,0.4-1,0.3c-0.3-0.1-0.5-0.5-0.3-0.8c0.2-0.3,0.6-0.4,1-0.3
					C540.6-31.7,540.7-31.4,540.6-31.1z"/>
				<path class="st12" d="M541.2-32.1c-0.2,0.3-0.6,0.4-1,0.3c-0.3-0.1-0.5-0.5-0.3-0.8s0.6-0.4,1-0.3
					C541.2-32.8,541.3-32.4,541.2-32.1z"/>
				<path class="st12" d="M540-32.6c-0.2,0.3-0.6,0.4-1,0.3c-0.3-0.1-0.5-0.5-0.3-0.8s0.6-0.4,1-0.3C540.1-33.3,540.2-32.9,540-32.6
					z"/>
				<path class="st12" d="M538.8-32.9c-0.2,0.3-0.6,0.4-1,0.3c-0.3-0.1-0.5-0.5-0.3-0.8s0.6-0.4,1-0.3
					C538.8-33.6,538.9-33.2,538.8-32.9z"/>
				<path class="st12" d="M541.4-33.3c-0.2,0.3-0.6,0.4-1,0.3c-0.3-0.1-0.5-0.5-0.3-0.8c0.2-0.3,0.6-0.4,1-0.3
					C541.4-33.9,541.5-33.6,541.4-33.3z"/>
				<path class="st12" d="M553.4-24.4c7.2-2.3,6.9-6.3,6.9-6.3c-3-0.6-6.5,5-6.5,5"/>
				<path class="st12" d="M542.6-28.8c-2.4-0.8-2.9,0-2.9,0c-0.4-0.3,0.1-1,0.1-1c0.8-0.4,2.5,0.1,2.5,0.1c1.6,0.5,3.1,0.2,3.1,0.2
					c1.9-0.1,2.1-1.7,2.1-1.7"/>
				<path class="st12" d="M541.9-26.9c1.1-0.9,2.1-1,2.1-1c1.1,0.1,1.9-0.2,1.9-0.2c0.8,0.1,2.1-1.3,2.1-1.3
					c1.7-1.8,3.6-1.8,3.6-1.8c-1,0.5-1.5,1.3-1.5,1.6"/>
				<path class="st12" d="M539.5-29.6c-0.2,0.3-0.6,0.4-1,0.3c-0.3-0.1-0.5-0.5-0.3-0.8s0.6-0.4,1-0.3
					C539.5-30.3,539.6-29.9,539.5-29.6z"/>
				<path class="st12" d="M538.4-30.8c-0.2,0.3-0.6,0.4-1,0.3c-0.3-0.1-0.5-0.5-0.3-0.8c0.2-0.3,0.6-0.4,1-0.3
					C538.4-31.4,538.5-31.1,538.4-30.8z"/>
				<path class="st12" d="M537.6-28.7c-0.2,0.3-0.6,0.4-1,0.3c-0.3-0.1-0.5-0.5-0.3-0.8s0.6-0.4,1-0.3
					C537.6-29.3,537.8-28.9,537.6-28.7z"/>
				<path class="st12" d="M537.3-26.4c-0.2,0.3-0.6,0.4-1,0.3c-0.3-0.1-0.5-0.5-0.3-0.8s0.6-0.4,1-0.3
					C537.4-27.1,537.5-26.7,537.3-26.4z"/>
				<path class="st12" d="M539.7-28.1c-0.2,0.3-0.6,0.4-1,0.3c-0.3-0.1-0.5-0.5-0.3-0.8c0.2-0.3,0.6-0.4,1-0.3
					C539.7-28.8,539.9-28.4,539.7-28.1z"/>
				<path class="st12" d="M539.5-26.8c-0.2,0.3-0.6,0.4-1,0.3c-0.3-0.1-0.5-0.5-0.3-0.8s0.6-0.4,1-0.3
					C539.5-27.5,539.7-27.1,539.5-26.8z"/>
				<path class="st12" d="M542.4-25.7c-0.2,0.3-0.6,0.4-1,0.3c-0.3-0.1-0.5-0.5-0.3-0.8c0.2-0.3,0.6-0.4,1-0.3
					C542.4-26.3,542.5-25.9,542.4-25.7z"/>
				<path class="st12" d="M540-25.5c-0.2,0.3-0.6,0.4-1,0.3c-0.3-0.1-0.5-0.5-0.3-0.8s0.6-0.4,1-0.3C540-26.1,540.1-25.8,540-25.5z"
					/>
				<path class="st12" d="M538.2-24.9c-0.2,0.3-0.6,0.4-1,0.3c-0.3-0.1-0.5-0.5-0.3-0.8c0.2-0.3,0.6-0.4,1-0.3
					C538.3-25.6,538.4-25.2,538.2-24.9z"/>
			</g>
			<g class="st2">
				<path class="st12" d="M550.8-16.6c-1.1,0.3-0.6-0.5-0.6-0.5c4.3-3.8,8-5.2,8-5.2c1-0.1,0.3,0.5,0.3,0.5s-0.8,0.5-1.4,1.3"/>
				<path class="st12" d="M547.8-18.1c0.2,0.9,1.2,0.5,1.2,0.5s2.4-2.8,5.6-4.4"/>
				<path class="st12" d="M547.5-18.3c-0.4-0.2-0.9,0-1.1,0.3c-0.2,0.3,0,0.7,0.4,0.9c0.4,0.2,0.9,0,1.1-0.3
					C548.1-17.7,547.9-18.2,547.5-18.3z"/>
				<path class="st12" d="M546.4-17.3c-0.4-0.2-0.9,0-1.1,0.3s0,0.7,0.4,0.9c0.4,0.2,0.9,0,1.1-0.3
					C546.9-16.7,546.8-17.2,546.4-17.3z"/>
				<path class="st12" d="M547.8-16.7c-0.4-0.2-0.9,0-1.1,0.3c-0.2,0.3,0,0.7,0.4,0.9c0.4,0.2,0.9,0,1.1-0.3
					C548.4-16.1,548.2-16.5,547.8-16.7z"/>
				<path class="st12" d="M547.2-15.6c-0.4-0.2-0.9,0-1.1,0.3c-0.2,0.3,0,0.7,0.4,0.9c0.4,0.2,0.9,0,1.1-0.3
					C547.7-15,547.6-15.4,547.2-15.6z"/>
				<path class="st12" d="M546.2-14.6c-0.4-0.2-0.9,0-1.1,0.3c-0.2,0.3,0,0.7,0.4,0.9c0.4,0.2,0.9,0,1.1-0.3
					C546.8-14,546.6-14.5,546.2-14.6z"/>
				<path class="st12" d="M548.9-15.8c-0.4-0.2-0.9,0-1.1,0.3s0,0.7,0.4,0.9c0.4,0.2,0.9,0,1.1-0.3S549.3-15.6,548.9-15.8z"/>
				<path class="st12" d="M546.4-20.6c-1.6,2.1-2.6,1.7-2.6,1.7c-0.1,0.5,0.9,0.9,0.9,0.9c1.1-0.1,2.2-1.5,2.2-1.5
					c1.1-1.4,2.7-2,2.7-2c1.8-1,3.3,0.4,3.3,0.4"/>
				<path class="st12" d="M544.1-21.9c1.7,0.2,2.8-0.3,2.8-0.3c0.9-0.7,1.9-0.9,1.9-0.9c0.7-0.5,3,0,3,0c3,0.7,4.8-0.4,4.8-0.4
					c-1.3,0.1-2.5-0.3-2.7-0.6"/>
				<path class="st12" d="M544.2-18c-0.4-0.2-0.9,0-1.1,0.3c-0.2,0.3,0,0.7,0.4,0.9c0.4,0.2,0.9,0,1.1-0.3
					C544.8-17.5,544.6-17.9,544.2-18z"/>
				<path class="st12" d="M544.1-16.4c-0.4-0.2-0.9,0-1.1,0.3s0,0.7,0.4,0.9c0.4,0.2,0.9,0,1.1-0.3
					C544.7-15.8,544.5-16.2,544.1-16.4z"/>
				<path class="st12" d="M541.6-17.9c-0.4-0.2-0.9,0-1.1,0.3s0,0.7,0.4,0.9c0.4,0.2,0.9,0,1.1-0.3
					C542.2-17.3,542.1-17.7,541.6-17.9z"/>
				<path class="st12" d="M539.6-19.7c-0.4-0.2-0.9,0-1.1,0.3s0,0.7,0.4,0.9c0.4,0.2,0.9,0,1.1-0.3C540.2-19.2,540-19.6,539.6-19.7z
					"/>
				<path class="st12" d="M543.2-19.5c-0.4-0.2-0.9,0-1.1,0.3c-0.2,0.3,0,0.7,0.4,0.9c0.4,0.2,0.9,0,1.1-0.3
					C543.7-19,543.6-19.4,543.2-19.5z"/>
				<path class="st12" d="M541.9-20.6c-0.4-0.2-0.9,0-1.1,0.3s0,0.7,0.4,0.9c0.4,0.2,0.9,0,1.1-0.3
					C542.5-20.1,542.3-20.5,541.9-20.6z"/>
				<path class="st12" d="M543.6-23.3c-0.4-0.2-0.9,0-1.1,0.3s0,0.7,0.4,0.9c0.4,0.2,0.9,0,1.1-0.3C544.1-22.7,544-23.1,543.6-23.3z
					"/>
				<path class="st12" d="M541.2-22.1c-0.4-0.2-0.9,0-1.1,0.3c-0.2,0.3,0,0.7,0.4,0.9c0.4,0.2,0.9,0,1.1-0.3
					C541.8-21.6,541.6-22,541.2-22.1z"/>
				<path class="st12" d="M539.2-21.7c-0.4-0.2-0.9,0-1.1,0.3c-0.2,0.3,0,0.7,0.4,0.9c0.4,0.2,0.9,0,1.1-0.3
					C539.8-21.1,539.6-21.5,539.2-21.7z"/>
			</g>
			<path class="st13" d="M544.1-25.3c-0.7,0.5,0.1,0.6,0.1,0.6c4.6-0.9,7.2-2.5,7.2-2.5c0.5-0.5-0.2-0.4-0.2-0.4s-0.7,0.2-1.5,0.2"
				/>
			<path class="st13" d="M545.3-23c-0.7-0.5,0.1-1,0.1-1s3.6-0.3,6.4-1.6"/>
			<g class="st2">
				<path class="st12" d="M542.4-21.4c-0.1-0.3,0.2-0.6,0.6-0.7s0.8,0.2,0.8,0.5c0.1,0.3-0.2,0.6-0.6,0.7
					C542.8-20.9,542.4-21.1,542.4-21.4z"/>
				<path class="st12" d="M542.8-20.3c-0.1-0.3,0.2-0.6,0.6-0.7c0.4-0.1,0.8,0.2,0.8,0.5c0.1,0.3-0.2,0.6-0.6,0.7
					C543.2-19.8,542.8-20,542.8-20.3z"/>
				<path class="st12" d="M544.4-20.8c-0.1-0.3,0.2-0.6,0.6-0.7s0.8,0.2,0.8,0.5c0.1,0.3-0.2,0.6-0.6,0.7
					C544.8-20.2,544.5-20.4,544.4-20.8z"/>
			</g>
			<path class="st13" d="M536.8-22.8c-0.1-0.3,0.2-0.6,0.6-0.7c0.4-0.1,0.8,0.2,0.8,0.5c0.1,0.3-0.2,0.6-0.6,0.7
				C537.2-22.3,536.9-22.5,536.8-22.8z"/>
			<path class="st13" d="M538.4-22.4c-0.1-0.3,0.2-0.6,0.6-0.7s0.8,0.2,0.8,0.5c0.1,0.3-0.2,0.6-0.6,0.7
				C538.9-21.9,538.5-22.1,538.4-22.4z"/>
			<path class="st13" d="M539.6-23c-0.1-0.3,0.2-0.6,0.6-0.7s0.8,0.2,0.8,0.5c0.1,0.3-0.2,0.6-0.6,0.7C540-22.5,539.7-22.7,539.6-23
				z"/>
			<path class="st13" d="M541.1-23.5c-0.1-0.3,0.2-0.6,0.6-0.7s0.8,0.2,0.8,0.5c0.1,0.3-0.2,0.6-0.6,0.7
				C541.6-22.9,541.2-23.1,541.1-23.5z"/>
			<path class="st13" d="M535.7-24.1c-0.1-0.3,0.2-0.6,0.6-0.7c0.4-0.1,0.8,0.2,0.8,0.5c0.1,0.3-0.2,0.6-0.6,0.7
				C536.2-23.6,535.8-23.8,535.7-24.1z"/>
			<path class="st13" d="M540.1-27.2c-0.1-0.3,0.2-0.6,0.6-0.7s0.8,0.2,0.8,0.5c0.1,0.3-0.2,0.6-0.6,0.7
				C540.5-26.6,540.1-26.9,540.1-27.2z"/>
			<path class="st13" d="M538.5-24.4c-0.1-0.3,0.2-0.6,0.6-0.7c0.4-0.1,0.8,0.2,0.8,0.5c0.1,0.3-0.2,0.6-0.6,0.7
				C538.9-23.8,538.6-24,538.5-24.4z"/>
			<path class="st13" d="M540-24.8c-0.1-0.3,0.2-0.6,0.6-0.7c0.4-0.1,0.8,0.2,0.8,0.5c0.1,0.3-0.2,0.6-0.6,0.7
				C540.5-24.2,540.1-24.5,540-24.8z"/>
		</g>
	</g>
	<g>
		<polygon class="st9" points="571.2,-45.2 571,-45.3 571,-45.5 571,-45.6 571,-45.8 571.1,-46 571.1,-46.2 570.9,-46.3 
			570.8,-46.4 570.6,-46.4 570.4,-46.3 570.3,-46.1 570.2,-45.9 570.2,-45.7 570.2,-45.6 570.2,-45.5 570.1,-45.4 570,-45.4 
			569.9,-45.5 569.8,-45.7 569.7,-45.9 569.6,-46.2 569.4,-46.2 569.1,-46.1 569.1,-45.8 569.1,-45.6 569.1,-45.5 569.1,-45.4 
			569,-45.3 568.9,-45.3 568.8,-45.4 568.8,-45.5 568.7,-45.7 568.6,-45.9 568.4,-45.9 568.2,-45.7 568.1,-45.5 568.1,-45.2 
			568.1,-44.9 568,-44.7 567.9,-44.6 567.8,-44.5 567.7,-44.3 567.6,-44.2 567.5,-44 567.4,-43.9 567.3,-43.7 567.3,-43.4 
			567.3,-43.2 567.2,-43.2 567,-43.2 566.9,-43.2 566.8,-43.2 566.6,-43.2 566.4,-43.2 566.2,-43.2 565.9,-43.3 565.6,-43.2 
			565.4,-43 565.2,-42.8 565.1,-42.5 565.1,-42.2 565.2,-42 565.4,-41.9 565.8,-41.8 566.1,-41.9 566.4,-41.9 566.7,-41.8 
			566.8,-41.7 567,-41.6 567.1,-41.6 567.1,-41.5 567.1,-41.5 566.5,-41.1 566,-40.7 565.7,-40.3 565.4,-39.8 565.3,-39.5 
			565.2,-39.1 565.1,-38.9 565.1,-38.8 565.2,-38.6 565.2,-38.5 565.2,-38.2 565.1,-37.9 564.8,-36.9 564.6,-35.9 564.5,-34.9 
			564.5,-34 564.5,-33.2 564.5,-32.5 564.6,-31.9 564.6,-31.4 564.7,-31.1 564.8,-30.7 565,-30.4 565.1,-30.1 565.3,-29.9 
			565.5,-29.7 565.7,-29.5 565.9,-29.4 566.1,-29.3 566.3,-29.3 566.6,-29.3 566.9,-29.4 567.1,-29.4 567.3,-29.5 567.5,-29.6 
			567.6,-29.7 567.7,-29.8 567.7,-29.9 567.8,-29.9 567.8,-30 567.9,-30.1 568,-30.1 568.1,-30.1 568.3,-30 568.6,-29.9 
			568.8,-29.9 569.1,-29.9 569.3,-29.9 569.6,-30 569.9,-30.1 570.2,-30.2 570.5,-30.3 570.7,-30.4 571,-30.5 571.2,-30.6 
			571.4,-30.8 571.5,-30.9 571.7,-31 571.8,-31.1 571.8,-31.2 571.9,-31.3 572,-31.4 572.1,-31.6 572.3,-31.7 572.4,-31.8 
			572.6,-31.9 572.8,-32.1 573.1,-32.2 573.3,-32.3 573.5,-32.4 573.8,-32.5 574,-32.7 574.2,-32.8 574.4,-32.9 574.6,-33 
			574.7,-33.2 574.9,-33.3 575,-33.5 575.1,-33.7 575.2,-33.9 575.3,-34.1 575.4,-34.4 575.5,-34.6 575.7,-34.8 575.9,-35.4 
			576,-36 575.9,-36.6 575.8,-37.1 575.8,-37.6 575.8,-38.1 575.8,-38.5 575.8,-38.9 575.6,-39.3 575.4,-39.6 575.1,-40 
			574.9,-40.5 574.8,-41 574.6,-41.3 574.3,-41.6 574.2,-41.8 574,-41.9 573.9,-42.1 573.9,-42.4 573.9,-42.7 574,-43 574.2,-43.1 
			574.3,-43.3 574.4,-43.5 575.1,-43.6 575.5,-43.8 575.8,-44.1 575.9,-44.4 575.8,-44.7 575.7,-44.9 575.5,-45.1 575.2,-45.2 
			574.8,-45.2 574.7,-45.2 574.5,-45.1 574.3,-45.1 574.1,-45 573.9,-45 573.8,-44.9 573.6,-44.9 573.5,-44.9 573.4,-44.9 
			573.3,-44.9 573.1,-44.9 572.9,-44.9 572.7,-44.9 572.5,-44.8 572.2,-44.7 572,-44.6 571.8,-44.8 571.7,-44.9 571.5,-45 		"/>
		<polygon class="st14" points="567.7,-40.2 567.9,-40.2 568,-40 568.1,-39.8 568,-39.7 568,-39.6 567.9,-39.5 567.8,-39.4 
			567.7,-39.3 567.7,-39.1 567.6,-39 567.5,-38.8 567.5,-38.5 567.4,-38.1 567.4,-37.6 567.5,-37.2 567.7,-36.9 567.8,-36.9 
			567.9,-36.8 568,-36.7 568.1,-36.6 568.2,-36.6 568.3,-36.6 568.4,-36.6 568.5,-36.6 568.6,-36.7 568.7,-36.7 568.8,-36.7 
			568.9,-36.6 569.2,-36.4 569.3,-36.2 569.4,-35.9 569.3,-35.6 569.2,-35.7 569.1,-35.9 569,-36.1 569,-36.3 569,-36.3 
			568.9,-36.3 568.9,-36.4 568.8,-36.4 568.7,-36.4 568.5,-36.4 568.4,-36.3 568.2,-36.4 568.3,-36.3 568.4,-36.2 568.5,-36.2 
			568.6,-36.1 568.6,-35.9 568.6,-35.7 568.6,-35.6 568.6,-35.4 568.5,-35.7 568.3,-35.9 568.2,-36.1 568,-36.3 567.9,-36.4 
			567.7,-36.5 567.6,-36.6 567.5,-36.7 567.5,-36.5 567.5,-36.4 567.4,-36.2 567.4,-36.1 567.4,-35.9 567.5,-35.8 567.5,-35.7 
			567.6,-35.6 567.7,-35.5 567.7,-35.5 567.8,-35.5 567.8,-35.5 567.9,-35.5 568,-35.5 568.1,-35.5 568.2,-35.5 568.1,-35.5 
			568,-35.4 567.8,-35.3 567.7,-35.3 567.6,-35.3 567.5,-35.3 567.4,-35.3 567.3,-35.4 567.5,-35.1 567.6,-34.8 567.7,-34.7 
			567.8,-34.6 568,-34.6 568.2,-34.7 568.2,-34.8 568.3,-34.9 568.5,-35 568.6,-35 568.7,-35 568.8,-34.9 568.9,-34.9 569,-34.8 
			569.1,-34.7 569.2,-34.7 569.3,-34.7 569.4,-34.7 569.5,-34.7 569.6,-34.7 569.7,-34.7 569.8,-34.7 569.7,-34.7 569.6,-34.6 
			569.5,-34.6 569.4,-34.5 569.3,-34.5 569.2,-34.5 569.1,-34.5 569,-34.5 568.9,-34.5 568.8,-34.6 568.7,-34.7 568.6,-34.7 
			568.5,-34.7 568.4,-34.6 568.4,-34.5 568.3,-34.5 568.2,-34.4 568.1,-34.4 568,-34.4 567.9,-34.4 567.8,-34.4 567.6,-34.5 
			567.5,-34.5 567.4,-34.6 567.4,-34.6 567.5,-34.6 567.4,-34.5 567.5,-34.4 567.6,-34.2 567.7,-34.1 567.8,-34 567.9,-34 
			567.9,-34 568.1,-34 568.2,-34 568.3,-34.1 568.4,-34.1 568.5,-34.1 568.6,-34.2 568.6,-34.1 568.7,-34.1 568.8,-34.1 568.9,-34 
			569,-34 569,-33.9 569.1,-33.8 569.2,-33.7 569.3,-33.7 569.4,-33.7 569.6,-33.7 569.4,-33.7 569.3,-33.6 569.2,-33.6 
			569.1,-33.6 569,-33.7 568.9,-33.8 568.8,-33.8 568.7,-33.9 568.6,-33.9 568.4,-33.9 568.3,-33.8 568.1,-33.8 568.3,-33.7 
			568.3,-33.5 568.4,-33.3 568.4,-33.2 568.5,-33.1 568.6,-33 568.7,-32.9 568.8,-32.9 568.9,-32.9 569,-32.9 569.1,-32.9 
			569.2,-33 569.1,-32.9 568.9,-32.8 568.8,-32.8 568.6,-32.8 568.4,-32.9 568.3,-33.1 568.2,-33.3 568.1,-33.5 568.1,-33.6 
			568,-33.6 567.9,-33.7 567.8,-33.7 567.8,-33.8 567.7,-33.8 567.7,-33.6 567.7,-33.5 567.7,-33.3 567.7,-33.2 567.7,-32.9 
			567.7,-32.7 567.8,-32.5 567.8,-32.4 567.9,-32.3 568,-32.3 568.1,-32.2 568.1,-32.2 568.2,-32.2 568.2,-32.2 568.4,-32.2 
			568.5,-32.2 568.7,-32.2 568.8,-32.2 568.9,-32.2 568.9,-32.2 569,-32.1 569,-32.1 569.1,-32 569.1,-31.9 569,-31.8 569,-31.7 
			568.9,-31.8 568.9,-31.9 568.8,-31.9 568.8,-32 568.7,-32 568.6,-32 568.4,-32 568.3,-32 568.2,-32 568.1,-32 568,-32 
			567.9,-32.1 567.8,-32.1 567.7,-32.2 567.8,-32 567.9,-31.8 568.1,-31.6 568.2,-31.4 568.3,-31.3 568.4,-31.2 568.5,-31.1 
			568.6,-30.9 568.6,-30.9 568.5,-30.8 568.4,-30.8 568.3,-30.8 568.2,-30.9 568.1,-31 567.8,-31.3 567.7,-31.7 567.5,-32.1 
			567.5,-32.5 567.4,-32.3 567.3,-32.1 567.3,-31.9 567.4,-31.7 567.4,-31.5 567.5,-31.4 567.5,-31.3 567.6,-31.3 567.7,-31.2 
			567.7,-31.1 567.6,-31.1 567.6,-31.1 567.5,-31.2 567.4,-31.2 567.3,-31.3 567.3,-31.4 567.3,-31.5 567.2,-31.7 567.1,-32 
			567.1,-32.4 567.1,-32.5 567.2,-32.6 567.3,-32.7 567.4,-32.9 567.4,-33.2 567.4,-33.4 567.4,-33.6 567.3,-33.8 567.2,-33.7 
			567.1,-33.6 567,-33.3 567,-33.1 567,-33.1 566.9,-33 566.9,-33 566.8,-32.9 566.8,-32.9 566.7,-32.8 566.6,-32.8 566.6,-32.7 
			566.5,-32.4 566.5,-32.2 566.6,-32 566.8,-31.9 566.6,-31.9 566.4,-32.1 566.3,-32.3 566.3,-32.6 566.3,-32.7 566.4,-32.8 
			566.5,-32.9 566.5,-32.9 566.7,-33.1 566.7,-33.2 566.7,-33.5 566.8,-33.7 566.8,-33.7 566.8,-33.7 566.7,-33.7 566.6,-33.7 
			566.5,-33.6 566.4,-33.6 566.3,-33.6 566.2,-33.5 566.1,-33.4 566.1,-33.3 566,-33.2 566,-33.1 566,-33 566,-32.8 566,-33.1 
			566,-33.4 566.2,-33.7 566.4,-33.8 566.3,-33.9 566.2,-33.8 566.1,-33.8 566,-33.8 565.9,-33.9 565.8,-34.1 565.8,-34.2 
			565.7,-34.3 565.7,-34.4 565.6,-34.4 565.6,-34.4 565.5,-34.4 565.6,-34.5 565.7,-34.5 565.7,-34.5 565.8,-34.4 565.9,-34.4 
			566,-34.3 566,-34.1 566.1,-34.1 566.2,-34 566.3,-34 566.4,-34 566.5,-34 566.6,-34 566.7,-34 566.8,-34 566.9,-34 566.7,-34.2 
			566.4,-34.3 566.2,-34.5 566.1,-34.7 566,-34.8 565.9,-35 565.9,-35.1 565.8,-35.3 565.8,-35.4 565.9,-35.6 565.9,-35.6 
			565.9,-35.6 566,-35.3 566.1,-35.1 566.1,-35.1 566.2,-35.1 566.2,-34.9 566.3,-34.8 566.5,-34.6 566.7,-34.4 566.9,-34.2 
			567.1,-34.1 567.2,-34.1 567.2,-34.1 567.1,-34.4 567.1,-34.7 567,-35.1 567.1,-35.4 567,-35.5 567,-35.6 567.1,-36.1 
			567.1,-36.6 567.1,-37 567,-37.5 567,-37.5 566.9,-37.5 566.8,-37.4 566.8,-37.4 566.8,-37.3 566.7,-37.2 566.7,-37.1 566.7,-37 
			566.6,-36.9 566.5,-36.8 566.4,-36.8 566.4,-36.6 566.5,-36.2 566.6,-35.8 566.6,-35.9 566.5,-36 566.4,-36.2 566.3,-36.4 
			566.2,-36.7 566.3,-36.9 566.3,-37.1 566.4,-37.2 566.5,-37.4 566.5,-37.5 566.5,-37.6 566.5,-37.6 566.6,-37.7 566.6,-37.7 
			566.7,-37.7 566.9,-37.7 567,-37.8 567,-37.9 567.1,-38.1 567.1,-38.3 567.1,-38.5 567.2,-38.7 567.3,-38.9 567.3,-39.2 
			567.4,-39.5 567.6,-39.7 567.6,-39.7 567.6,-39.8 567.7,-39.8 567.7,-39.8 567.5,-39.8 567.4,-39.7 567.2,-39.6 567.1,-39.5 
			567,-39.4 566.8,-39.3 566.7,-39.2 566.6,-39.1 566.6,-38.8 566.5,-38.5 566.5,-38.3 566.6,-38.1 566.6,-38.1 566.5,-38.1 
			566.4,-38.5 566.3,-38.9 566.3,-38.9 566.4,-38.9 566.3,-38.8 566.2,-38.7 566.2,-38.6 566.1,-38.5 566,-38.4 566,-38.4 
			565.9,-38.3 565.9,-38.3 565.8,-38.5 565.8,-38.7 565.9,-38.8 566,-38.9 566.2,-39 566.3,-39.1 566.3,-39.2 566.4,-39.3 
			566.4,-39.3 566.5,-39.4 566.6,-39.5 566.8,-39.6 566.9,-39.7 567.1,-39.8 567.2,-39.9 567.4,-40 567.6,-40.1 		"/>
		<path class="st14" d="M567.1-41.5l0.3,0.4l0.1,0.3v0.2v0.2l-0.1,0.1v0.1v0.1l0.1,0.2l0.3,0.2l0.4,0.1h0.5l0.5-0.1l0.5-0.1l0.4-0.2
			l0.3-0.2l0.1-0.2v-0.2l-0.1-0.2l-0.1-0.2l-0.3-0.1l-0.1-0.1l-0.1-0.1l-0.1-0.1v-0.1l0.1-0.5l-0.1-0.6l-0.3-0.5l-0.3-0.4H569h-0.1
			h-0.1l-0.2,0.1l-0.2,0.1l-0.2,0.1l-0.3,0.1h-0.4 M567.1-41.5l0.3,0.4l0.1,0.3v0.2v0.2l-0.1,0.1v0.1v0.1l0.1,0.2l0.3,0.2l0.4,0.1
			h0.5l0.5-0.1l0.5-0.1l0.4-0.2l0.3-0.2l0.1-0.2v-0.2l-0.1-0.2l-0.1-0.2l-0.3-0.1l-0.1-0.1l-0.1-0.1l-0.1-0.1v-0.1l0.1-0.5l-0.1-0.6
			l-0.3-0.5l-0.3-0.4H569h-0.1h-0.1l-0.2,0.1l-0.2,0.1l-0.2,0.1l-0.3,0.1h-0.4 M570.4-40.4L570.4-40.4h0.3l0.2-0.1v-0.3V-41v-0.2
			l0.1-0.2l0.1-0.2l0.2-0.2l0.2-0.1l0.3-0.1h0.3l0.2-0.4v-0.4v-0.4v-0.5V-44l-0.1-0.2l-0.1-0.2l-0.1-0.2 M570.4-40.4L570.4-40.4h0.3
			l0.2-0.1v-0.3V-41v-0.2l0.1-0.2l0.1-0.2l0.2-0.2l0.2-0.1l0.3-0.1h0.3l0.2-0.4v-0.4v-0.4v-0.5V-44l-0.1-0.2l-0.1-0.2l-0.1-0.2"/>
		<polygon class="st14" points="570.5,-40.8 570.6,-40.8 570.7,-40.7 570.9,-40.6 571,-40.4 571,-40.2 571.2,-40.1 571.3,-39.9 
			571.5,-39.7 571.7,-39.5 571.9,-39.3 572.1,-39.2 572.3,-39.1 572.4,-39.1 572.7,-39 572.9,-38.9 573.2,-38.8 573.5,-38.7 
			573.7,-38.6 574,-38.5 574.2,-38.4 574.3,-38.2 574.5,-38.1 574.7,-38 574.9,-37.9 575.1,-37.7 575.2,-37.6 575.2,-37.5 
			575.3,-37.3 575.2,-37.2 575.2,-37.1 575.1,-37.2 575,-37.3 574.9,-37.5 574.7,-37.6 574.6,-37.8 574.5,-37.8 574.4,-37.8 
			574.4,-37.7 574.3,-37.5 574.4,-37.3 574.5,-36.9 574.7,-36.5 574.7,-35.9 574.5,-35.4 574.2,-34.9 574.2,-34.4 574.3,-34.2 
			574.3,-34 574.3,-34 574.3,-33.9 574.2,-33.8 574.2,-33.9 574.1,-34.2 574,-34.5 574,-34.7 574,-34.9 573.9,-34.5 573.9,-34.1 
			573.8,-33.7 573.7,-33.4 573.5,-33.3 573.4,-33.3 573.5,-33.4 573.6,-33.6 573.6,-33.8 573.6,-34 573.6,-34.2 573.6,-34.4 
			573.6,-34.3 573.5,-34.2 573.5,-34 573.4,-33.9 573.4,-33.7 573.3,-33.5 573.1,-33.3 572.9,-33.2 572.9,-33.3 573.1,-33.5 
			573.2,-33.8 573.3,-34.3 573.1,-34.2 573,-33.9 572.9,-33.7 572.8,-33.5 572.8,-33.3 572.7,-33.1 572.6,-33 572.5,-32.9 
			572.4,-32.8 572.6,-33.1 572.7,-33.4 572.7,-33.7 572.7,-33.9 572.7,-33.9 572.6,-33.8 572.4,-33.6 572.4,-33.3 572.4,-33.3 
			572.4,-33.2 572.3,-33.1 572.1,-32.9 571.9,-32.8 571.8,-32.7 571.7,-32.5 571.6,-32.4 571.5,-32.3 571.4,-32.2 571.3,-32.1 
			571.2,-32 571.2,-31.9 571.1,-31.9 571.1,-31.8 571,-31.8 571,-31.8 571,-31.9 571.2,-32 571.3,-32.2 571.4,-32.4 571.5,-32.5 
			571.6,-32.7 571.7,-32.8 571.8,-32.9 572,-33 572.1,-33.2 572.1,-33.3 572,-33.4 571.9,-33.4 571.7,-33.3 571.5,-33.1 571.4,-33 
			571.3,-32.8 571.2,-32.7 571,-32.7 570.8,-32.7 570.6,-32.8 570.6,-32.8 570.5,-32.8 570.6,-32.8 570.7,-32.8 570.9,-32.8 
			571,-32.9 571.1,-33 571.3,-33.1 571.4,-33.3 571.5,-33.4 571.6,-33.5 571.6,-33.6 571.4,-33.7 571.3,-33.7 571.2,-33.8 
			571.1,-33.8 571,-33.7 571,-33.7 570.9,-33.6 570.8,-33.5 570.7,-33.5 570.6,-33.5 570.5,-33.5 570.4,-33.5 570.3,-33.6 
			570.2,-33.7 570.2,-33.7 570.2,-33.8 570.2,-33.9 570.3,-33.9 570.3,-33.8 570.4,-33.7 570.4,-33.7 570.5,-33.7 570.5,-33.7 
			570.6,-33.7 570.6,-33.7 570.6,-33.7 570.7,-33.7 570.7,-33.8 570.7,-33.8 570.8,-33.8 570.9,-33.9 571,-33.9 571.2,-33.9 
			571.3,-33.9 571.4,-33.9 571.6,-33.8 571.7,-33.8 571.8,-33.7 571.9,-33.6 572,-33.6 572.1,-33.7 572.2,-33.7 572.3,-33.8 
			572.4,-33.9 572.5,-34 572.6,-34.1 572.5,-34.1 572.4,-34.1 572.3,-34.1 572.2,-34.1 572.1,-34.1 572,-34.1 572,-34.1 
			571.9,-34.1 571.8,-34.2 571.6,-34.2 571.5,-34.2 571.4,-34.3 571.3,-34.3 571.2,-34.2 571.1,-34.2 571,-34.2 571.1,-34.2 
			571.2,-34.3 571.3,-34.4 571.5,-34.4 571.7,-34.3 571.8,-34.3 572,-34.3 572.2,-34.3 572.4,-34.3 572.6,-34.3 572.8,-34.3 
			572.9,-34.4 573,-34.4 573,-34.5 573.1,-34.5 573.2,-34.5 573,-34.5 572.9,-34.5 572.7,-34.5 572.6,-34.5 572.3,-34.6 
			572.1,-34.7 571.9,-34.9 571.8,-35.2 571.9,-35.1 572,-35 572.1,-35 572.2,-34.9 572.3,-34.9 572.4,-34.8 572.5,-34.7 
			572.6,-34.7 572.6,-34.6 572.7,-34.6 572.8,-34.6 572.8,-34.6 572.9,-34.6 573,-34.6 573.1,-34.6 573.2,-34.6 573.3,-34.7 
			573.4,-34.7 573.5,-34.7 573.6,-34.7 573.7,-34.8 573.8,-34.9 573.8,-35 573.9,-35 573.9,-35.1 574,-35.2 574,-35.3 574,-35.3 
			573.9,-35.2 573.8,-35.1 573.7,-35.1 573.5,-35 573.4,-35 573.3,-35 573.1,-35 573,-35 572.9,-35 572.9,-35 572.8,-35 
			572.8,-35.1 572.9,-35.1 573,-35.1 573.1,-35.1 573.2,-35.2 573.3,-35.2 573.4,-35.2 573.5,-35.2 573.6,-35.3 573.7,-35.3 
			573.8,-35.4 573.9,-35.4 574,-35.5 574,-35.5 574.1,-35.6 574.2,-35.6 574.3,-35.6 574.3,-35.7 574.3,-35.8 574.4,-35.8 
			574.4,-35.9 574.4,-36.1 574.5,-36.2 574.4,-36.4 574.4,-36.6 574.3,-36.8 574.1,-37.1 574,-37.4 574,-37.7 574,-37.9 574,-38 
			573.9,-38.1 573.8,-38.2 573.6,-38.3 573.4,-38.3 573.2,-38.3 573.1,-38.4 573.1,-38.3 573.1,-38.1 573.1,-37.9 573.2,-37.8 
			573.4,-37.6 573.6,-37.5 573.7,-37.3 573.7,-37 573.7,-37.2 573.6,-37.2 573.5,-37.3 573.4,-37.3 573.3,-37.4 573.2,-37.5 
			573.1,-37.5 573,-37.6 572.9,-37.9 572.9,-38.2 572.9,-38.4 572.8,-38.5 572.6,-38.6 572.5,-38.7 572.3,-38.8 572.1,-38.9 
			572.1,-38.7 572.2,-38.5 572.3,-38.4 572.4,-38.3 572.5,-38.1 572.5,-37.9 572.5,-37.7 572.5,-37.5 572.5,-37.3 572.5,-37.1 
			572.6,-37 572.7,-36.9 572.9,-36.9 573,-36.9 573,-36.9 573.1,-36.8 573.1,-36.8 573.2,-36.8 573.3,-36.8 573.3,-36.9 
			573.3,-36.8 573.2,-36.8 573.1,-36.8 573,-36.8 573,-36.8 572.9,-36.8 572.8,-36.8 572.7,-36.8 572.6,-36.8 572.5,-36.9 
			572.4,-36.9 572.3,-37 572.3,-37.1 572.2,-37.3 572.2,-37.4 572.2,-37.6 572.2,-37.7 572.2,-37.9 572.2,-38.1 572.1,-38.3 
			572,-38.5 571.9,-38.6 571.8,-38.8 571.8,-39 571.8,-39 571.7,-39 571.7,-39 571.7,-38.9 571.6,-38.8 571.5,-38.7 571.4,-38.6 
			571.3,-38.5 571.3,-38.4 571.2,-38.3 571.2,-38.2 571.2,-38.1 571.2,-37.9 571.2,-37.7 571.2,-37.5 571.2,-37.3 571.1,-37.2 
			571,-37.1 570.9,-37 570.7,-37 570.8,-37.1 570.9,-37.3 571,-37.5 571.1,-37.6 571.1,-37.9 571,-38.1 570.9,-38.2 570.9,-38.3 
			570.8,-38.4 570.7,-38.4 570.6,-38.5 570.4,-38.5 570.3,-38.5 570.1,-38.5 570.1,-38.4 570,-38.3 570,-38.2 570.1,-38.1 
			570,-38.3 569.9,-38.4 570,-38.6 570,-38.7 570.1,-38.7 570.2,-38.8 570.4,-38.8 570.5,-38.7 570.6,-38.7 570.7,-38.6 
			570.8,-38.6 570.9,-38.5 571,-38.5 571.1,-38.6 571.2,-38.7 571.3,-38.8 571.4,-38.9 571.4,-39 571.4,-39.1 571.4,-39.2 
			571.4,-39.4 571.3,-39.5 571.1,-39.6 571,-39.8 570.9,-40 570.8,-40.1 570.7,-40.2 570.6,-40.3 570.5,-40.4 570.5,-40.5 
			570.5,-40.5 570.4,-40.6 570.4,-40.7 		"/>
	</g>
	<path class="st10" d="M573.8,38.4c-0.8,0.1-0.9,1.5-2,0.9s-1.7-0.2-2,1.1s-2.8,2.7-2.8,2.7s-2.6-1.4-2.8-2.7
		c-0.3-1.3-0.9-1.7-2-1.1c-1.1,0.6-1.2-0.8-2-0.9c-0.8-0.1-1.6,0.8-0.7,1.8s1.6,2.4,2.7,2.6c1.1,0.2,1,0.8,0.8,1.3
		c-0.2,0.6-0.6,2.4,0.5,2c1.1-0.5,1.8-1.5,2.4-0.9c0.6,0.7-0.6,2.4,1,2.4c1.6,0,0.4-1.8,1-2.4c0.6-0.7,1.3,0.4,2.4,0.9
		s0.7-1.4,0.5-2s-0.3-1.1,0.8-1.3s1.8-1.6,2.7-2.6C575.4,39.2,574.5,38.3,573.8,38.4z"/>
	<path class="st10" d="M572.5,36.6c-0.6,0.1-0.8,1.2-1.6,0.7c-0.9-0.5-1.4-0.2-1.6,0.9c-0.2,1-2.3,2.2-2.3,2.2s-2.1-1.2-2.3-2.2
		s-0.7-1.4-1.6-0.9c-0.9,0.5-1-0.6-1.6-0.7c-0.6-0.1-1.3,0.7-0.5,1.5c0.7,0.8,1.3,2,2.2,2.1c0.9,0.2,0.8,0.6,0.7,1.1s-0.5,2,0.4,1.6
		c0.9-0.4,1.5-1.2,2-0.7s-0.5,2,0.8,2c1.3,0,0.3-1.5,0.8-2s1.1,0.3,2,0.7c0.9,0.4,0.5-1.2,0.4-1.6c-0.1-0.5-0.3-0.9,0.7-1.1
		c0.9-0.2,1.5-1.3,2.2-2.1C573.8,37.3,573.2,36.5,572.5,36.6z"/>
	<path class="st10" d="M572.5,32.9c-0.6,0.1-0.8,1.2-1.6,0.7c-0.9-0.5-1.4-0.2-1.6,0.9c-0.2,1-2.3,2.2-2.3,2.2s-2.1-1.2-2.3-2.2
		s-0.7-1.4-1.6-0.9c-0.9,0.5-1-0.6-1.6-0.7c-0.6-0.1-1.3,0.7-0.5,1.5c0.7,0.8,1.3,2,2.2,2.1c0.9,0.2,0.8,0.6,0.7,1.1s-0.5,2,0.4,1.6
		c0.9-0.4,1.5-1.2,2-0.7s-0.5,2,0.8,2c1.3,0,0.3-1.5,0.8-2s1.1,0.3,2,0.7c0.9,0.4,0.5-1.2,0.4-1.6c-0.1-0.5-0.3-0.9,0.7-1.1
		c0.9-0.2,1.5-1.3,2.2-2.1C573.8,33.6,573.2,32.9,572.5,32.9z"/>
	<path class="st10" d="M572.5,29.3c-0.6,0.1-0.8,1.2-1.6,0.7c-0.9-0.5-1.4-0.2-1.6,0.9c-0.2,1-2.3,2.2-2.3,2.2s-2.1-1.2-2.3-2.2
		s-0.7-1.4-1.6-0.9c-0.9,0.5-1-0.6-1.6-0.7c-0.6-0.1-1.3,0.7-0.5,1.5c0.7,0.8,1.3,2,2.2,2.1c0.9,0.2,0.8,0.6,0.7,1.1s-0.5,2,0.4,1.6
		c0.9-0.4,1.5-1.3,2-0.7c0.5,0.5-0.5,2,0.8,2c1.3,0,0.3-1.5,0.8-2s1.1,0.3,2,0.7c0.9,0.4,0.5-1.2,0.4-1.6c-0.1-0.5-0.3-0.9,0.7-1.1
		c0.9-0.2,1.5-1.3,2.2-2.1C573.8,29.9,573.2,29.2,572.5,29.3z"/>
	<path class="st10" d="M572.4,25.6c-0.6,0.1-0.8,1.2-1.6,0.7c-0.9-0.5-1.4-0.2-1.6,0.9c-0.2,1-2.3,2.2-2.3,2.2s-2.1-1.2-2.3-2.2
		c-0.2-1-0.7-1.3-1.6-0.9c-0.9,0.5-1-0.6-1.6-0.7c-0.6-0.1-1.3,0.7-0.5,1.5c0.7,0.8,1.3,1.9,2.2,2.1c0.9,0.2,0.8,0.6,0.7,1.1
		c-0.1,0.4-0.5,2,0.4,1.6s1.5-1.2,1.9-0.7c0.5,0.5-0.5,2,0.8,2c1.3,0,0.3-1.4,0.8-2c0.5-0.5,1,0.3,1.9,0.7s0.5-1.1,0.4-1.6
		c-0.1-0.4-0.2-0.9,0.7-1.1c0.9-0.2,1.5-1.3,2.2-2.1C573.7,26.3,573.1,25.6,572.4,25.6z"/>
	<path class="st10" d="M572.4,22.5c-0.6,0.1-0.8,1.2-1.6,0.7c-0.9-0.5-1.4-0.2-1.6,0.9c-0.2,1-2.3,2.2-2.3,2.2s-2.1-1.2-2.3-2.2
		c-0.2-1-0.7-1.3-1.6-0.9c-0.9,0.5-1-0.6-1.6-0.7c-0.6-0.1-1.3,0.7-0.5,1.5c0.7,0.8,1.3,1.9,2.2,2.1c0.9,0.2,0.8,0.6,0.7,1.1
		c-0.1,0.4-0.5,2,0.4,1.6s1.5-1.2,1.9-0.7c0.5,0.5-0.5,2,0.8,2c1.3,0,0.3-1.4,0.8-2c0.5-0.5,1,0.3,1.9,0.7s0.5-1.1,0.4-1.6
		c-0.1-0.4-0.2-0.9,0.7-1.1c0.9-0.2,1.5-1.3,2.2-2.1C573.7,23.1,573.1,22.4,572.4,22.5z"/>
	<path class="st10" d="M572,18.6c-0.6,0.1-0.7,1.1-1.5,0.6S569.2,19,569,20c-0.2,0.9-2.1,2-2.1,2s-1.9-1.1-2.1-2s-0.7-1.2-1.5-0.8
		c-0.8,0.5-0.9-0.6-1.5-0.6c-0.6-0.1-1.2,0.6-0.5,1.4c0.7,0.8,1.2,1.8,2,1.9c0.8,0.2,0.7,0.6,0.6,1c-0.1,0.4-0.5,1.8,0.4,1.5
		c0.8-0.3,1.3-1.1,1.8-0.6s-0.4,1.8,0.7,1.8c1.2,0,0.3-1.3,0.7-1.8c0.5-0.5,1,0.3,1.8,0.6s0.5-1.1,0.4-1.5c-0.1-0.4-0.2-0.8,0.6-1
		s1.4-1.2,2-1.9C573.2,19.2,572.6,18.5,572,18.6z"/>
	<g>
		<path class="st10" d="M574.1,50.3c1.2-1.3,3.9-6.7,3.1-6.5s-1.4,0.4-4.2,4.4c0,0-1.5,1.2-3.3,0.3c-1.2-0.6-1.9-0.3-2.3,0.1
			c-0.4-0.4-1.1-0.7-2.3-0.1c-1.8,0.9-3.3-0.3-3.3-0.3c-2.8-4-3.4-4.2-4.2-4.4s1.9,5.2,3.1,6.5c1.2,1.3,0.9,3.8-0.5,5.1
			c-1.4,1.3-0.8,2.5,0,3c0.8,0.5,2.6,2.5,3.2,4.4c0.6,1.9,1.8,2.5,2.3,2.4c0.4-0.1,1.1-0.7,1.6-1.1c0.4,0.4,1.2,1,1.6,1.1
			c0.5,0.1,1.7-0.5,2.3-2.4s2.4-3.9,3.2-4.4c0.8-0.5,1.4-1.7,0-3C573.2,54.1,572.9,51.6,574.1,50.3z"/>
		<path class="st10" d="M565.1,77c0,0-1.2,0.6-0.8,0.8c0.4,0.3,1.3,0.9,1.4,1.4c0,0.5,0.6,2.2,1.3,2.3c0.7,0.1,0.9-1.1,1.9-2.3
			s1.5-1.7,0.7-2.1C568.8,76.7,567.9,75,565.1,77z"/>
		<path class="st10" d="M565.8,68.2c0,0-9.6-2.1-9.6-8.5c0,0-0.5-2.1,4.4-2c0,0,1.2,0,1.7-2.3c0.6-2.3-4.4-12.5-6.2-13.8
			c0,0-3.9-2.2-8.3-1.1c-4.4,1.2-6.3,7-4.6,9.6c1.7,2.5,5.6,9.6,5.3,11.6c-0.4,1.9,2,2.3,3,4.3s0.4,4.1,2.1,4.3s-0.4,2,0.2,2.7
			s5.3,6.4,12.9,0L565.8,68.2z M561.8,73.5c-1.5,1.6-4.1-4.1-4.1-4.1c-0.1-0.8,0.5-1.2,2.2-1.2C561.4,68.2,563.3,71.9,561.8,73.5z"
			/>
		<path class="st10" d="M586.9,40.6c-4.4-1.2-8.3,1.1-8.3,1.1c-1.8,1.2-6.7,11.5-6.2,13.8c0.6,2.3,1.7,2.3,1.7,2.3
			c4.8-0.1,4.4,2,4.4,2c0.1,6.4-9.6,8.5-9.6,8.5l-0.8,4.8c7.6,6.4,12.3,0.7,12.9,0s-1.5-2.5,0.2-2.7s1.1-2.3,2.1-4.3s3.3-2.4,3-4.3
			c-0.4-1.9,3.6-9,5.3-11.6C593.3,47.6,591.3,41.8,586.9,40.6z M573,73.5c-1.5-1.6,0.3-5.3,2-5.3c1.6,0,2.3,0.4,2.2,1.2
			C577.2,69.4,574.6,75.1,573,73.5z"/>
	</g>
	<path class="st11" d="M579.2-78.8c0.1-0.3,0.2-0.6,0.3-1v-0.1c0.1-0.3,0.2-0.6,0.3-0.9v-0.1c0.1-0.3,0.2-0.7,0.2-1
		c0-0.1,0-0.1,0-0.2c0.1-0.7,0.2-1.4,0.3-2.2c0-0.1,0-0.1,0-0.2c0-0.4,0-0.8,0-1.2c0-0.1,0-0.1,0-0.2c0-0.4-0.1-0.8-0.1-1.2
		c0-0.1,0-0.1,0-0.2c-0.1-0.4-0.1-0.9-0.2-1.3c0-0.1,0-0.2-0.1-0.3c-0.1-0.5-0.2-1-0.4-1.5c-2.7-9-12.4-8.7-12.4-8.7
		s-9.7-0.2-12.4,8.7c-0.2,0.5-0.3,1-0.4,1.5c0,0.1,0,0.2-0.1,0.3c-0.1,0.5-0.2,0.9-0.2,1.3c0,0.1,0,0.1,0,0.2c0,0.4-0.1,0.8-0.1,1.2
		c0,0.1,0,0.1,0,0.2c0,0.4,0,0.8,0,1.2c0,0.1,0,0.1,0,0.2c0,0.8,0.1,1.5,0.3,2.2c0,0.1,0,0.1,0,0.2c0.1,0.3,0.1,0.7,0.2,1v0.1
		c0.1,0.3,0.2,0.6,0.3,0.9v0.1c0.1,0.3,0.2,0.6,0.3,1v0.1c0.1,0.3,0.2,0.6,0.4,0.9c-0.4,0.1-1.2,0.9-1,1.9c0.3,1,1.4,2.2,1.4,2.8
		s0.4,2.2,1.6,2.5c0.5,4.2,0.5,6.8,1,7.4c0.5,0.6,3.2,2.9,3.6,3.7s2.2,2,3.2,2.2c0.9,0.2,1.8,0,1.8,0s0.9,0.2,1.8,0s2.8-1.4,3.2-2.2
		c0.4-0.8,3.2-3,3.6-3.7c0.4-0.6,0.5-3.2,1-7.4c1.2-0.4,1.6-1.9,1.6-2.5c0-0.7,1.1-1.8,1.4-2.8c0.3-1-0.5-1.7-0.9-1.9
		C578.9-78.1,579-78.4,579.2-78.8C579.2-78.7,579.2-78.8,579.2-78.8z"/>
	<g>
		<polyline class="st15" points="560.5,-81.9 560.4,-82.4 560.1,-82 559.9,-82.6 559.6,-82.7 558.6,-82.6 558,-83 557.8,-83.4 
			556.9,-83.3 		"/>
		<polyline class="st15" points="559.9,-82.6 560.5,-83.7 561.2,-83.9 561.7,-85.1 562.8,-85.1 562.7,-86.5 563.1,-86.5 563.3,-86 
			563.7,-85.8 564.1,-86 564.5,-87.4 565.6,-87.1 566.2,-87.8 567,-88.4 566.1,-89.9 566.5,-91.4 565.8,-91.7 566.5,-91.8 
			566.4,-92.6 565.7,-93.2 565.7,-94.2 566.5,-94.7 566,-95.6 566.4,-96.5 566.1,-96.8 565.6,-96.9 566.3,-97.6 565.8,-98.2 
			566.1,-99.3 		"/>
		<polyline class="st15" points="566.2,-87.8 566.9,-87.4 567.5,-87.6 567.9,-86.5 568.9,-86.3 569.3,-85.7 570.5,-85.9 
			571.5,-85.2 571.3,-84.4 571.7,-83.6 573,-83.8 573.3,-82.9 574.1,-82.1 574,-81.3 574.5,-81.7 574.8,-81.1 		"/>
		<polyline class="st15" points="576.5,-83.2 576,-82.9 575.6,-83.3 575.2,-82.9 575.2,-82.2 574.9,-81.9 574.8,-81.1 574,-80.8 
			574,-80.6 		"/>
	</g>
	<g>
		<path class="st11" d="M557.1-80.9c0,0,0,2.1,2.4,2.1c2.5,0,3.5-0.6,4.6-2.5c1.1-1.9,1.4-3.7,0-4.4c-1.4-0.6-3.9-0.5-5.3,0.5
			c-1.4,0.9-1.2,1.7-1.3,2C557.3-82.7,557.1-80.9,557.1-80.9z"/>
		<path class="st11" d="M577.2-80.9c0,0,0,2.1-2.4,2.1c-2.5,0-3.5-0.6-4.6-2.5c-1.1-1.9-1.4-3.7,0-4.4c1.4-0.6,3.9-0.5,5.3,0.5
			c1.4,0.9,1.2,1.7,1.3,2C576.9-82.7,577.2-80.9,577.2-80.9z"/>
		<g>
			<path class="st16" d="M568.1-73.1c-0.1,0-0.2,0-0.3,0c-0.1,0-0.2-0.1-0.3-0.2c-0.1,0.1-0.2,0.1-0.3,0.2c-0.1,0-0.2,0-0.3,0
				c-0.6,0-1.1-0.3-1.5-0.8c-0.4-0.6-0.4-1.3-0.2-2c0.1-0.4,0.3-0.9,0.5-1.4c0.7-2.3,1.1-3.3,1.8-3.3h0.1c0.7,0,1.1,0.9,1.8,3.3
				c0.2,0.5,0.3,1.1,0.5,1.4c0.3,0.7,0.2,1.5-0.2,2C569.2-73.4,568.6-73.1,568.1-73.1L568.1-73.1z"/>
			<path class="st17" d="M567.5-80.2c0.6,0,1.3,3.1,1.8,4.4c0.5,1.4-0.5,2.2-1.2,2.2c-0.1,0-0.1,0-0.2,0c-0.2-0.1-0.4-0.3-0.5-0.7
				c-0.1,0.4-0.2,0.6-0.5,0.7c-0.1,0-0.1,0-0.2,0c-0.7,0-1.7-0.8-1.2-2.2C566.1-77.1,566.8-80.2,567.5-80.2
				C567.4-80.2,567.4-80.2,567.5-80.2C567.4-80.2,567.5-80.2,567.5-80.2 M567.5-81.2C567.5-81.2,567.4-81.2,567.5-81.2
				C567.4-81.2,567.4-81.2,567.5-81.2L567.5-81.2c-1.2,0-1.7,1.4-2.4,3.6c-0.2,0.5-0.3,1.1-0.5,1.4c-0.3,0.9-0.3,1.8,0.2,2.5
				c0.4,0.6,1.2,1.1,1.9,1.1c0.1,0,0.3,0,0.4-0.1c0.1,0,0.1,0,0.2-0.1c0.1,0,0.2,0.1,0.2,0.1c0.1,0,0.3,0.1,0.4,0.1
				c0.7,0,1.5-0.4,1.9-1.1c0.5-0.7,0.6-1.6,0.2-2.5c-0.1-0.3-0.3-0.9-0.5-1.4C569.1-79.8,568.6-81.2,567.5-81.2L567.5-81.2
				L567.5-81.2L567.5-81.2z"/>
		</g>
	</g>
	<path class="st9" d="M546.9-10.6c-0.1-1-0.4-2-0.8-2.9c1.2-2.9,1.3-5.9,0.8-8.9l1.2,0.3l0.8-2.1c1-0.4,1.5-0.2,1.5-1.9
		c0.3,0.1,0.6,0.1,0.9,0.2"/>
	<path class="st9" d="M551.4-52.1v-0.3c-0.3,0.1-0.5,0.1-0.8,0.1c-0.5,0.2-1,0.3-1.5,0.4c-0.4,0.1-0.9,0.1-1.3,0.2
		c0.6-0.1,0.7-0.1,0.3,0c-0.3,0.1-0.7,0.1-1,0.2c-1.4,0.3-2.5,0.9-3.9,1.1c-0.4,0.2-0.8,0.3-1.2,0.3c-0.1,0.1-0.2,0.2-0.3,0.3
		c-1.2,0-3.4-0.4-3,1.7c-0.7,0.2-1.4,0.2-2,0.2c-4.3-0.1-6.4,4.3-5.9,12.8c0.1,1.9-1.2,6,1.7,8.5c0,3.1,1.2,6.4,1.1,9.4
		c-0.1,3.7,1.5,5.4,3,7.2"/>
	<path class="st11" d="M543.1-10c-0.6-2-1.1-4-2.1-5.8"/>
	<path class="st11" d="M540.7-9.5c-0.4-3.3,1-7.2-0.1-10.4c-1.2-3.3,0.8-10.3-3-11.3"/>
	<path class="st11" d="M541.8-29.8c1.2,4.2,0.3,5.7-1.4,9.1"/>
	<path class="st11" d="M540.9-21.8c1.6,5.2,3.9,7.2,5.2,10"/>
	<path class="st11" d="M550.4-24.2c-5.6-1.3-10.4-10.8-16.2-5.3c-1.5,1.5-2,3.1-2,4.9"/>
	<path class="st11" d="M534.2-29.5c0.1-1.6,0.9-3.1,0.8-4.7"/>
	<path class="st11" d="M538.4-31.2c2.1-1.2,4.2-2.5,5.6-4.5"/>
	<path class="st11" d="M544.4-32.1c-1.7,0.8-3.6-0.1-5.3,0.5"/>
	<path class="st11" d="M535-30.1c5.9-6.3,1.8-13.8,9.2-16.7c1.7-0.7,4-1.1,7.2-1.2"/>
	<path class="st11" d="M536.1-41.7c0.2-1.6,1.1-2.8,2.3-3.8c1.9-0.4,3.9-1.1,5.6-1.3"/>
</g>
</svg>
