<?xml version="1.0" encoding="utf-8"?>
<!-- Generator: Adobe Illustrator 19.0.1, SVG Export Plug-In . SVG Version: 6.00 Build 0)  -->
<svg version="1.1" xmlns="http://www.w3.org/2000/svg" xmlns:xlink="http://www.w3.org/1999/xlink" x="0px" y="0px"
	 viewBox="0 0 625.5 293.1" style="enable-background:new 0 0 625.5 293.1;" xml:space="preserve">
<style type="text/css">
	.st0{display:none;}
	.st1{display:inline;fill:none;stroke:#BCBA40;stroke-width:4;stroke-linecap:round;stroke-linejoin:round;stroke-miterlimit:10;}
	.st2{display:inline;}
	.st3{fill:none;stroke:#BCBA40;stroke-width:4;stroke-linecap:round;stroke-linejoin:round;stroke-miterlimit:10;}
	.st4{fill:none;}
	.st5{fill:#FFFFFF;}
	.st6{font-family:'HelveticaNeue-Medium';}
	.st7{font-size:36px;}
	.st8{fill:none;stroke:#BCBA40;stroke-width:4;stroke-linecap:round;stroke-miterlimit:10;stroke-dasharray:12.0321,12.0321;}
	.st9{fill:none;stroke:#BCBA40;}
	.st10{fill:#444444;stroke:#BCBA40;}
	.st11{fill:#444444;}
	.st12{fill:none;stroke:#BCBA40;stroke-miterlimit:10;}
</style>
<g id="Layer_1">
	<g>
		<g class="st0">
			<path class="st1" d="M242.5,105c0.7-0.8,47.6-14.8,47.6-14.8l48.9,16.2"/>
			<line class="st1" x1="289.8" y1="52.9" x2="242" y2="104.6"/>
			<line class="st1" x1="290.2" y1="53.2" x2="287.6" y2="27.3"/>
			<path class="st1" d="M241.5,39.9c3.1-2.1,46.1-12.6,46.1-12.6L339,39.9l-48.7,13.6L241.5,39.9z"/>
			<polyline class="st1" points="339,39.9 339,106.3 290.2,120.6 290.2,53.5 			"/>
			<polyline class="st1" points="241.5,39.9 241.5,104.9 290.2,120.6 			"/>
			<g class="st2">
				<path class="st3" d="M284.3,178.1c0.7-0.8,47.6-14.8,47.6-14.8l48.9,16.2"/>
				<line class="st3" x1="331.5" y1="125.9" x2="283.7" y2="177.6"/>
				<line class="st3" x1="332" y1="126.3" x2="329.4" y2="100.4"/>
				<path class="st3" d="M283.3,112.9c3.1-2.1,46.1-12.6,46.1-12.6l51.3,12.6L332,126.6L283.3,112.9z"/>
				<polyline class="st3" points="380.7,112.9 380.7,179.3 332,193.6 332,126.6 				"/>
				<polyline class="st3" points="283.3,112.9 283.3,177.9 332,193.6 				"/>
			</g>
			<g class="st2">
				<path class="st3" d="M193.8,167.9c0.7-0.8,47.6-14.8,47.6-14.8l48.9,16.2"/>
				<line class="st3" x1="241" y1="115.8" x2="193.2" y2="167.5"/>
				<line class="st3" x1="241.5" y1="116.2" x2="238.9" y2="90.2"/>
				<path class="st3" d="M192.8,102.8c3.1-2.1,46.1-12.6,46.1-12.6l51.3,12.6l-48.7,13.6L192.8,102.8z"/>
				<polyline class="st3" points="290.2,102.8 290.2,169.2 241.5,183.5 241.5,116.4 				"/>
				<polyline class="st3" points="192.8,102.8 192.8,167.8 241.5,183.5 				"/>
			</g>
		</g>
		<rect x="183.6" y="215.1" class="st4" width="210.6" height="39"/>
		<text transform="matrix(1 0 0 1 183.6238 240.7939)" class="st5 st6 st7">Module 204</text>
		<g>
			<path class="st8" d="M584,268H33.5c-6.6,0-12-5.4-12-12v-230c0-6.6,5.4-12,12-12H584c6.6,0,12,5.4,12,12v230
				C596,262.6,590.6,268,584,268z"/>
		</g>
	</g>
</g>
<g id="Knee">
	<polyline class="st9" points="345.4,67.4 342.2,67.8 339,68.2 335.8,68.5 332.4,68.7 329.3,68.8 326.2,68.8 316.2,69.4 309.6,70.9 
		305.8,73.4 304.3,76.4 304.6,79.7 306.3,83.2 308.9,87 312,90.2 315.1,94.7 317.2,99.8 318.2,105.6 318.4,111.5 318,117.5 
		317,123.3 315.8,128.9 314.4,133.7 312.1,141.4 310.5,147.2 309.5,152.3 308.5,157.9 307.7,162.9 307.5,166.8 308.1,170.5 
		310,175.2 311.1,178.2 312,181.3 312.4,184.2 312,187.1 310.7,189.6 308,191.7 303.9,193.2 298.1,194 292.7,194.7 287.3,196 
		281.9,197.7 277.1,199.5 272.9,201.4 269.8,202.9 267.5,204 266.8,204.5 263.8,205.6 261,205.7 259.1,205.4 258.3,205.2 
		256.6,205.8 254.7,205.7 253.3,205.4 252.6,205.2 251.8,205.2 251.1,204.7 250.8,204.2 250.6,203.9 248.6,204.3 247.2,203.9 
		246.4,203.1 246.6,202.1 244.3,202.2 243,201.1 242.4,199.7 242.5,198.8 240.2,198.4 238.2,197.1 237.3,195.5 237.2,194.3 
		236.7,193.5 237.5,192.6 239.3,191.8 242.2,191.5 242.6,191 243.1,190.6 243.8,190.2 244.8,189.9 245.9,189.5 247.4,189.2 
		249.5,188.9 251.8,188.5 254.7,187.8 257.9,186.8 261.4,185.4 265,183.5 268.7,181.2 272.3,178.4 276,174.9 279.4,170.9 
		281.9,166.3 283.1,161.3 283.3,155.9 282.8,150.5 281.8,145.2 280.4,140.3 279.1,135.8 278.1,131.9 275.8,124.3 273.3,116.1 
		271.2,108.4 270.3,102.3 269.9,98.2 269.1,95.3 268.2,93 267.1,91.1 266,87.5 265.9,84.7 265.9,83.4 265.4,82 264.7,80.5 263.7,79 
		262.3,77.1 261.1,74.5 260.3,71.2 260.1,66.9 260.4,64.6 261,62.3 261.9,60.1 263.2,58 264.8,55.9 266.9,54.1 269.2,52.4 272,50.9 
		274.8,49.5 277.3,48.1 279.7,46.7 282,45.4 284.3,44.1 286.6,42.7 289.1,41.2 291.9,39.6 293.3,38.7 295.2,37.8 297.3,36.7 
		299.6,35.5 302.1,34.3 304.9,33.1 307.7,31.8 	"/>
</g>
<g id="Layer_4" class="st0">
	<g class="st2">
		<g>
			<polyline class="st10" points="291.8,80 292.1,85.4 290.9,98.3 294.7,124.9 292.9,139.3 293.9,154.9 295.7,164.9 296,172.6 
				294.9,175.7 292.8,176.1 289.7,173.1 288.5,170.3 290,155.2 289.8,147.5 289.9,142.3 288.5,132.4 286,115.7 281.9,98.4 
				280.5,85.1 278.6,80.2 274.1,72.6 273.6,67.8 275.6,63.9 277.6,62.3 279.7,64.3 279.1,65.8 			"/>
			<polyline class="st10" points="279.1,65.8 278.9,68.7 280.5,71.6 283.2,73.2 			"/>
			<polyline class="st10" points="280.8,102.7 278.9,107.7 278.8,112.9 280,116.9 279.6,121.4 280.3,126.9 280.3,133.3 282,143.3 
				282.1,152.7 286.4,161.3 287.7,162.4 286.9,172 287.5,174 287.3,174.5 286.1,174 282.4,169.1 280.5,163.1 276.9,147.8 
				275.7,141.5 275.5,129.9 276.6,120.9 276.3,115.5 272.9,101.3 270.9,93 271.9,84.6 274.6,78.6 275.5,78.5 278.7,86.1 
				280.8,102.7 			"/>
			<polyline class="st10" points="285.8,123.8 288.3,144.4 288.2,156.4 288.1,159.1 285,155 283.8,145.9 282.9,137.3 281.8,131.5 
				281.8,120.6 280,109 281.4,104.6 283.6,114.7 285.8,123.8 			"/>
			<path class="st10" d="M345.8,38.8l0.5,1.5l3.3,1.8l1.3,0.1l0.2,1.2l-0.8,1.7l-3.3,0.9l-2.5-1l-1.4-1.5l-2.2-0.1l-4.5,0.7
				l-8.9,4.8l-5.3,1.9l-8.2,4.2l-8,5.2l-5,1.4l-3.7,1.3l-6.1,4.5l-6.1,6.1l-1,0.3c0,0-0.5-0.3-1.1-0.3c-8.9-0.6-7-10.1-7-10.1
				l0.7-1.2l2.3-0.7l2.9,0.3l1.3-0.4l3.1,0.1l8.6-1.2l8.7-3.9l8.3-4.4l12.1-7.9l7.9-4.2l3.4-3.4l5.3-2.5l0.6-0.1l1.9,1.3L345.8,38.8
				"/>
		</g>
	</g>
	<g id="Layer_5" class="st2">
		<ellipse class="st11" cx="283.8" cy="67.3" rx="4.5" ry="4.6"/>
	</g>
</g>
<g id="Layer_6">
	<g>
		<g>
			<polyline class="st10" points="286.7,76.5 289.1,75.7 289.8,75.5 290.9,77.9 288.8,79.2 287.5,80.3 286.8,81.9 287.8,86.2 
				288.5,86.9 287.3,94 287.1,102.3 287.4,105.9 289.5,115.3 290.8,118.8 293.2,129.3 295,133.2 296.1,142.8 295.3,147.3 294.2,149 
				291.5,150.1 291,147.7 291.2,144 290.6,139 290,134 288.2,128.5 285,118.4 281.3,105.6 280,96.2 278.1,92.9 277.2,92.1 276.2,88 
				276.7,84.2 278.1,79.1 278.7,78.1 279.3,77.4 285.5,76.2 286.7,76.5 			"/>
			<g>
				<polyline class="st10" points="296.2,78.1 296.6,82.6 295.8,90.1 296.6,102.8 298,111.8 298.3,116.1 300.2,124.3 300,128.6 
					300.8,142 301.6,149.4 302,153.6 301.9,154.8 300.3,156.3 299.5,156.5 296.7,153.9 294.2,149.9 295.8,147.5 296.9,142.6 
					296.3,134.4 297.2,132.7 297.2,126.1 296.4,119.9 294.4,111.2 293.4,101.3 293.6,98.1 292.7,93.1 292.8,90.8 291.8,87.8 
					290.2,85.8 290,85.1 288.6,83.3 288.6,81.6 289.1,80.1 290.9,78.2 292.3,77.3 295.3,76.9 296.2,78.1 				"/>
			</g>
		</g>
		<path class="st12" d="M300.5,64.8c-7.2,1.5-10.4,4.1-10.4,4.1c-1.2,0.6-0.4,2.9-0.4,2.9c-0.1,1.5-2.2,2.7-2.2,2.7
			c-4,1.5-6-0.7-6-0.7c-9-8-0.7-15.1-0.7-15.1c1.8-2.1,6.8-0.5,6.8-0.5s9.2-3.1,13.9-2.6"/>
		<path class="st12" d="M274.7,63l0,4.9c-0.4,0.3,0.7,3.2,0.7,3.2c0.5,1.4,0.4,2.8,0.4,2.8c-0.6,3.1-3.6,4.1-3.6,4.1
			c-1.9-0.2-3.2-3.1-3.2-3.1c-4.1-9.9-0.8-13.4-0.8-13.4c2.3-2.4,5.8-1.7,6.1-1.4C274.2,60.1,275,62.6,274.7,63z"/>
	</g>
</g>
<g id="Layer_7">
</g>
</svg>
