<?xml version="1.0" encoding="utf-8"?>
<!-- Generator: Adobe Illustrator 19.0.1, SVG Export Plug-In . SVG Version: 6.00 Build 0)  -->
<svg version="1.1" xmlns="http://www.w3.org/2000/svg" xmlns:xlink="http://www.w3.org/1999/xlink" x="0px" y="0px"
	 viewBox="0 0 625.5 293.1" style="enable-background:new 0 0 625.5 293.1;" xml:space="preserve">
<style type="text/css">
	.st0{display:none;}
	.st1{display:inline;fill:none;stroke:#BCBA40;stroke-width:4;stroke-linecap:round;stroke-linejoin:round;stroke-miterlimit:10;}
	.st2{display:inline;}
	.st3{fill:none;stroke:#BCBA40;stroke-width:4;stroke-linecap:round;stroke-linejoin:round;stroke-miterlimit:10;}
	.st4{fill:none;}
	.st5{fill:#FFFFFF;}
	.st6{font-family:'HelveticaNeue-Medium';}
	.st7{font-size:36px;}
	.st8{fill:none;stroke:#BCBA40;stroke-width:4;stroke-linecap:round;stroke-miterlimit:10;stroke-dasharray:12.0321,12.0321;}
	.st9{fill:none;stroke:#BCBA40;stroke-width:0.5;}
	.st10{fill:#444444;stroke:#BCBA40;stroke-miterlimit:10;}
	.st11{fill:none;stroke:#BCBA40;stroke-miterlimit:10;}
	.st12{fill:#444444;stroke:#BCBA40;}
</style>
<g id="Layer_1">
	<g>
		<g class="st0">
			<path class="st1" d="M242.5,105c0.7-0.8,47.6-14.8,47.6-14.8l48.9,16.2"/>
			<line class="st1" x1="289.8" y1="52.9" x2="242" y2="104.6"/>
			<line class="st1" x1="290.2" y1="53.2" x2="287.6" y2="27.3"/>
			<path class="st1" d="M241.5,39.9c3.1-2.1,46.1-12.6,46.1-12.6L339,39.9l-48.7,13.6L241.5,39.9z"/>
			<polyline class="st1" points="339,39.9 339,106.3 290.2,120.6 290.2,53.5 			"/>
			<polyline class="st1" points="241.5,39.9 241.5,104.9 290.2,120.6 			"/>
			<g class="st2">
				<path class="st3" d="M284.3,178.1c0.7-0.8,47.6-14.8,47.6-14.8l48.9,16.2"/>
				<line class="st3" x1="331.5" y1="125.9" x2="283.7" y2="177.6"/>
				<line class="st3" x1="332" y1="126.3" x2="329.4" y2="100.4"/>
				<path class="st3" d="M283.3,112.9c3.1-2.1,46.1-12.6,46.1-12.6l51.3,12.6L332,126.6L283.3,112.9z"/>
				<polyline class="st3" points="380.7,112.9 380.7,179.3 332,193.6 332,126.6 				"/>
				<polyline class="st3" points="283.3,112.9 283.3,177.9 332,193.6 				"/>
			</g>
			<g class="st2">
				<path class="st3" d="M193.8,167.9c0.7-0.8,47.6-14.8,47.6-14.8l48.9,16.2"/>
				<line class="st3" x1="241" y1="115.8" x2="193.2" y2="167.5"/>
				<line class="st3" x1="241.5" y1="116.2" x2="238.9" y2="90.2"/>
				<path class="st3" d="M192.8,102.8c3.1-2.1,46.1-12.6,46.1-12.6l51.3,12.6l-48.7,13.6L192.8,102.8z"/>
				<polyline class="st3" points="290.2,102.8 290.2,169.2 241.5,183.5 241.5,116.4 				"/>
				<polyline class="st3" points="192.8,102.8 192.8,167.8 241.5,183.5 				"/>
			</g>
		</g>
		<rect x="183.6" y="215.1" class="st4" width="210.6" height="39"/>
		<text transform="matrix(1 0 0 1 183.6238 240.7939)" class="st5 st6 st7">Module 103</text>
		<g>
			<path class="st8" d="M584,268H33.5c-6.6,0-12-5.4-12-12v-230c0-6.6,5.4-12,12-12H584c6.6,0,12,5.4,12,12v230
				C596,262.6,590.6,268,584,268z"/>
		</g>
	</g>
</g>
<g id="Layer_2">
	<g>
		<path class="st9" d="M363.5,168.6"/>
		<path class="st9" d="M214.7,168.6c0.8,1.5,1.7,3.1,2.4,4.7"/>
		<path class="st9" d="M344.7,167.2c-0.6-2.3-1-5.2-0.8-9.5c0-1.4-1.5-25.5,4.4-33.4"/>
		<path class="st9" d="M361.2,169.6c2-12.9,0.5-29.4-0.3-39.1c-4.1-2.2-8.2-4.6-12.5-6.2c-2.3,0.4-4.2,0.9-6,1.6
			c-2.9,1.1-5.6,2.4-8.4,3.7c-6,2.7-12.8,4.8-25.6,3.5c-7.3-0.8-18.1-8.5-17.7-16.7l1-24.8c0.3-5.8,1.3-9,3.8-10.9
			c6.5-4.7,16.8-4.6,24.6-1.6c19.1,7.1,20.1,40.2,40.8,51.4"/>
		<path class="st9" d="M330,131.3c-3,2.8-1.1,6.3,1.8,4.9c-2.2,2.5-0.9,5.4,2.4,4.4c-2.7,2.7-0.6,6,2.2,5.3
			c-2.3,2.7-0.4,5.6,1.9,3.9"/>
		<path class="st9" d="M338.4,155.1c-0.8-9.9,0-20.1,3.9-29.1"/>
		<path class="st9" d="M338.2,145.2c-0.1-5.2-1.6-11.1-4.2-15.6"/>
		<path class="st9" d="M319.6,133.4c5.8,12.4,2.6,25.7-0.2,38.9"/>
		<path class="st9" d="M300.8,169.3c-3.5-2.7-10.1-4.3-10.1-10.8c0-2.7-1.8-15.3,2.7-13.4c4.2,1.8,11.7,3.5,11.8,9.8
			C305.1,158.1,307.8,171.2,300.8,169.3"/>
		<path class="st9" d="M306.3,144.4c-0.9,1.6-4.4,0.6-6.7-0.4c-1.6-0.6-8.2-2.8-8.5-6.5c-0.4-4.3-1.9-10.1,2.4-13.3"/>
		<path class="st9" d="M271.8,173.4c-0.7-6.7-1.8-13.3-1-20.1c0.9-6.6,2.4-14.2-1-20.1"/>
		<path class="st9" d="M308.4,133.2c-3.4,6-2,13.6-1,20.1c0.9,7.1-0.3,14-1.1,21.1"/>
		<path class="st9" d="M284.6,124.3c4.3,3.2,2.9,9,2.5,13.3c-0.4,3.7-7,5.8-8.5,6.5c-2.3,1-5.8,2-6.8,0.4"/>
		<path class="st9" d="M277.3,169.3c-6.8,1.9-4.2-11.1-4.2-14.4c0.1-6.2,7.5-8,11.8-9.8c4.4-1.9,2.7,10.8,2.7,13.4
			C287.5,165,280.9,166.6,277.3,169.3"/>
		<path class="st9" d="M258.6,171.3c-2.8-12.8-5.7-25.8-0.1-37.9"/>
		<path class="st9" d="M248.1,131.3c3,2.8,1.3,6.3-1.8,4.9c2.2,2.5,0.9,5.4-2.4,4.4c2.7,2.7,0.6,6-2,5.3c2.2,2.7,0.3,5.6-1.9,3.9"/>
		<path class="st9" d="M239.9,145.2c0.1-5.2,1.6-11.1,4.2-15.6"/>
		<path class="st9" d="M235.8,126c3.9,9,4.7,19.3,3.9,29.1"/>
		<path class="st9" d="M233.6,167.2c3.4,1.3,3.8,5.2,2.7,8.4"/>
		<path class="st9" d="M237.7,169.7c-0.3,1.6-0.6,2.9-0.9,4"/>
		<path class="st9" d="M232,171.3c0.5-1.1,1-2.4,1.5-4.1c0.6-2.3,0.9-5.2,0.8-9.5c-0.1-1.4,1.4-25.5-4.6-33.4"/>
		<path class="st9" d="M217.3,171.3c-2.4-13.1-0.9-30.7-0.1-40.8C238,119.2,239,86.2,258,79.1c7.9-2.9,18.1-3,24.7,1.6
			c2.5,1.9,3.5,5.1,3.8,10.9l1,24.8c0.3,8.2-10.5,16-17.7,16.7c-12.8,1.3-19.6-0.9-25.7-3.5c-2.7-1.3-5.3-2.5-8.2-3.7
			c-1.9-0.8-3.8-1.3-6.1-1.6"/>
		<path class="st9" d="M219,177.8c-0.7-2-1.3-4.1-1.7-6.4"/>
		<path class="st9" d="M282.7,80.7c1.6-1.9,1.5-3.2,0-4.2c-0.3-0.1-0.5-0.4-0.9-0.5c-1.4-0.8-3.4-1.1-4.9-1.4
			c-0.4-0.1-0.8-0.1-1.1-0.3c-1.6-0.4-3.3-0.6-4.9-0.9c-3.4-0.4-6.6-0.4-9.9-0.4c-7.2,0.3-14.3,1-21.4-0.3c-0.6-0.1-1.3-0.1-1.9-0.1
			"/>
		<path class="st9" d="M281.4,82.3"/>
		<path class="st9" d="M217.2,130.5c4.1-2.2,8.4-4.6,12.5-6.2c0.8-0.3,1.6-0.7,2.5-1.1"/>
		<path class="st9" d="M234.3,74.9c2.7,2.9,6.3,2.2,10.1,1.5c7.3-1.3,8.4,0,13.6,2.7"/>
		<path class="st9" d="M244.5,76.4c-16.5,20.4-0.4,24.1-27.2,54.1"/>
		<path class="st9" d="M295.5,80.7c-1.6-1.9-1.6-3.2-0.1-4.2c0.3-0.1,0.5-0.4,0.9-0.5c1.5-0.8,3.5-1.1,5.1-1.4
			c0.4-0.1,0.8-0.1,1-0.3c1.8-0.4,3.4-0.6,5.1-0.9c3.3-0.4,6.6-0.4,9.9-0.4c7.2,0.3,14.2,1,21.4-0.3c0.6-0.1,1.3-0.1,1.8-0.1"/>
		<path class="st9" d="M343.9,74.9c-2.8,2.9-6.5,2.2-10.1,1.5c-7.3-1.3-8.4,0-13.7,2.7"/>
		<path class="st9" d="M333.8,76.4c16.3,20.4,0.4,24.1,27.1,54.1"/>
		<path class="st9" d="M317.3,73.1c-2.2-6-6.6-10.9-12.4-13.3"/>
		<path class="st9" d="M307.4,73.5c-0.5-3.7-4.6-13.2-1.4-21.3"/>
		<path class="st9" d="M302.1,62.1c0.8,2.4-1.1,4.9-2.9,7.2c-1.9,2.4-3.7,4.7-2.9,6.7"/>
		<path class="st9" d="M301.3,74.7c-1.6-1.3-1.6-3.5-2.2-5.3"/>
		<path class="st9" d="M282.7,76.6c5.7,0.9,5.4-2.7,5.1-23.1"/>
		<path class="st9" d="M295.4,76.6c-5.6,0.9-5.3-2.7-4.9-23.1"/>
		<path class="st9" d="M294.1,53c3.3,4.4-2.2,9.9,1,14.3"/>
		<path class="st9" d="M300.6,48c-0.4,5.3-6.7,27.4-11.5,27.4c-4.7,0-11-22-11.4-27.4"/>
		<path class="st9" d="M284.1,53c-3.4,4.4,2,9.9-1,14.3"/>
		<path class="st9" d="M276,62.1c-0.6,2.4,1.1,4.9,2.9,7.2c1.9,2.4,3.8,4.7,2.9,6.7"/>
		<path class="st9" d="M278.9,69.3c-0.4,1.8-0.5,4.1-2,5.3"/>
		<path class="st9" d="M260.9,73.1c2-6,6.5-10.9,12.4-13.3"/>
		<path class="st9" d="M272.1,52.2c3.3,8.1-0.9,17.6-1.3,21.3"/>
		<path class="st9" d="M270.7,40.2c1.3,2,3.3,4.2,7,7.9c5.4,5.4,6.7,5.4,11.4,5.4c4.8,0,6.1,0,11.5-5.4c3.7-3.7,5.7-5.8,6.8-7.9"/>
		<path class="st9" d="M212.9,171.3c0.5-1,1.1-1.9,1.8-2.8c-1.9-3.2-3.1-6.7-3.6-10.4"/>
		<path class="st9" d="M232.2,123.3c-0.8,0.4-1.6,0.7-2.4,1c6.1,8,4.4,32,4.6,33.3c0.1,4.4-0.1,7.3-0.8,9.5c1.9,0.8,2.9,2.4,3.2,4.2
			"/>
		<path class="st9" d="M232.2,123.3"/>
		<path class="st9" d="M211.1,158.1c-1.5-9.5,1.1-20,6.3-27.6c26.7-30.1,10.6-33.7,27.1-54.1c7.3-1.3,8.4,0,13.6,2.7
			c7.9-2.9,18.2-3,24.7,1.6"/>
		<path class="st9" d="M277.3,169.3c-6.8,1.8-4.2-11.1-4.2-14.4c0.1-6.3,7.5-8,11.8-9.8c4.4-2,2.7,10.8,2.7,13.3
			C287.5,165,280.9,166.6,277.3,169.3z"/>
		<path class="st9" d="M271.8,144.4c0.3-4.1,0-7.9-2-11.3c4.8-0.5,11.1-4.1,14.8-8.9c4.3,3.2,2.9,9,2.5,13.2c-0.4,3.8-7,5.8-8.5,6.6
			C276.4,145.1,272.8,146,271.8,144.4z"/>
		<path class="st9" d="M306.3,144.4c-0.9,1.5-4.4,0.6-6.7-0.4c-1.6-0.8-8.2-2.8-8.5-6.6c-0.4-4.2-1.9-10,2.4-13.2
			c3.7,4.8,10,8.4,14.9,8.9C306.4,136.6,306,140.4,306.3,144.4z"/>
		<path class="st9" d="M293.4,145.1c4.2,1.8,11.7,3.4,11.8,9.8c0,3.3,2.7,16.2-4.3,14.4c-3.5-2.7-10.1-4.3-10.1-10.9
			C290.7,155.8,288.9,143.1,293.4,145.1z"/>
		<path class="st9" d="M295.7,80.9c-0.1-0.1-0.1-0.1-0.2-0.2c6.5-4.7,16.8-4.6,24.6-1.6c5.3-2.7,6.3-3.9,13.7-2.7
			c16.3,20.4,0.4,23.9,27.1,54.1c5.2,7.6,7.7,18,6.3,27.4"/>
		<path class="st9" d="M343.9,157.6c0-1.3-1.5-25.3,4.4-33.3c-0.3-0.1-0.7-0.3-1-0.4"/>
		<path class="st9" d="M233.6,167.1c-0.3,1.1-0.7,2.1-1,2.9"/>
		<path class="st9" d="M215.1,169.3c-0.1-0.3-0.3-0.5-0.4-0.7"/>
		<path class="st9" d="M216.2,171.3c-0.4-0.7-0.7-1.4-1.1-2.1"/>
		<path class="st9" d="M217.1,170.1c-2.1-13-0.6-29.7,0.3-39.5c4.1-2.2,8.2-4.6,12.4-6.2"/>
		<path class="st9" d="M217.3,171.3c-0.1-0.4-0.2-0.9-0.2-1.3"/>
		<path class="st9" d="M217.4,130.5C238,119.2,239,86.2,258,79.1"/>
		<path class="st9" d="M320.1,79.1c19.1,7.1,20,40.2,40.8,51.4c-4.1-2.2-8.4-4.6-12.5-6.2"/>
		<path class="st9" d="M360.9,130.5c0.8,9.7,2.2,26.1,0.3,39"/>
		<path class="st9" d="M363.5,168.5c-0.3,0.5-0.6,1-0.9,1.5"/>
		<path class="st9" d="M345.1,168.5c-0.1-0.4-0.3-0.9-0.4-1.4"/>
		<path class="st9" d="M242,171.3c-1.4-5.5-2.5-11-2.2-16.1c0.3-1.8,0.3-3.5,0.3-5.2c2.3,1.5,4.2-1.4,1.9-3.9
			c2.8,0.6,4.8-2.7,2.2-5.3c3.3,1,4.6-1.9,2.4-4.6c2.9,1.5,4.8-2,1.8-4.8c5.1,1.8,11.5,2.9,21.5,1.9c3.5,6,2,13.6,1,20.1
			c-0.8,6,0,11.9,0.7,17.9"/>
		<path class="st9" d="M270.8,73.6c0.5-3.7,4.6-13.3,1.4-21.3c-1.5-3.8-1.5-8-1.4-12c1.1,2,3.2,4.2,6.8,7.7
			c4.9,4.9,6.5,5.4,10.3,5.6c0.3,20.4,0.5,23.9-5.1,23.1c-0.3-0.3-0.5-0.4-0.9-0.5c0.9-2-1-4.3-2.9-6.7c-0.5,1.6-0.5,4.1-2,5.3
			c-0.5-0.1-0.9-0.3-1.1-0.3C274.1,74.1,272.5,73.8,270.8,73.6z"/>
		<path class="st9" d="M307.4,73.6c-1.6,0.1-3.3,0.5-4.9,0.9c-0.4,0-0.8,0.1-1.1,0.3c-1.5-1.3-1.6-3.7-2-5.3
			c-1.9,2.4-3.8,4.7-2.9,6.7c-0.4,0.1-0.6,0.3-0.9,0.5c-5.7,0.9-5.4-2.7-5.1-23.1c3.7-0.1,5.2-0.6,10.3-5.6c3.5-3.5,5.6-5.7,6.8-7.7
			c0,4.1,0,8.2-1.4,12C302.9,60.3,307,70,307.4,73.6z"/>
		<path class="st9" d="M306.7,171.3c0.7-5.9,1.5-11.9,0.7-17.9c-0.9-6.6-2.4-14.2,1-20.1c10,1,16.5-0.1,21.7-1.9
			c-3,2.8-1.3,6.3,1.8,4.8c-2.2,2.7-0.9,5.6,2.4,4.6c-2.7,2.7-0.6,6,2,5.3c-2.2,2.5-0.3,5.4,1.9,3.9c0,1.6,0.1,3.4,0.3,5.2
			c0.3,5.1-0.8,10.7-2.1,16.1"/>
		<path class="st9" d="M319.7,170.8c2.7-12.6,5.5-25.4,0-37.2"/>
		<path class="st9" d="M302.2,62.2c0.6,2.4-1.1,4.8-2.9,7.2"/>
		<path class="st9" d="M295.1,67.4c-3-4.4,2.4-10-1-14.3"/>
		<path class="st9" d="M300.7,48c-0.5,5.3-6.8,27.5-11.5,27.5c-4.8,0-11.1-22.2-11.5-27.5"/>
		<path class="st9" d="M276.1,62.2c-0.8,2.4,1.1,4.8,2.9,7.2"/>
		<path class="st9" d="M283.2,67.4c3-4.4-2.4-10,0.9-14.3"/>
		<path class="st9" d="M258.7,171.3c0.3,1.2,0.5,2.5,0.8,3.7"/>
		<path class="st9" d="M258.6,133.6c-5.6,12.1-2.7,25,0,37.8"/>
		<path class="st9" d="M236.4,170.1c-0.5-1.2-1.4-2.2-2.8-2.7c0.6-2.2,0.9-5.2,0.8-9.5c-0.1-1.4,1.4-25.5-4.6-33.4
			c2.3,0.4,4.2,1,6.1,1.6c4.2,9.6,4.7,20.7,3.7,31.3"/>
		<path class="st9" d="M237.8,169.7c-0.1,0.6-0.2,1.1-0.3,1.7"/>
		<path class="st9" d="M239.6,157.4c-0.3,3.5-0.8,7-1.4,10.4c-0.1,0.7-0.2,1.3-0.3,1.9"/>
		<path class="st9" d="M338.8,159.7c-0.1-0.6-0.1-1.2-0.2-1.8"/>
		<path class="st9" d="M340.7,171.3c-0.2-1.1-0.5-2.3-0.8-3.6c-0.5-2.6-0.9-5.3-1.2-8.1"/>
		<path class="st9" d="M341,172.4c-0.1-0.3-0.1-0.7-0.2-1.1"/>
		<path class="st9" d="M338.6,157.9c-1-10.8-0.5-22,3.8-31.8c1.8-0.6,3.8-1.3,6-1.6c-6,8-4.4,32-4.4,33.4c-0.3,4.3,0.1,7.3,0.8,9.5
			c-1.9,0.7-2.9,2.2-3.2,4"/>
		<path class="st9" d="M282.7,80.7c2.5,1.8,3.5,4.9,3.8,10.9l1,24.8c0.3,8.2-10.5,16-17.7,16.7c-12.8,1.3-19.6-0.9-25.7-3.5
			c-2.5,4.4-4.1,10.4-4.2,15.6c-0.3-6.7-1.5-13.3-4.1-19.3c-1.9-0.8-3.8-1.3-6.1-1.6c0.4-0.2,0.8-0.3,1.2-0.5"/>
		<path class="st9" d="M348.1,124.1c0.1,0.1,0.3,0.1,0.4,0.2c-2.3,0.4-4.3,0.9-6.1,1.6c-2.7,6-3.8,12.5-4.2,19.3
			c0-5.2-1.6-11.1-4.2-15.6c-6,2.7-12.8,4.8-25.6,3.5c-7.3-0.8-18.1-8.5-17.7-16.7l1-24.8c0.3-6,1.3-9.1,3.8-10.9
			c0.1,0.1,0.1,0.1,0.2,0.2"/>
		<path class="st9" d="M342.4,126c-2.9,1-5.6,2.4-8.4,3.7"/>
		<path class="st9" d="M235.8,126c2.9,1,5.6,2.4,8.2,3.7"/>
		<path class="st9" d="M217.4,130.5c-11.1-13,2.8-27.1,4.7-40.5c0.9-6.5,5.3-13.7,12.3-15.1c2.7,2.8,6.3,2.2,10.1,1.5
			C228,96.8,244.1,100.4,217.4,130.5z"/>
		<path class="st9" d="M360.7,130.5C334,100.4,350,96.8,333.6,76.4c3.7,0.6,7.3,1.3,10.1-1.5c6.8,1.4,11.3,8.6,12.3,15.1
			C358,103.4,371.9,117.5,360.7,130.5z"/>
	</g>
	<g>
		<path class="st10" d="M288.9,92.5c0.2,2.2,0.2,3.9-0.1,4.3c-2.5-4.1-2.2-8.9-2.6-13.4c-0.4-3.1-0.6-5.9-6-5.3
			c-6.9,0.7-8.7,7.4-13,10.9c-4.6,3.7-8.1,8.5-9.6,13.8c-1,3.4-4.6,7.6-3.6,10c-2.6,2.7-2.7,11.7-1.9,13.5
			c-1.9,5.8-0.5,12.2-0.8,18.2c-0.2,1.1,0.4,6.6,3.3,4l0,0c3.8-3.5,8.4-5.9,13.5-7.7c3.6,0.8,8.1,0.1,11.8-1.1
			c10.6-4.2,12-11.9,10.3-18c1.4-5.8,2.2-12.5,0.9-18.3l2.6-3.4l2.6,0.8c-1,3,0.1,6.3,1.5,9.1c1.4,2.7,0.5,5.8,1.5,8.6
			c-1.9,2.7-1.8,5.8-1.9,8.8c-0.7,12.9,7.6,14.2,19,15.6c3.5,0.6,9.8,1.7,10.6,2.5c2.2,2.3,7.1,2,8.2-1.6c2.5-8.8,0.4-19.4-3.4-27.9
			c-2.8-11.3-9.9-22.2-17.4-31.5c-5.2-5.8-14-12.8-17.1-1.2c-1.1,4.2,1.1,8.1,0.2,12.2c-0.5-0.3-0.9-1.9-1.2-4L288.9,92.5z"/>
		<g>
			<g>
				
					<ellipse transform="matrix(0.8932 0.4497 -0.4497 0.8932 72.2569 -114.1008)" class="st11" cx="276.3" cy="95" rx="0.8" ry="0.9"/>
				<path class="st11" d="M276.4,95.9l2.7,2.2c2.4,1.5,5.3,1.2,6.4-0.6c1-1.7,0.1-4.2-2.1-5.7l-3.8-3.7"/>
				
					<ellipse transform="matrix(0.8932 0.4497 -0.4497 0.8932 71.4772 -114.0886)" class="st11" cx="275.9" cy="93.4" rx="0.8" ry="0.9"/>
				
					<ellipse transform="matrix(0.8931 0.4498 -0.4498 0.8931 70.8283 -113.8666)" class="st11" cx="275" cy="92.1" rx="0.8" ry="0.9"/>
				
					<ellipse transform="matrix(0.8932 0.4497 -0.4497 0.8932 70.561 -113.1158)" class="st11" cx="273.4" cy="92" rx="0.8" ry="0.9"/>
				
					<ellipse transform="matrix(0.8931 0.4498 -0.4498 0.8931 70.0886 -112.3619)" class="st11" cx="271.5" cy="91.3" rx="0.8" ry="0.9"/>
				
					<ellipse transform="matrix(0.8931 0.4498 -0.4498 0.8931 71.5331 -113.0463)" class="st11" cx="273.7" cy="94" rx="0.8" ry="0.9"/>
				
					<ellipse transform="matrix(0.8932 0.4497 -0.4497 0.8932 70.9347 -111.7866)" class="st11" cx="270.7" cy="93.4" rx="0.8" ry="0.9"/>
				
					<ellipse transform="matrix(0.8932 0.4497 -0.4497 0.8932 72.0019 -111.6666)" class="st11" cx="271.1" cy="95.7" rx="0.8" ry="0.9"/>
				
					<ellipse transform="matrix(0.8932 0.4496 -0.4496 0.8932 72.2399 -112.4125)" class="st11" cx="272.8" cy="95.9" rx="0.8" ry="0.9"/>
				
					<ellipse transform="matrix(0.8932 0.4497 -0.4497 0.8932 71.4755 -112.2019)" class="st11" cx="271.9" cy="94.3" rx="0.8" ry="0.9"/>
				
					<ellipse transform="matrix(0.8932 0.4497 -0.4497 0.8932 71.1795 -111.2245)" class="st11" cx="269.7" cy="94.2" rx="0.8" ry="0.9"/>
				
					<ellipse transform="matrix(0.8931 0.4498 -0.4498 0.8931 71.7765 -110.6482)" class="st11" cx="268.7" cy="95.7" rx="0.8" ry="0.9"/>
				
					<ellipse transform="matrix(0.8932 0.4497 -0.4497 0.8932 70.8519 -110.6622)" class="st11" cx="268.4" cy="93.8" rx="0.8" ry="0.9"/>
				
					<ellipse transform="matrix(0.8931 0.4498 -0.4498 0.8931 70.3664 -111.4911)" class="st11" cx="269.8" cy="92.3" rx="0.8" ry="0.9"/>
				
					<ellipse transform="matrix(0.8931 0.4498 -0.4498 0.8931 72.4455 -111.0228)" class="st11" cx="269.8" cy="96.9" rx="0.8" ry="0.9"/>
				
					<ellipse transform="matrix(0.8932 0.4496 -0.4496 0.8932 72.2287 -113.2154)" class="st11" cx="274.5" cy="95.5" rx="0.8" ry="0.9"/>
				<path class="st11" d="M272.7,96.8l0.7,1.3l2.7,1.2c0.9,0.2,0.7-0.6,0.7-0.6c-2-1.8-1.6-2.2-2.1-2.4"/>
				<polyline class="st11" points="270.6,97.3 271.5,98.4 273.7,99.3 269.4,99.5 268.6,99.2 				"/>
				
					<ellipse transform="matrix(0.8932 0.4497 -0.4497 0.8932 72.9022 -109.8707)" class="st11" cx="267.7" cy="98.5" rx="0.8" ry="0.9"/>
				
					<ellipse transform="matrix(0.8932 0.4497 -0.4497 0.8932 72.5373 -108.9513)" class="st11" cx="265.6" cy="98.2" rx="0.8" ry="0.9"/>
				
					<ellipse transform="matrix(0.8932 0.4497 -0.4497 0.8932 72.9654 -108.085)" class="st11" cx="264" cy="99.5" rx="0.8" ry="0.9"/>
				
					<ellipse transform="matrix(0.8931 0.4498 -0.4498 0.8931 73.4452 -109.2195)" class="st11" cx="266.5" cy="99.9" rx="0.8" ry="0.9"/>
				
					<ellipse transform="matrix(0.8931 0.4498 -0.4498 0.8931 74.1898 -108.9318)" class="st11" cx="266.3" cy="101.6" rx="0.8" ry="0.9"/>
				
					<ellipse transform="matrix(0.8931 0.4498 -0.4498 0.8931 74.2065 -109.753)" class="st11" cx="268.1" cy="101.3" rx="0.8" ry="0.9"/>
				<path class="st11" d="M270.3,102.5l2.3-1.1c0.6-0.4-0.2-0.6-0.2-0.6s-3-0.1-3.2-0.2"/>
				
					<ellipse transform="matrix(0.8931 0.4499 -0.4499 0.8931 74.2388 -107.5828)" class="st11" cx="263.4" cy="102.4" rx="0.8" ry="0.9"/>
				
					<ellipse transform="matrix(0.8931 0.4498 -0.4498 0.8931 75.1627 -108.7432)" class="st11" cx="266.4" cy="103.8" rx="0.8" ry="0.9"/>
				
					<ellipse transform="matrix(0.8932 0.4497 -0.4497 0.8932 75.1902 -107.7277)" class="st11" cx="264.3" cy="104.4" rx="0.8" ry="0.9"/>
				
					<ellipse transform="matrix(0.8932 0.4496 -0.4496 0.8932 74.5972 -108.1434)" class="st11" cx="265" cy="103" rx="0.8" ry="0.9"/>
				
					<ellipse transform="matrix(0.8932 0.4496 -0.4496 0.8932 73.6254 -108.1924)" class="st11" cx="264.6" cy="100.9" rx="0.8" ry="0.9"/>
				
					<ellipse transform="matrix(0.8932 0.4496 -0.4496 0.8932 75.2781 -109.694)" class="st11" cx="268.6" cy="103.6" rx="0.8" ry="0.9"/>
				<path class="st11" d="M273.5,107.2c5.1,0.4,8.6-1.6,8.6-1.6c5.5-3.9-0.3-4.7-0.3-4.7l-6.3-0.2c-0.6-0.1-1.1,0.5-1.1,0.5
					c-1,1.7-2.4,1.9-2.7,1.8"/>
				<path class="st11" d="M274.1,115.2c10.7-1.3,9.9-7.3,9.9-7.3c-4.7-1.7-9.5,5.4-9.5,5.4"/>
				
					<ellipse transform="matrix(0.8932 0.4496 -0.4496 0.8932 76.4897 -108.7946)" class="st11" cx="267.3" cy="106.7" rx="0.8" ry="0.9"/>
				
					<ellipse transform="matrix(0.8932 0.4497 -0.4497 0.8932 75.9458 -109.5717)" class="st11" cx="268.6" cy="105.1" rx="0.8" ry="0.9"/>
				
					<ellipse transform="matrix(0.8931 0.4498 -0.4498 0.8931 76.6184 -108.0157)" class="st11" cx="265.6" cy="107.2" rx="0.8" ry="0.9"/>
				
					<ellipse transform="matrix(0.8932 0.4497 -0.4497 0.8932 75.9672 -108.2786)" class="st11" cx="265.9" cy="105.8" rx="0.8" ry="0.9"/>
				
					<ellipse transform="matrix(0.8932 0.4497 -0.4497 0.8932 75.9479 -107.1691)" class="st11" cx="263.5" cy="106.3" rx="0.8" ry="0.9"/>
				
					<ellipse transform="matrix(0.8932 0.4497 -0.4497 0.8932 74.6617 -106.7842)" class="st11" cx="262.1" cy="103.8" rx="0.8" ry="0.9"/>
				
					<ellipse transform="matrix(0.8931 0.4498 -0.4498 0.8931 75.4496 -106.5177)" class="st11" cx="261.9" cy="105.5" rx="0.8" ry="0.9"/>
				<path class="st11" d="M264.5,107.9c-1.2,0.4-0.2,0.9-0.2,0.9c6.5,1.2,10.6,0.3,10.6,0.3c0.9-0.5-0.1-0.7-0.1-0.7s-1,0-2.2-0.5"
					/>
				<path class="st11" d="M263.2,111.4c-0.5-1,0.7-1.3,0.7-1.3s4.1,1.3,8,0.9"/>
				
					<ellipse transform="matrix(0.8931 0.4498 -0.4498 0.8931 78.1385 -106.0825)" class="st11" cx="262.3" cy="111.4" rx="0.8" ry="0.9"/>
				
					<ellipse transform="matrix(0.8932 0.4497 -0.4497 0.8932 77.806 -105.3219)" class="st11" cx="260.6" cy="111.1" rx="0.8" ry="0.9"/>
				
					<ellipse transform="matrix(0.8931 0.4499 -0.4499 0.8931 77.2616 -105.8558)" class="st11" cx="261.3" cy="109.6" rx="0.8" ry="0.9"/>
				
					<ellipse transform="matrix(0.8931 0.4499 -0.4499 0.8931 76.7928 -105.3289)" class="st11" cx="260" cy="108.9" rx="0.8" ry="0.9"/>
				
					<ellipse transform="matrix(0.8931 0.4498 -0.4498 0.8931 76.409 -104.6558)" class="st11" cx="258.5" cy="108.5" rx="0.8" ry="0.9"/>
				
					<ellipse transform="matrix(0.8932 0.4497 -0.4497 0.8932 76.5064 -106.0904)" class="st11" cx="261.6" cy="108" rx="0.8" ry="0.9"/>
				<path class="st11" d="M276.8,121.1c8.6-3.3,8.3-9.1,8.3-9.1c-3.6-0.9-7.8,7.2-7.8,7.2"/>
				<path class="st11" d="M263.9,114.7c-2.9-1.2-3.5,0-3.5,0c-0.5-0.5,0.1-1.5,0.1-1.5c1-0.6,3,0.1,3,0.1c1.9,0.7,3.8,0.3,3.8,0.3
					c2.3-0.2,2.5-2.5,2.5-2.5"/>
				<path class="st11" d="M262.9,117.5c1.3-1.3,2.5-1.5,2.5-1.5c1.3,0.2,2.3-0.3,2.3-0.3c1,0.1,2.5-1.9,2.5-1.9
					c2-2.6,4.4-2.6,4.4-2.6c-1.2,0.7-1.8,1.9-1.9,2.3"/>
				
					<ellipse transform="matrix(0.8931 0.4499 -0.4499 0.8931 78.6513 -104.5469)" class="st11" cx="259.3" cy="113.2" rx="0.8" ry="0.9"/>
				
					<ellipse transform="matrix(0.8932 0.4496 -0.4496 0.8932 77.7049 -104.0597)" class="st11" cx="258" cy="111.6" rx="0.8" ry="0.9"/>
				
					<ellipse transform="matrix(0.8931 0.4498 -0.4498 0.8931 79.0379 -103.3709)" class="st11" cx="257" cy="114.6" rx="0.8" ry="0.9"/>
				
					<ellipse transform="matrix(0.8931 0.4498 -0.4498 0.8931 80.4233 -102.8876)" class="st11" cx="256.7" cy="117.8" rx="0.8" ry="0.9"/>
				
					<ellipse transform="matrix(0.8931 0.4498 -0.4498 0.8931 79.624 -104.417)" class="st11" cx="259.6" cy="115.4" rx="0.8" ry="0.9"/>
				
					<ellipse transform="matrix(0.8931 0.4499 -0.4499 0.8931 80.4887 -104.1348)" class="st11" cx="259.3" cy="117.3" rx="0.8" ry="0.9"/>
				
					<ellipse transform="matrix(0.8932 0.4497 -0.4497 0.8932 81.544 -105.4508)" class="st11" cx="262.8" cy="118.9" rx="0.8" ry="0.9"/>
				
					<ellipse transform="matrix(0.8933 0.4495 -0.4495 0.8933 81.3261 -104.1009)" class="st11" cx="259.9" cy="119.2" rx="0.8" ry="0.9"/>
				
					<ellipse transform="matrix(0.8932 0.4496 -0.4496 0.8932 81.4983 -103.1117)" class="st11" cx="257.8" cy="120" rx="0.8" ry="0.9"/>
			</g>
			<g>
				<path class="st11" d="M273.7,132.4c-1.4,0.5-0.8-0.7-0.8-0.7c5.2-5.5,9.6-7.5,9.6-7.5c1.1-0.1,0.4,0.8,0.4,0.8s-0.9,0.7-1.6,1.9
					"/>
				<path class="st11" d="M270.1,130.1c0.2,1.2,1.5,0.7,1.5,0.7s2.9-4,6.7-6.3"/>
				<ellipse transform="matrix(0.448 -0.894 0.894 0.448 31.7602 312.9022)" class="st11" cx="269.3" cy="130.7" rx="1" ry="1"/>
				<ellipse transform="matrix(0.4481 -0.894 0.894 0.4481 29.6892 312.4334)" class="st11" cx="267.9" cy="132.2" rx="1" ry="1"/>
				<ellipse transform="matrix(0.4481 -0.894 0.894 0.4481 29.8184 314.4377)" class="st11" cx="269.6" cy="133.1" rx="1" ry="1"/>
				<ellipse transform="matrix(0.4481 -0.894 0.894 0.4481 28.0262 314.6573)" class="st11" cx="268.9" cy="134.6" rx="1" ry="1"/>
				<ellipse transform="matrix(0.4481 -0.894 0.894 0.4481 26.1402 314.4417)" class="st11" cx="267.7" cy="136" rx="1" ry="1"/>
				
					<ellipse transform="matrix(0.4482 -0.8939 0.8939 0.4482 29.3551 316.3358)" class="st11" cx="270.9" cy="134.4" rx="1" ry="1"/>
				<path class="st11" d="M268.4,126.6c-1.9,3.1-3.2,2.4-3.2,2.4c-0.1,0.8,1.1,1.2,1.1,1.2c1.3-0.2,2.6-2.1,2.6-2.1
					c1.3-2,3.3-2.8,3.3-2.8c2.2-1.4,4,0.6,4,0.6"/>
				<path class="st11" d="M265.7,124.7c2.1,0.3,3.3-0.4,3.3-0.4c1.1-1,2.3-1.3,2.3-1.3c0.8-0.7,3.6,0,3.6,0c3.6,1.1,5.8-0.6,5.8-0.6
					c-1.5,0.2-3-0.5-3.3-0.8"/>
				
					<ellipse transform="matrix(0.4482 -0.8939 0.8939 0.4482 29.1334 309.5081)" class="st11" cx="265.3" cy="131.2" rx="1" ry="1"/>
				<ellipse transform="matrix(0.4481 -0.894 0.894 0.4481 26.9513 310.7375)" class="st11" cx="265.2" cy="133.5" rx="1" ry="1"/>
				
					<ellipse transform="matrix(0.4483 -0.8939 0.8939 0.4483 27.2257 306.8995)" class="st11" cx="262.2" cy="131.4" rx="1" ry="1"/>
				<ellipse transform="matrix(0.4483 -0.8939 0.8939 0.4483 28.2971 303.211)" class="st11" cx="259.8" cy="128.7" rx="1" ry="1"/>
				<ellipse transform="matrix(0.4481 -0.894 0.894 0.4481 30.4093 307.2337)" class="st11" cx="264.1" cy="129" rx="1" ry="1"/>
				
					<ellipse transform="matrix(0.4482 -0.8939 0.8939 0.4482 30.9697 304.9966)" class="st11" cx="262.5" cy="127.4" rx="1" ry="1"/>
				
					<ellipse transform="matrix(0.4484 -0.8938 0.8938 0.4484 35.4881 304.5951)" class="st11" cx="264.5" cy="123.5" rx="1" ry="1"/>
				
					<ellipse transform="matrix(0.4483 -0.8939 0.8939 0.4483 32.4396 303.0475)" class="st11" cx="261.7" cy="125.2" rx="1" ry="1"/>
				<ellipse transform="matrix(0.4484 -0.8938 0.8938 0.4484 30.472 301.211)" class="st11" cx="259.3" cy="125.9" rx="1" ry="1"/>
			</g>
			<path class="st11" d="M265.6,119.8c-0.9,0.8,0.1,0.9,0.1,0.9c5.5-1.3,8.6-3.5,8.6-3.5c0.6-0.8-0.3-0.6-0.3-0.6s-0.8,0.3-1.9,0.3"
				/>
			<path class="st11" d="M267.1,123.2c-0.8-0.7,0.1-1.4,0.1-1.4s4.3-0.4,7.7-2.2"/>
			<g>
				
					<ellipse transform="matrix(-0.9835 0.1808 -0.1808 -0.9835 547.0318 200.5886)" class="st11" cx="264.4" cy="125.2" rx="0.8" ry="0.9"/>
				
					<ellipse transform="matrix(-0.9835 0.181 -0.181 -0.9835 548.2366 203.7216)" class="st11" cx="264.8" cy="126.9" rx="0.8" ry="0.9"/>
				
					<ellipse transform="matrix(-0.9835 0.1811 -0.1811 -0.9835 551.9951 201.9768)" class="st11" cx="266.8" cy="126.2" rx="0.8" ry="0.9"/>
			</g>
			
				<ellipse transform="matrix(-0.9835 0.1808 -0.1808 -0.9835 533.4139 197.899)" class="st11" cx="257.7" cy="123.3" rx="0.8" ry="0.9"/>
			
				<ellipse transform="matrix(-0.9835 0.1808 -0.1808 -0.9835 537.3505 198.6459)" class="st11" cx="259.6" cy="123.8" rx="0.8" ry="0.9"/>
			
				<ellipse transform="matrix(-0.9834 0.1813 -0.1813 -0.9834 540.0092 196.5212)" class="st11" cx="261" cy="122.9" rx="0.8" ry="0.9"/>
			
				<ellipse transform="matrix(-0.9835 0.1811 -0.1811 -0.9835 543.5709 195.0186)" class="st11" cx="262.9" cy="122.3" rx="0.8" ry="0.9"/>
			
				<ellipse transform="matrix(-0.9835 0.1811 -0.1811 -0.9835 530.5109 194.2827)" class="st11" cx="256.4" cy="121.4" rx="0.8" ry="0.9"/>
			
				<ellipse transform="matrix(-0.9835 0.1811 -0.1811 -0.9835 540.0294 184.6153)" class="st11" cx="261.6" cy="117" rx="0.8" ry="0.9"/>
			
				<ellipse transform="matrix(-0.9835 0.1811 -0.1811 -0.9835 537.0759 193.0181)" class="st11" cx="259.7" cy="121" rx="0.8" ry="0.9"/>
			
				<ellipse transform="matrix(-0.9834 0.1812 -0.1812 -0.9834 540.6566 191.4406)" class="st11" cx="261.6" cy="120.4" rx="0.8" ry="0.9"/>
		</g>
	</g>
	<g>
		<polygon class="st12" points="304.5,87.7 304.1,87.4 303.9,87.1 303.9,86.8 304,86.4 304.2,85.9 304.1,85.6 303.9,85.4 
			303.6,85.2 303.1,85.2 302.7,85.3 302.4,85.7 302.3,86.2 302.4,86.6 302.4,86.9 302.3,87.1 302.1,87.2 301.9,87.2 301.7,87 
			301.5,86.7 301.3,86.1 301,85.6 300.5,85.5 300,85.8 299.9,86.3 299.9,86.8 300,87.1 300,87.3 299.8,87.4 299.6,87.4 299.4,87.2 
			299.3,86.9 299.2,86.5 298.9,86.2 298.4,86.2 298,86.5 297.9,87.1 297.9,87.7 297.9,88.2 297.7,88.6 297.4,89 297.2,89.2 
			297,89.4 296.8,89.7 296.5,90.1 296.3,90.5 296.2,90.9 296.2,91.4 296.3,91.8 295.9,91.9 295.6,91.9 295.4,91.9 295,91.9 
			294.7,91.8 294.3,91.8 293.8,91.8 293.2,91.8 292.6,91.9 292.1,92.2 291.8,92.7 291.6,93.3 291.6,93.9 291.8,94.4 292.2,94.7 
			292.9,94.7 293.7,94.7 294.3,94.7 294.8,94.8 295.2,95 295.5,95.2 295.6,95.3 295.7,95.4 295.8,95.5 294.4,96.3 293.4,97.2 
			292.7,98.1 292.2,99 291.8,99.8 291.7,100.5 291.6,101 291.6,101.2 291.7,101.5 291.8,101.8 291.8,102.3 291.6,103.1 291,105.2 
			290.5,107.3 290.3,109.3 290.2,111.2 290.2,113 290.2,114.5 290.4,115.8 290.5,116.7 290.7,117.5 290.9,118.2 291.2,118.9 
			291.5,119.5 291.9,120 292.3,120.4 292.7,120.8 293.1,121.1 293.6,121.3 294.1,121.3 294.7,121.3 295.3,121.1 295.8,120.9 
			296.3,120.8 296.6,120.6 296.8,120.4 297,120.3 297.1,120.1 297.2,119.9 297.3,119.8 297.5,119.7 297.7,119.6 297.9,119.6 
			298.3,119.8 298.8,119.9 299.4,120 299.9,120 300.5,119.9 301.1,119.8 301.7,119.7 302.3,119.4 302.8,119.2 303.4,119 
			303.9,118.7 304.4,118.4 304.8,118.2 305.1,117.9 305.4,117.7 305.6,117.5 305.7,117.3 305.9,117 306.1,116.7 306.4,116.5 
			306.7,116.2 307,115.9 307.4,115.7 307.9,115.4 308.3,115.2 308.9,114.9 309.3,114.6 309.8,114.4 310.3,114.1 310.7,113.9 
			311.1,113.6 311.5,113.3 311.9,113 312.2,112.7 312.5,112.3 312.7,111.9 312.9,111.5 313.1,111 313.3,110.5 313.5,110 
			313.9,109.5 314.4,108.4 314.5,107.1 314.4,105.8 314.2,104.7 314.1,103.8 314.1,102.8 314.2,101.8 314.1,100.9 313.8,100.1 
			313.3,99.5 312.7,98.6 312.3,97.5 312,96.6 311.5,95.8 311,95.2 310.7,94.9 310.4,94.6 310.1,94.1 310,93.5 310.1,92.9 
			310.4,92.4 310.7,92.1 311,91.8 311.2,91.3 312.7,91 313.5,90.6 314.1,90 314.3,89.4 314.2,88.8 313.9,88.2 313.5,87.8 
			312.8,87.6 312.1,87.6 311.8,87.7 311.4,87.8 311,88 310.6,88.1 310.2,88.2 309.8,88.3 309.5,88.3 309.3,88.4 309.1,88.4 
			308.8,88.3 308.5,88.3 308,88.3 307.6,88.4 307.1,88.5 306.6,88.7 306,89 305.7,88.6 305.4,88.3 304.9,88 304.5,87.7 		"/>
		<polygon class="st9" points="297.1,98.3 297.4,98.3 297.7,98.6 297.8,99 297.7,99.3 297.5,99.5 297.4,99.6 297.3,99.9 
			297.1,100.2 296.9,100.5 296.8,100.8 296.7,101.2 296.6,101.7 296.4,102.7 296.5,103.8 296.6,104.6 297,105.1 297.2,105.2 
			297.5,105.4 297.7,105.6 297.9,105.7 298.1,105.8 298.4,105.8 298.6,105.8 298.8,105.7 299,105.7 299.2,105.7 299.4,105.7 
			299.6,105.8 300.1,106.1 300.4,106.7 300.6,107.3 300.5,108 300.2,107.6 300,107.3 299.9,106.9 299.7,106.5 299.7,106.4 
			299.6,106.4 299.5,106.3 299.4,106.3 299,106.2 298.7,106.3 298.4,106.4 298.1,106.3 298.3,106.5 298.5,106.6 298.7,106.8 
			298.8,107 298.9,107.3 298.9,107.6 298.9,108 298.9,108.3 298.6,107.8 298.3,107.3 298,106.8 297.6,106.4 297.4,106.1 
			297.1,105.9 296.9,105.8 296.6,105.6 296.6,106 296.5,106.3 296.4,106.6 296.4,107 296.4,107.3 296.5,107.5 296.6,107.8 
			296.8,108 296.9,108 297,108.1 297.1,108.1 297.3,108.2 297.4,108.2 297.6,108.2 297.8,108.2 298,108.2 297.8,108.2 297.5,108.4 
			297.3,108.5 297.1,108.6 296.8,108.6 296.6,108.6 296.4,108.5 296.2,108.3 296.5,108.9 296.7,109.6 297,109.8 297.3,110 
			297.6,110 298,109.8 298.2,109.6 298.4,109.4 298.6,109.2 298.9,109.2 299.1,109.2 299.4,109.3 299.6,109.5 299.8,109.7 
			300,109.8 300.2,109.9 300.4,109.9 300.6,109.9 300.8,109.9 301,109.8 301.3,109.8 301.5,109.8 301.3,109.9 301.1,110 
			300.9,110.1 300.6,110.2 300.4,110.2 300.2,110.3 300,110.3 299.7,110.2 299.5,110.2 299.3,110.1 299.1,109.9 298.9,109.9 
			298.7,109.9 298.6,110 298.4,110.2 298.3,110.3 298,110.4 297.8,110.5 297.6,110.5 297.4,110.5 297.1,110.4 296.9,110.4 
			296.6,110.3 296.4,110.1 296.5,110.1 296.5,110.1 296.4,110.3 296.6,110.6 296.8,110.9 297,111.1 297.1,111.2 297.3,111.3 
			297.5,111.3 297.8,111.3 298,111.3 298.2,111.2 298.4,111.1 298.7,111 298.8,111 299,111 299.2,111.1 299.3,111.1 299.5,111.2 
			299.7,111.4 299.8,111.6 300,111.8 300.2,111.9 300.5,111.9 300.7,111.9 301,111.9 300.7,112 300.4,112.1 300.1,112.1 
			299.9,112.1 299.7,112 299.5,111.8 299.3,111.7 299.1,111.6 298.8,111.6 298.5,111.6 298.2,111.7 297.9,111.8 298.2,112 
			298.3,112.3 298.5,112.7 298.6,113.1 298.7,113.3 298.9,113.4 299.1,113.5 299.3,113.6 299.5,113.7 299.7,113.6 300,113.6 
			300.2,113.4 299.9,113.7 299.6,113.9 299.3,113.9 298.9,113.9 298.5,113.7 298.3,113.3 298.1,112.8 297.9,112.3 297.8,112.2 
			297.6,112.1 297.5,112 297.3,111.9 297.2,111.8 297,111.8 297.1,112.1 297.1,112.4 297,112.7 297,113.1 297,113.6 297.1,114.1 
			297.2,114.4 297.3,114.7 297.5,114.9 297.7,115 297.8,115 297.9,115.1 298,115.1 298.1,115.1 298.4,115.1 298.7,115.1 299,115.1 
			299.4,115.1 299.5,115.1 299.6,115.2 299.7,115.3 299.8,115.4 299.9,115.6 299.9,115.8 299.8,116 299.7,116.2 299.6,116 
			299.5,115.9 299.4,115.7 299.3,115.6 299.1,115.6 298.8,115.6 298.6,115.6 298.3,115.6 298.1,115.5 297.9,115.5 297.6,115.5 
			297.4,115.4 297.2,115.3 297.1,115.2 297.3,115.6 297.5,116 297.8,116.4 298.1,116.8 298.3,117 298.5,117.3 298.7,117.5 
			298.9,117.8 298.8,117.9 298.8,118 298.5,118.1 298.2,118 298,117.8 297.8,117.6 297.3,116.9 296.9,116.2 296.7,115.4 
			296.5,114.6 296.3,114.9 296.2,115.3 296.2,115.7 296.3,116.1 296.4,116.5 296.6,116.8 296.7,117 296.8,117.1 296.9,117.3 
			297,117.4 296.9,117.4 296.7,117.4 296.6,117.3 296.4,117.2 296.3,117 296.2,116.8 296.1,116.5 296,116.3 295.8,115.5 
			295.7,114.8 295.8,114.5 296.1,114.2 296.3,114 296.3,113.7 296.4,113 296.4,112.5 296.4,112.1 296.3,111.7 295.9,111.9 
			295.6,112.3 295.6,112.8 295.5,113.3 295.5,113.3 295.4,113.4 295.3,113.5 295.2,113.6 295,113.7 294.8,113.8 294.7,113.9 
			294.6,114.1 294.5,114.6 294.5,115.1 294.7,115.5 295.1,115.8 294.6,115.7 294.3,115.3 294.1,114.8 294.1,114.3 294.1,114 
			294.2,113.8 294.4,113.7 294.6,113.5 294.8,113.3 294.9,112.9 295,112.5 295,112.1 295.1,112 295.2,111.9 294.9,112 294.7,112 
			294.5,112.1 294.2,112.1 294,112.2 293.9,112.4 293.7,112.5 293.6,112.7 293.5,113 293.5,113.2 293.4,113.5 293.4,113.8 
			293.3,113.1 293.5,112.5 293.8,112 294.3,111.7 294.1,111.6 293.9,111.7 293.7,111.7 293.5,111.7 293.2,111.4 293.1,111.2 
			292.9,110.9 292.8,110.6 292.7,110.5 292.6,110.5 292.5,110.4 292.4,110.4 292.6,110.3 292.7,110.3 292.9,110.3 293,110.4 
			293.2,110.5 293.3,110.8 293.5,111 293.7,111.2 293.9,111.3 294.1,111.3 294.3,111.3 294.5,111.3 294.7,111.3 294.9,111.3 
			295.1,111.3 295.3,111.2 294.8,110.9 294.4,110.6 293.9,110.3 293.6,109.9 293.5,109.6 293.3,109.3 293.1,109 293,108.7 
			293,108.3 293.1,108 293.2,107.9 293.3,107.9 293.5,108.5 293.6,109.1 293.7,109.1 293.8,109.1 293.9,109.4 294.1,109.7 
			294.5,110.1 294.9,110.5 295.3,110.8 295.8,111.1 295.9,111.1 296,111.1 295.8,110.4 295.7,109.7 295.6,109.1 295.7,108.4 
			295.6,108.1 295.5,107.8 295.7,106.9 295.7,105.9 295.7,104.9 295.6,103.9 295.5,103.9 295.4,104 295.2,104 295.1,104.2 
			295.1,104.4 295,104.6 294.9,104.7 294.8,104.9 294.7,105.1 294.5,105.3 294.3,105.5 294.3,105.8 294.5,106.6 294.7,107.5 
			294.7,107.3 294.6,107.1 294.2,106.6 294,106.2 293.9,105.7 294,105.1 294.1,104.8 294.3,104.5 294.4,104.2 294.5,103.8 
			294.5,103.7 294.6,103.6 294.6,103.6 294.7,103.5 295,103.5 295.3,103.4 295.5,103.3 295.6,103.1 295.7,102.6 295.8,102.2 
			295.8,101.8 295.9,101.4 296.1,100.9 296.3,100.3 296.5,99.8 296.7,99.3 296.8,99.2 296.9,99.1 296.9,99 297,99 296.7,99.1 
			296.4,99.3 296,99.5 295.7,99.7 295.5,99.9 295.2,100.1 294.9,100.4 294.7,100.6 294.6,101.1 294.5,101.7 294.5,102.2 
			294.8,102.7 294.6,102.7 294.5,102.6 294.2,101.9 294.1,101.1 294.1,101.1 294.2,101 294.1,101.2 293.9,101.5 293.8,101.6 
			293.7,101.8 293.5,101.9 293.4,102.1 293.3,102.2 293.1,102.2 292.9,101.8 293,101.4 293.2,101.1 293.5,100.9 293.8,100.7 
			294,100.5 294.1,100.4 294.2,100.2 294.4,100.1 294.5,100 294.8,99.7 295.1,99.4 295.4,99.2 295.7,99 296,98.8 296.4,98.6 
			296.7,98.4 297.1,98.3 		"/>
		<path class="st9" d="M295.8,95.5l0.6,0.9l0.3,0.7l0.1,0.5l-0.1,0.3l-0.1,0.3l-0.1,0.3l0.1,0.3l0.3,0.4l0.6,0.3l0.8,0.2l1,0l1-0.1
			l1-0.3l0.8-0.4l0.6-0.5l0.2-0.5l0-0.5l-0.2-0.4l-0.3-0.4l-0.3-0.3l-0.3-0.2l-0.3-0.2l-0.2-0.2l0-0.2l0.2-1.1l-0.3-1.2l-0.6-1.1
			l-0.7-0.8l-0.2-0.1l-0.3,0.1l-0.3,0.1l-0.4,0.2l-0.4,0.2l-0.5,0.2l-0.7,0.2l-0.8,0.1 M295.8,95.5l0.6,0.9l0.3,0.7l0.1,0.5
			l-0.1,0.3l-0.1,0.3l-0.1,0.3l0.1,0.3l0.3,0.4l0.6,0.3l0.8,0.2l1,0l1-0.1l1-0.3l0.8-0.4l0.6-0.5l0.2-0.5l0-0.5l-0.2-0.4l-0.3-0.4
			l-0.3-0.3l-0.3-0.2l-0.3-0.2l-0.2-0.2l0-0.2l0.2-1.1l-0.3-1.2l-0.6-1.1l-0.7-0.8l-0.2-0.1l-0.3,0.1l-0.3,0.1l-0.4,0.2l-0.4,0.2
			l-0.5,0.2l-0.7,0.2l-0.8,0.1 M302.7,97.8l0.3,0.1l0.5,0.1l0.5-0.1l0-0.5l-0.1-0.4l0.1-0.5l0.2-0.5l0.3-0.5l0.4-0.4l0.4-0.3
			l0.5-0.2l0.6,0l0.4-0.8l0.1-0.8l-0.1-0.9l0-1.1l0-0.6l-0.2-0.5l-0.2-0.4L306,89 M302.7,97.8l0.3,0.1l0.5,0.1l0.5-0.1l0-0.5
			l-0.1-0.4l0.1-0.5l0.2-0.5l0.3-0.5l0.4-0.4l0.4-0.3l0.5-0.2l0.6,0l0.4-0.8l0.1-0.8l-0.1-0.9l0-1.1l0-0.6l-0.2-0.5l-0.2-0.4L306,89
			"/>
		<polygon class="st9" points="302.9,97 303.2,97 303.5,97.1 303.7,97.4 303.9,97.9 304.1,98.2 304.4,98.5 304.7,98.9 305.1,99.3 
			305.5,99.7 306,100.1 306.3,100.3 306.7,100.5 307.1,100.6 307.5,100.8 308,101 308.6,101.2 309.2,101.4 309.7,101.7 310.3,101.9 
			310.7,102.1 311.1,102.3 311.5,102.6 311.9,102.9 312.2,103.2 312.6,103.5 312.8,103.7 313,104 313,104.3 313,104.6 312.8,104.7 
			312.6,104.6 312.4,104.4 312.2,104 311.9,103.6 311.6,103.3 311.4,103.2 311.2,103.3 311.1,103.5 311,103.9 311.1,104.4 
			311.4,105.1 311.7,106.1 311.8,107.2 311.3,108.4 310.8,109.5 310.8,110.4 310.9,111 311,111.2 311,111.4 310.9,111.6 
			310.8,111.8 310.7,111.5 310.4,110.9 310.3,110.3 310.3,109.8 310.3,109.4 310.1,110.2 310.1,111.1 310,111.9 309.7,112.5 
			309.3,112.8 309.2,112.8 309.2,112.5 309.4,112.2 309.5,111.8 309.5,111.3 309.5,110.9 309.6,110.5 309.4,110.7 309.3,111 
			309.2,111.3 309.1,111.6 309,112 308.8,112.3 308.4,112.7 307.9,113 308.1,112.8 308.4,112.4 308.7,111.6 308.8,110.8 
			308.5,110.8 308.2,111.5 308,112 307.8,112.5 307.7,112.8 307.6,113.1 307.4,113.4 307.2,113.7 306.9,113.9 307.4,113.3 
			307.5,112.6 307.5,112 307.7,111.4 307.6,111.5 307.3,111.7 307,112.1 306.9,112.7 306.9,112.8 306.9,113 306.7,113.2 
			306.3,113.6 305.9,113.8 305.6,114.1 305.4,114.4 305.2,114.8 305,115 304.8,115.2 304.6,115.4 304.5,115.6 304.3,115.7 
			304.2,115.8 304.1,115.9 304,116 303.9,116 304.1,115.8 304.4,115.4 304.6,115.1 304.8,114.8 305,114.4 305.3,114.1 305.5,113.8 
			305.8,113.6 306,113.3 306.2,113.1 306.3,112.7 306.2,112.5 305.9,112.6 305.5,112.9 305.1,113.2 304.9,113.5 304.7,113.8 
			304.4,114 304,114.1 303.6,114 303.2,114 303.1,113.8 303,113.8 303.1,113.8 303.4,113.8 303.7,113.8 304,113.7 304.3,113.5 
			304.6,113.2 304.9,112.9 305.1,112.6 305.3,112.4 305.2,112.2 304.9,112 304.6,111.9 304.5,111.8 304.3,111.8 304.1,111.9 
			303.9,112 303.8,112.1 303.5,112.3 303.3,112.4 303.1,112.4 302.9,112.4 302.7,112.4 302.5,112.2 302.3,112.1 302.3,111.9 
			302.3,111.7 302.4,111.6 302.5,111.4 302.5,111.8 302.7,112 302.8,112 302.9,112.1 303,112.1 303.1,112 303.2,111.9 303.2,111.9 
			303.3,111.9 303.4,111.8 303.4,111.8 303.5,111.7 303.8,111.6 304.1,111.5 304.4,111.4 304.7,111.5 304.9,111.5 305.2,111.7 
			305.4,111.8 305.6,112 305.8,112.1 306.1,112.1 306.3,112 306.5,111.9 306.7,111.7 306.9,111.5 307.1,111.2 307.3,111.1 
			307.2,111.1 307,111.1 306.8,111.2 306.6,111.2 306.4,111.2 306.2,111.2 306,111.1 305.9,111.1 305.6,111 305.3,110.9 
			305.1,110.8 304.9,110.8 304.7,110.8 304.5,110.8 304.2,110.9 304,111 304.2,110.8 304.4,110.6 304.7,110.5 305,110.5 
			305.4,110.6 305.8,110.7 306.2,110.7 306.5,110.7 306.9,110.7 307.3,110.7 307.7,110.6 308.1,110.5 308.2,110.4 308.3,110.3 
			308.4,110.3 308.5,110.2 308.2,110.3 307.9,110.3 307.6,110.3 307.3,110.3 306.7,110.2 306.3,109.8 305.9,109.4 305.6,108.9 
			305.8,109 306,109.1 306.2,109.3 306.5,109.4 306.7,109.5 306.9,109.7 307.1,109.8 307.3,109.9 307.5,110 307.6,110 307.7,110 
			307.9,110 308.1,110 308.3,110 308.5,110 308.7,110 308.9,109.9 309.1,109.9 309.3,109.8 309.5,109.7 309.7,109.6 309.9,109.5 
			310,109.3 310.1,109.1 310.2,109 310.3,108.8 310.3,108.7 310.3,108.5 310.1,108.7 309.9,108.9 309.6,109 309.4,109.1 
			309.1,109.2 308.8,109.2 308.5,109.2 308.2,109.2 308.1,109.2 308,109.2 307.8,109.1 307.7,109 307.9,109 308.1,108.9 
			308.4,108.9 308.6,108.9 308.8,108.9 309.1,108.8 309.3,108.7 309.5,108.6 309.7,108.5 309.9,108.4 310.1,108.3 310.3,108.1 
			310.4,108.1 310.6,108 310.8,108 310.9,107.8 311,107.7 311,107.6 311.1,107.4 311.2,107.3 311.2,107 311.3,106.6 311.3,106.2 
			311.1,105.8 310.9,105.3 310.6,104.7 310.4,104.1 310.3,103.6 310.4,103.1 310.4,102.8 310.2,102.6 309.9,102.4 309.4,102.3 
			309,102.3 308.7,102.2 308.4,102 308.5,102.3 308.5,102.7 308.5,103.1 308.7,103.4 309.1,103.7 309.4,104 309.7,104.4 
			309.8,104.9 309.7,104.6 309.5,104.5 309.3,104.3 309.1,104.3 308.9,104.2 308.6,104 308.4,103.8 308.2,103.6 308,103.1 
			308,102.5 308,102.1 307.8,101.7 307.5,101.5 307.1,101.3 306.7,101.1 306.3,100.9 306.3,101.3 306.5,101.7 306.7,102.1 
			306.9,102.3 307.1,102.7 307.2,103 307.2,103.4 307.1,103.9 307.1,104.3 307.2,104.7 307.4,105 307.7,105.1 307.9,105.2 
			308.2,105.2 308.3,105.3 308.4,105.3 308.5,105.4 308.6,105.3 308.8,105.3 308.9,105.3 308.8,105.3 308.6,105.4 308.5,105.4 
			308.3,105.4 308.2,105.4 308,105.4 307.8,105.4 307.7,105.4 307.4,105.4 307.2,105.3 307,105.1 306.8,104.9 306.6,104.7 
			306.6,104.4 306.6,104.1 306.6,103.8 306.6,103.4 306.6,103.1 306.5,102.7 306.3,102.3 306,101.9 305.8,101.5 305.7,101.1 
			305.7,100.7 305.7,100.7 305.6,100.8 305.4,100.9 305.4,100.9 305.2,101.2 305.1,101.4 304.9,101.7 304.7,101.9 304.5,102 
			304.4,102.2 304.4,102.5 304.4,102.7 304.5,103.1 304.5,103.5 304.5,103.9 304.4,104.3 304.2,104.6 304,104.8 303.7,104.9 
			303.4,105 303.6,104.7 303.8,104.4 304,104 304.1,103.7 304.1,103.1 303.9,102.6 303.8,102.4 303.7,102.3 303.5,102.1 303.4,102 
			303.1,101.8 302.8,101.7 302.5,101.7 302.2,101.9 302.1,102 302,102.2 301.9,102.4 302,102.6 301.8,102.3 301.7,102 301.8,101.7 
			302,101.4 302.2,101.3 302.4,101.2 302.6,101.3 302.9,101.3 303.1,101.4 303.4,101.5 303.6,101.6 303.8,101.7 304.1,101.7 
			304.3,101.6 304.4,101.4 304.6,101.2 304.8,101 304.8,100.8 304.9,100.5 304.9,100.3 304.9,100 304.6,99.7 304.3,99.5 304,99.1 
			303.7,98.7 303.5,98.3 303.3,98.2 303.1,98 303,97.8 302.9,97.6 302.9,97.6 302.8,97.4 302.8,97.2 302.9,97 		"/>
	</g>
</g>
</svg>
