<?xml version="1.0" encoding="utf-8"?>
<!-- Generator: Adobe Illustrator 19.0.1, SVG Export Plug-In . SVG Version: 6.00 Build 0)  -->
<svg version="1.1" id="Layer_1" xmlns="http://www.w3.org/2000/svg" xmlns:xlink="http://www.w3.org/1999/xlink" x="0px" y="0px"
	 viewBox="283 -126.1 625.5 293.1" style="enable-background:new 283 -126.1 625.5 293.1;" xml:space="preserve">
<style type="text/css">
	.st0{fill:none;}
	.st1{fill:#FFFFFF;}
	.st2{font-family:'HelveticaNeue-Medium';}
	.st3{font-size:36px;}
	.st4{fill:none;stroke:#BCBA40;stroke-width:4;stroke-linecap:round;stroke-miterlimit:10;stroke-dasharray:12.0321,12.0321;}
	.st5{fill:none;stroke:#BCBA40;stroke-width:4;stroke-miterlimit:10;}
	.st6{fill:none;stroke:#BCBA40;stroke-width:4;stroke-linecap:round;stroke-linejoin:round;stroke-miterlimit:10;}
	.st7{fill:#BCBA40;}
</style>
<g id="Layer_1_1_">
	<g>
		<rect x="503.8" y="89" class="st0" width="175.9" height="33.5"/>
		<text transform="matrix(1 0 0 1 503.7979 114.6939)" class="st1 st2 st3">Nearpod</text>
		<g>
			<path class="st4" d="M867,141.9H316.5c-6.6,0-12-5.4-12-12v-230c0-6.6,5.4-12,12-12H867c6.6,0,12,5.4,12,12v230
				C879,136.5,873.6,141.9,867,141.9z"/>
		</g>
	</g>
</g>
<g id="Layer_2">
	<g>
		<rect x="504.4" y="-78.6" class="st5" width="138.1" height="98.1"/>
		<g>
			<line class="st6" x1="572.9" y1="23.4" x2="535.6" y2="70.8"/>
			<line class="st6" x1="610.7" y1="70.8" x2="572.9" y2="23.4"/>
			<rect x="565.9" y="19.4" class="st7" width="14" height="10.1"/>
		</g>
		<rect x="499.1" y="-89" class="st7" width="148.1" height="12.9"/>
	</g>
</g>
</svg>
