<?xml version="1.0" encoding="utf-8"?>
<!-- Generator: Adobe Illustrator 19.0.1, SVG Export Plug-In . SVG Version: 6.00 Build 0)  -->
<svg version="1.1" xmlns="http://www.w3.org/2000/svg" xmlns:xlink="http://www.w3.org/1999/xlink" x="0px" y="0px"
	 viewBox="0 0 625.5 293.1" style="enable-background:new 0 0 625.5 293.1;" xml:space="preserve">
<style type="text/css">
	.st0{fill:none;}
	.st1{fill:#FFFFFF;}
	.st2{font-family:'HelveticaNeue-Medium';}
	.st3{font-size:36px;}
	.st4{fill:none;stroke:#BCBA40;stroke-width:4;stroke-linecap:round;stroke-miterlimit:10;stroke-dasharray:12.0321,12.0321;}
	.st5{fill:none;stroke:#BCBA40;stroke-miterlimit:10;}
	.st6{fill:#BCBA40;stroke:#BCBA40;stroke-miterlimit:10;}
	.st7{fill-rule:evenodd;clip-rule:evenodd;fill:#BCBA40;}
	.st8{fill:#BCBA40;}
</style>
<g id="Layer_1">
	<g>
		<rect x="150.8" y="215.1" class="st0" width="287.3" height="36"/>
		<text transform="matrix(1 0 0 1 150.8093 240.7939)" class="st1 st2 st3">Primal Pictures</text>
		<g>
			<path class="st4" d="M584,268H33.5c-6.6,0-12-5.4-12-12v-230c0-6.6,5.4-12,12-12H584c6.6,0,12,5.4,12,12v230
				C596,262.6,590.6,268,584,268z"/>
		</g>
	</g>
</g>
<g id="Layer_2">
	<path class="st5" d="M341,143.7c0,6.3-5.1,11.3-11.4,11.3h-91.1c-6.3,0-11.4-5.1-11.4-11.3V97.1c0-6.3,5.1-11.3,11.4-11.3h91.1
		c6.3,0,11.4,5.1,11.4,11.3V143.7z"/>
	<g>
		<path class="st6" d="M325.5,163.1h13.7c0.3,0,0.5,0,0.7,0.1v-5.3H228.3v5.3c0.2,0,0.5-0.1,0.7-0.1h13.7c3.1,0,5.7,2.5,5.7,5.7v4.4
			c0,3.1-2.5,5.7-5.7,5.7H229c-0.3,0-0.5,0-0.7-0.1v5.3h111.6v-5.3c-0.2,0-0.5,0.1-0.7,0.1h-13.7c-3.1,0-5.7-2.5-5.7-5.7v-4.4
			C319.8,165.6,322.3,163.1,325.5,163.1z M280.5,173.2c0,3.1-2.5,5.7-5.7,5.7h-13.7c-3.1,0-5.7-2.5-5.7-5.7v-4.4
			c0-3.1,2.6-5.7,5.7-5.7h13.7c3.1,0,5.7,2.5,5.7,5.7V173.2z M312.7,173.2c0,3.1-2.5,5.7-5.7,5.7h-13.7c-3.1,0-5.7-2.5-5.7-5.7v-4.4
			c0-3.1,2.5-5.7,5.7-5.7H307c3.1,0,5.7,2.5,5.7,5.7V173.2z"/>
		<path class="st6" d="M325.5,61.9h13.7c0.3,0,0.5,0,0.7,0.1v-5.3H228.3v5.3c0.2,0,0.5-0.1,0.7-0.1h13.7c3.1,0,5.7,2.5,5.7,5.7V72
			c0,3.1-2.5,5.7-5.7,5.7H229c-0.3,0-0.5,0-0.7-0.1v5.3h111.6v-5.3c-0.2,0-0.5,0.1-0.7,0.1h-13.7c-3.1,0-5.7-2.5-5.7-5.7v-4.4
			C319.8,64.4,322.3,61.9,325.5,61.9z M280.5,72c0,3.1-2.5,5.7-5.7,5.7h-13.7c-3.1,0-5.7-2.5-5.7-5.7v-4.4c0-3.1,2.6-5.7,5.7-5.7
			h13.7c3.1,0,5.7,2.5,5.7,5.7V72z M312.7,72c0,3.1-2.5,5.7-5.7,5.7h-13.7c-3.1,0-5.7-2.5-5.7-5.7v-4.4c0-3.1,2.5-5.7,5.7-5.7H307
			c3.1,0,5.7,2.5,5.7,5.7V72z"/>
	</g>
	<circle class="st7" cx="331.3" cy="95.8" r="2.8"/>
	<path class="st7" d="M300.2,111.1v3.1c0,1.4,1.1,2.6,2.6,2.6h31.5l-10.8-10.7c-0.9-0.9-2.4-0.9-3.3,0l-2.3,2.3l-5.8-5.7
		c-0.9-0.9-2.5-0.9-3.4,0L300.2,111.1z"/>
	<path class="st5" d="M370.4,167.4c0,12.7-7.6,22.9-17,22.9H217.2c-9.4,0-17-10.3-17-22.9V73.3c0-12.7,7.6-22.9,17-22.9h136.2
		c9.4,0,17,10.3,17,22.9V167.4z"/>
	<g>
		<g>
			<path class="st5" d="M252.7,142c0,0.8-0.7,1.4-1.5,1.4h-3.7c-0.8,0-1.5-0.6-1.5-1.4v-28.4c0-0.8,0.7-1.4,1.5-1.4h3.7
				c0.8,0,1.5,0.6,1.5,1.4V142z"/>
			<path class="st5" d="M263.2,142c0,0.8-0.7,1.4-1.5,1.4H258c-0.8,0-1.5-0.6-1.5-1.4v-28.4c0-0.8,0.7-1.4,1.5-1.4h3.7
				c0.8,0,1.5,0.6,1.5,1.4V142z"/>
			<path class="st5" d="M273.6,142c0,0.8-0.7,1.4-1.5,1.4h-3.7c-0.8,0-1.5-0.6-1.5-1.4v-28.4c0-0.8,0.7-1.4,1.5-1.4h3.7
				c0.8,0,1.5,0.6,1.5,1.4V142z"/>
			<path class="st5" d="M284,142c0,0.8-0.7,1.4-1.5,1.4h-3.7c-0.8,0-1.5-0.6-1.5-1.4v-28.4c0-0.8,0.7-1.4,1.5-1.4h3.7
				c0.8,0,1.5,0.6,1.5,1.4V142z"/>
			<path class="st5" d="M294.5,142c0,0.8-0.7,1.4-1.5,1.4h-3.7c-0.8,0-1.5-0.6-1.5-1.4v-28.4c0-0.8,0.7-1.4,1.5-1.4h3.7
				c0.8,0,1.5,0.6,1.5,1.4V142z"/>
		</g>
		<path class="st5" d="M247.5,111.5c-3.3,0-4.7-1.1-3-2.4l22.8-18c1.7-1.3,4.4-1.3,6.1,0l22.8,18c1.7,1.3,0.3,2.4-3,2.4H247.5z"/>
		<path class="st5" d="M296.5,144c1.5,0,2.6,0.7,2.6,1.5v3.7c0,0.8-1.2,1.5-2.6,1.5h-52.4c-1.5,0-2.6-0.7-2.6-1.5v-3.7
			c0-0.8,1.2-1.5,2.6-1.5H296.5z"/>
		<g>
			<rect x="259.8" y="148.3" class="st8" width="20.9" height="1.4"/>
			<rect x="261.8" y="146.6" class="st8" width="16.9" height="1.4"/>
			<rect x="264.6" y="144.9" class="st8" width="11.4" height="1.4"/>
		</g>
	</g>
</g>
</svg>
