<?xml version="1.0" encoding="utf-8"?>
<!-- Generator: Adobe Illustrator 19.0.1, SVG Export Plug-In . SVG Version: 6.00 Build 0)  -->
<svg version="1.1" xmlns="http://www.w3.org/2000/svg" xmlns:xlink="http://www.w3.org/1999/xlink" x="0px" y="0px"
	 viewBox="0 0 98.6 95.1" style="enable-background:new 0 0 98.6 95.1;" xml:space="preserve">
<style type="text/css">
	.st0{fill:none;stroke:#FFFFFF;stroke-width:4;stroke-miterlimit:10;}
	.st1{fill:#3A3A3A;}
	.st2{fill:none;stroke:#FFFFFF;stroke-width:2;stroke-linecap:round;stroke-linejoin:round;}
	.st3{fill:#FFFFFF;}
	.st4{fill:#3A3A3A;stroke:#FFFFFF;stroke-width:2;stroke-miterlimit:10;}
	.st5{fill:none;stroke:#FFFFFF;stroke-width:2;stroke-miterlimit:10;}
</style>
<g id="Layer_5">
	<path class="st0" d="M87.4,60.6H11c-3.1,0-5.7-2.6-5.7-5.7V9.9c0-3.1,2.6-5.7,5.7-5.7h76.5c3.1,0,5.7,2.6,5.7,5.7v45.1
		C93.1,58,90.5,60.6,87.4,60.6z"/>
	<path class="st1" d="M87.1,61.3h-3c-0.4,0-0.8-0.3-0.8-0.7v0c0-0.4,0.3-0.8,0.8-0.8h3c0.4,0,0.7,0.3,0.7,0.8v0
		C87.8,61,87.5,61.3,87.1,61.3z"/>
	<path class="st1" d="M80.7,61.3h-3c-0.4,0-0.8-0.3-0.8-0.7v0c0-0.4,0.3-0.8,0.8-0.8h3c0.4,0,0.8,0.3,0.8,0.8v0
		C81.4,61,81.1,61.3,80.7,61.3z"/>
</g>
<g id="Layer_3">
	<g>
		<path class="st1" d="M70.9,60.1c0,14.9-12.4,27-27.8,27c-15.4,0-27.8-12.1-27.8-27c0-14.9,12.5-27,27.8-27
			C58.5,33.1,70.9,45.2,70.9,60.1L70.9,60.1z M70.9,60.1"/>
		<g>
			<path class="st2" d="M15.3,54.5h6.4c0.5,0,1,0.1,1.5,0.3c3-8.4,10.9-13.9,19.8-13.9c8.6,0,16.4,5.3,19.5,13.3
				c0.7-0.5,1.6-0.8,2.4-0.8h5.5C68.3,40,56.6,29.9,42.9,29.9C28.9,29.9,16.9,40.6,15.3,54.5z"/>
			<path class="st3" d="M20.1,48.7l1,0.5c4.5-7.8,12.9-12.6,21.9-12.6c9,0,17.4,4.8,21.9,12.6l1-0.5c-3.7-9.5-12.7-15.6-22.9-15.6
				C32.8,33.1,23.8,39.2,20.1,48.7z"/>
		</g>
		<path class="st4" d="M71.4,74.6h-6.2c-1.6,0-2.8-1.3-2.8-2.8V59.8c0-1.6,1.3-2.8,2.8-2.8h6.2c1.6,0,2.8,1.3,2.8,2.8v11.9
			C74.3,73.3,73,74.6,71.4,74.6z"/>
		<path class="st4" d="M21.5,75.3h-6.2c-1.6,0-2.8-1.3-2.8-2.8V60.6c0-1.6,1.3-2.8,2.8-2.8h6.2c1.6,0,2.8,1.3,2.8,2.8v11.9
			C24.3,74,23,75.3,21.5,75.3z"/>
		<path class="st5" d="M23.1,77.6c4.8,6,12.1,9.6,19.8,9.6c8.2,0,15.8-4,20.6-10.6 M60.6,73.1"/>
	</g>
</g>
</svg>
